<svg id="Ebene_1" data-name="Ebene 1" xmlns="http://www.w3.org/2000/svg" viewBox="0 0 1920 1080"><defs><style>.cls-1{fill:#00314f;}.cls-2{opacity:0.4;}.cls-3{fill:#fffd55;}.cls-4,.cls-5{fill:none;stroke-miterlimit:10;}.cls-4{stroke:#000;}.cls-5{stroke:#8c5f00;stroke-width:10px;}.cls-6{fill:#554c00;}.cls-7{fill:#b43200;}.cls-8{fill:#1543ff;}.cls-9{fill:#c5764e;}.cls-10{fill:#ba9e79;}.cls-11{fill:#a5794d;}.cls-12{fill:#88a2b0;}.cls-13{fill:#4e5e82;}.cls-14{fill:#fff;}</style></defs><title>circle_kepler</title><rect class="cls-1" width="1920" height="1080"/><circle class="cls-2" cx="1827.9" cy="431.28" r="11.34"/><circle class="cls-3" cx="107.24" cy="168.94" r="210.95"/><circle class="cls-4" cx="107.24" cy="168.94" r="346.57"/><circle class="cls-4" cx="107.24" cy="168.94" r="478.67"/><circle class="cls-4" cx="107.24" cy="168.94" r="630.59"/><circle class="cls-4" cx="107.24" cy="168.94" r="775.63"/><circle class="cls-4" cx="107.24" cy="168.94" r="944.54"/><circle class="cls-5" cx="1224.97" cy="186.01" r="59.98"/><circle class="cls-4" cx="107.24" cy="168.94" r="1116.56"/><circle class="cls-4" cx="107.24" cy="168.94" r="1311.69"/><circle class="cls-4" cx="107.24" cy="168.94" r="1518.8"/><circle class="cls-4" cx="107.24" cy="168.94" r="1740.22"/><circle class="cls-6" cx="436.84" cy="277.14" r="14.17"/><circle class="cls-7" cx="317.98" cy="599.87" r="22.68"/><circle class="cls-8" cx="733.04" cy="251.12" r="22.68"/><circle class="cls-9" cx="843.32" cy="413.39" r="21.26"/><circle class="cls-10" cx="1224.97" cy="186.01" r="45.01"/><circle class="cls-11" cx="802.69" cy="813.55" r="83.66"/><circle class="cls-12" cx="1343.69" cy="611.11" r="38.27"/><circle class="cls-13" cx="1579.31" cy="553.78" r="38.27"/><path class="cls-14" d="M353.37,344.17h-1.63V321.9L348.62,325l-1.15-1.2,3.55-3.56h2.35Z"/><path class="cls-14" d="M358.51,340.81a1.68,1.68,0,0,1,0,3.36,1.68,1.68,0,1,1,0-3.36Z"/><path class="cls-14" d="M412.18,320.41v23.14h-1.64c0-1.83.1-3.65.1-5.43a11.59,11.59,0,0,1-10.08,6.05,12,12,0,0,1,0-24,11.43,11.43,0,0,1,10.08,6.05c0-2-.05-3.89-.1-5.81Zm-1.64,11.76c0-5.81-4.51-10.66-10-10.66s-9.89,4.85-9.89,10.66,4.37,10.61,9.89,10.61S410.54,338,410.54,332.17Z"/><path class="cls-14" d="M419.61,311.19V337.4h-1.68V311.19ZM418,337.4a6.71,6.71,0,0,0,6.67,6.77v-1.44a5.22,5.22,0,0,1-5-5.38Z"/><path class="cls-14" d="M431.61,311.19V337.4h-1.68V311.19ZM430,337.4a6.71,6.71,0,0,0,6.67,6.77v-1.44a5.22,5.22,0,0,1-5-5.38Z"/><path class="cls-14" d="M489,332.17a11.79,11.79,0,0,1-11.57,12,11.44,11.44,0,0,1-10-6.15c0,4.9.1,9.75.1,14.65h-1.59V320.46h1.59c0,1.92-.1,3.88-.1,5.8a11.41,11.41,0,0,1,10-6.09A11.76,11.76,0,0,1,489,332.17Zm-1.58,0c0-5.76-4.47-10.66-10-10.66s-9.93,4.9-9.93,10.66,4.46,10.61,9.93,10.61S487.44,337.93,487.44,332.17Z"/><path class="cls-14" d="M496,311.19V337.4H494.3V311.19Zm-1.63,26.21a6.7,6.7,0,0,0,6.67,6.77v-1.44a5.22,5.22,0,0,1-5-5.38Z"/><path class="cls-14" d="M528.05,320.41v23.14h-1.64c.05-1.83.1-3.65.1-5.43a11.59,11.59,0,0,1-10.08,6.05,12,12,0,0,1,0-24,11.43,11.43,0,0,1,10.08,6.05c0-2,0-3.89-.1-5.81Zm-1.64,11.76c0-5.81-4.51-10.66-10-10.66s-9.89,4.85-9.89,10.66,4.37,10.61,9.89,10.61S526.41,338,526.41,332.17Z"/><path class="cls-14" d="M553.1,344.17h-1.68V330.63c0-4.89-3.79-9-8.45-9a8.84,8.84,0,0,0-8.54,8.3c0,4.7,0,9.5.09,14.21h-1.68V320.46h1.68c0,1.48-.09,3-.09,4.56a10,10,0,0,1,8.54-4.85,10.31,10.31,0,0,1,10.13,10.41Z"/><path class="cls-14" d="M569.47,330.73h9.84a10.12,10.12,0,0,0-8.55-9c-4.89-.72-9.55,2.69-10.89,7.78a10.75,10.75,0,0,0,5.8,12.53,9.93,9.93,0,0,0,12.44-4.66l1.44.77a11.31,11.31,0,0,1-14.5,5.09,12.15,12.15,0,0,1-6.77-14.16,11.71,11.71,0,0,1,10.56-8.88,8.85,8.85,0,0,1,2.21.09,11.84,11.84,0,0,1,10,11.86H569.47Z"/><path class="cls-14" d="M596.68,326.36c-2.21,0-4.37-.05-6.57-.05,0,3.17,0,6.39.09,9.55a6.71,6.71,0,0,0,6.48,6.92v1.39a8.19,8.19,0,0,1-8.06-8.31c0-3.16,0-6.38,0-9.55-.92,0-1.83,0-2.79.05v-1.58c.91,0,1.87.09,2.79.09,0-4.56,0-9.12,0-13.68h1.58c-.05,4.56-.09,9.12-.09,13.68,2.16-.05,4.36-.09,6.57-.09Z"/><path class="cls-14" d="M614.2,340.33a6.9,6.9,0,0,1-5.33,3.79,9.52,9.52,0,0,1-2.3-.09,7,7,0,0,1-5.09-6.82h1.59a5.57,5.57,0,0,0,3.93,5.47,5.18,5.18,0,0,0,5.71-3,5.55,5.55,0,0,0-1.24-6.53,10.64,10.64,0,0,0-3.22-1.59,9.31,9.31,0,0,1-3.55-1.48,5.59,5.59,0,0,1-1.39-6.72,5.42,5.42,0,0,1,4.32-3.08,3.8,3.8,0,0,1,1.77.1,5.62,5.62,0,0,1,4.18,5.47H612a4.31,4.31,0,0,0-3-4.17,3.86,3.86,0,0,0-4.23,2.35,4.34,4.34,0,0,0,.87,4.85v-.05a10.2,10.2,0,0,0,3.07,1.49,9.78,9.78,0,0,1,3.84,1.63l-.05.05A7,7,0,0,1,614.2,340.33Z"/><path class="cls-14" d="M682.94,344.17h-1.58V330.63c0-4.89-3.89-9.07-8.45-9.07s-8.5,4.18-8.5,9.07v13.54h-1.68V330.63c0-4.89-3.79-9.07-8.45-9.07s-8.54,4.18-8.54,9.07c0,4.51.09,9,.09,13.54h-1.68V320.5h1.68c0,1.49-.09,3-.09,4.56a9.93,9.93,0,0,1,17.81,1.44,10.06,10.06,0,0,1,19.39,4Z"/><path class="cls-14" d="M710.78,332.17a11.53,11.53,0,1,1-11.52-12A11.75,11.75,0,0,1,710.78,332.17Zm-21.51,0c0,5.71,4.52,10.66,10,10.66s10-4.95,10-10.66-4.51-10.66-10-10.66S689.27,326.36,689.27,332.17Z"/><path class="cls-14" d="M737.42,320.17l-10.37,24h-2.16l-10.27-24h1.53l9.75,22.56,9.69-22.56Z"/><path class="cls-14" d="M750.42,330.73h9.85a10.12,10.12,0,0,0-8.55-9c-4.9-.72-9.55,2.69-10.9,7.78A10.77,10.77,0,0,0,746.63,342a9.93,9.93,0,0,0,12.44-4.66l1.44.77a11.31,11.31,0,0,1-14.5,5.09,12.15,12.15,0,0,1-6.77-14.16,11.69,11.69,0,0,1,10.56-8.88,8.88,8.88,0,0,1,2.21.09,11.84,11.84,0,0,1,10,11.86H750.42Z"/><path class="cls-14" d="M793.58,316.62a1.73,1.73,0,0,1,1.77,1.72,1.74,1.74,0,0,1-1.77,1.78,1.78,1.78,0,0,1-1.78-1.78A1.76,1.76,0,0,1,793.58,316.62Zm-.82,6.33v21.22h1.68V323Z"/><path class="cls-14" d="M821.37,344.17h-1.68V330.63c0-4.89-3.79-9-8.45-9a8.85,8.85,0,0,0-8.55,8.3c0,4.7,0,9.5.1,14.21h-1.68V320.46h1.68c0,1.48-.1,3-.1,4.56a10,10,0,0,1,8.55-4.85,10.31,10.31,0,0,1,10.13,10.41Z"/><path class="cls-14" d="M861.74,330.73h9.84a10.12,10.12,0,0,0-8.55-9c-4.89-.72-9.55,2.69-10.9,7.78A10.77,10.77,0,0,0,857.94,342a9.93,9.93,0,0,0,12.44-4.66l1.44.77a11.31,11.31,0,0,1-14.5,5.09,12.15,12.15,0,0,1-6.77-14.16,11.69,11.69,0,0,1,10.56-8.88,8.88,8.88,0,0,1,2.21.09,11.84,11.84,0,0,1,10,11.86H861.74Z"/><path class="cls-14" d="M880.31,311.19V337.4h-1.68V311.19Zm-1.63,26.21a6.7,6.7,0,0,0,6.67,6.77v-1.44a5.22,5.22,0,0,1-5-5.38Z"/><path class="cls-14" d="M892.31,311.19V337.4h-1.68V311.19Zm-1.63,26.21a6.7,6.7,0,0,0,6.67,6.77v-1.44a5.22,5.22,0,0,1-5-5.38Z"/><path class="cls-14" d="M905.37,316.62a1.73,1.73,0,0,1,1.77,1.72,1.74,1.74,0,0,1-1.77,1.78,1.78,1.78,0,0,1-1.78-1.78A1.76,1.76,0,0,1,905.37,316.62Zm-.82,6.33v21.22h1.68V323Z"/><path class="cls-14" d="M936,332.17a11.8,11.8,0,0,1-11.57,12,11.44,11.44,0,0,1-10-6.15c0,4.9.09,9.75.09,14.65H912.9V320.46h1.58c0,1.92-.09,3.88-.09,5.8a11.41,11.41,0,0,1,10-6.09A11.76,11.76,0,0,1,936,332.17Zm-1.58,0c0-5.76-4.47-10.66-10-10.66s-9.94,4.9-9.94,10.66,4.47,10.61,9.94,10.61S934.41,337.93,934.41,332.17Z"/><path class="cls-14" d="M951.59,326.36c-2.21,0-4.37-.05-6.58-.05,0,3.17,0,6.39.1,9.55a6.71,6.71,0,0,0,6.48,6.92v1.39a8.2,8.2,0,0,1-8.07-8.31c.05-3.16.05-6.38.05-9.55-.91,0-1.82,0-2.78.05v-1.58c.91,0,1.87.09,2.78.09,0-4.56-.05-9.12-.05-13.68h1.59c-.05,4.56-.1,9.12-.1,13.68,2.16-.05,4.37-.09,6.58-.09Z"/><path class="cls-14" d="M959.12,316.62a1.73,1.73,0,0,1,1.78,1.72,1.75,1.75,0,0,1-1.78,1.78,1.77,1.77,0,0,1-1.77-1.78A1.75,1.75,0,0,1,959.12,316.62Zm-.81,6.33v21.22H960V323Z"/><path class="cls-14" d="M986.82,326.17l-1.39.77a9.92,9.92,0,0,0-11.23-4.85,10.4,10.4,0,0,0-7.4,10.08,10.26,10.26,0,0,0,7.4,10,9.83,9.83,0,0,0,11.23-4.9l1.39.82a11.5,11.5,0,0,1-13,5.67,12,12,0,0,1-8.59-11.62,11.79,11.79,0,0,1,8.59-11.57,10,10,0,0,1,3.75-.43A11.66,11.66,0,0,1,986.82,326.17Z"/><path class="cls-14" d="M1014.33,320.41v23.14h-1.64c0-1.83.1-3.65.1-5.43a11.59,11.59,0,0,1-10.08,6.05,12,12,0,0,1,0-24,11.43,11.43,0,0,1,10.08,6.05c0-2,0-3.89-.1-5.81Zm-1.64,11.76c0-5.81-4.51-10.66-10-10.66s-9.89,4.85-9.89,10.66,4.37,10.61,9.89,10.61S1012.69,338,1012.69,332.17Z"/><path class="cls-14" d="M1021.76,311.19V337.4h-1.68V311.19Zm-1.63,26.21a6.71,6.71,0,0,0,6.67,6.77v-1.44a5.22,5.22,0,0,1-5-5.38Z"/><path class="cls-14" d="M1079.12,332.17a11.53,11.53,0,1,1-11.52-12A11.75,11.75,0,0,1,1079.12,332.17Zm-21.5,0c0,5.71,4.51,10.66,10,10.66s10-4.95,10-10.66-4.51-10.66-10-10.66S1057.62,326.36,1057.62,332.17Z"/><path class="cls-14" d="M1095.83,320.17v1.39c-5.52,0-10.13,4.85-10.32,10.61,0,4,0,8,.09,12h-1.68V320.46h1.68c0,2-.09,3.93-.09,5.9A11.83,11.83,0,0,1,1095.83,320.17Z"/><path class="cls-14" d="M1122.8,332.17a11.82,11.82,0,0,1-11.57,12,11.51,11.51,0,0,1-10-6.05c0,1.78,0,3.6.1,5.43h-1.63V311.19h1.63l-.15,15.12a11.51,11.51,0,0,1,10.08-6.14A11.82,11.82,0,0,1,1122.8,332.17Zm-1.63,0c0-5.71-4.42-10.56-9.94-10.56s-9.93,4.85-9.93,10.56a9.95,9.95,0,1,0,19.87,0Z"/><path class="cls-14" d="M1128.9,316.62a1.72,1.72,0,0,1,1.77,1.72,1.74,1.74,0,0,1-1.77,1.78,1.78,1.78,0,0,1-1.78-1.78A1.76,1.76,0,0,1,1128.9,316.62Zm-.82,6.33v21.22h1.68V323Z"/><path class="cls-14" d="M1147.23,326.36c-2.2,0-4.36-.05-6.57-.05,0,3.17,0,6.39.09,9.55a6.71,6.71,0,0,0,6.48,6.92v1.39a8.19,8.19,0,0,1-8.06-8.31c0-3.16,0-6.38,0-9.55-.92,0-1.83,0-2.79.05v-1.58c.91,0,1.87.09,2.79.09,0-4.56,0-9.12,0-13.68h1.58c0,4.56-.09,9.12-.09,13.68,2.16-.05,4.37-.09,6.57-.09Z"/><path class="cls-14" d="M1164.75,340.33a6.9,6.9,0,0,1-5.33,3.79,9.54,9.54,0,0,1-2.3-.09,7,7,0,0,1-5.09-6.82h1.59a5.57,5.57,0,0,0,3.93,5.47,5.18,5.18,0,0,0,5.71-3,5.55,5.55,0,0,0-1.24-6.53,10.64,10.64,0,0,0-3.22-1.59,9.31,9.31,0,0,1-3.55-1.48,5.59,5.59,0,0,1-1.39-6.72,5.42,5.42,0,0,1,4.32-3.08,3.8,3.8,0,0,1,1.77.1,5.62,5.62,0,0,1,4.18,5.47h-1.59a4.31,4.31,0,0,0-3-4.17,3.86,3.86,0,0,0-4.23,2.35,4.34,4.34,0,0,0,.87,4.85v-.05a10.2,10.2,0,0,0,3.07,1.49,9.78,9.78,0,0,1,3.84,1.63l0,.05A7,7,0,0,1,1164.75,340.33Z"/><path class="cls-14" d="M1171.76,347.34h-1.06l.48-5.28h1.92Z"/><path class="cls-14" d="M1231,320.5v15.89a7.86,7.86,0,0,1-3.7,6.63,7.5,7.5,0,0,1-7.63,0,7.65,7.65,0,0,1-3-3.22,7.65,7.65,0,0,1-3,3.22,7.41,7.41,0,0,1-7.58,0,7.86,7.86,0,0,1-3.7-6.63V320.5H1204v15.75a6.58,6.58,0,0,0,2.92,5.62,5.94,5.94,0,0,0,5.91,0,6.5,6.5,0,0,0,3-5.62V320.5h1.68v15.75a6.63,6.63,0,0,0,3,5.62,5.94,5.94,0,0,0,5.91,0,6.58,6.58,0,0,0,2.92-5.62V320.5Z"/><path class="cls-14" d="M1239,316.62a1.73,1.73,0,0,1,1.78,1.72,1.75,1.75,0,0,1-1.78,1.78,1.78,1.78,0,0,1-1.78-1.78A1.76,1.76,0,0,1,1239,316.62Zm-.82,6.33v21.22h1.68V323Z"/><path class="cls-14" d="M1257.3,326.36c-2.21,0-4.37-.05-6.58-.05,0,3.17,0,6.39.1,9.55a6.71,6.71,0,0,0,6.48,6.92v1.39a8.2,8.2,0,0,1-8.07-8.31c0-3.16,0-6.38,0-9.55-.91,0-1.82,0-2.78.05v-1.58c.91,0,1.87.09,2.78.09,0-4.56,0-9.12,0-13.68h1.59c0,4.56-.1,9.12-.1,13.68,2.16-.05,4.37-.09,6.58-.09Z"/><path class="cls-14" d="M1283,344.17h-1.64V330.49c0-4.95-3.84-9.07-8.54-9.07a8.92,8.92,0,0,0-8.64,9.07c0,4.56,0,9.12.09,13.68h-1.67v-33.6h1.67c0,4.75-.09,9.5-.09,14.25a10.18,10.18,0,0,1,8.64-4.94A10.4,10.4,0,0,1,1283,330.44Z"/><path class="cls-14" d="M1322.58,326.36c-2.21,0-4.37-.05-6.58-.05,0,3.17,0,6.39.09,9.55a6.71,6.71,0,0,0,6.49,6.92v1.39a8.2,8.2,0,0,1-8.07-8.31c0-3.16,0-6.38,0-9.55-.91,0-1.83,0-2.79.05v-1.58c.92,0,1.88.09,2.79.09,0-4.56,0-9.12,0-13.68h1.58c0,4.56-.09,9.12-.09,13.68,2.16-.05,4.37-.09,6.58-.09Z"/><path class="cls-14" d="M1348.25,344.17h-1.63V330.49c0-4.95-3.84-9.07-8.54-9.07a8.92,8.92,0,0,0-8.64,9.07c0,4.56,0,9.12.09,13.68h-1.68v-33.6h1.68c0,4.75-.09,9.5-.09,14.25a10.17,10.17,0,0,1,8.64-4.94,10.38,10.38,0,0,1,10.17,10.56Z"/><path class="cls-14" d="M1364.62,330.73h9.84a10.1,10.1,0,0,0-8.54-9c-4.9-.72-9.55,2.69-10.9,7.78a10.76,10.76,0,0,0,5.81,12.53,9.92,9.92,0,0,0,12.43-4.66l1.44.77a11.3,11.3,0,0,1-14.49,5.09,12.15,12.15,0,0,1-6.77-14.16,11.69,11.69,0,0,1,10.56-8.88,8.88,8.88,0,0,1,2.21.09,11.84,11.84,0,0,1,10,11.86h-11.62Z"/><path class="cls-14" d="M1417.76,340.33a6.93,6.93,0,0,1-5.33,3.79,9.6,9.6,0,0,1-2.31-.09,7,7,0,0,1-5.08-6.82h1.58a5.57,5.57,0,0,0,3.94,5.47,5.19,5.19,0,0,0,5.71-3,5.55,5.55,0,0,0-1.25-6.53,10.52,10.52,0,0,0-3.22-1.59,9.38,9.38,0,0,1-3.55-1.48,5.6,5.6,0,0,1-1.39-6.72,5.43,5.43,0,0,1,4.32-3.08,3.85,3.85,0,0,1,1.78.1,5.61,5.61,0,0,1,4.17,5.47h-1.58a4.32,4.32,0,0,0-3-4.17,3.85,3.85,0,0,0-4.22,2.35,4.32,4.32,0,0,0,.86,4.85v-.05a10.33,10.33,0,0,0,3.07,1.49,9.78,9.78,0,0,1,3.84,1.63l0,.05A7,7,0,0,1,1417.76,340.33Z"/><path class="cls-14" d="M1445.36,320.79v22.9h-1.63c0-1.68,0-3.31.09-5a11.7,11.7,0,0,1-3.89,3.93,10.32,10.32,0,0,1-10.89,0,11.28,11.28,0,0,1-5.33-9.55V320.79h1.63V333a9.77,9.77,0,0,0,4.56,8.41,8.88,8.88,0,0,0,9.22,0,10,10,0,0,0,4.65-8.41h0c0-4.08-.09-8.16-.09-12.19Z"/><path class="cls-14" d="M1470.41,344.17h-1.68V330.63c0-4.89-3.79-9-8.44-9a8.85,8.85,0,0,0-8.55,8.3c0,4.7,0,9.5.1,14.21h-1.68V320.46h1.68c0,1.48-.1,3-.1,4.56a10,10,0,0,1,8.55-4.85,10.31,10.31,0,0,1,10.12,10.41Z"/><path class="cls-14" d="M1522.4,320.41v23.14h-1.63c0-1.83.09-3.65.09-5.43a11.58,11.58,0,0,1-10.08,6.05,12,12,0,0,1,0-24,11.43,11.43,0,0,1,10.08,6.05c0-2,0-3.89-.09-5.81Zm-1.63,11.76c0-5.81-4.52-10.66-10-10.66s-9.89,4.85-9.89,10.66,4.37,10.61,9.89,10.61S1520.77,338,1520.77,332.17Z"/><path class="cls-14" d="M1538,326.36c-2.21,0-4.37-.05-6.58-.05,0,3.17,0,6.39.1,9.55a6.71,6.71,0,0,0,6.48,6.92v1.39a8.2,8.2,0,0,1-8.07-8.31c0-3.16,0-6.38,0-9.55-.91,0-1.82,0-2.78.05v-1.58c.91,0,1.87.09,2.78.09,0-4.56,0-9.12,0-13.68h1.59c0,4.56-.1,9.12-.1,13.68,2.16-.05,4.37-.09,6.58-.09Z"/><path class="cls-14" d="M370.51,389.77a11.53,11.53,0,1,1-11.52-12A11.75,11.75,0,0,1,370.51,389.77Zm-21.5,0c0,5.71,4.51,10.66,10,10.66s10-4.95,10-10.66-4.52-10.66-10-10.66S349,384,349,389.77Z"/><path class="cls-14" d="M395.57,401.77h-1.68V388.23c0-4.89-3.8-9-8.45-9a8.85,8.85,0,0,0-8.55,8.3c0,4.7.05,9.5.1,14.21h-1.68V378.06H377c-.05,1.48-.1,3-.1,4.56a10,10,0,0,1,8.55-4.85,10.31,10.31,0,0,1,10.13,10.41Z"/><path class="cls-14" d="M411.93,388.33h9.84a10.1,10.1,0,0,0-8.54-9c-4.9-.72-9.55,2.69-10.9,7.78a10.75,10.75,0,0,0,5.81,12.53A9.92,9.92,0,0,0,420.57,395l1.44.77a11.3,11.3,0,0,1-14.49,5.09,12.15,12.15,0,0,1-6.77-14.16,11.69,11.69,0,0,1,10.56-8.88,8.88,8.88,0,0,1,2.21.09,11.84,11.84,0,0,1,10,11.86H411.93Z"/><path class="cls-14" d="M457.72,387.85c2.26,0,4.52-.05,6.77-.05v1.68c-2.25,0-4.51-.05-6.77-.05,0,4.08,0,8.21,0,12.34h-1.63c.05-4.13.05-8.26.1-12.34-1,0-2,0-2.93.05V387.8c1,.05,1.92.05,2.93.05,0-3.46-.05-6.91-.1-10.37v-.24a8.54,8.54,0,0,1,8.35-8.45v1.44a7,7,0,0,0-6.72,7.25C457.72,380.94,457.72,384.39,457.72,387.85Z"/><path class="cls-14" d="M493.29,389.77a11.53,11.53,0,1,1-11.52-12A11.75,11.75,0,0,1,493.29,389.77Zm-21.5,0c0,5.71,4.51,10.66,10,10.66s10-4.95,10-10.66-4.52-10.66-10-10.66S471.79,384,471.79,389.77Z"/><path class="cls-14" d="M519.69,383.77l-1.39.77a9.91,9.91,0,0,0-11.23-4.85,10.4,10.4,0,0,0-7.4,10.08,10.26,10.26,0,0,0,7.4,10,9.83,9.83,0,0,0,11.23-4.9l1.39.82a11.5,11.5,0,0,1-13,5.67,12,12,0,0,1-8.59-11.62,11.79,11.79,0,0,1,8.59-11.57,10,10,0,0,1,3.75-.43A11.66,11.66,0,0,1,519.69,383.77Z"/><path class="cls-14" d="M545.66,378.39v22.9H544c.05-1.68.05-3.31.09-5a11.76,11.76,0,0,1-3.88,3.93,10.34,10.34,0,0,1-10.9,0,11.26,11.26,0,0,1-5.33-9.55V378.39h1.63v12.19A9.77,9.77,0,0,0,530.2,399a8.88,8.88,0,0,0,9.22,0,10,10,0,0,0,4.66-8.41h0c0-4.08-.09-8.16-.09-12.19Z"/><path class="cls-14" d="M563.18,397.93a6.92,6.92,0,0,1-5.33,3.79,9.5,9.5,0,0,1-2.3-.09,7,7,0,0,1-5.09-6.82H552a5.57,5.57,0,0,0,3.94,5.47,5.19,5.19,0,0,0,5.71-3,5.55,5.55,0,0,0-1.25-6.53,10.58,10.58,0,0,0-3.21-1.59,9.35,9.35,0,0,1-3.56-1.48,5.62,5.62,0,0,1-1.39-6.72,5.45,5.45,0,0,1,4.32-3.08,3.84,3.84,0,0,1,1.78.1,5.61,5.61,0,0,1,4.17,5.47H561a4.32,4.32,0,0,0-3-4.17,3.85,3.85,0,0,0-4.22,2.35,4.34,4.34,0,0,0,.86,4.85v0a10.27,10.27,0,0,0,3.08,1.49,9.84,9.84,0,0,1,3.84,1.63l0,.05A7,7,0,0,1,563.18,397.93Z"/><path class="cls-14" d="M569.47,398.41a1.68,1.68,0,0,1,0,3.36,1.68,1.68,0,1,1,0-3.36Z"/><path class="cls-14" d="M363,515.43V517H347.81v-1.54c4-3.64,8.2-7.44,11-10.32a6.18,6.18,0,0,0,1.1-7.29,5.79,5.79,0,0,0-6.53-3.12,6.14,6.14,0,0,0-4.27,6h-1.63a7.67,7.67,0,0,1,5.57-7.44,7,7,0,0,1,2.45-.2,7.45,7.45,0,0,1,5.9,4,7.83,7.83,0,0,1-1.39,9.21c-2.59,2.69-6.24,5.91-9.84,9.17Z"/><path class="cls-14" d="M368.11,513.61a1.68,1.68,0,1,1,0,3.36,1.68,1.68,0,1,1,0-3.36Z"/><path class="cls-14" d="M421.78,493.21v23.14h-1.64c.05-1.83.1-3.65.1-5.43A11.59,11.59,0,0,1,410.16,517a12,12,0,0,1,0-24,11.43,11.43,0,0,1,10.08,6c0-2-.05-3.89-.1-5.81ZM420.14,505c0-5.81-4.51-10.66-10-10.66s-9.89,4.85-9.89,10.66,4.37,10.61,9.89,10.61S420.14,510.78,420.14,505Z"/><path class="cls-14" d="M452.73,484V510.2h-1.68V484ZM451.1,510.2a6.71,6.71,0,0,0,6.67,6.77v-1.44a5.22,5.22,0,0,1-5-5.38Z"/><path class="cls-14" d="M465.79,489.42a1.73,1.73,0,0,1,1.78,1.72,1.75,1.75,0,0,1-1.78,1.78,1.78,1.78,0,0,1-1.78-1.78A1.76,1.76,0,0,1,465.79,489.42Zm-.82,6.33V517h1.68V495.75Z"/><path class="cls-14" d="M493.58,517H491.9V503.43c0-4.89-3.79-9-8.45-9a8.84,8.84,0,0,0-8.54,8.3c0,4.7,0,9.51.09,14.21h-1.68V493.26H475c0,1.48-.09,3-.09,4.56a10,10,0,0,1,8.54-4.85,10.31,10.31,0,0,1,10.13,10.41Z"/><path class="cls-14" d="M510,503.53h9.84a10.11,10.11,0,0,0-8.54-9c-4.9-.72-9.56,2.69-10.9,7.78a10.74,10.74,0,0,0,5.81,12.53,9.92,9.92,0,0,0,12.43-4.66l1.44.77a11.31,11.31,0,0,1-14.5,5.09,12.16,12.16,0,0,1-6.77-14.16A11.71,11.71,0,0,1,509.33,493a8.79,8.79,0,0,1,2.2.09,11.85,11.85,0,0,1,10,11.86H510Z"/><path class="cls-14" d="M561.16,499.16c-2.2,0-4.36-.05-6.57-.05,0,3.17,0,6.39.09,9.56a6.71,6.71,0,0,0,6.48,6.91V517a8.19,8.19,0,0,1-8.06-8.3c0-3.17,0-6.39,0-9.56-.91,0-1.83,0-2.79.05v-1.58c.92,0,1.88.09,2.79.09,0-4.56,0-9.12,0-13.68h1.58c0,4.56-.09,9.12-.09,13.68,2.16-.05,4.37-.09,6.57-.09Z"/><path class="cls-14" d="M586.84,517h-1.63V503.29c0-5-3.84-9.07-8.54-9.07a8.92,8.92,0,0,0-8.64,9.07c0,4.56,0,9.12.09,13.68h-1.68v-33.6h1.68c0,4.75-.09,9.5-.09,14.25a10.17,10.17,0,0,1,8.64-4.94,10.38,10.38,0,0,1,10.17,10.56Z"/><path class="cls-14" d="M614.83,493.21v23.14H613.2c0-1.83.09-3.65.09-5.43A11.58,11.58,0,0,1,603.21,517a12,12,0,0,1,0-24,11.43,11.43,0,0,1,10.08,6c0-2,0-3.89-.09-5.81ZM613.2,505c0-5.81-4.52-10.66-10-10.66s-9.89,4.85-9.89,10.66,4.37,10.61,9.89,10.61S613.2,510.78,613.2,505Z"/><path class="cls-14" d="M630.43,499.16c-2.21,0-4.37-.05-6.58-.05,0,3.17,0,6.39.1,9.56a6.71,6.71,0,0,0,6.48,6.91V517a8.19,8.19,0,0,1-8.07-8.3c0-3.17,0-6.39,0-9.56-.91,0-1.82,0-2.78.05v-1.58c.91,0,1.87.09,2.78.09,0-4.56,0-9.12,0-13.68H624c-.05,4.56-.1,9.12-.1,13.68,2.16-.05,4.37-.09,6.58-.09Z"/><path class="cls-14" d="M680.83,499l-1.39.77a9.93,9.93,0,0,0-11.24-4.85A10.39,10.39,0,0,0,660.81,505a10.25,10.25,0,0,0,7.39,10,9.85,9.85,0,0,0,11.24-4.9l1.39.82a11.5,11.5,0,0,1-13,5.67A12,12,0,0,1,659.23,505a11.78,11.78,0,0,1,8.59-11.57,10,10,0,0,1,3.74-.43A11.66,11.66,0,0,1,680.83,499Z"/><path class="cls-14" d="M708.19,505a11.53,11.53,0,1,1-11.52-12A11.75,11.75,0,0,1,708.19,505Zm-21.51,0c0,5.71,4.51,10.66,10,10.66s10-4.95,10-10.66-4.51-10.66-10-10.66S686.68,499.16,686.68,505Z"/><path class="cls-14" d="M733.24,517h-1.68V503.43c0-4.89-3.79-9-8.45-9a8.85,8.85,0,0,0-8.54,8.3c0,4.7,0,9.51.1,14.21H713V493.26h1.68c0,1.48-.1,3-.1,4.56a10,10,0,0,1,8.54-4.85,10.31,10.31,0,0,1,10.13,10.41Z"/><path class="cls-14" d="M758.3,517h-1.68V503.43c0-4.89-3.79-9-8.45-9a8.85,8.85,0,0,0-8.55,8.3c0,4.7,0,9.51.1,14.21H738V493.26h1.68c-.05,1.48-.1,3-.1,4.56a10,10,0,0,1,8.55-4.85,10.31,10.31,0,0,1,10.13,10.41Z"/><path class="cls-14" d="M774.67,503.53h9.84a10.12,10.12,0,0,0-8.55-9c-4.9-.72-9.55,2.69-10.9,7.78a10.76,10.76,0,0,0,5.81,12.53,9.93,9.93,0,0,0,12.44-4.66l1.44.77a11.31,11.31,0,0,1-14.5,5.09,12.15,12.15,0,0,1-6.77-14.16A11.69,11.69,0,0,1,774,493a8.88,8.88,0,0,1,2.21.09,11.84,11.84,0,0,1,10,11.86H774.67Z"/><path class="cls-14" d="M812.68,499l-1.39.77a9.92,9.92,0,0,0-11.23-4.85,10.4,10.4,0,0,0-7.4,10.08,10.26,10.26,0,0,0,7.4,10,9.84,9.84,0,0,0,11.23-4.9l1.39.82a11.5,11.5,0,0,1-13,5.67A12,12,0,0,1,791.08,505a11.79,11.79,0,0,1,8.59-11.57,10,10,0,0,1,3.75-.43A11.66,11.66,0,0,1,812.68,499Z"/><path class="cls-14" d="M827.8,499.16c-2.21,0-4.37-.05-6.58-.05,0,3.17,0,6.39.1,9.56a6.71,6.71,0,0,0,6.48,6.91V517a8.19,8.19,0,0,1-8.06-8.3c0-3.17,0-6.39,0-9.56-.91,0-1.82,0-2.78.05v-1.58c.91,0,1.87.09,2.78.09,0-4.56,0-9.12,0-13.68h1.58c-.05,4.56-.1,9.12-.1,13.68,2.16-.05,4.37-.09,6.58-.09Z"/><path class="cls-14" d="M845.32,513.13a6.9,6.9,0,0,1-5.33,3.79,9.5,9.5,0,0,1-2.3-.09A7,7,0,0,1,832.6,510h1.58a5.58,5.58,0,0,0,3.94,5.47,5.19,5.19,0,0,0,5.71-3,5.54,5.54,0,0,0-1.25-6.53,10.46,10.46,0,0,0-3.21-1.59,9.24,9.24,0,0,1-3.55-1.48,5.6,5.6,0,0,1-1.4-6.72,5.45,5.45,0,0,1,4.32-3.08,3.83,3.83,0,0,1,1.78.1,5.62,5.62,0,0,1,4.18,5.47h-1.59a4.32,4.32,0,0,0-3-4.17,3.85,3.85,0,0,0-4.23,2.35,4.32,4.32,0,0,0,.87,4.85v-.05a10.2,10.2,0,0,0,3.07,1.49,9.78,9.78,0,0,1,3.84,1.63l-.05,0A7,7,0,0,1,845.32,513.13Z"/><path class="cls-14" d="M898.46,493.21v23.14h-1.64c0-1.83.1-3.65.1-5.43A11.59,11.59,0,0,1,886.84,517a12,12,0,0,1,0-24,11.43,11.43,0,0,1,10.08,6c0-2,0-3.89-.1-5.81ZM896.82,505c0-5.81-4.51-10.66-10-10.66S877,499.16,877,505s4.37,10.61,9.89,10.61S896.82,510.78,896.82,505Z"/><path class="cls-14" d="M950.34,505a11.79,11.79,0,0,1-11.56,12,11.46,11.46,0,0,1-10-6.14c0,4.89.1,9.74.1,14.64h-1.59V493.26h1.59c-.05,1.92-.1,3.88-.1,5.8a11.41,11.41,0,0,1,10-6.09A11.76,11.76,0,0,1,950.34,505Zm-1.58,0c0-5.76-4.46-10.66-10-10.66s-9.94,4.9-9.94,10.66,4.46,10.61,9.94,10.61S948.76,510.73,948.76,505Z"/><path class="cls-14" d="M957.3,484V510.2h-1.68V484Zm-1.63,26.21a6.71,6.71,0,0,0,6.67,6.77v-1.44a5.22,5.22,0,0,1-5-5.38Z"/><path class="cls-14" d="M989.37,493.21v23.14h-1.63c0-1.83.09-3.65.09-5.43A11.58,11.58,0,0,1,977.75,517a12,12,0,0,1,0-24,11.43,11.43,0,0,1,10.08,6c0-2-.05-3.89-.09-5.81ZM987.74,505c0-5.81-4.52-10.66-10-10.66s-9.89,4.85-9.89,10.66,4.37,10.61,9.89,10.61S987.74,510.78,987.74,505Z"/><path class="cls-14" d="M1014.42,517h-1.68V503.43c0-4.89-3.79-9-8.45-9a8.85,8.85,0,0,0-8.54,8.3c0,4.7,0,9.51.1,14.21h-1.68V493.26h1.68c-.05,1.48-.1,3-.1,4.56a10,10,0,0,1,8.54-4.85,10.31,10.31,0,0,1,10.13,10.41Z"/><path class="cls-14" d="M1030.79,503.53h9.84a10.11,10.11,0,0,0-8.54-9c-4.9-.72-9.56,2.69-10.9,7.78a10.75,10.75,0,0,0,5.81,12.53,9.92,9.92,0,0,0,12.43-4.66l1.44.77a11.31,11.31,0,0,1-14.5,5.09,12.16,12.16,0,0,1-6.76-14.16,11.69,11.69,0,0,1,10.56-8.88,8.79,8.79,0,0,1,2.2.09,11.85,11.85,0,0,1,10,11.86h-11.62Z"/><path class="cls-14" d="M1058,499.16c-2.21,0-4.37-.05-6.58-.05,0,3.17,0,6.39.1,9.56a6.71,6.71,0,0,0,6.48,6.91V517a8.19,8.19,0,0,1-8.07-8.3c0-3.17,0-6.39,0-9.56-.91,0-1.82,0-2.78.05v-1.58c.91,0,1.87.09,2.78.09,0-4.56,0-9.12,0-13.68h1.59c0,4.56-.1,9.12-.1,13.68,2.16-.05,4.37-.09,6.58-.09Z"/><path class="cls-14" d="M1097.61,499.16c-2.21,0-4.37-.05-6.58-.05,0,3.17,0,6.39.09,9.56a6.71,6.71,0,0,0,6.49,6.91V517a8.19,8.19,0,0,1-8.07-8.3c0-3.17,0-6.39,0-9.56-.91,0-1.83,0-2.79.05v-1.58c.92,0,1.88.09,2.79.09,0-4.56,0-9.12,0-13.68h1.58c0,4.56-.09,9.12-.09,13.68,2.16-.05,4.37-.09,6.58-.09Z"/><path class="cls-14" d="M1125.45,505a11.53,11.53,0,1,1-11.53-12A11.76,11.76,0,0,1,1125.45,505Zm-21.51,0c0,5.71,4.51,10.66,10,10.66s10-4.95,10-10.66-4.51-10.66-10-10.66S1103.94,499.16,1103.94,505Z"/><path class="cls-14" d="M1165,499.16c-2.2,0-4.36-.05-6.57-.05,0,3.17,0,6.39.09,9.56a6.71,6.71,0,0,0,6.48,6.91V517a8.19,8.19,0,0,1-8.06-8.3c0-3.17,0-6.39,0-9.56-.91,0-1.83,0-2.79.05v-1.58c.92,0,1.88.09,2.79.09,0-4.56,0-9.12,0-13.68h1.58c0,4.56-.09,9.12-.09,13.68,2.16-.05,4.37-.09,6.57-.09Z"/><path class="cls-14" d="M1190.72,517h-1.63V503.29c0-5-3.84-9.07-8.54-9.07a8.92,8.92,0,0,0-8.64,9.07c0,4.56,0,9.12.09,13.68h-1.68v-33.6H1172c0,4.75-.09,9.5-.09,14.25a10.17,10.17,0,0,1,8.64-4.94,10.38,10.38,0,0,1,10.17,10.56Z"/><path class="cls-14" d="M1207.09,503.53h9.84a10.1,10.1,0,0,0-8.54-9c-4.9-.72-9.56,2.69-10.9,7.78a10.75,10.75,0,0,0,5.81,12.53,9.92,9.92,0,0,0,12.43-4.66l1.44.77a11.31,11.31,0,0,1-14.5,5.09,12.16,12.16,0,0,1-6.76-14.16,11.69,11.69,0,0,1,10.56-8.88,8.88,8.88,0,0,1,2.21.09,11.84,11.84,0,0,1,10,11.86h-11.62Z"/><path class="cls-14" d="M1260.23,513.13a6.93,6.93,0,0,1-5.33,3.79,9.6,9.6,0,0,1-2.31-.09,7,7,0,0,1-5.08-6.82h1.58a5.57,5.57,0,0,0,3.94,5.47,5.19,5.19,0,0,0,5.71-3,5.55,5.55,0,0,0-1.25-6.53,10.64,10.64,0,0,0-3.22-1.59,9.38,9.38,0,0,1-3.55-1.48,5.6,5.6,0,0,1-1.39-6.72,5.43,5.43,0,0,1,4.32-3.08,3.85,3.85,0,0,1,1.78.1,5.61,5.61,0,0,1,4.17,5.47H1258a4.32,4.32,0,0,0-3-4.17,3.85,3.85,0,0,0-4.22,2.35,4.32,4.32,0,0,0,.86,4.85v-.05a10.33,10.33,0,0,0,3.07,1.49,9.78,9.78,0,0,1,3.84,1.63l0,0A7,7,0,0,1,1260.23,513.13Z"/><path class="cls-14" d="M1287.83,493.59v22.9h-1.63c0-1.68,0-3.31.09-5a11.7,11.7,0,0,1-3.89,3.93,10.32,10.32,0,0,1-10.89,0,11.26,11.26,0,0,1-5.33-9.55V493.59h1.63v12.19a9.77,9.77,0,0,0,4.56,8.41,8.88,8.88,0,0,0,9.22,0,10,10,0,0,0,4.65-8.41h0c0-4.08-.09-8.16-.09-12.19Z"/><path class="cls-14" d="M1312.88,517h-1.68V503.43c0-4.89-3.79-9-8.45-9a8.85,8.85,0,0,0-8.54,8.3c0,4.7,0,9.51.1,14.21h-1.68V493.26h1.68c0,1.48-.1,3-.1,4.56a10,10,0,0,1,8.54-4.85,10.31,10.31,0,0,1,10.13,10.41Z"/><path class="cls-14" d="M1354.4,513.13a6.9,6.9,0,0,1-5.33,3.79,9.52,9.52,0,0,1-2.3-.09,7,7,0,0,1-5.09-6.82h1.59a5.57,5.57,0,0,0,3.93,5.47,5.18,5.18,0,0,0,5.71-3,5.55,5.55,0,0,0-1.24-6.53,10.64,10.64,0,0,0-3.22-1.59,9.31,9.31,0,0,1-3.55-1.48,5.59,5.59,0,0,1-1.39-6.72,5.42,5.42,0,0,1,4.32-3.08,3.8,3.8,0,0,1,1.77.1,5.62,5.62,0,0,1,4.18,5.47h-1.59a4.31,4.31,0,0,0-3-4.17,3.86,3.86,0,0,0-4.23,2.35,4.34,4.34,0,0,0,.87,4.85v-.05a10.2,10.2,0,0,0,3.07,1.49,9.78,9.78,0,0,1,3.84,1.63l0,0A7,7,0,0,1,1354.4,513.13Z"/><path class="cls-14" d="M1389.4,493.3v15.89a7.86,7.86,0,0,1-3.7,6.63,7.5,7.5,0,0,1-7.63,0,3,3,0,1,0-6,0,7.41,7.41,0,0,1-7.58,0,7.86,7.86,0,0,1-3.7-6.63V493.3h1.64v15.75a6.58,6.58,0,0,0,2.92,5.62,5.94,5.94,0,0,0,5.91,0,6.5,6.5,0,0,0,3-5.62V493.3H1376v15.75a6.62,6.62,0,0,0,3,5.62,5.92,5.92,0,0,0,5.9,0,6.56,6.56,0,0,0,2.93-5.62V493.3Z"/><path class="cls-14" d="M1406.24,503.53h9.84a10.1,10.1,0,0,0-8.54-9c-4.9-.72-9.55,2.69-10.9,7.78a10.75,10.75,0,0,0,5.81,12.53,9.92,9.92,0,0,0,12.43-4.66l1.44.77a11.3,11.3,0,0,1-14.49,5.09,12.15,12.15,0,0,1-6.77-14.16,11.69,11.69,0,0,1,10.56-8.88,8.88,8.88,0,0,1,2.21.09,11.84,11.84,0,0,1,10,11.86h-11.62Z"/><path class="cls-14" d="M1434.22,503.53h9.85a10.12,10.12,0,0,0-8.55-9c-4.9-.72-9.55,2.69-10.9,7.78a10.76,10.76,0,0,0,5.81,12.53,9.93,9.93,0,0,0,12.44-4.66l1.44.77a11.31,11.31,0,0,1-14.5,5.09,12.15,12.15,0,0,1-6.77-14.16A11.69,11.69,0,0,1,1433.6,493a8.88,8.88,0,0,1,2.21.09,11.84,11.84,0,0,1,10,11.86h-11.62Z"/><path class="cls-14" d="M1473.73,505a11.8,11.8,0,0,1-11.57,12,11.45,11.45,0,0,1-10-6.14c0,4.89.09,9.74.09,14.64h-1.58V493.26h1.58c0,1.92-.09,3.88-.09,5.8a11.41,11.41,0,0,1,10-6.09A11.76,11.76,0,0,1,1473.73,505Zm-1.58,0c0-5.76-4.47-10.66-10-10.66s-9.94,4.9-9.94,10.66,4.47,10.61,9.94,10.61S1472.15,510.73,1472.15,505Z"/><path class="cls-14" d="M1491.25,513.13a6.92,6.92,0,0,1-5.33,3.79,9.5,9.5,0,0,1-2.3-.09,7,7,0,0,1-5.09-6.82h1.58a5.57,5.57,0,0,0,3.94,5.47,5.19,5.19,0,0,0,5.71-3,5.55,5.55,0,0,0-1.25-6.53,10.58,10.58,0,0,0-3.21-1.59,9.35,9.35,0,0,1-3.56-1.48,5.62,5.62,0,0,1-1.39-6.72,5.45,5.45,0,0,1,4.32-3.08,3.84,3.84,0,0,1,1.78.1,5.61,5.61,0,0,1,4.17,5.47H1489a4.32,4.32,0,0,0-3-4.17,3.85,3.85,0,0,0-4.22,2.35,4.34,4.34,0,0,0,.86,4.85v-.05a10.27,10.27,0,0,0,3.08,1.49,9.84,9.84,0,0,1,3.84,1.63l0,0A7,7,0,0,1,1491.25,513.13Z"/><path class="cls-14" d="M370.51,562.57a11.53,11.53,0,1,1-11.52-12A11.75,11.75,0,0,1,370.51,562.57Zm-21.5,0c0,5.71,4.51,10.66,10,10.66s10-5,10-10.66-4.52-10.66-10-10.66S349,556.76,349,562.57Z"/><path class="cls-14" d="M397,551.19v22.9h-1.63c.05-1.68.05-3.31.09-5a11.7,11.7,0,0,1-3.89,3.93,10.32,10.32,0,0,1-10.89,0,11.28,11.28,0,0,1-5.33-9.55V551.19h1.63v12.19a9.77,9.77,0,0,0,4.56,8.41,8.88,8.88,0,0,0,9.22,0,10,10,0,0,0,4.66-8.41h0c0-4.08-.09-8.16-.09-12.19Z"/><path class="cls-14" d="M412.56,556.76c-2.21,0-4.37,0-6.58,0,0,3.17,0,6.39.1,9.55a6.71,6.71,0,0,0,6.48,6.92v1.39a8.2,8.2,0,0,1-8.07-8.31c.05-3.16.05-6.38.05-9.55-.91,0-1.82,0-2.78,0v-1.58c.91,0,1.87.09,2.78.09,0-4.56-.05-9.12-.05-13.68h1.59c-.05,4.56-.1,9.12-.1,13.68,2.16,0,4.37-.09,6.58-.09Z"/><path class="cls-14" d="M452.93,561.13h9.84a10.12,10.12,0,0,0-8.55-9c-4.89-.72-9.55,2.69-10.9,7.78a10.77,10.77,0,0,0,5.81,12.53,9.93,9.93,0,0,0,12.44-4.66l1.44.77a11.31,11.31,0,0,1-14.5,5.09,12.15,12.15,0,0,1-6.77-14.16,11.7,11.7,0,0,1,10.56-8.88,8.88,8.88,0,0,1,2.21.09,11.84,11.84,0,0,1,10,11.86H452.93Z"/><path class="cls-14" d="M492.38,550.86v32.3h-1.53c0-4.94.09-9.89.09-14.78a11.42,11.42,0,0,1-10.08,6.19,12,12,0,0,1,0-24,11.51,11.51,0,0,1,10.08,6.24c0-2-.05-4-.09-6Zm-1.53,11.8c0-5.8-4.52-10.75-10-10.75s-10,5-10,10.75,4.51,10.66,10,10.66S490.85,568.38,490.85,562.66Z"/><path class="cls-14" d="M518.83,551.19v22.9H517.2c0-1.68,0-3.31.09-5A11.7,11.7,0,0,1,513.4,573a10.32,10.32,0,0,1-10.89,0,11.28,11.28,0,0,1-5.33-9.55V551.19h1.63v12.19a9.77,9.77,0,0,0,4.56,8.41,8.88,8.88,0,0,0,9.22,0,10,10,0,0,0,4.66-8.41h0c0-4.08-.09-8.16-.09-12.19Z"/><path class="cls-14" d="M546.81,550.81V574h-1.63c.05-1.83.1-3.65.1-5.43a11.59,11.59,0,0,1-10.08,6.05,12,12,0,0,1,0-24,11.43,11.43,0,0,1,10.08,6c0-2,0-3.89-.1-5.81Zm-1.63,11.76c0-5.81-4.51-10.66-10-10.66s-9.89,4.85-9.89,10.66,4.37,10.61,9.89,10.61S545.18,568.38,545.18,562.57Z"/><path class="cls-14" d="M554.25,541.59V567.8h-1.68V541.59Zm-1.63,26.21a6.71,6.71,0,0,0,6.67,6.77v-1.44a5.22,5.22,0,0,1-5-5.38Z"/><path class="cls-14" d="M611.76,550.81V574h-1.64c0-1.83.1-3.65.1-5.43a11.59,11.59,0,0,1-10.08,6.05,12,12,0,0,1,0-24,11.43,11.43,0,0,1,10.08,6c0-2-.05-3.89-.1-5.81Zm-1.64,11.76c0-5.81-4.51-10.66-10-10.66s-9.89,4.85-9.89,10.66,4.37,10.61,9.89,10.61S610.12,568.38,610.12,562.57Z"/><path class="cls-14" d="M628.46,550.57V552c-5.52,0-10.13,4.85-10.32,10.61,0,4,.05,8,.09,12h-1.68V550.86h1.68c0,2-.09,3.93-.09,5.9A11.83,11.83,0,0,1,628.46,550.57Z"/><path class="cls-14" d="M641,561.13h9.84a10.12,10.12,0,0,0-8.55-9c-4.89-.72-9.55,2.69-10.9,7.78a10.77,10.77,0,0,0,5.81,12.53,9.93,9.93,0,0,0,12.44-4.66l1.44.77a11.31,11.31,0,0,1-14.5,5.09,12.15,12.15,0,0,1-6.77-14.16,11.69,11.69,0,0,1,10.56-8.88,8.88,8.88,0,0,1,2.21.09,11.84,11.84,0,0,1,10,11.86H641Z"/><path class="cls-14" d="M680.59,550.81V574H679c0-1.83.1-3.65.1-5.43A11.59,11.59,0,0,1,669,574.57a12,12,0,0,1,0-24,11.43,11.43,0,0,1,10.08,6c0-2,0-3.89-.1-5.81ZM679,562.57c0-5.81-4.51-10.66-10-10.66s-9.89,4.85-9.89,10.66,4.37,10.61,9.89,10.61S679,568.38,679,562.57Z"/><path class="cls-14" d="M698.58,570.73a6.9,6.9,0,0,1-5.32,3.79,9.6,9.6,0,0,1-2.31-.09,7,7,0,0,1-5.09-6.82h1.59a5.57,5.57,0,0,0,3.93,5.47,5.2,5.2,0,0,0,5.72-3,5.57,5.57,0,0,0-1.25-6.53,10.64,10.64,0,0,0-3.22-1.59,9.31,9.31,0,0,1-3.55-1.48,5.59,5.59,0,0,1-1.39-6.72,5.42,5.42,0,0,1,4.32-3.08,3.8,3.8,0,0,1,1.77.1,5.62,5.62,0,0,1,4.18,5.47h-1.58a4.32,4.32,0,0,0-3-4.17,3.84,3.84,0,0,0-4.22,2.35,4.32,4.32,0,0,0,.86,4.85v0a10.33,10.33,0,0,0,3.07,1.49,9.78,9.78,0,0,1,3.84,1.63l-.05,0A7,7,0,0,1,698.58,570.73Z"/><path class="cls-14" d="M731.27,547a1.73,1.73,0,0,1,1.78,1.72,1.75,1.75,0,0,1-1.78,1.78,1.77,1.77,0,0,1-1.77-1.78A1.75,1.75,0,0,1,731.27,547Zm-.81,6.33v21.22h1.68V553.35Z"/><path class="cls-14" d="M759.06,574.57h-1.68V561c0-4.89-3.79-9-8.44-9a8.85,8.85,0,0,0-8.55,8.3c0,4.7.05,9.51.1,14.21h-1.68V550.86h1.68c0,1.48-.1,3-.1,4.56a10,10,0,0,1,8.55-4.85A10.31,10.31,0,0,1,759.06,561Z"/><path class="cls-14" d="M799.43,561.13h9.84a10.1,10.1,0,0,0-8.54-9c-4.9-.72-9.56,2.69-10.9,7.78a10.76,10.76,0,0,0,5.81,12.53,9.92,9.92,0,0,0,12.43-4.66l1.44.77a11.31,11.31,0,0,1-14.5,5.09,12.16,12.16,0,0,1-6.76-14.16,11.69,11.69,0,0,1,10.56-8.88,8.88,8.88,0,0,1,2.21.09,11.84,11.84,0,0,1,10,11.86H799.43Z"/><path class="cls-14" d="M838.89,550.86v32.3h-1.54c0-4.94.1-9.89.1-14.78a11.42,11.42,0,0,1-10.08,6.19,12,12,0,0,1,0-24,11.51,11.51,0,0,1,10.08,6.24c0-2-.05-4-.1-6Zm-1.54,11.8c0-5.8-4.51-10.75-10-10.75s-10,5-10,10.75,4.51,10.66,10,10.66S837.35,568.38,837.35,562.66Z"/><path class="cls-14" d="M865.33,551.19v22.9H863.7c0-1.68,0-3.31.1-5a11.79,11.79,0,0,1-3.89,3.93,10.34,10.34,0,0,1-10.9,0,11.27,11.27,0,0,1-5.32-9.55V551.19h1.63v12.19a9.77,9.77,0,0,0,4.56,8.41,8.86,8.86,0,0,0,9.21,0,10,10,0,0,0,4.66-8.41h0c0-4.08-.1-8.16-.1-12.19Z"/><path class="cls-14" d="M893.32,550.81V574h-1.63c0-1.83.09-3.65.09-5.43a11.58,11.58,0,0,1-10.08,6.05,12,12,0,0,1,0-24,11.43,11.43,0,0,1,10.08,6c0-2,0-3.89-.09-5.81Zm-1.63,11.76c0-5.81-4.52-10.66-10-10.66s-9.89,4.85-9.89,10.66,4.37,10.61,9.89,10.61S891.69,568.38,891.69,562.57Z"/><path class="cls-14" d="M900.76,541.59V567.8h-1.68V541.59Zm-1.64,26.21a6.72,6.72,0,0,0,6.68,6.77v-1.44a5.21,5.21,0,0,1-5-5.38Z"/><path class="cls-14" d="M945.88,556.76c-2.21,0-4.37,0-6.58,0,0,3.17,0,6.39.1,9.55a6.71,6.71,0,0,0,6.48,6.92v1.39a8.2,8.2,0,0,1-8.07-8.31c.05-3.16.05-6.38.05-9.55-.91,0-1.82,0-2.78,0v-1.58c.91,0,1.87.09,2.78.09,0-4.56-.05-9.12-.05-13.68h1.59c0,4.56-.1,9.12-.1,13.68,2.16,0,4.37-.09,6.58-.09Z"/><path class="cls-14" d="M953.41,547a1.73,1.73,0,0,1,1.78,1.72,1.75,1.75,0,0,1-1.78,1.78,1.77,1.77,0,0,1-1.77-1.78A1.75,1.75,0,0,1,953.41,547Zm-.81,6.33v21.22h1.68V553.35Z"/><path class="cls-14" d="M999.73,574.57h-1.58V561c0-4.89-3.89-9.07-8.45-9.07s-8.49,4.18-8.49,9.07v13.54h-1.69V561c0-4.89-3.79-9.07-8.44-9.07s-8.55,4.18-8.55,9.07c0,4.51.1,9,.1,13.54H961V550.9h1.68c0,1.49-.1,3-.1,4.56a9.93,9.93,0,0,1,17.81,1.44,10.06,10.06,0,0,1,19.39,4Z"/><path class="cls-14" d="M1016.1,561.13h9.84a10.11,10.11,0,0,0-8.55-9c-4.89-.72-9.55,2.69-10.89,7.78a10.74,10.74,0,0,0,5.81,12.53,9.92,9.92,0,0,0,12.43-4.66l1.44.77a11.31,11.31,0,0,1-14.5,5.09,12.16,12.16,0,0,1-6.77-14.16,11.71,11.71,0,0,1,10.56-8.88,8.85,8.85,0,0,1,2.21.09,11.85,11.85,0,0,1,10,11.86H1016.1Z"/><path class="cls-14" d="M1045.24,570.73a6.93,6.93,0,0,1-5.33,3.79,9.6,9.6,0,0,1-2.31-.09,7,7,0,0,1-5.09-6.82h1.59a5.57,5.57,0,0,0,3.94,5.47,5.19,5.19,0,0,0,5.71-3,5.55,5.55,0,0,0-1.25-6.53,10.64,10.64,0,0,0-3.22-1.59,9.38,9.38,0,0,1-3.55-1.48,5.59,5.59,0,0,1-1.39-6.72,5.42,5.42,0,0,1,4.32-3.08,3.8,3.8,0,0,1,1.77.1,5.62,5.62,0,0,1,4.18,5.47H1043a4.32,4.32,0,0,0-3-4.17,3.84,3.84,0,0,0-4.22,2.35,4.32,4.32,0,0,0,.86,4.85v0a10.33,10.33,0,0,0,3.07,1.49,9.78,9.78,0,0,1,3.84,1.63l0,0A7,7,0,0,1,1045.24,570.73Z"/><path class="cls-14" d="M1051.52,571.21a1.68,1.68,0,1,1,0,3.36,1.68,1.68,0,1,1,0-3.36Z"/><path class="cls-14" d="M363.41,693.61a9.08,9.08,0,0,1-7.49,2.78,8.78,8.78,0,0,1-2.69-.67,9.79,9.79,0,0,1-5.76-8.93h1.68a8.32,8.32,0,0,0,4.75,7.59,7.43,7.43,0,0,0,8.4-1.78,8.64,8.64,0,0,0,1.64-8.93,7.76,7.76,0,0,0-7.11-5v-1.44a4.83,4.83,0,0,0,4.27-3.17,5.24,5.24,0,0,0-1.05-5.42,4.35,4.35,0,0,0-4.95-1,5.05,5.05,0,0,0-2.93,4.61h-1.58a6.38,6.38,0,0,1,3.84-6,4.73,4.73,0,0,1,1.82-.48,6,6,0,0,1,5,1.87,6.42,6.42,0,0,1,1.34,7,5.87,5.87,0,0,1-2.59,3.07,9.08,9.08,0,0,1,5.42,5.33A9.7,9.7,0,0,1,363.41,693.61Z"/><path class="cls-14" d="M371.33,686.41a1.68,1.68,0,0,1,0,3.36,1.68,1.68,0,1,1,0-3.36Z"/><path class="cls-14" d="M412.61,672c-2.21,0-4.37-.05-6.58-.05,0,3.17,0,6.39.1,9.55a6.71,6.71,0,0,0,6.48,6.92v1.39a8.2,8.2,0,0,1-8.07-8.31c0-3.16,0-6.38,0-9.55-.91,0-1.82,0-2.78.05v-1.58c.91,0,1.87.09,2.78.09,0-4.56,0-9.12,0-13.68h1.59c-.05,4.56-.1,9.12-.1,13.68,2.16-.05,4.37-.09,6.58-.09Z"/><path class="cls-14" d="M438.29,689.77h-1.64V676.09c0-5-3.84-9.07-8.54-9.07a8.92,8.92,0,0,0-8.64,9.07c0,4.56,0,9.12.1,13.68h-1.68v-33.6h1.68c-.05,4.75-.1,9.5-.1,14.25a10.18,10.18,0,0,1,8.64-4.94A10.4,10.4,0,0,1,438.29,676Z"/><path class="cls-14" d="M454.65,676.33h9.85a10.12,10.12,0,0,0-8.55-9c-4.9-.72-9.55,2.69-10.9,7.78a10.77,10.77,0,0,0,5.81,12.53A9.92,9.92,0,0,0,463.29,683l1.45.77a11.31,11.31,0,0,1-14.5,5.09,12.15,12.15,0,0,1-6.77-14.16A11.69,11.69,0,0,1,454,665.77a8.88,8.88,0,0,1,2.21.09,11.84,11.84,0,0,1,10,11.86H454.65Z"/><path class="cls-14" d="M507.79,685.93a6.9,6.9,0,0,1-5.33,3.79,9.5,9.5,0,0,1-2.3-.09,7,7,0,0,1-5.09-6.82h1.58a5.59,5.59,0,0,0,3.94,5.47,5.19,5.19,0,0,0,5.71-3,5.54,5.54,0,0,0-1.25-6.53,10.46,10.46,0,0,0-3.21-1.59,9.24,9.24,0,0,1-3.55-1.48,5.6,5.6,0,0,1-1.4-6.72,5.45,5.45,0,0,1,4.32-3.08,3.83,3.83,0,0,1,1.78.1,5.62,5.62,0,0,1,4.18,5.47h-1.59a4.32,4.32,0,0,0-3-4.17,3.85,3.85,0,0,0-4.23,2.35,4.32,4.32,0,0,0,.87,4.85v-.05a10.2,10.2,0,0,0,3.07,1.49,9.78,9.78,0,0,1,3.84,1.63l-.05.05A7,7,0,0,1,507.79,685.93Z"/><path class="cls-14" d="M536.78,666.06v32.3h-1.53c0-4.94.09-9.89.09-14.78a11.42,11.42,0,0,1-10.08,6.19,12,12,0,0,1,0-23.95,11.51,11.51,0,0,1,10.08,6.24c0-2-.05-4-.09-6Zm-1.53,11.8c0-5.8-4.52-10.75-10-10.75s-10,4.95-10,10.75,4.51,10.66,10,10.66S535.25,683.58,535.25,677.86Z"/><path class="cls-14" d="M563.23,666.39v22.9H561.6c0-1.68,0-3.31.09-5a11.76,11.76,0,0,1-3.88,3.93,10.34,10.34,0,0,1-10.9,0,11.26,11.26,0,0,1-5.33-9.55V666.39h1.63v12.19a9.78,9.78,0,0,0,4.56,8.41,8.88,8.88,0,0,0,9.22,0,10,10,0,0,0,4.66-8.41h0c0-4.08-.09-8.16-.09-12.19Z"/><path class="cls-14" d="M591.21,666v23.14h-1.63c0-1.83.1-3.65.1-5.43a11.59,11.59,0,0,1-10.08,6,12,12,0,0,1,0-24,11.43,11.43,0,0,1,10.08,6.05c0-2,0-3.89-.1-5.81Zm-1.63,11.76c0-5.81-4.51-10.66-10-10.66s-9.89,4.85-9.89,10.66,4.37,10.61,9.89,10.61S589.58,683.58,589.58,677.77Z"/><path class="cls-14" d="M607.92,665.77v1.39c-5.52,0-10.13,4.85-10.32,10.61,0,4,0,8,.09,12H596V666.06h1.68c-.05,2-.09,3.93-.09,5.9A11.83,11.83,0,0,1,607.92,665.77Z"/><path class="cls-14" d="M620.44,676.33h9.84a10.1,10.1,0,0,0-8.54-9c-4.9-.72-9.55,2.69-10.9,7.78a10.76,10.76,0,0,0,5.81,12.53A9.92,9.92,0,0,0,629.08,683l1.44.77A11.3,11.3,0,0,1,616,688.81a12.15,12.15,0,0,1-6.77-14.16,11.69,11.69,0,0,1,10.56-8.88,8.88,8.88,0,0,1,2.21.09,11.84,11.84,0,0,1,10,11.86H620.44Z"/><path class="cls-14" d="M683.9,677.77a11.53,11.53,0,1,1-11.52-12A11.76,11.76,0,0,1,683.9,677.77Zm-21.51,0c0,5.71,4.52,10.66,10,10.66s10-4.95,10-10.66-4.51-10.66-10-10.66S662.39,672,662.39,677.77Z"/><path class="cls-14" d="M694.07,675.85c2.26,0,4.52-.05,6.77-.05v1.68c-2.25,0-4.51-.05-6.77-.05,0,4.08,0,8.21,0,12.34h-1.63c0-4.13,0-8.26.1-12.34-1,0-2,0-2.93.05V675.8c1,.05,1.92.05,2.93.05,0-3.46-.05-6.91-.1-10.37v-.24a8.54,8.54,0,0,1,8.35-8.45v1.44a7,7,0,0,0-6.72,7.25C694.07,668.94,694.07,672.39,694.07,675.85Z"/><path class="cls-14" d="M741.4,672c-2.21,0-4.37-.05-6.57-.05,0,3.17,0,6.39.09,9.55a6.71,6.71,0,0,0,6.48,6.92v1.39a8.19,8.19,0,0,1-8.06-8.31c0-3.16,0-6.38,0-9.55-.92,0-1.83,0-2.79.05v-1.58c.91,0,1.87.09,2.79.09,0-4.56,0-9.12,0-13.68h1.58c0,4.56-.09,9.12-.09,13.68,2.16-.05,4.36-.09,6.57-.09Z"/><path class="cls-14" d="M767.08,689.77h-1.63V676.09c0-5-3.84-9.07-8.54-9.07a8.92,8.92,0,0,0-8.65,9.07c0,4.56,0,9.12.1,13.68h-1.68v-33.6h1.68c-.05,4.75-.1,9.5-.1,14.25a10.2,10.2,0,0,1,8.65-4.94A10.39,10.39,0,0,1,767.08,676Z"/><path class="cls-14" d="M783.45,676.33h9.84a10.11,10.11,0,0,0-8.54-9c-4.9-.72-9.56,2.69-10.9,7.78a10.74,10.74,0,0,0,5.81,12.53A9.92,9.92,0,0,0,792.09,683l1.44.77a11.31,11.31,0,0,1-14.5,5.09,12.16,12.16,0,0,1-6.77-14.16,11.71,11.71,0,0,1,10.57-8.88,8.79,8.79,0,0,1,2.2.09,11.85,11.85,0,0,1,10,11.86H783.45Z"/><path class="cls-14" d="M847,677.77a11.79,11.79,0,0,1-11.56,12,11.45,11.45,0,0,1-10-6.15c0,4.9.1,9.75.1,14.65h-1.59V666.06h1.59c-.05,1.92-.1,3.88-.1,5.8a11.41,11.41,0,0,1,10-6.09A11.76,11.76,0,0,1,847,677.77Zm-1.58,0c0-5.76-4.46-10.66-10-10.66s-9.94,4.9-9.94,10.66,4.46,10.61,9.94,10.61S845.37,683.53,845.37,677.77Z"/><path class="cls-14" d="M863.32,676.33h9.84a10.1,10.1,0,0,0-8.54-9c-4.9-.72-9.56,2.69-10.9,7.78a10.76,10.76,0,0,0,5.81,12.53A9.92,9.92,0,0,0,872,683l1.44.77a11.31,11.31,0,0,1-14.5,5.09,12.16,12.16,0,0,1-6.76-14.16,11.69,11.69,0,0,1,10.56-8.88,8.79,8.79,0,0,1,2.2.09,11.84,11.84,0,0,1,10,11.86H863.32Z"/><path class="cls-14" d="M891.64,665.77v1.39c-5.52,0-10.13,4.85-10.32,10.61,0,4,0,8,.1,12h-1.68V666.06h1.68c0,2-.1,3.93-.1,5.9A11.83,11.83,0,0,1,891.64,665.77Z"/><path class="cls-14" d="M897.25,662.21a1.76,1.76,0,1,1,0,3.51,1.76,1.76,0,1,1,0-3.51Zm-.81,6.34v21.22h1.68V668.55Z"/><path class="cls-14" d="M927.83,677.77a11.53,11.53,0,1,1-11.52-12A11.76,11.76,0,0,1,927.83,677.77Zm-21.5,0c0,5.71,4.51,10.66,10,10.66s10-4.95,10-10.66-4.52-10.66-10-10.66S906.33,672,906.33,677.77Z"/><path class="cls-14" d="M955.77,656.79v32.36h-1.59c.1-1.88.15-3.75.15-5.62a11.47,11.47,0,0,1-10.13,6.24,12,12,0,0,1,0-24A11.45,11.45,0,0,1,954.38,672c-.1-5.09-.2-10.13-.2-15.22Zm-1.59,21c0-5.76-4.46-10.61-10-10.61s-9.94,4.85-9.94,10.61,4.47,10.56,9.94,10.56S954.18,683.53,954.18,677.77Z"/><path class="cls-14" d="M1008.57,677.77a11.53,11.53,0,1,1-11.52-12A11.76,11.76,0,0,1,1008.57,677.77Zm-21.51,0c0,5.71,4.51,10.66,10,10.66s10-4.95,10-10.66-4.51-10.66-10-10.66S987.06,672,987.06,677.77Z"/><path class="cls-14" d="M1018.74,675.85c2.26,0,4.51-.05,6.77-.05v1.68c-2.26,0-4.51-.05-6.77-.05,0,4.08,0,8.21,0,12.34h-1.63c.05-4.13.05-8.26.09-12.34-1,0-2,0-2.92.05V675.8c1,.05,1.92.05,2.92.05,0-3.46,0-6.91-.09-10.37v-.24a8.54,8.54,0,0,1,8.35-8.45v1.44a7,7,0,0,0-6.72,7.25C1018.74,668.94,1018.74,672.39,1018.74,675.85Z"/><path class="cls-14" d="M1078.45,666v23.14h-1.63c0-1.83.1-3.65.1-5.43a11.59,11.59,0,0,1-10.08,6,12,12,0,0,1,0-24,11.43,11.43,0,0,1,10.08,6.05c0-2-.05-3.89-.1-5.81Zm-1.63,11.76c0-5.81-4.51-10.66-10-10.66S1057,672,1057,677.77s4.37,10.61,9.89,10.61S1076.82,683.58,1076.82,677.77Z"/><path class="cls-14" d="M1103.51,689.77h-1.68V676.23c0-4.89-3.79-9-8.45-9a8.83,8.83,0,0,0-8.54,8.3c0,4.7,0,9.51.09,14.21h-1.68V666.06h1.68c0,1.48-.09,3-.09,4.56a10,10,0,0,1,8.54-4.85,10.31,10.31,0,0,1,10.13,10.41Z"/><path class="cls-14" d="M1130,666.15v23.52a8.31,8.31,0,0,1-6.72,8.26,24.83,24.83,0,0,1-3.6.19,27.41,27.41,0,0,1-3.8-.19,8.36,8.36,0,0,1-5.52-4.08l1.3-.77a6.63,6.63,0,0,0,4.56,3.22,22.7,22.7,0,0,0,3.46.29,18.93,18.93,0,0,0,3.26-.29,6.59,6.59,0,0,0,5.47-6.63c.05-2.35.1-4.7.1-7a11.34,11.34,0,0,1-4,4.08,10.35,10.35,0,0,1-10.76,0,11.18,11.18,0,0,1-5.37-9.65v-10.9h1.63v10.9a9.9,9.9,0,0,0,4.61,8.49,8.82,8.82,0,0,0,9.21,0,10.52,10.52,0,0,0,4.71-7.53c0-4,0-7.92-.1-11.86Z"/><path class="cls-14" d="M1181.85,677.77a11.8,11.8,0,0,1-11.57,12,11.46,11.46,0,0,1-10-6.15c0,4.9.1,9.75.1,14.65h-1.58V666.06h1.58c0,1.92-.1,3.88-.1,5.8a11.42,11.42,0,0,1,10-6.09A11.76,11.76,0,0,1,1181.85,677.77Zm-1.59,0c0-5.76-4.46-10.66-10-10.66s-9.94,4.9-9.94,10.66,4.46,10.61,9.94,10.61S1180.26,683.53,1180.26,677.77Z"/><path class="cls-14" d="M1188.8,656.79V683h-1.68V656.79ZM1187.17,683a6.71,6.71,0,0,0,6.67,6.77v-1.44a5.22,5.22,0,0,1-5-5.38Z"/><path class="cls-14" d="M1220.87,666v23.14h-1.63c0-1.83.09-3.65.09-5.43a11.58,11.58,0,0,1-10.08,6,12,12,0,0,1,0-24,11.43,11.43,0,0,1,10.08,6.05c0-2,0-3.89-.09-5.81Zm-1.63,11.76c0-5.81-4.52-10.66-10-10.66s-9.89,4.85-9.89,10.66,4.37,10.61,9.89,10.61S1219.24,683.58,1219.24,677.77Z"/><path class="cls-14" d="M1245.92,689.77h-1.68V676.23c0-4.89-3.79-9-8.44-9a8.85,8.85,0,0,0-8.55,8.3c0,4.7,0,9.51.1,14.21h-1.68V666.06h1.68c0,1.48-.1,3-.1,4.56a10,10,0,0,1,8.55-4.85,10.31,10.31,0,0,1,10.12,10.41Z"/><path class="cls-14" d="M1262.29,676.33h9.84a10.1,10.1,0,0,0-8.54-9c-4.9-.72-9.56,2.69-10.9,7.78a10.76,10.76,0,0,0,5.81,12.53,9.92,9.92,0,0,0,12.43-4.66l1.44.77a11.31,11.31,0,0,1-14.5,5.09,12.16,12.16,0,0,1-6.76-14.16,11.69,11.69,0,0,1,10.56-8.88,8.88,8.88,0,0,1,2.21.09,11.85,11.85,0,0,1,10,11.86h-11.62Z"/><path class="cls-14" d="M1289.51,672c-2.21,0-4.37-.05-6.58-.05,0,3.17,0,6.39.1,9.55a6.71,6.71,0,0,0,6.48,6.92v1.39a8.2,8.2,0,0,1-8.07-8.31c0-3.16,0-6.38,0-9.55-.91,0-1.82,0-2.78.05v-1.58c.91,0,1.87.09,2.78.09,0-4.56,0-9.12,0-13.68H1283c0,4.56-.1,9.12-.1,13.68,2.16-.05,4.37-.09,6.58-.09Z"/><path class="cls-14" d="M1321,662.21a1.76,1.76,0,1,1,0,3.51,1.76,1.76,0,1,1,0-3.51Zm-.81,6.34v21.22h1.68V668.55Z"/><path class="cls-14" d="M1341.3,685.93a6.92,6.92,0,0,1-5.33,3.79,9.5,9.5,0,0,1-2.3-.09,7,7,0,0,1-5.09-6.82h1.58a5.58,5.58,0,0,0,3.94,5.47,5.19,5.19,0,0,0,5.71-3,5.55,5.55,0,0,0-1.25-6.53,10.58,10.58,0,0,0-3.21-1.59,9.35,9.35,0,0,1-3.56-1.48,5.62,5.62,0,0,1-1.39-6.72,5.45,5.45,0,0,1,4.32-3.08,3.84,3.84,0,0,1,1.78.1,5.61,5.61,0,0,1,4.17,5.47h-1.58a4.32,4.32,0,0,0-3-4.17,3.85,3.85,0,0,0-4.22,2.35,4.32,4.32,0,0,0,.86,4.85v-.05a10.27,10.27,0,0,0,3.08,1.49,9.84,9.84,0,0,1,3.84,1.63l-.05.05A7,7,0,0,1,1341.3,685.93Z"/><path class="cls-14" d="M1394.34,677.77a11.8,11.8,0,0,1-11.57,12,11.44,11.44,0,0,1-10-6.15c0,4.9.09,9.75.09,14.65h-1.58V666.06h1.58c0,1.92-.09,3.88-.09,5.8a11.41,11.41,0,0,1,10-6.09A11.76,11.76,0,0,1,1394.34,677.77Zm-1.59,0c0-5.76-4.46-10.66-10-10.66s-9.94,4.9-9.94,10.66,4.47,10.61,9.94,10.61S1392.75,683.53,1392.75,677.77Z"/><path class="cls-14" d="M1411,665.77v1.39c-5.52,0-10.13,4.85-10.32,10.61,0,4,0,8,.1,12h-1.68V666.06h1.68c0,2-.1,3.93-.1,5.9A11.83,11.83,0,0,1,1411,665.77Z"/><path class="cls-14" d="M1437.92,677.77a11.53,11.53,0,1,1-11.52-12A11.76,11.76,0,0,1,1437.92,677.77Zm-21.5,0c0,5.71,4.51,10.66,10,10.66s10-4.95,10-10.66-4.52-10.66-10-10.66S1416.42,672,1416.42,677.77Z"/><path class="cls-14" d="M1465.81,677.77a11.8,11.8,0,0,1-11.57,12,11.43,11.43,0,0,1-10-6.15c0,4.9.09,9.75.09,14.65h-1.58V666.06h1.58c0,1.92-.09,3.88-.09,5.8a11.4,11.4,0,0,1,10-6.09A11.76,11.76,0,0,1,1465.81,677.77Zm-1.59,0c0-5.76-4.46-10.66-10-10.66s-9.94,4.9-9.94,10.66,4.47,10.61,9.94,10.61S1464.22,683.53,1464.22,677.77Z"/><path class="cls-14" d="M1493.65,677.77a11.53,11.53,0,1,1-11.52-12A11.76,11.76,0,0,1,1493.65,677.77Zm-21.51,0c0,5.71,4.52,10.66,10,10.66s10-4.95,10-10.66-4.51-10.66-10-10.66S1472.14,672,1472.14,677.77Z"/><path class="cls-14" d="M1510.35,665.77v1.39c-5.52,0-10.13,4.85-10.32,10.61,0,4,0,8,.09,12h-1.68V666.06h1.68c0,2-.09,3.93-.09,5.9A11.83,11.83,0,0,1,1510.35,665.77Z"/><path class="cls-14" d="M1525,672c-2.21,0-4.37-.05-6.58-.05,0,3.17,0,6.39.1,9.55a6.71,6.71,0,0,0,6.48,6.92v1.39a8.2,8.2,0,0,1-8.07-8.31c0-3.16,0-6.38,0-9.55-.91,0-1.82,0-2.78.05v-1.58c.91,0,1.87.09,2.78.09,0-4.56,0-9.12,0-13.68h1.59c0,4.56-.1,9.12-.1,13.68,2.16-.05,4.37-.09,6.58-.09Z"/><path class="cls-14" d="M1532.52,662.21a1.76,1.76,0,1,1,0,3.51,1.76,1.76,0,1,1,0-3.51Zm-.81,6.34v21.22h1.68V668.55Z"/><path class="cls-14" d="M1551.24,675.8v1.68h-11.18V675.8Z"/><path class="cls-14" d="M370.51,735.37a11.53,11.53,0,1,1-11.52-12A11.76,11.76,0,0,1,370.51,735.37Zm-21.5,0c0,5.71,4.51,10.66,10,10.66s10-4.95,10-10.66-4.52-10.66-10-10.66S349,729.56,349,735.37Z"/><path class="cls-14" d="M395.57,747.37h-1.68V733.83c0-4.89-3.8-9-8.45-9a8.85,8.85,0,0,0-8.55,8.3c0,4.7.05,9.51.1,14.21h-1.68V723.66H377c-.05,1.48-.1,3-.1,4.56a10,10,0,0,1,8.55-4.85,10.31,10.31,0,0,1,10.13,10.41Z"/><path class="cls-14" d="M423.55,723.61v23.14h-1.63c.05-1.83.09-3.65.09-5.43a11.58,11.58,0,0,1-10.08,6,12,12,0,0,1,0-24,11.42,11.42,0,0,1,10.08,6c0-2,0-3.89-.09-5.81Zm-1.63,11.76c0-5.81-4.51-10.66-10-10.66S402,729.56,402,735.37,406.41,746,411.93,746,421.92,741.18,421.92,735.37Z"/><path class="cls-14" d="M431,714.39V740.6h-1.68V714.39Zm-1.63,26.21a6.71,6.71,0,0,0,6.67,6.77v-1.44a5.21,5.21,0,0,1-5-5.38Z"/><path class="cls-14" d="M476.11,729.56c-2.21,0-4.37,0-6.58,0,0,3.17,0,6.39.1,9.55a6.71,6.71,0,0,0,6.48,6.92v1.39a8.2,8.2,0,0,1-8.07-8.31c0-3.16,0-6.38,0-9.55-.91,0-1.82,0-2.78,0V728c.91,0,1.87.09,2.78.09,0-4.56,0-9.12,0-13.68h1.59c-.05,4.56-.1,9.12-.1,13.68,2.16-.05,4.37-.09,6.58-.09Z"/><path class="cls-14" d="M504,735.37a11.53,11.53,0,1,1-11.52-12A11.76,11.76,0,0,1,504,735.37Zm-21.51,0c0,5.71,4.52,10.66,10,10.66s10-4.95,10-10.66-4.51-10.66-10-10.66S482.44,729.56,482.44,735.37Z"/><path class="cls-14" d="M543.55,729.56c-2.21,0-4.37,0-6.58,0,0,3.17,0,6.39.1,9.55a6.71,6.71,0,0,0,6.48,6.92v1.39a8.2,8.2,0,0,1-8.07-8.31c0-3.16,0-6.38,0-9.55-.91,0-1.82,0-2.78,0V728c.91,0,1.87.09,2.78.09,0-4.56,0-9.12,0-13.68h1.59c-.05,4.56-.1,9.12-.1,13.68,2.16-.05,4.37-.09,6.58-.09Z"/><path class="cls-14" d="M569.23,747.37H567.6V733.69c0-5-3.84-9.07-8.55-9.07a8.92,8.92,0,0,0-8.64,9.07c0,4.56.05,9.12.1,13.68h-1.68v-33.6h1.68c0,4.75-.1,9.5-.1,14.25a10.18,10.18,0,0,1,8.64-4.94,10.39,10.39,0,0,1,10.18,10.56Z"/><path class="cls-14" d="M585.59,733.93h9.85a10.12,10.12,0,0,0-8.55-9c-4.9-.72-9.55,2.69-10.9,7.78a10.77,10.77,0,0,0,5.81,12.53,9.93,9.93,0,0,0,12.44-4.66l1.44.77a11.31,11.31,0,0,1-14.5,5.09,12.15,12.15,0,0,1-6.77-14.16A11.69,11.69,0,0,1,585,723.37a8.88,8.88,0,0,1,2.21.09,11.84,11.84,0,0,1,10,11.86H585.59Z"/><path class="cls-14" d="M647.61,729.37l-1.39.77A9.92,9.92,0,0,0,635,725.29a10.4,10.4,0,0,0-7.4,10.08,10.26,10.26,0,0,0,7.4,10,9.83,9.83,0,0,0,11.23-4.9l1.39.82a11.5,11.5,0,0,1-13,5.67A12,12,0,0,1,626,735.37a11.79,11.79,0,0,1,8.59-11.57,10,10,0,0,1,3.75-.43A11.66,11.66,0,0,1,647.61,729.37Z"/><path class="cls-14" d="M673.58,724v22.9H672c0-1.68,0-3.31.09-5a11.7,11.7,0,0,1-3.89,3.93,10.32,10.32,0,0,1-10.89,0,11.28,11.28,0,0,1-5.33-9.55V724h1.63v12.19a9.75,9.75,0,0,0,4.56,8.4,8.84,8.84,0,0,0,9.22,0,10,10,0,0,0,4.66-8.4h0C672,732.1,672,728,672,724Z"/><path class="cls-14" d="M701.52,735.37a11.83,11.83,0,0,1-11.57,12,11.51,11.51,0,0,1-10-6c0,1.78.05,3.6.1,5.43h-1.63V714.39H680l-.14,15.12A11.5,11.5,0,0,1,690,723.37,11.83,11.83,0,0,1,701.52,735.37Zm-1.64,0c0-5.71-4.41-10.56-9.93-10.56S680,729.66,680,735.37a9.95,9.95,0,1,0,19.87,0Z"/><path class="cls-14" d="M717.4,733.93h9.84a10.1,10.1,0,0,0-8.54-9c-4.9-.72-9.55,2.69-10.9,7.78a10.76,10.76,0,0,0,5.81,12.53A9.92,9.92,0,0,0,726,740.55l1.44.77A11.3,11.3,0,0,1,713,746.41a12.15,12.15,0,0,1-6.77-14.16,11.69,11.69,0,0,1,10.56-8.88,8.88,8.88,0,0,1,2.21.09,11.84,11.84,0,0,1,10,11.86H717.4Z"/><path class="cls-14" d="M780.86,735.37a11.53,11.53,0,1,1-11.52-12A11.76,11.76,0,0,1,780.86,735.37Zm-21.51,0c0,5.71,4.51,10.66,10,10.66s10-4.95,10-10.66-4.51-10.66-10-10.66S759.35,729.56,759.35,735.37Z"/><path class="cls-14" d="M791,733.45c2.26,0,4.51-.05,6.77-.05v1.68c-2.26,0-4.51-.05-6.77-.05,0,4.08,0,8.21.05,12.34h-1.63c0-4.13,0-8.26.09-12.34-1,0-2,0-2.92.05V733.4c1,.05,1.92.05,2.92.05,0-3.46,0-6.91-.09-10.37v-.24a8.53,8.53,0,0,1,8.35-8.45v1.44a7,7,0,0,0-6.72,7.25C791,726.54,791,730,791,733.45Z"/><path class="cls-14" d="M838.36,729.56c-2.21,0-4.37,0-6.58,0,0,3.17,0,6.39.1,9.55a6.71,6.71,0,0,0,6.48,6.92v1.39a8.21,8.21,0,0,1-8.07-8.31c.05-3.16.05-6.38.05-9.55-.91,0-1.82,0-2.78,0V728c.91,0,1.87.09,2.78.09,0-4.56-.05-9.12-.05-13.68h1.59c0,4.56-.1,9.12-.1,13.68,2.16-.05,4.37-.09,6.58-.09Z"/><path class="cls-14" d="M864,747.37h-1.63V733.69c0-5-3.84-9.07-8.55-9.07a8.92,8.92,0,0,0-8.64,9.07c0,4.56,0,9.12.1,13.68h-1.68v-33.6h1.68c-.05,4.75-.1,9.5-.1,14.25a10.19,10.19,0,0,1,8.64-4.94A10.39,10.39,0,0,1,864,733.64Z"/><path class="cls-14" d="M880.41,733.93h9.84a10.12,10.12,0,0,0-8.55-9c-4.89-.72-9.55,2.69-10.89,7.78a10.75,10.75,0,0,0,5.8,12.53,9.93,9.93,0,0,0,12.44-4.66l1.44.77a11.31,11.31,0,0,1-14.5,5.09,12.15,12.15,0,0,1-6.77-14.16,11.71,11.71,0,0,1,10.56-8.88,8.85,8.85,0,0,1,2.21.09,11.84,11.84,0,0,1,10,11.86H880.41Z"/><path class="cls-14" d="M933.54,743.53a6.9,6.9,0,0,1-5.32,3.79,9.6,9.6,0,0,1-2.31-.09,7,7,0,0,1-5.09-6.82h1.59a5.58,5.58,0,0,0,3.93,5.47,5.2,5.2,0,0,0,5.72-3,5.57,5.57,0,0,0-1.25-6.53,10.64,10.64,0,0,0-3.22-1.59,9.31,9.31,0,0,1-3.55-1.48,5.59,5.59,0,0,1-1.39-6.72,5.42,5.42,0,0,1,4.32-3.08,3.8,3.8,0,0,1,1.77.1,5.62,5.62,0,0,1,4.18,5.47h-1.58a4.32,4.32,0,0,0-3-4.17,3.86,3.86,0,0,0-4.23,2.35,4.34,4.34,0,0,0,.87,4.85v0a10.2,10.2,0,0,0,3.07,1.49,9.78,9.78,0,0,1,3.84,1.63l0,0A7,7,0,0,1,933.54,743.53Z"/><path class="cls-14" d="M951.06,733.93h9.84a10.1,10.1,0,0,0-8.54-9c-4.9-.72-9.55,2.69-10.9,7.78a10.76,10.76,0,0,0,5.81,12.53,9.92,9.92,0,0,0,12.43-4.66l1.44.77a11.3,11.3,0,0,1-14.49,5.09,12.15,12.15,0,0,1-6.77-14.16,11.69,11.69,0,0,1,10.56-8.88,8.88,8.88,0,0,1,2.21.09,11.84,11.84,0,0,1,10,11.86H951.06Z"/><path class="cls-14" d="M1006.27,747.37h-1.59V733.83c0-4.89-3.89-9.07-8.45-9.07s-8.49,4.18-8.49,9.07v13.54h-1.68V733.83c0-4.89-3.8-9.07-8.45-9.07s-8.55,4.18-8.55,9.07c0,4.51.1,9,.1,13.54h-1.68V723.7h1.68c0,1.49-.1,3-.1,4.56a9.93,9.93,0,0,1,17.81,1.44,10.06,10.06,0,0,1,19.4,4Z"/><path class="cls-14" d="M1013.8,719.81a1.76,1.76,0,1,1,0,3.51,1.76,1.76,0,1,1,0-3.51Zm-.82,6.34v21.22h1.68V726.15Z"/><path class="cls-14" d="M1060.12,747.37h-1.58V733.83c0-4.89-3.89-9.07-8.45-9.07s-8.5,4.18-8.5,9.07v13.54h-1.68V733.83c0-4.89-3.79-9.07-8.45-9.07s-8.54,4.18-8.54,9.07c0,4.51.09,9,.09,13.54h-1.68V723.7H1023c0,1.49-.09,3-.09,4.56a9.93,9.93,0,0,1,17.81,1.44,10.06,10.06,0,0,1,19.39,4Z"/><path class="cls-14" d="M1088.1,723.61v23.14h-1.63c0-1.83.1-3.65.1-5.43a11.59,11.59,0,0,1-10.08,6,12,12,0,0,1,0-24,11.43,11.43,0,0,1,10.08,6c0-2,0-3.89-.1-5.81Zm-1.63,11.76c0-5.81-4.51-10.66-10-10.66s-9.89,4.85-9.89,10.66S1071,746,1076.49,746,1086.47,741.18,1086.47,735.37Z"/><path class="cls-14" d="M1097.84,726.15h1.68v23.43a6.78,6.78,0,0,1-6.62,6.86V755.1c2.78,0,5-2.64,5-5.52Zm2.6-4.61a1.77,1.77,0,0,1-1.73,1.78,1.85,1.85,0,0,1-1.83-1.78,1.78,1.78,0,0,1,1.83-1.73A1.7,1.7,0,0,1,1100.44,721.54Z"/><path class="cls-14" d="M1128.28,735.37a11.53,11.53,0,1,1-11.52-12A11.76,11.76,0,0,1,1128.28,735.37Zm-21.51,0c0,5.71,4.51,10.66,10,10.66s10-4.95,10-10.66-4.51-10.66-10-10.66S1106.77,729.56,1106.77,735.37Z"/><path class="cls-14" d="M1145,723.37v1.39c-5.52,0-10.13,4.85-10.32,10.61,0,4,0,8,.09,12h-1.67V723.66h1.67c0,2-.09,3.93-.09,5.9A11.83,11.83,0,0,1,1145,723.37Z"/><path class="cls-14" d="M1196,723.61v23.14h-1.63c.05-1.83.1-3.65.1-5.43a11.59,11.59,0,0,1-10.08,6,12,12,0,0,1,0-24,11.43,11.43,0,0,1,10.08,6c0-2,0-3.89-.1-5.81Zm-1.63,11.76c0-5.81-4.51-10.66-10-10.66s-9.89,4.85-9.89,10.66,4.37,10.61,9.89,10.61S1194.37,741.18,1194.37,735.37Z"/><path class="cls-14" d="M1209.59,735.56c2.25,3.94,4.6,7.87,7,11.81h-1.92l-6-10.27-5.9,10.27h-2c2.35-3.94,4.71-7.83,7-11.81l-7-12.1h1.92c2,3.56,3.94,7.06,6,10.56,2-3.45,4-7,6-10.56h1.92Z"/><path class="cls-14" d="M1224.08,719.81a1.76,1.76,0,1,1,0,3.51,1.76,1.76,0,1,1,0-3.51Zm-.81,6.34v21.22H1225V726.15Z"/><path class="cls-14" d="M1244.34,743.53a6.92,6.92,0,0,1-5.33,3.79,9.5,9.5,0,0,1-2.3-.09,7,7,0,0,1-5.09-6.82h1.58a5.58,5.58,0,0,0,3.94,5.47,5.19,5.19,0,0,0,5.71-3,5.55,5.55,0,0,0-1.25-6.53,10.58,10.58,0,0,0-3.21-1.59,9.35,9.35,0,0,1-3.56-1.48,5.62,5.62,0,0,1-1.39-6.72,5.45,5.45,0,0,1,4.32-3.08,3.84,3.84,0,0,1,1.78.1,5.61,5.61,0,0,1,4.17,5.47h-1.58a4.32,4.32,0,0,0-3-4.17,3.85,3.85,0,0,0-4.22,2.35,4.32,4.32,0,0,0,.86,4.85v0a10.27,10.27,0,0,0,3.08,1.49,9.84,9.84,0,0,1,3.84,1.63l0,0A7,7,0,0,1,1244.34,743.53Z"/><path class="cls-14" d="M1297.33,735.37a11.53,11.53,0,1,1-11.52-12A11.76,11.76,0,0,1,1297.33,735.37Zm-21.5,0c0,5.71,4.51,10.66,10,10.66s10-4.95,10-10.66-4.51-10.66-10-10.66S1275.83,729.56,1275.83,735.37Z"/><path class="cls-14" d="M1307.5,733.45c2.26,0,4.52-.05,6.77-.05v1.68c-2.25,0-4.51-.05-6.77-.05,0,4.08,0,8.21,0,12.34h-1.63c0-4.13,0-8.26.1-12.34-1,0-2,0-2.93.05V733.4c1,.05,1.92.05,2.93.05,0-3.46,0-6.91-.1-10.37v-.24a8.53,8.53,0,0,1,8.35-8.45v1.44a7,7,0,0,0-6.72,7.25C1307.5,726.54,1307.5,730,1307.5,733.45Z"/><path class="cls-14" d="M1346.77,719.81a1.76,1.76,0,1,1,0,3.51,1.76,1.76,0,1,1,0-3.51Zm-.82,6.34v21.22h1.68V726.15Z"/><path class="cls-14" d="M1365.1,729.56c-2.2,0-4.36,0-6.57,0,0,3.17,0,6.39.09,9.55a6.71,6.71,0,0,0,6.48,6.92v1.39a8.2,8.2,0,0,1-8.06-8.31c0-3.16,0-6.38,0-9.55-.92,0-1.83,0-2.79,0V728c.91,0,1.87.09,2.79.09,0-4.56,0-9.12,0-13.68h1.58c0,4.56-.09,9.12-.09,13.68,2.16-.05,4.37-.09,6.57-.09Z"/><path class="cls-14" d="M1382.62,743.53a6.9,6.9,0,0,1-5.33,3.79,9.54,9.54,0,0,1-2.3-.09,7,7,0,0,1-5.09-6.82h1.59a5.58,5.58,0,0,0,3.93,5.47,5.18,5.18,0,0,0,5.71-3,5.55,5.55,0,0,0-1.24-6.53,10.64,10.64,0,0,0-3.22-1.59,9.31,9.31,0,0,1-3.55-1.48,5.59,5.59,0,0,1-1.39-6.72,5.42,5.42,0,0,1,4.32-3.08,3.8,3.8,0,0,1,1.77.1A5.62,5.62,0,0,1,1382,729h-1.58a4.32,4.32,0,0,0-3-4.17,3.86,3.86,0,0,0-4.23,2.35,4.34,4.34,0,0,0,.87,4.85v0a10.2,10.2,0,0,0,3.07,1.49,9.78,9.78,0,0,1,3.84,1.63l0,0A7,7,0,0,1,1382.62,743.53Z"/><path class="cls-14" d="M1435.62,735.37a11.53,11.53,0,1,1-11.53-12A11.76,11.76,0,0,1,1435.62,735.37Zm-21.51,0c0,5.71,4.51,10.66,10,10.66s10-4.95,10-10.66-4.51-10.66-10-10.66S1414.11,729.56,1414.11,735.37Z"/><path class="cls-14" d="M1452.32,723.37v1.39c-5.52,0-10.13,4.85-10.32,10.61,0,4,0,8,.09,12h-1.68V723.66h1.68c0,2-.09,3.93-.09,5.9A11.83,11.83,0,0,1,1452.32,723.37Z"/><path class="cls-14" d="M1479.29,735.37a11.83,11.83,0,0,1-11.57,12,11.51,11.51,0,0,1-10-6c0,1.78,0,3.6.1,5.43h-1.63V714.39h1.63l-.15,15.12a11.51,11.51,0,0,1,10.08-6.14A11.82,11.82,0,0,1,1479.29,735.37Zm-1.63,0c0-5.71-4.41-10.56-9.94-10.56s-9.93,4.85-9.93,10.56a9.95,9.95,0,1,0,19.87,0Z"/><path class="cls-14" d="M1485.39,719.81a1.76,1.76,0,1,1,0,3.51,1.76,1.76,0,1,1,0-3.51Zm-.82,6.34v21.22h1.68V726.15Z"/><path class="cls-14" d="M1503.72,729.56c-2.2,0-4.36,0-6.57,0,0,3.17,0,6.39.09,9.55a6.71,6.71,0,0,0,6.48,6.92v1.39a8.2,8.2,0,0,1-8.06-8.31c0-3.16,0-6.38,0-9.55-.91,0-1.83,0-2.79,0V728c.92,0,1.88.09,2.79.09,0-4.56,0-9.12,0-13.68h1.58c0,4.56-.09,9.12-.09,13.68,2.16-.05,4.37-.09,6.57-.09Z"/><path class="cls-14" d="M1508.86,744a1.68,1.68,0,0,1,0,3.36,1.68,1.68,0,1,1,0-3.36Z"/></svg>