<svg id="Ebene_1" data-name="Ebene 1" xmlns="http://www.w3.org/2000/svg" viewBox="0 0 1920 1080"><defs><style>.cls-1{fill:#fff;}</style></defs><title>circle_example</title><rect class="cls-1" width="1920" height="1080"/><path d="M148.51,338.89c3.38,0,6.77-.08,10.15-.08v2.52c-3.38,0-6.77-.07-10.15-.07-.07,6.12,0,12.32.07,18.51h-2.45c.08-6.19.08-12.39.15-18.51-1.51,0-2.95,0-4.39.07v-2.52c1.44.08,2.88.08,4.39.08,0-5.19-.07-10.37-.15-15.56V323a12.81,12.81,0,0,1,12.53-12.67v2.16c-5.61,0-10.08,4.9-10.08,10.87C148.51,328.52,148.51,333.7,148.51,338.89Z"/><path d="M185.16,323.77v2.08c-8.28,0-15.2,7.28-15.48,15.92,0,6,.07,12,.14,18H167.3V324.2h2.52c-.07,2.95-.14,5.9-.14,8.85A17.75,17.75,0,0,1,185.16,323.77Z"/><path d="M219.94,324.12v34.71h-2.45c.07-2.73.14-5.47.14-8.13a17.37,17.37,0,0,1-15.12,9.07c-9.58,0-17.35-8.14-17.35-18s7.77-18,17.35-18a17.15,17.15,0,0,1,15.12,9.07c0-2.95-.07-5.83-.14-8.72Zm-2.45,17.65c0-8.72-6.77-16-15-16s-14.83,7.27-14.83,16,6.55,15.91,14.83,15.91S217.49,350.48,217.49,341.77Z"/><path d="M257.52,359.77H255V339.46c0-7.34-5.69-13.46-12.67-13.46-6.63,0-12.32,5.54-12.82,12.45,0,7.06.07,14.26.14,21.32h-2.52V324.2h2.52c-.07,2.23-.14,4.53-.14,6.84a15,15,0,0,1,12.82-7.27c8.35,0,15.12,7,15.19,15.62Z"/><path d="M289.34,357.61v2.16H264.71c6.49-11.16,13.11-22.54,19.45-33.63-6.05-.07-12.68,0-18.87,0v-2.3h23c-6.48,11.3-13.1,22.54-19.51,33.77C275.66,357.68,282.5,357.61,289.34,357.61Z"/><path d="M340,327.94h2.52v35.14a10.18,10.18,0,0,1-9.94,10.3v-2c4.17,0,7.49-4,7.49-8.28Zm3.88-6.91a2.64,2.64,0,0,1-2.59,2.66,2.77,2.77,0,0,1-2.74-2.66,2.66,2.66,0,0,1,2.74-2.59A2.53,2.53,0,0,1,343.84,321Z"/><path d="M385.1,324.12v34.71h-2.45c.07-2.73.15-5.47.15-8.13a17.38,17.38,0,0,1-15.13,9.07c-9.57,0-17.35-8.14-17.35-18s7.78-18,17.35-18a17.16,17.16,0,0,1,15.13,9.07c0-2.95-.08-5.83-.15-8.72Zm-2.45,17.65c0-8.72-6.77-16-15-16s-14.83,7.27-14.83,16,6.55,15.91,14.83,15.91S382.65,350.48,382.65,341.77Z"/><path d="M424.84,324.34V359.7a12.32,12.32,0,0,1-10.08,12.24,35.69,35.69,0,0,1-5.47.36,51.3,51.3,0,0,1-5.69-.36,12,12,0,0,1-8.35-6l2.23-1.3a9.42,9.42,0,0,0,6.63,5,25.27,25.27,0,0,0,5.18.51,29.31,29.31,0,0,0,5.19-.51,9.89,9.89,0,0,0,7.84-9.93l.22-10.44a16.26,16.26,0,0,1-13.9,8.2c-9.07,0-16.34-7.63-16.34-16.85s7.27-16.84,16.34-16.84a16.06,16.06,0,0,1,13.83,8.2c0-2.59-.07-5.11-.15-7.63Zm-2.52,16.27c0-7.92-6.12-14.83-13.68-14.83-7.77,0-13.89,6.91-13.89,14.83,0,8.14,6.12,15,13.89,15C416.2,355.59,422.32,348.75,422.32,340.61Z"/><path d="M448.24,333.05c-3.31,0-6.55-.07-9.86-.07,0,4.75,0,9.58.14,14.33,0,5.69,4.32,10.37,9.72,10.37v2.09a12.3,12.3,0,0,1-12.1-12.46c.08-4.75.08-9.58.08-14.33-1.37,0-2.74,0-4.18.07v-2.37c1.37.07,2.81.14,4.18.14,0-6.84-.08-13.68-.08-20.52h2.38c-.07,6.84-.14,13.68-.14,20.52,3.24-.07,6.55-.14,9.86-.14Z"/><path d="M495.54,318.44a2.63,2.63,0,1,1,0,5.25,2.63,2.63,0,1,1,0-5.25Zm-1.22,9.5v31.83h2.52V327.94Z"/><path d="M565,359.77h-2.38V339.46c0-7.34-5.83-13.61-12.67-13.61-7.06,0-12.75,6.27-12.75,13.61v20.31h-2.52V339.46c0-7.34-5.68-13.61-12.67-13.61s-12.82,6.27-12.82,13.61c0,6.77.15,13.54.15,20.31h-2.52v-35.5h2.52c-.07,2.23-.15,4.54-.15,6.84a14.89,14.89,0,0,1,26.72,2.16,15.34,15.34,0,0,1,14-9.5c8.21,0,15,7.05,15,15.55Z"/><path d="M625.14,359.77l-14.68-14.84c0,5,.07,9.87.14,14.84h-2.38V310.3h2.38c-.07,9.5-.14,19-.14,28.51l14.32-14.33h3.39L610.6,342.13l-.14-.15v.29l.14-.14,17.71,17.64Z"/><path d="M665.75,341.77c0,9.86-7.63,18-17.28,18s-17.28-8.14-17.28-18,7.78-18,17.28-18S665.75,331.9,665.75,341.77Zm-32.25,0c0,8.57,6.76,16,15,16s15-7.41,15-16-6.77-16-15-16S633.5,333.05,633.5,341.77Z"/><path d="M731.13,359.77h-2.38V339.46c0-7.34-5.83-13.61-12.67-13.61-7.06,0-12.74,6.27-12.74,13.61v20.31h-2.52V339.46c0-7.34-5.69-13.61-12.68-13.61s-12.81,6.27-12.81,13.61c0,6.77.14,13.54.14,20.31H673v-35.5h2.52c-.07,2.23-.14,4.54-.14,6.84A14.89,14.89,0,0,1,702,333.27a15.36,15.36,0,0,1,14-9.5c8.21,0,15,7.05,15,15.55Z"/><path d="M773,341.77c0,9.86-7.7,18-17.35,18a17.17,17.17,0,0,1-15.05-9.22c0,7.35.14,14.62.14,22h-2.38V324.2h2.38c-.07,2.88-.14,5.83-.14,8.71a17.1,17.1,0,0,1,15.05-9.14C765.26,323.77,773,331.83,773,341.77Zm-2.38,0c0-8.64-6.69-16-15-16s-14.91,7.35-14.91,16,6.7,15.91,14.91,15.91S770.58,350.41,770.58,341.77Z"/><path d="M783.4,310.3v39.32h-2.52V310.3ZM781,349.62a10.06,10.06,0,0,0,10,10.15v-2.16a7.82,7.82,0,0,1-7.56-8.07Z"/><path d="M810.47,339.61h14.76c-.86-7-6-12.68-12.82-13.54-7.34-1.08-14.32,4-16.34,11.66a16.13,16.13,0,0,0,8.71,18.8c6.91,2.88,14.84-.15,18.65-7l2.16,1.16c-4.46,7.92-13.75,11.23-21.74,7.63-8-3.39-12.39-12.6-10.16-21.24a17.54,17.54,0,0,1,15.84-13.32,12.69,12.69,0,0,1,3.32.14c8.64,1.15,15,8.86,15,17.78H810.47Z"/><path d="M851.29,333.05c-3.31,0-6.55-.07-9.86-.07,0,4.75,0,9.58.14,14.33,0,5.69,4.32,10.37,9.72,10.37v2.09a12.3,12.3,0,0,1-12.09-12.46c.07-4.75.07-9.58.07-14.33-1.37,0-2.74,0-4.18.07v-2.37c1.37.07,2.81.14,4.18.14,0-6.84-.07-13.68-.07-20.52h2.37c-.07,6.84-.14,13.68-.14,20.52,3.24-.07,6.55-.14,9.86-.14Z"/><path d="M874.69,333.05c-3.31,0-6.55-.07-9.86-.07,0,4.75,0,9.58.14,14.33,0,5.69,4.32,10.37,9.72,10.37v2.09a12.3,12.3,0,0,1-12.09-12.46c.07-4.75.07-9.58.07-14.33-1.37,0-2.74,0-4.18.07v-2.37c1.37.07,2.81.14,4.18.14,0-6.84-.07-13.68-.07-20.52H865c-.07,6.84-.14,13.68-.14,20.52,3.24-.07,6.55-.14,9.86-.14Z"/><path d="M950.66,323.77l-15.56,36h-3.24l-15.41-36h2.31l14.61,33.84,14.55-33.84Z"/><path d="M970.17,339.61h14.76c-.87-7-6-12.68-12.82-13.54-7.34-1.08-14.33,4-16.34,11.66a16.12,16.12,0,0,0,8.71,18.8c6.91,2.88,14.83-.15,18.65-7l2.16,1.16c-4.47,7.92-13.75,11.23-21.75,7.63-8-3.39-12.38-12.6-10.15-21.24a17.53,17.53,0,0,1,15.84-13.32,12.6,12.6,0,0,1,3.31.14c8.64,1.15,15.05,8.86,15.05,17.78H970.17Z"/><path d="M1012.65,323.77v2.08c-8.28,0-15.2,7.28-15.48,15.92,0,6,.07,12,.14,18h-2.52V324.2h2.52c-.07,2.95-.14,5.9-.14,8.85A17.75,17.75,0,0,1,1012.65,323.77Z"/><path d="M1062,324.27V348.1a11.76,11.76,0,0,1-5.55,9.94,11.24,11.24,0,0,1-11.45,0,11.59,11.59,0,0,1-4.46-4.82,11.59,11.59,0,0,1-4.46,4.82,11.11,11.11,0,0,1-11.38,0,11.78,11.78,0,0,1-5.55-9.94V324.27h2.45v23.62a9.86,9.86,0,0,0,4.39,8.42,8.82,8.82,0,0,0,8.86,0,9.74,9.74,0,0,0,4.47-8.42V324.27h2.52v23.62a9.89,9.89,0,0,0,4.46,8.42,8.82,8.82,0,0,0,8.86,0,9.83,9.83,0,0,0,4.39-8.42V324.27Z"/><path d="M1104.66,324.12v34.71h-2.45c.08-2.73.15-5.47.15-8.13a17.38,17.38,0,0,1-15.12,9.07c-9.58,0-17.36-8.14-17.36-18s7.78-18,17.36-18a17.15,17.15,0,0,1,15.12,9.07c0-2.95-.07-5.83-.15-8.72Zm-2.45,17.65c0-8.72-6.76-16-15-16s-14.84,7.27-14.84,16,6.56,15.91,14.84,15.91S1102.21,350.48,1102.21,341.77Z"/><path d="M1142.46,359.77H1140V339.25c0-7.42-5.76-13.61-12.81-13.61s-13,6.19-13,13.61c0,6.84.07,13.68.14,20.52h-2.52V309.36h2.52c-.07,7.13-.14,14.26-.14,21.39a15.24,15.24,0,0,1,13-7.42c8.49,0,15.19,7.13,15.26,15.84Z"/><path d="M1167.52,323.77v2.08c-8.28,0-15.2,7.28-15.48,15.92,0,6,.07,12,.14,18h-2.52V324.2h2.52c-.07,2.95-.14,5.9-.14,8.85A17.75,17.75,0,0,1,1167.52,323.77Z"/><path d="M1176.51,310.3v39.32H1174V310.3Zm-2.44,39.32a10.06,10.06,0,0,0,10,10.15v-2.16a7.82,7.82,0,0,1-7.57-8.07Z"/><path d="M1222.24,341.77c0,9.86-7.64,18-17.28,18s-17.29-8.14-17.29-18,7.78-18,17.29-18S1222.24,331.9,1222.24,341.77Zm-32.26,0c0,8.57,6.77,16,15,16s15-7.41,15-16-6.77-16-15-16S1190,333.05,1190,341.77Z"/><path d="M1248.51,354a10.34,10.34,0,0,1-8,5.69,14.05,14.05,0,0,1-3.45-.15,10.48,10.48,0,0,1-7.64-10.22h2.38c0,3.74,2.45,7.41,5.9,8.21s7.06-1.3,8.57-4.54a8.32,8.32,0,0,0-1.87-9.79,15.78,15.78,0,0,0-4.83-2.38c-1.87-.58-3.81-.94-5.32-2.23a8.38,8.38,0,0,1-2.09-10.08,8.1,8.1,0,0,1,6.48-4.61,5.72,5.72,0,0,1,2.66.14,8.43,8.43,0,0,1,6.27,8.21h-2.38c0-2.81-1.87-5.61-4.46-6.26a5.78,5.78,0,0,0-6.34,3.53,6.49,6.49,0,0,0,1.3,7.27v-.07a15.34,15.34,0,0,0,4.61,2.23c1.87.57,4,.93,5.76,2.45l-.08.07A10.54,10.54,0,0,1,1248.51,354Z"/><path d="M1272.92,333.05c-3.31,0-6.55-.07-9.86-.07,0,4.75,0,9.58.14,14.33,0,5.69,4.32,10.37,9.72,10.37v2.09a12.3,12.3,0,0,1-12.09-12.46c.07-4.75.07-9.58.07-14.33-1.37,0-2.74,0-4.18.07v-2.37c1.37.07,2.81.14,4.18.14,0-6.84-.07-13.68-.07-20.52h2.37c-.07,6.84-.14,13.68-.14,20.52,3.24-.07,6.55-.14,9.86-.14Z"/><path d="M1297.47,339.61h14.76c-.86-7-6-12.68-12.81-13.54-7.35-1.08-14.33,4-16.35,11.66a16.14,16.14,0,0,0,8.72,18.8c6.91,2.88,14.83-.15,18.64-7l2.16,1.16c-4.46,7.92-13.75,11.23-21.74,7.63a18.22,18.22,0,0,1-10.15-21.24,17.52,17.52,0,0,1,15.84-13.32,12.63,12.63,0,0,1,3.31.14c8.64,1.15,15.05,8.86,15.05,17.78h-17.43Z"/><path d="M1352.48,359.77H1350V339.46c0-7.34-5.69-13.46-12.67-13.46-6.63,0-12.31,5.54-12.82,12.45,0,7.06.07,14.26.15,21.32h-2.52V324.2h2.52c-.08,2.23-.15,4.53-.15,6.84a15,15,0,0,1,12.82-7.27c8.35,0,15.12,7,15.19,15.62Z"/><path d="M1411.88,333.05c-3.31,0-6.55-.07-9.87-.07,0,4.75,0,9.58.15,14.33,0,5.69,4.32,10.37,9.72,10.37v2.09a12.3,12.3,0,0,1-12.1-12.46c.07-4.75.07-9.58.07-14.33-1.36,0-2.73,0-4.17.07v-2.37c1.37.07,2.81.14,4.17.14,0-6.84-.07-13.68-.07-20.52h2.38c-.07,6.84-.15,13.68-.15,20.52,3.24-.07,6.56-.14,9.87-.14Z"/><path d="M1451.7,324.12v34.71h-2.45c.07-2.73.14-5.47.14-8.13a17.37,17.37,0,0,1-15.12,9.07c-9.57,0-17.35-8.14-17.35-18s7.78-18,17.35-18a17.15,17.15,0,0,1,15.12,9.07c0-2.95-.07-5.83-.14-8.72Zm-2.45,17.65c0-8.72-6.77-16-15-16s-14.83,7.27-14.83,16,6.55,15.91,14.83,15.91S1449.25,350.48,1449.25,341.77Z"/><path d="M1472.07,342.05c3.39,5.91,6.91,11.81,10.44,17.72h-2.88l-8.93-15.41-8.85,15.41h-3c3.53-5.91,7.06-11.74,10.52-17.72l-10.52-18.14h2.88c3,5.33,5.91,10.58,8.93,15.84,3-5.18,6-10.51,8.93-15.84h2.88Z"/><path d="M1493.81,318.44a2.63,2.63,0,1,1,0,5.25,2.63,2.63,0,1,1,0-5.25Zm-1.22,9.5v31.83h2.52V327.94Z"/><path d="M1575.68,324.2v48.46h-2.3c0-7.42.14-14.84.14-22.18a17.13,17.13,0,0,1-15.12,9.29c-9.65,0-17.28-8-17.28-17.86s7.63-18.07,17.28-18.07a17.26,17.26,0,0,1,15.12,9.36c0-2.95-.07-6-.14-9Zm-2.3,17.71c0-8.71-6.77-16.13-15-16.13s-15,7.42-15,16.13,6.77,16,15,16S1573.38,350.48,1573.38,341.91Z"/><path d="M1615.35,324.7v34.35h-2.45c.07-2.52.07-5,.15-7.49a17.53,17.53,0,0,1-5.84,5.9,15.52,15.52,0,0,1-16.34,0,16.91,16.91,0,0,1-8-14.33V324.7h2.44V343a14.64,14.64,0,0,0,6.84,12.6,13.28,13.28,0,0,0,13.83,0,14.9,14.9,0,0,0,7-12.6h.08c-.08-6.12-.15-12.24-.15-18.29Z"/><path d="M1639.9,339.61h14.76c-.86-7-6-12.68-12.81-13.54-7.35-1.08-14.33,4-16.35,11.66a16.13,16.13,0,0,0,8.71,18.8c6.91,2.88,14.84-.15,18.65-7l2.16,1.16c-4.46,7.92-13.75,11.23-21.74,7.63-8-3.39-12.39-12.6-10.16-21.24A17.54,17.54,0,0,1,1639,323.77a12.69,12.69,0,0,1,3.32.14c8.64,1.15,15,8.86,15,17.78H1639.9Z"/><path d="M1682.38,323.77v2.08c-8.28,0-15.19,7.28-15.48,15.92,0,6,.07,12,.14,18h-2.52V324.2H1667c-.07,2.95-.14,5.9-.14,8.85A17.78,17.78,0,0,1,1682.38,323.77Z"/><path d="M175.15,396.7v48.53h-2.37c.14-2.81.21-5.61.21-8.42a17.22,17.22,0,0,1-15.19,9.36c-9.58,0-17.35-8.14-17.35-18s7.77-18,17.35-18a17.18,17.18,0,0,1,15.26,9.36c-.14-7.64-.28-15.2-.28-22.83Zm-2.37,31.47c0-8.64-6.7-15.92-15-15.92s-14.91,7.28-14.91,15.92S149.59,444,157.8,444,172.78,436.81,172.78,428.17Z"/><path d="M216.26,411.1v34.35h-2.44c.07-2.52.07-5,.14-7.49a17.59,17.59,0,0,1-5.83,5.9,15.53,15.53,0,0,1-16.35,0,16.94,16.94,0,0,1-8-14.33V411.1h2.45v18.29a14.61,14.61,0,0,0,6.84,12.6,13.26,13.26,0,0,0,13.82,0,14.9,14.9,0,0,0,7-12.6H214c-.07-6.12-.14-12.24-.14-18.29Z"/><path d="M241.32,410.17v2.08c-8.28,0-15.2,7.28-15.48,15.92,0,6,.07,11.95.14,18h-2.52V410.6H226c-.07,2.95-.14,5.9-.14,8.85A17.75,17.75,0,0,1,241.32,410.17Z"/><path d="M274.44,419.17l-2.09,1.15A14.91,14.91,0,0,0,255.5,413a15.62,15.62,0,0,0-11.09,15.13c0,7.05,4.54,13.32,11.09,15.05a14.76,14.76,0,0,0,16.85-7.35l2.09,1.23a17.26,17.26,0,0,1-19.52,8.49A18,18,0,0,1,242,428.17a17.69,17.69,0,0,1,12.88-17.36,15.06,15.06,0,0,1,5.62-.64A17.46,17.46,0,0,1,274.44,419.17Z"/><path d="M311.52,446.17h-2.45V425.65c0-7.42-5.76-13.61-12.82-13.61s-13,6.19-13,13.61c0,6.84.07,13.68.15,20.52h-2.52V395.76h2.52c-.08,7.13-.15,14.26-.15,21.39a15.27,15.27,0,0,1,13-7.42c8.5,0,15.2,7.13,15.27,15.84Z"/><path d="M389.42,428.17c0,9.86-7.77,18-17.35,18A17.26,17.26,0,0,1,357,437.1c0,2.66.07,5.4.14,8.13h-2.45V396.7h2.45L357,419.38a17.27,17.27,0,0,1,15.12-9.21C381.65,410.17,389.42,418.3,389.42,428.17Zm-2.45,0c0-8.57-6.62-15.84-14.9-15.84s-14.91,7.27-14.91,15.84,6.63,15.62,14.91,15.62S387,436.88,387,428.17Z"/><path d="M430.68,410.52v34.71h-2.45c.07-2.73.14-5.47.14-8.13a17.37,17.37,0,0,1-15.12,9.07c-9.58,0-17.35-8.14-17.35-18,0-10,7.77-18,17.35-18a17.15,17.15,0,0,1,15.12,9.07c0-2.95-.07-5.83-.14-8.72Zm-2.45,17.65c0-8.72-6.77-16-15-16s-14.83,7.27-14.83,16,6.55,15.91,14.83,15.91S428.23,436.88,428.23,428.17Z"/><path d="M470.35,410.74V446a12.47,12.47,0,0,1-10.08,12.39,37,37,0,0,1-5.4.29,40.77,40.77,0,0,1-5.69-.29,12.5,12.5,0,0,1-8.28-6.12l1.94-1.15a9.91,9.91,0,0,0,6.84,4.82,33.57,33.57,0,0,0,5.19.43,28,28,0,0,0,4.89-.43A9.88,9.88,0,0,0,468,446c.07-3.52.15-7,.15-10.58a17,17,0,0,1-6.05,6.12,15.49,15.49,0,0,1-16.13,0,16.77,16.77,0,0,1-8.07-14.47V410.74h2.45v16.35a14.87,14.87,0,0,0,6.91,12.74,13.28,13.28,0,0,0,13.83,0,15.83,15.83,0,0,0,7.06-11.3c0-6-.08-11.88-.15-17.79Z"/><path d="M494.9,426h14.76c-.86-7-6-12.68-12.82-13.54-7.34-1.08-14.33,4-16.34,11.66a16.13,16.13,0,0,0,8.71,18.8c6.91,2.88,14.83-.15,18.65-7L510,437.1c-4.46,7.92-13.75,11.23-21.75,7.63-8-3.39-12.38-12.6-10.15-21.24A17.54,17.54,0,0,1,494,410.17a12.69,12.69,0,0,1,3.32.14c8.64,1.15,15,8.86,15,17.78H494.9Z"/><path d="M537.38,410.17v2.08c-8.28,0-15.19,7.28-15.48,15.92,0,6,.07,11.95.14,18h-2.52V410.6H522c-.07,2.95-.14,5.9-.14,8.85A17.75,17.75,0,0,1,537.38,410.17Z"/><path d="M573.52,446.17H571V425.86c0-7.34-5.69-13.46-12.67-13.46-6.62,0-12.31,5.54-12.82,12.45,0,7.06.07,14.26.15,21.32h-2.52V410.6h2.52c-.08,2.23-.15,4.53-.15,6.84a15,15,0,0,1,12.82-7.27c8.35,0,15.12,7,15.19,15.62Z"/><path d="M581.22,441.13a2.52,2.52,0,1,1,0,5,2.52,2.52,0,1,1,0-5Z"/><path d="M156.65,616.32c-3.32,0-6.56-.07-9.87-.07,0,4.75,0,9.57.15,14.33,0,5.68,4.32,10.36,9.72,10.36V643a12.29,12.29,0,0,1-12.1-12.45c.07-4.76.07-9.58.07-14.33-1.37,0-2.73,0-4.17.07v-2.38c1.36.07,2.8.15,4.17.15,0-6.84-.07-13.69-.07-20.53h2.38c-.08,6.84-.15,13.69-.15,20.53,3.24-.08,6.55-.15,9.87-.15Z"/><path d="M195.17,643h-2.45V622.51c0-7.42-5.76-13.61-12.82-13.61s-13,6.19-13,13.61c0,6.84.07,13.68.15,20.52h-2.53v-50.4h2.53c-.08,7.13-.15,14.25-.15,21.38a15.26,15.26,0,0,1,13-7.41c8.5,0,15.2,7.13,15.27,15.84Z"/><path d="M219.72,622.87h14.76c-.86-7-6-12.67-12.82-13.54-7.34-1.08-14.33,4-16.34,11.67A16.1,16.1,0,0,0,214,639.79c6.91,2.88,14.83-.14,18.65-7l2.16,1.15c-4.46,7.92-13.75,11.23-21.75,7.63-8-3.38-12.38-12.6-10.15-21.24A17.56,17.56,0,0,1,218.78,607a13.52,13.52,0,0,1,3.31.14c8.64,1.16,15,8.86,15,17.79H219.72Z"/><path d="M314.9,607.46v48.46h-2.3c0-7.42.14-14.83.14-22.18A17.11,17.11,0,0,1,297.62,643c-9.65,0-17.28-8-17.28-17.86S288,607.1,297.62,607.1a17.28,17.28,0,0,1,15.12,9.36c0-3-.07-6-.14-9Zm-2.3,17.71c0-8.71-6.77-16.13-15-16.13s-15,7.42-15,16.13,6.77,16,15,16S312.6,633.74,312.6,625.17Z"/><path d="M354.57,608v34.35h-2.44c.07-2.52.07-5,.14-7.49a17.62,17.62,0,0,1-5.83,5.91,15.58,15.58,0,0,1-16.35,0,17,17,0,0,1-8-14.33V608h2.45v18.29a14.63,14.63,0,0,0,6.84,12.61,13.26,13.26,0,0,0,13.82,0,14.92,14.92,0,0,0,7-12.61h.07c-.07-6.12-.14-12.24-.14-18.29Z"/><path d="M365.88,601.7a2.63,2.63,0,1,1,0,5.26,2.63,2.63,0,1,1,0-5.26Zm-1.23,9.51V643h2.52V611.21Z"/><path d="M407.42,616l-2.09,1.15a14.88,14.88,0,0,0-16.85-7.27A15.6,15.6,0,0,0,377.39,625a15.39,15.39,0,0,0,11.09,15.05,14.75,14.75,0,0,0,16.85-7.34l2.09,1.22a17.25,17.25,0,0,1-19.51,8.5A18,18,0,0,1,375,625a17.67,17.67,0,0,1,12.89-17.35,15,15,0,0,1,5.61-.65A17.46,17.46,0,0,1,407.42,616Z"/><path d="M430.82,643,416.13,628.2c0,5,.07,9.86.14,14.83H413.9V593.56h2.37c-.07,9.51-.14,19-.14,28.52l14.33-14.33h3.38l-17.57,17.64-.14-.14v.29l.14-.15L434,643Z"/><path d="M511.89,625c0,9.87-7.77,18-17.35,18A17.26,17.26,0,0,1,479.49,634c0,2.66.07,5.4.14,8.14h-2.45V593.56h2.45l-.21,22.69A17.26,17.26,0,0,1,494.54,607C504.12,607,511.89,615.17,511.89,625Zm-2.45,0c0-8.57-6.62-15.84-14.9-15.84s-14.91,7.27-14.91,15.84,6.63,15.63,14.91,15.63S509.44,633.74,509.44,625Z"/><path d="M536.23,607v2.09c-8.28,0-15.2,7.27-15.49,15.91,0,6,.08,12,.15,18h-2.52V607.46h2.52c-.07,2.95-.15,5.91-.15,8.86A17.77,17.77,0,0,1,536.23,607Z"/><path d="M576.55,625c0,9.87-7.64,18-17.28,18S542,634.9,542,625s7.78-18,17.29-18S576.55,615.17,576.55,625Zm-32.26,0c0,8.57,6.77,16,15,16s15-7.42,15-16-6.77-16-15-16S544.29,616.32,544.29,625Z"/><path d="M627.31,607.53v23.84a11.77,11.77,0,0,1-5.55,9.93,11.24,11.24,0,0,1-11.45,0,11.53,11.53,0,0,1-4.46-4.82,11.49,11.49,0,0,1-4.47,4.82,11.09,11.09,0,0,1-11.37,0,11.74,11.74,0,0,1-5.55-9.93V607.53h2.45v23.62a9.86,9.86,0,0,0,4.39,8.43,8.87,8.87,0,0,0,8.86,0,9.76,9.76,0,0,0,4.46-8.43V607.53h2.52v23.62a9.93,9.93,0,0,0,4.47,8.43,8.87,8.87,0,0,0,8.86,0,9.89,9.89,0,0,0,4.39-8.43V607.53Z"/><path d="M665.61,643h-2.52v-20.3c0-7.35-5.69-13.47-12.67-13.47-6.63,0-12.32,5.55-12.82,12.46,0,7.06.07,14.26.14,21.31h-2.52V607.46h2.52c-.07,2.23-.14,4.54-.14,6.84A15,15,0,0,1,650.42,607c8.35,0,15.12,7,15.19,15.62Z"/><path d="M716.87,622.15c3.38,0,6.77-.07,10.15-.07v2.52c-3.38,0-6.77-.07-10.15-.07-.07,6.12,0,12.31.07,18.5h-2.45c.08-6.19.08-12.38.15-18.5-1.51,0-2.95,0-4.39.07v-2.52c1.44.07,2.88.07,4.39.07,0-5.18-.07-10.37-.15-15.55v-.36A12.81,12.81,0,0,1,727,593.56v2.16c-5.61,0-10.08,4.9-10.08,10.88C716.87,611.78,716.87,617,716.87,622.15Z"/><path d="M770.22,625c0,9.87-7.63,18-17.28,18s-17.28-8.13-17.28-18,7.78-18,17.28-18S770.22,615.17,770.22,625ZM738,625c0,8.57,6.77,16,15,16s15-7.42,15-16-6.77-16-15-16S738,616.32,738,625Z"/><path d="M790.6,625.32c3.38,5.9,6.91,11.81,10.44,17.71h-2.88l-8.93-15.41L780.37,643h-3c3.53-5.9,7.06-11.74,10.51-17.71l-10.51-18.15h2.88c3,5.33,5.9,10.59,8.93,15.84,3-5.18,6-10.51,8.93-15.84H801Z"/><path d="M851.65,611.21h2.52v35.13a10.18,10.18,0,0,1-9.94,10.3v-2c4.18,0,7.49-4,7.49-8.28Zm3.89-6.92A2.65,2.65,0,0,1,853,607a2.78,2.78,0,0,1-2.74-2.67A2.66,2.66,0,0,1,853,601.7,2.53,2.53,0,0,1,855.54,604.29Z"/><path d="M895.21,608v34.35h-2.45c.08-2.52.08-5,.15-7.49a17.62,17.62,0,0,1-5.83,5.91,15.58,15.58,0,0,1-16.35,0,16.93,16.93,0,0,1-8-14.33V608h2.45v18.29A14.63,14.63,0,0,0,872,638.86a13.26,13.26,0,0,0,13.82,0,14.92,14.92,0,0,0,7-12.61h.07c-.07-6.12-.15-12.24-.15-18.29Z"/><path d="M960.59,643h-2.38v-20.3c0-7.35-5.83-13.61-12.67-13.61-7.06,0-12.74,6.26-12.74,13.61V643h-2.52v-20.3c0-7.35-5.69-13.61-12.68-13.61s-12.81,6.26-12.81,13.61c0,6.77.14,13.53.14,20.3h-2.52v-35.5h2.52c-.07,2.24-.14,4.54-.14,6.84a14.89,14.89,0,0,1,26.71,2.16,15.35,15.35,0,0,1,14-9.5c8.21,0,15,7.06,15.05,15.55Z"/><path d="M1002.42,625c0,9.87-7.71,18-17.35,18A17.16,17.16,0,0,1,970,633.82c0,7.34.14,14.61.14,22h-2.37V607.46h2.37c-.07,2.88-.14,5.83-.14,8.71A17.1,17.1,0,0,1,985.07,607C994.71,607,1002.42,615.09,1002.42,625Zm-2.38,0c0-8.64-6.69-16-15-16s-14.91,7.35-14.91,16,6.7,15.91,14.91,15.91S1000,633.67,1000,625Z"/><path d="M1028.7,637.27a10.37,10.37,0,0,1-8,5.69,14.6,14.6,0,0,1-3.46-.14,10.48,10.48,0,0,1-7.63-10.23H1012c0,3.75,2.45,7.42,5.91,8.21s7.05-1.3,8.57-4.54a8.33,8.33,0,0,0-1.88-9.79,16.07,16.07,0,0,0-4.82-2.38c-1.87-.57-3.82-.93-5.33-2.23a8.4,8.4,0,0,1-2.09-10.08,8.15,8.15,0,0,1,6.48-4.61,5.63,5.63,0,0,1,2.67.15,8.42,8.42,0,0,1,6.26,8.21h-2.37c0-2.81-1.88-5.62-4.47-6.27a5.81,5.81,0,0,0-6.34,3.53,6.49,6.49,0,0,0,1.3,7.27V620a15.11,15.11,0,0,0,4.61,2.23c1.87.58,4,.94,5.76,2.45l-.07.07A10.56,10.56,0,0,1,1028.7,637.27Z"/><path d="M1108.19,625c0,9.87-7.64,18-17.28,18s-17.29-8.13-17.29-18,7.78-18,17.29-18S1108.19,615.17,1108.19,625Zm-32.26,0c0,8.57,6.77,16,15,16s15-7.42,15-16-6.77-16-15-16S1075.93,616.32,1075.93,625Z"/><path d="M1148.15,607l-15.56,36h-3.24l-15.41-36h2.31l14.61,33.84L1145.41,607Z"/><path d="M1167.66,622.87h14.76c-.87-7-6-12.67-12.82-13.54-7.34-1.08-14.33,4-16.34,11.67a16.1,16.1,0,0,0,8.71,18.79c6.91,2.88,14.83-.14,18.65-7l2.16,1.15c-4.47,7.92-13.75,11.23-21.75,7.63-8-3.38-12.38-12.6-10.15-21.24A17.56,17.56,0,0,1,1166.72,607a13.52,13.52,0,0,1,3.31.14c8.64,1.16,15,8.86,15,17.79h-17.42Z"/><path d="M1210.14,607v2.09c-8.28,0-15.2,7.27-15.48,15.91,0,6,.07,12,.14,18h-2.52V607.46h2.52c-.07,2.95-.14,5.91-.14,8.86A17.74,17.74,0,0,1,1210.14,607Z"/><path d="M1268.1,616.32c-3.32,0-6.56-.07-9.87-.07,0,4.75,0,9.57.15,14.33,0,5.68,4.32,10.36,9.72,10.36V643a12.29,12.29,0,0,1-12.1-12.45c.07-4.76.07-9.58.07-14.33-1.37,0-2.74,0-4.18.07v-2.38c1.37.07,2.81.15,4.18.15,0-6.84-.07-13.69-.07-20.53h2.38c-.08,6.84-.15,13.69-.15,20.53,3.24-.08,6.55-.15,9.87-.15Z"/><path d="M1306.62,643h-2.45V622.51c0-7.42-5.76-13.61-12.82-13.61s-13,6.19-13,13.61c0,6.84.07,13.68.14,20.52H1276v-50.4h2.52c-.07,7.13-.14,14.25-.14,21.38a15.24,15.24,0,0,1,13-7.41c8.5,0,15.19,7.13,15.27,15.84Z"/><path d="M1331.17,622.87h14.76c-.87-7-6-12.67-12.82-13.54-7.34-1.08-14.33,4-16.34,11.67a16.1,16.1,0,0,0,8.71,18.79c6.91,2.88,14.83-.14,18.65-7l2.16,1.15c-4.47,7.92-13.75,11.23-21.75,7.63-8-3.38-12.38-12.6-10.15-21.24A17.56,17.56,0,0,1,1330.23,607a13.52,13.52,0,0,1,3.31.14c8.64,1.16,15,8.86,15,17.79h-17.42Z"/><path d="M1395,593.56v39.32h-2.52V593.56Zm-2.45,39.32a10.06,10.06,0,0,0,10,10.15v-2.16a7.81,7.81,0,0,1-7.56-8.06Z"/><path d="M1443.13,607.39V642.1h-2.45c.07-2.74.14-5.48.14-8.14A17.37,17.37,0,0,1,1425.7,643c-9.58,0-17.35-8.13-17.35-18s7.77-18,17.35-18a17.15,17.15,0,0,1,15.12,9.07c0-3-.07-5.83-.14-8.71ZM1440.68,625c0-8.71-6.77-16-15-16s-14.83,7.28-14.83,16,6.55,15.91,14.83,15.91S1440.68,633.74,1440.68,625Z"/><path d="M1475,640.87V643h-24.63c6.48-11.16,13.11-22.54,19.45-33.62-6-.08-12.68,0-18.87,0V607.1h23c-6.48,11.31-13.1,22.54-19.51,33.77C1461.27,640.94,1468.11,640.87,1475,640.87Z"/><path d="M1514.62,607.61v35.28a12.45,12.45,0,0,1-10.08,12.38,35.55,35.55,0,0,1-5.4.29,39.36,39.36,0,0,1-5.69-.29,12.53,12.53,0,0,1-8.28-6.12l1.95-1.15a9.94,9.94,0,0,0,6.84,4.83,33.4,33.4,0,0,0,5.18.43,28.23,28.23,0,0,0,4.9-.43,9.89,9.89,0,0,0,8.21-9.94c.07-3.53.14-7.06.14-10.59a17,17,0,0,1-6.05,6.12,15.45,15.45,0,0,1-16.13,0,16.74,16.74,0,0,1-8.06-14.47V607.61h2.45V624a14.9,14.9,0,0,0,6.91,12.75,13.26,13.26,0,0,0,13.82,0,15.78,15.78,0,0,0,7.06-11.31c0-6-.07-11.88-.14-17.78Z"/><path d="M1592.53,593.56V642.1h-2.38c.14-2.81.22-5.62.22-8.43a17.22,17.22,0,0,1-15.2,9.36c-9.57,0-17.35-8.13-17.35-18s7.78-18,17.35-18a17.18,17.18,0,0,1,15.27,9.36c-.15-7.63-.29-15.19-.29-22.83ZM1590.15,625c0-8.64-6.7-15.91-15-15.91s-14.9,7.27-14.9,15.91,6.69,15.84,14.9,15.84S1590.15,633.67,1590.15,625Z"/><path d="M1635.72,625c0,9.87-7.63,18-17.28,18s-17.28-8.13-17.28-18,7.78-18,17.28-18S1635.72,615.17,1635.72,625Zm-32.25,0c0,8.57,6.76,16,15,16s15-7.42,15-16-6.77-16-15-16S1603.47,616.32,1603.47,625Z"/><path d="M1675.47,607.61V643a12.32,12.32,0,0,1-10.08,12.24,34.59,34.59,0,0,1-5.48.36,48.59,48.59,0,0,1-5.68-.36,12,12,0,0,1-8.36-6l2.24-1.29a9.44,9.44,0,0,0,6.62,5,26.19,26.19,0,0,0,5.18.5,30.36,30.36,0,0,0,5.19-.5A9.9,9.9,0,0,0,1673,643l.21-10.44a16.25,16.25,0,0,1-13.89,8.21c-9.08,0-16.35-7.63-16.35-16.85s7.27-16.85,16.35-16.85a16,16,0,0,1,13.82,8.21c0-2.59-.07-5.12-.14-7.63ZM1673,623.88c0-7.92-6.12-14.84-13.68-14.84-7.78,0-13.9,6.92-13.9,14.84,0,8.14,6.12,15,13.9,15C1666.83,638.86,1673,632,1673,623.88Z"/><path d="M1683.17,638a2.52,2.52,0,0,1,0,5,2.52,2.52,0,1,1,0-5Z"/></svg>