<svg id="Ebene_1" data-name="Ebene 1" xmlns="http://www.w3.org/2000/svg" viewBox="0 0 1920 1080"><defs><style>.cls-1{fill:#fff;}</style></defs><title>circle_alphabet</title><rect class="cls-1" width="1920" height="1080"/><path d="M199.59,401.4v57.84h-4.08c.12-4.56.24-9.12.24-13.56a29,29,0,0,1-25.2,15.12c-16,0-28.92-13.56-28.92-30,0-16.68,13-30,28.92-30a28.58,28.58,0,0,1,25.2,15.12c0-4.92-.12-9.72-.24-14.52Zm-4.08,29.4c0-14.52-11.28-26.64-25-26.64s-24.72,12.12-24.72,26.64,10.92,26.52,24.72,26.52S195.51,445.32,195.51,430.8Z"/><path d="M269.43,430.8c0,16.44-13,30-28.92,30a28.76,28.76,0,0,1-25.08-15.12c0,4.44.12,9,.24,13.56h-4.08V378.36h4.08l-.36,37.8a28.8,28.8,0,0,1,25.2-15.36C256.47,400.8,269.43,414.36,269.43,430.8Zm-4.08,0c0-14.28-11-26.4-24.84-26.4s-24.84,12.12-24.84,26.4c0,14.52,11,26,24.84,26S265.35,445.32,265.35,430.8Z"/><path d="M334.23,415.8l-3.48,1.92c-5.76-10.08-17.16-15.12-28.08-12.12S284.19,419,284.19,430.8s7.56,22.2,18.48,25.08S325,454,330.75,443.64l3.48,2c-6.6,11.76-20,17.64-32.52,14.16-12.84-3.6-21.48-15.6-21.48-29,0-13.68,8.64-25.44,21.48-28.92a25,25,0,0,1,9.36-1.08A29.13,29.13,0,0,1,334.23,415.8Z"/><path d="M402.87,378.36v80.88h-4q.36-7,.36-14A28.69,28.69,0,0,1,374,460.8c-16,0-28.92-13.56-28.92-30s13-30,28.92-30a28.65,28.65,0,0,1,25.44,15.6c-.24-12.72-.48-25.32-.48-38Zm-4,52.44c0-14.4-11.16-26.52-25-26.52s-24.84,12.12-24.84,26.52,11.16,26.4,24.84,26.4S398.91,445.2,398.91,430.8Z"/><path d="M446.19,427.2h24.6c-1.44-11.64-10-21.12-21.36-22.56-12.24-1.8-23.88,6.72-27.24,19.44s2.88,26.16,14.52,31.32c11.52,4.8,24.72-.24,31.08-11.64l3.6,1.92c-7.44,13.2-22.92,18.72-36.24,12.72-13.32-5.64-20.64-21-16.92-35.4,3.36-12.72,14.16-21.6,26.4-22.2a22,22,0,0,1,5.52.24c14.4,1.92,25.08,14.76,25.08,29.64h-29Z"/><path d="M500.67,426c5.64,0,11.28-.12,16.92-.12v4.2c-5.64,0-11.28-.12-16.92-.12-.12,10.2,0,20.52.12,30.84h-4.08c.12-10.32.12-20.64.24-30.84-2.52,0-4.92,0-7.32.12v-4.2c2.4.12,4.8.12,7.32.12,0-8.64-.12-17.28-.24-25.92v-.6c.36-11.76,9.6-21.12,20.88-21.12V382c-9.36,0-16.8,8.16-16.8,18.12C500.67,408.72,500.67,417.36,500.67,426Z"/><path d="M581.42,401.76v58.92a20.52,20.52,0,0,1-16.79,20.4,58.31,58.31,0,0,1-9.12.6,83.54,83.54,0,0,1-9.48-.6c-5.76-.84-10.8-4.68-13.92-10l3.72-2.16a15.74,15.74,0,0,0,11,8.28,42.91,42.91,0,0,0,8.64.84,49.74,49.74,0,0,0,8.64-.84c7.56-1.32,13.08-8.4,13.08-16.56l.35-17.4A27.07,27.07,0,0,1,554.43,457c-15.12,0-27.24-12.72-27.24-28.08s12.12-28.08,27.24-28.08a26.75,26.75,0,0,1,23,13.68c0-4.32-.12-8.52-.24-12.72Zm-4.19,27.12c0-13.2-10.2-24.72-22.8-24.72-13,0-23.16,11.52-23.16,24.72,0,13.56,10.2,25,23.16,25C567,453.84,577.23,442.44,577.23,428.88Z"/><path d="M644.42,460.8h-4.08V426.6c0-12.36-9.6-22.68-21.36-22.68s-21.59,10.32-21.59,22.68c0,11.4.12,22.8.24,34.2h-4.2v-84h4.2c-.12,11.88-.24,23.76-.24,35.64A25.4,25.4,0,0,1,619,400.08c14.16,0,25.32,11.88,25.44,26.4Z"/><path d="M663.26,391.92a4.38,4.38,0,1,1,0,8.76,4.38,4.38,0,1,1,0-8.76Zm-2,15.84v53h4.2v-53Z"/><path d="M694.46,407.76h4.2v58.56c0,9.36-7.44,17.16-16.56,17.16v-3.36c7,0,12.48-6.6,12.48-13.8Zm6.48-11.52a4.41,4.41,0,0,1-4.32,4.44,4.61,4.61,0,0,1-4.56-4.44,4.43,4.43,0,0,1,4.56-4.32A4.23,4.23,0,0,1,700.94,396.24Z"/><path d="M741.14,460.8l-24.48-24.72c0,8.28.12,16.44.24,24.72h-4V378.36h4c-.12,15.84-.24,31.68-.24,47.52L740.54,402h5.64L716.9,431.4l-.24-.24v.48l.24-.24,29.52,29.4Z"/><path d="M763.82,378.36v65.52h-4.2V378.36Zm-4.08,65.52a16.77,16.77,0,0,0,16.68,16.92v-3.6c-7,0-12.6-6-12.6-13.44Z"/><path d="M886.58,460.8h-4V427c0-12.24-9.72-22.68-21.12-22.68-11.76,0-21.24,10.44-21.24,22.68V460.8h-4.2V427c0-12.24-9.48-22.68-21.12-22.68S793.58,414.72,793.58,427c0,11.28.24,22.56.24,33.84h-4.2V401.64h4.2c-.12,3.72-.24,7.56-.24,11.4a24.81,24.81,0,0,1,44.52,3.6,25.57,25.57,0,0,1,23.4-15.84c13.68,0,25,11.76,25.08,25.92Z"/><path d="M949.22,460.8H945V427c0-12.24-9.48-22.44-21.12-22.44-11,0-20.52,9.24-21.36,20.76,0,11.76.12,23.76.24,35.52h-4.2V401.52h4.2c-.12,3.72-.24,7.56-.24,11.4A25,25,0,0,1,923.9,400.8c13.92,0,25.2,11.64,25.32,26Z"/><path d="M1018.82,430.8c0,16.44-12.72,30-28.8,30-15.84,0-28.8-13.56-28.8-30s13-30,28.8-30C1006.1,400.8,1018.82,414.36,1018.82,430.8Zm-53.76,0c0,14.28,11.28,26.64,25,26.64s25-12.36,25-26.64c0-14.52-11.28-26.64-25-26.64S965.06,416.28,965.06,430.8Z"/><path d="M1088.54,430.8c0,16.44-12.84,30-28.92,30a28.61,28.61,0,0,1-25.08-15.36c0,12.24.24,24.36.24,36.6h-4V401.52h4c-.12,4.8-.24,9.72-.24,14.52a28.5,28.5,0,0,1,25.08-15.24C1075.7,400.8,1088.54,414.24,1088.54,430.8Zm-4,0c0-14.4-11.16-26.64-25-26.64s-24.84,12.24-24.84,26.64,11.16,26.52,24.84,26.52S1084.58,445.2,1084.58,430.8Z"/><path d="M1158.13,401.52v80.76h-3.84c0-12.36.25-24.72.25-37a28.56,28.56,0,0,1-25.2,15.48c-16.08,0-28.8-13.32-28.8-29.76s12.72-30.12,28.8-30.12a28.8,28.8,0,0,1,25.2,15.6c0-4.92-.12-10-.25-15ZM1154.29,431c0-14.52-11.27-26.88-25-26.88s-25,12.36-25,26.88c0,14.28,11.28,26.64,25,26.64S1154.29,445.32,1154.29,431Z"/><path d="M1199.89,400.8v3.48c-13.8,0-25.31,12.12-25.79,26.52,0,10,.11,19.92.23,30h-4.19V401.52h4.19c-.12,4.92-.23,9.84-.23,14.76A29.59,29.59,0,0,1,1199.89,400.8Z"/><path d="M1241.29,451.2a17.27,17.27,0,0,1-13.32,9.48,23.65,23.65,0,0,1-5.76-.24,17.46,17.46,0,0,1-12.72-17h4c0,6.24,4.08,12.36,9.84,13.68s11.76-2.16,14.28-7.56a13.88,13.88,0,0,0-3.12-16.32,26.47,26.47,0,0,0-8-4c-3.12-1-6.36-1.56-8.88-3.72a14,14,0,0,1-3.48-16.8,13.54,13.54,0,0,1,10.8-7.68,9.3,9.3,0,0,1,4.44.24A14,14,0,0,1,1239.73,415h-4c0-4.68-3.12-9.36-7.44-10.44-4.08-1-8.64,1.56-10.56,5.88a10.81,10.81,0,0,0,2.16,12.12v-.12a25.43,25.43,0,0,0,7.68,3.72c3.12,1,6.6,1.56,9.6,4.08l-.12.12A17.58,17.58,0,0,1,1241.29,451.2Z"/><path d="M1282,416.28c-5.52,0-10.92-.12-16.44-.12,0,7.92,0,16,.24,23.88,0,9.48,7.2,17.28,16.2,17.28v3.48c-11.16,0-20.16-9.36-20.16-20.76.12-7.92.12-16,.12-23.88-2.28,0-4.56,0-7,.12v-4c2.28.12,4.68.24,7,.24,0-11.4-.12-22.8-.12-34.2h4c-.12,11.4-.24,22.8-.24,34.2,5.4-.12,10.92-.24,16.44-.24Z"/><path d="M1348.09,402.36V459.6H1344c.12-4.2.12-8.28.24-12.48a29.32,29.32,0,0,1-9.72,9.84,25.9,25.9,0,0,1-27.24,0A28.23,28.23,0,0,1,1294,433.08V402.36h4.08v30.48c0,8.64,4.32,16.8,11.4,21a22.1,22.1,0,0,0,23,0,24.86,24.86,0,0,0,11.64-21h.12c-.12-10.2-.24-20.4-.24-30.48Z"/><path d="M1414.69,400.8l-25.92,60h-5.4l-25.68-60h3.84l24.36,56.4,24.24-56.4Z"/><path d="M1499.29,401.64v39.72a19.61,19.61,0,0,1-9.24,16.56,18.74,18.74,0,0,1-19.08,0,19.24,19.24,0,0,1-7.44-8,19.24,19.24,0,0,1-7.44,8,18.52,18.52,0,0,1-19,0,19.61,19.61,0,0,1-9.24-16.56V401.64H1432V441c0,5.52,2.64,11.28,7.32,14a14.74,14.74,0,0,0,14.76,0c4.8-2.76,7.44-8.52,7.44-14V401.64h4.2V441c0,5.52,2.76,11.28,7.44,14a14.74,14.74,0,0,0,14.76,0c4.68-2.76,7.32-8.52,7.32-14V401.64Z"/><path d="M1534.45,431.28c5.64,9.84,11.52,19.68,17.4,29.52h-4.8l-14.88-25.68-14.76,25.68h-4.92c5.88-9.84,11.76-19.56,17.52-29.52L1512.49,401h4.8c4.92,8.88,9.84,17.64,14.88,26.4,5-8.64,10.08-17.52,14.88-26.4h4.8Z"/><path d="M1618,401.76v58.8a20.77,20.77,0,0,1-16.8,20.64,60.26,60.26,0,0,1-9,.48,66.49,66.49,0,0,1-9.48-.48,20.87,20.87,0,0,1-13.8-10.2l3.24-1.92a16.52,16.52,0,0,0,11.4,8,54.83,54.83,0,0,0,8.64.72,46.14,46.14,0,0,0,8.16-.72c7.92-1.2,13.68-8.28,13.68-16.56.12-5.88.24-11.76.24-17.64a28.31,28.31,0,0,1-10.08,10.2,25.78,25.78,0,0,1-26.88,0A27.94,27.94,0,0,1,1563.85,429V401.76h4.08V429a24.8,24.8,0,0,0,11.52,21.24,22.1,22.1,0,0,0,23,0,26.33,26.33,0,0,0,11.76-18.84c0-10-.12-19.8-.24-29.64Z"/><path d="M1672.21,457.2v3.6h-41c10.8-18.6,21.84-37.56,32.4-56-10.08-.12-21.12,0-31.44,0v-3.84h38.4c-10.8,18.84-21.84,37.56-32.52,56.28C1649.41,457.32,1660.81,457.2,1672.21,457.2Z"/><path d="M199.47,574.8c0,16.44-13,30-28.92,30s-28.92-13.56-28.92-30,13-30,28.92-30S199.47,558.24,199.47,574.8ZM156,595.92l25.68-44.4a23.64,23.64,0,0,0-11.16-2.76c-13.8,0-25,11.64-25,26A26,26,0,0,0,156,595.92Zm39.36-21.12a26.44,26.44,0,0,0-10.32-21.12l-25.68,44.4a25.05,25.05,0,0,0,11.16,2.64C184.23,600.72,195.39,589.2,195.39,574.8Z"/><path d="M223.83,604.8h-4.08V549.12l-7.8,7.8-2.88-3L218,545h5.88Z"/><path d="M278.19,601v3.84H240.27V601c10.08-9.12,20.52-18.6,27.48-25.8a15.48,15.48,0,0,0,2.76-18.24c-3.12-6.12-10-9.48-16.32-7.8s-10.68,8.16-10.68,15h-4.08a19.19,19.19,0,0,1,13.92-18.6,17.63,17.63,0,0,1,6.12-.48,18.68,18.68,0,0,1,14.76,10,19.63,19.63,0,0,1-3.48,23c-6.48,6.72-15.6,14.76-24.6,22.92Z"/><path d="M330,614.4a22.93,22.93,0,0,1-25.44,5.27,24.44,24.44,0,0,1-14.4-22.31h4.2c0,8,4.68,15.84,11.88,19a18.59,18.59,0,0,0,21-4.44c5.4-5.64,7.08-14.88,4.08-22.32a19.35,19.35,0,0,0-17.76-12.48v-3.6c4.56,0,8.88-3.36,10.68-7.92A13.1,13.1,0,0,0,321.63,552a10.89,10.89,0,0,0-12.36-2.52A12.6,12.6,0,0,0,302,561h-4a16,16,0,0,1,9.6-14.88,12.25,12.25,0,0,1,4.56-1.2,14.88,14.88,0,0,1,12.48,4.68A16,16,0,0,1,328,567.12a14.66,14.66,0,0,1-6.48,7.68,22.85,22.85,0,0,1,13.56,13.32A24.25,24.25,0,0,1,330,614.4Z"/><path d="M405,604.8c-4.92-.12-9.84-.12-14.88-.12,0,5.88.12,11.88.12,17.76h-4.2c.12-5.88.12-11.88.12-17.76-10.68,0-21.6.12-32.4.12H349l34.68-60h6.6c0,18.84-.12,37.56-.12,56.28,5,0,10,0,14.88-.12Zm-18.84-3.72c.12-17.4,0-34.68-.12-52.2L356,601C366.15,601,376.23,601.08,386.19,601.08Z"/><path d="M457.59,614.64a23.08,23.08,0,0,1-19.08,7.07,23.43,23.43,0,0,1-6.84-1.67A24.72,24.72,0,0,1,417,597.24h4.2a20.54,20.54,0,0,0,12.12,19,18.82,18.82,0,0,0,21.24-4.44,21.38,21.38,0,0,0,4.32-22.44,19.63,19.63,0,0,0-18.12-12.72l-13-.12V544.8h33.24v3.84H432v24q4.5-.18,9,0a23.85,23.85,0,0,1,21.72,15.24A25,25,0,0,1,457.59,614.64Z"/><path d="M523.7,580.32c0,13.44-10.55,24.48-23.63,24.48s-23.52-11-23.52-24.48a23.91,23.91,0,0,1,.48-5c4-18.72,14.28-37.8,27.6-48.12h5.16c-8.76,6.72-17.88,20-23.76,33.48a23.08,23.08,0,0,1,14-4.8C513.15,555.84,523.7,566.88,523.7,580.32Zm-4.2,0c0-11.28-8.63-21-19.43-21s-19.44,9.72-19.44,21,8.76,21,19.44,21S519.5,591.6,519.5,580.32Z"/><path d="M538.47,622.44h-4.8L576.5,548H532.11V544.8h51.23Z"/><path d="M641.3,580.32c0,13.44-10.56,24.48-23.63,24.48s-23.52-11-23.52-24.48a23.68,23.68,0,0,1,15.6-22.56,16.54,16.54,0,0,1-7.92-14.16c0-9,7.08-16.44,15.84-16.44s15.83,7.44,15.83,16.44a16.54,16.54,0,0,1-7.92,14.16A23.78,23.78,0,0,1,641.3,580.32Zm-4.08,0c0-11.28-8.76-20.4-19.55-20.4s-19.44,9.12-19.44,20.4,8.76,20.76,19.44,20.76S637.22,591.6,637.22,580.32Zm-19.55-23.88c6.48,0,11.75-6,11.75-12.84s-5.27-13-11.75-13S606,536.76,606,543.6,611.31,556.44,617.67,556.44Z"/><path d="M698.78,574.32c-3.95,18.72-14.39,37.8-27.71,48.12h-5c8.76-6.72,17.76-20,23.64-33.48a23.08,23.08,0,0,1-14,4.8c-13,0-23.52-11-23.52-24.48s10.56-24.48,23.52-24.48,23.63,11,23.63,24.48A23.91,23.91,0,0,1,698.78,574.32ZM694.1,576a21,21,0,0,0,.61-2.52h.12a24.78,24.78,0,0,0,.36-4.2c0-11.28-8.76-20.88-19.56-20.88s-19.44,9.6-19.44,20.88,8.76,20.88,19.44,20.88C684.15,590.16,691.46,584.16,694.1,576Z"/><path d="M773.91,612.72h-2.64l1.2-13.2h4.8Z"/><path d="M790.11,596.4a4.2,4.2,0,0,1,0,8.4,4.21,4.21,0,1,1,0-8.4Z"/><path d="M834.26,569.88v4.2h-28v-4.2Z"/></svg>