<svg id="Ebene_1" data-name="Ebene 1" xmlns="http://www.w3.org/2000/svg" viewBox="0 0 1920 1080"><defs><style>.cls-1{fill:#fff;}.cls-2,.cls-3{fill:none;stroke:#000;stroke-miterlimit:10;stroke-width:3.5px;}.cls-2{opacity:0.2;}</style></defs><title>circle_alphabet</title><rect class="cls-1" width="1920" height="1080"/><rect class="cls-2" x="91.96" y="191.49" width="62.36" height="62.36"/><circle class="cls-3" cx="298.91" cy="222.67" r="31.18"/><polygon class="cls-2" points="215.14 191.49 233.14 222.67 251.14 253.85 215.14 253.85 179.13 253.85 197.13 222.67 215.14 191.49"/><path d="M325.3,327.48v52.06h-3.67c.1-4.1.21-8.21.21-12.2a26,26,0,0,1-22.68,13.6c-14.36,0-26-12.2-26-27,0-15,11.67-27,26-27a25.72,25.72,0,0,1,22.68,13.61c0-4.43-.11-8.75-.21-13.07Zm-3.67,26.46c0-13.06-10.16-24-22.47-24s-22.25,10.91-22.25,24,9.83,23.87,22.25,23.87S321.63,367,321.63,353.94Z"/><path d="M388.15,353.94c0,14.8-11.66,27-26,27a25.89,25.89,0,0,1-22.58-13.6c0,4,.11,8.1.22,12.2H336.1V306.75h3.67l-.33,34a25.94,25.94,0,0,1,22.69-13.83C376.49,326.94,388.15,339.15,388.15,353.94Zm-3.67,0c0-12.85-9.93-23.76-22.35-23.76s-22.36,10.91-22.36,23.76c0,13.07,9.94,23.44,22.36,23.44S384.48,367,384.48,353.94Z"/><path d="M446.47,340.44l-3.13,1.73c-5.18-9.07-15.44-13.61-25.27-10.91a23.4,23.4,0,0,0-16.63,22.68c0,10.59,6.8,20,16.63,22.58s20.09-1.73,25.27-11l3.13,1.84c-5.94,10.58-18,15.87-29.27,12.74a26.93,26.93,0,0,1-19.33-26.14c0-12.31,7.78-22.89,19.33-26a22.37,22.37,0,0,1,8.43-1A26.23,26.23,0,0,1,446.47,340.44Z"/><path d="M508.25,306.75v72.79h-3.57q.33-6.32.33-12.64a25.81,25.81,0,0,1-22.79,14c-14.36,0-26-12.2-26-27s11.67-27,26-27a25.8,25.8,0,0,1,22.9,14c-.22-11.44-.44-22.79-.44-34.23Zm-3.57,47.19c0-13-10-23.86-22.46-23.86s-22.36,10.9-22.36,23.86,10.05,23.76,22.36,23.76S504.68,366.9,504.68,353.94Z"/><path d="M547.23,350.7h22.15c-1.3-10.47-9-19-19.23-20.3-11-1.62-21.49,6.05-24.52,17.5s2.6,23.54,13.07,28.18c10.37,4.32,22.25-.21,28-10.47l3.25,1.73c-6.7,11.88-20.63,16.84-32.62,11.44-12-5.07-18.58-18.9-15.23-31.86,3-11.44,12.74-19.44,23.76-20a19.44,19.44,0,0,1,5,.22c13,1.73,22.57,13.28,22.57,26.68H547.23Z"/><path d="M596.27,349.62c5.07,0,10.15-.1,15.22-.1v3.78c-5.07,0-10.15-.11-15.22-.11-.11,9.18,0,18.47.1,27.75H592.7c.11-9.28.11-18.57.22-27.75-2.27,0-4.43,0-6.59.11v-3.78c2.16.1,4.32.1,6.59.1,0-7.77-.11-15.55-.22-23.33v-.54c.33-10.58,8.64-19,18.79-19V310c-8.42,0-15.12,7.34-15.12,16.3C596.27,334.07,596.27,341.85,596.27,349.62Z"/><path d="M669,327.81v53a18.49,18.49,0,0,1-15.12,18.36,52.93,52.93,0,0,1-8.21.54,76.75,76.75,0,0,1-8.53-.54c-5.18-.76-9.72-4.22-12.53-9l3.35-1.94a14.18,14.18,0,0,0,9.94,7.45,38.73,38.73,0,0,0,7.77.76,44.28,44.28,0,0,0,7.78-.76c6.8-1.19,11.77-7.56,11.77-14.9l.32-15.66a24.39,24.39,0,0,1-20.84,12.31c-13.61,0-24.52-11.45-24.52-25.27s10.91-25.28,24.52-25.28a24.09,24.09,0,0,1,20.74,12.32c0-3.89-.11-7.67-.22-11.45Zm-3.78,24.41c0-11.89-9.18-22.25-20.52-22.25-11.66,0-20.84,10.36-20.84,22.25,0,12.2,9.18,22.46,20.84,22.46C656,374.68,665.17,364.42,665.17,352.22Z"/><path d="M725.65,380.94H722V350.16c0-11.12-8.64-20.41-19.23-20.41s-19.44,9.29-19.44,20.41c0,10.26.11,20.52.22,30.78h-3.78v-75.6h3.78c-.11,10.69-.22,21.39-.22,32.08a22.88,22.88,0,0,1,19.44-11.13c12.75,0,22.79,10.7,22.9,23.77Z"/><path d="M742.6,319a3.94,3.94,0,1,1,0,7.88,3.94,3.94,0,1,1,0-7.88Zm-1.83,14.26v47.73h3.78V333.21Z"/><path d="M770.68,333.21h3.78v52.7c0,8.43-6.69,15.45-14.9,15.45v-3c6.26,0,11.23-5.94,11.23-12.42Zm5.83-10.37a4,4,0,0,1-3.88,4,4.15,4.15,0,0,1-4.11-4,4,4,0,0,1,4.11-3.89A3.8,3.8,0,0,1,776.51,322.84Z"/><path d="M812.69,380.94l-22-22.24c0,7.45.11,14.79.22,22.24h-3.57V306.75h3.57c-.11,14.25-.22,28.51-.22,42.77L812.15,328h5.08l-26.35,26.46-.22-.21v.43l.22-.22,26.57,26.46Z"/><path d="M833.1,306.75v59h-3.78v-59Zm-3.67,59a15.09,15.09,0,0,0,15,15.22V377.7c-6.26,0-11.34-5.4-11.34-12.09Z"/><path d="M943.59,380.94H940V350.49c0-11-8.75-20.41-19-20.41-10.59,0-19.12,9.39-19.12,20.41v30.45h-3.78V350.49c0-11-8.53-20.41-19-20.41s-19.22,9.39-19.22,20.41c0,10.15.21,20.3.21,30.45h-3.78V327.7h3.78c-.1,3.35-.21,6.8-.21,10.26A22.33,22.33,0,0,1,900,341.2,23,23,0,0,1,921,326.94c12.31,0,22.46,10.59,22.57,23.33Z"/><path d="M1000,380.94h-3.78V350.49c0-11-8.53-20.2-19-20.2-9.94,0-18.47,8.32-19.23,18.69,0,10.58.11,21.38.22,32h-3.78V327.59h3.78c-.11,3.35-.22,6.81-.22,10.26a22.46,22.46,0,0,1,19.23-10.91c12.52,0,22.68,10.48,22.78,23.44Z"/><path d="M1062.6,353.94c0,14.8-11.44,27-25.92,27-14.25,0-25.92-12.2-25.92-27s11.67-27,25.92-27C1051.16,326.94,1062.6,339.15,1062.6,353.94Zm-48.38,0c0,12.86,10.15,24,22.46,24s22.47-11.12,22.47-24c0-13.06-10.15-24-22.47-24S1014.22,340.88,1014.22,353.94Z"/><path d="M1125.35,353.94c0,14.8-11.56,27-26,27a25.74,25.74,0,0,1-22.57-13.82c0,11,.21,21.92.21,32.94h-3.56V327.59H1077c-.1,4.32-.21,8.75-.21,13.07a25.65,25.65,0,0,1,22.57-13.72C1113.79,326.94,1125.35,339,1125.35,353.94Zm-3.56,0c0-13-10-24-22.47-24s-22.36,11-22.36,24,10,23.87,22.36,23.87S1121.79,366.9,1121.79,353.94Z"/><path d="M1188,327.59v72.69h-3.46c0-11.13.22-22.25.22-33.27a25.67,25.67,0,0,1-22.68,13.93c-14.47,0-25.92-12-25.92-26.78s11.45-27.11,25.92-27.11a25.91,25.91,0,0,1,22.68,14c0-4.43-.11-9-.22-13.5Zm-3.46,26.57c0-13.07-10.15-24.19-22.46-24.19s-22.47,11.12-22.47,24.19c0,12.85,10.16,24,22.47,24S1184.53,367,1184.53,354.16Z"/><path d="M1225.57,326.94v3.14c-12.42,0-22.79,10.9-23.22,23.86,0,9,.11,17.93.22,27h-3.78V327.59h3.78c-.11,4.43-.22,8.86-.22,13.29A26.65,26.65,0,0,1,1225.57,326.94Z"/><path d="M1262.83,372.3a15.53,15.53,0,0,1-12,8.54,21.87,21.87,0,0,1-5.18-.22,15.72,15.72,0,0,1-11.45-15.34h3.56c0,5.62,3.68,11.13,8.86,12.32s10.58-2,12.85-6.81a12.48,12.48,0,0,0-2.81-14.69,23.69,23.69,0,0,0-7.23-3.56c-2.81-.86-5.73-1.4-8-3.35a12.59,12.59,0,0,1-3.14-15.12,12.18,12.18,0,0,1,9.72-6.91,8.23,8.23,0,0,1,4,.22,12.63,12.63,0,0,1,9.4,12.31h-3.57c0-4.21-2.81-8.43-6.69-9.4-3.68-.86-7.78,1.41-9.51,5.29a9.72,9.72,0,0,0,1.95,10.91v-.11a22.69,22.69,0,0,0,6.91,3.35c2.81.87,5.94,1.41,8.64,3.67l-.11.11A15.83,15.83,0,0,1,1262.83,372.3Z"/><path d="M1299.44,340.88c-5,0-9.83-.11-14.79-.11,0,7.13,0,14.36.21,21.49,0,8.53,6.48,15.55,14.58,15.55v3.13c-10,0-18.14-8.42-18.14-18.68.11-7.13.11-14.36.11-21.49-2.06,0-4.11,0-6.27.11v-3.57c2,.11,4.21.22,6.27.22,0-10.26-.11-20.52-.11-30.78h3.56c-.11,10.26-.21,20.52-.21,30.78,4.86-.11,9.82-.22,14.79-.22Z"/><path d="M1359,328.35v51.51h-3.67c.11-3.78.11-7.45.21-11.23a26.36,26.36,0,0,1-8.74,8.86,23.34,23.34,0,0,1-24.52,0,25.4,25.4,0,0,1-12-21.49V328.35h3.67v27.43c0,7.78,3.89,15.12,10.26,18.9a19.89,19.89,0,0,0,20.74,0,22.38,22.38,0,0,0,10.48-18.9h.1c-.1-9.18-.21-18.36-.21-27.43Z"/><path d="M1418.89,326.94l-23.33,54h-4.86l-23.11-54H1371L1393,377.7l21.82-50.76Z"/><path d="M1495,327.7v35.75a17.65,17.65,0,0,1-8.32,14.9,16.87,16.87,0,0,1-17.17,0,17.37,17.37,0,0,1-6.7-7.23,17.35,17.35,0,0,1-6.69,7.23,16.69,16.69,0,0,1-17.07,0,17.66,17.66,0,0,1-8.31-14.9V327.7h3.67v35.42c0,5,2.38,10.16,6.59,12.64a13.24,13.24,0,0,0,13.28,0c4.32-2.48,6.7-7.67,6.7-12.64V327.7h3.78v35.42c0,5,2.48,10.16,6.69,12.64a13.26,13.26,0,0,0,13.29,0c4.21-2.48,6.59-7.67,6.59-12.64V327.7Z"/><path d="M1526.67,354.38c5.08,8.85,10.37,17.71,15.66,26.56H1538l-13.39-23.11-13.28,23.11h-4.43c5.29-8.85,10.58-17.6,15.77-26.56l-15.77-27.22h4.32c4.43,8,8.85,15.88,13.39,23.76,4.54-7.78,9.07-15.77,13.39-23.76h4.32Z"/><path d="M1601.84,327.81v52.92a18.68,18.68,0,0,1-15.12,18.57,53.21,53.21,0,0,1-8.1.44,58.67,58.67,0,0,1-8.53-.44,18.74,18.74,0,0,1-12.42-9.18l2.91-1.72a14.9,14.9,0,0,0,10.26,7.23,48.85,48.85,0,0,0,7.78.65,41,41,0,0,0,7.34-.65,14.83,14.83,0,0,0,12.32-14.9c.1-5.29.21-10.59.21-15.88a25.49,25.49,0,0,1-9.07,9.18,23.18,23.18,0,0,1-24.19,0,25.13,25.13,0,0,1-12.1-21.71V327.81h3.67v24.51a22.32,22.32,0,0,0,10.37,19.12,19.89,19.89,0,0,0,20.74,0,23.67,23.67,0,0,0,10.58-17c0-9-.11-17.82-.21-26.67Z"/><path d="M1650.66,377.7v3.24h-36.94c9.72-16.74,19.66-33.8,29.16-50.43-9.07-.11-19,0-28.3,0v-3.46h34.56c-9.72,17-19.65,33.81-29.26,50.65C1630.13,377.81,1640.39,377.7,1650.66,377.7Z"/><path d="M325.19,483.54c0,14.8-11.66,27-26,27s-26-12.2-26-27,11.67-27,26-27S325.19,468.64,325.19,483.54Zm-39.1,19,23.12-40a21.3,21.3,0,0,0-10-2.48c-12.42,0-22.46,10.47-22.46,23.43A23.43,23.43,0,0,0,286.09,502.55Zm35.43-19a23.81,23.81,0,0,0-9.29-19l-23.11,40a22.55,22.55,0,0,0,10,2.37C311.47,506.87,321.52,496.5,321.52,483.54Z"/><path d="M347.11,510.54h-3.67V460.43l-7,7-2.59-2.7,8-8h5.29Z"/><path d="M396,507.09v3.45H361.91v-3.45c9.07-8.21,18.47-16.74,24.73-23.22a13.93,13.93,0,0,0,2.48-16.42c-2.8-5.51-9-8.53-14.68-7s-9.62,7.34-9.62,13.5h-3.67a17.27,17.27,0,0,1,12.53-16.74,15.83,15.83,0,0,1,5.51-.43,16.8,16.8,0,0,1,13.28,9,17.66,17.66,0,0,1-3.13,20.74c-5.83,6.05-14,13.28-22.14,20.63Z"/><path d="M442.69,519.18a20.38,20.38,0,0,1-16.85,6.27,21.06,21.06,0,0,1-6-1.51,22,22,0,0,1-13-20.09h3.78c0,7.23,4.22,14.25,10.7,17.06a16.72,16.72,0,0,0,18.9-4,19.44,19.44,0,0,0,3.67-20.09,17.4,17.4,0,0,0-16-11.23v-3.25c4.1,0,8-3,9.61-7.12A11.79,11.79,0,0,0,435.13,463,9.82,9.82,0,0,0,424,460.75a11.34,11.34,0,0,0-6.59,10.37h-3.57a14.35,14.35,0,0,1,8.65-13.39,10.94,10.94,0,0,1,4.1-1.08,13.39,13.39,0,0,1,11.23,4.21,14.42,14.42,0,0,1,3,15.77,13.11,13.11,0,0,1-5.83,6.91,20.61,20.61,0,0,1,12.21,12A21.81,21.81,0,0,1,442.69,519.18Z"/><path d="M510.19,510.54c-4.43-.1-8.86-.1-13.39-.1,0,5.29.11,10.69.11,16h-3.78c.1-5.29.1-10.69.1-16-9.61,0-19.44.1-29.16.1h-4.32l31.22-54h5.94c0,17-.11,33.81-.11,50.66,4.53,0,9,0,13.39-.11Zm-17-3.34c.11-15.66,0-31.22-.1-47L466,507.09C475.2,507.09,484.27,507.2,493.23,507.2Z"/><path d="M557.49,519.4a20.8,20.8,0,0,1-17.17,6.37,21.43,21.43,0,0,1-6.16-1.51A22.26,22.26,0,0,1,521,503.74h3.78a18.47,18.47,0,0,0,10.91,17.06,16.93,16.93,0,0,0,19.11-4,19.24,19.24,0,0,0,3.89-20.2,17.68,17.68,0,0,0-16.31-11.45l-11.66-.1V456.54h29.91V460H534.49v21.6q4.05-.17,8.1,0a21.48,21.48,0,0,1,19.55,13.72A22.54,22.54,0,0,1,557.49,519.4Z"/><path d="M617,488.51c0,12.1-9.5,22-21.28,22s-21.17-9.93-21.17-22A21.08,21.08,0,0,1,575,484c3.56-16.85,12.85-34,24.84-43.31h4.64c-7.88,6-16.09,18-21.38,30.13a20.75,20.75,0,0,1,12.63-4.32C607.5,466.48,617,476.42,617,488.51Zm-3.78,0c0-10.15-7.78-18.9-17.5-18.9s-17.49,8.75-17.49,18.9,7.88,18.9,17.49,18.9S613.22,498.66,613.22,488.51Z"/><path d="M630.28,526.42H626l38.56-67h-40v-2.92h46.11Z"/><path d="M722.84,488.51c0,12.1-9.51,22-21.28,22s-21.17-9.93-21.17-22a21.31,21.31,0,0,1,14-20.3,14.9,14.9,0,0,1-7.12-12.75c0-8.1,6.37-14.79,14.25-14.79s14.26,6.69,14.26,14.79a14.91,14.91,0,0,1-7.13,12.75A21.39,21.39,0,0,1,722.84,488.51Zm-3.67,0c0-10.15-7.89-18.36-17.61-18.36s-17.49,8.21-17.49,18.36S692,507.2,701.56,507.2,719.17,498.66,719.17,488.51ZM701.56,467c5.83,0,10.59-5.4,10.59-11.56s-4.76-11.66-10.59-11.66-10.47,5.51-10.47,11.66S695.84,467,701.56,467Z"/><path d="M774.57,483.11c-3.56,16.85-13,34-25,43.31h-4.53c7.88-6,16-18,21.27-30.13a20.75,20.75,0,0,1-12.63,4.32c-11.67,0-21.17-9.94-21.17-22s9.5-22,21.17-22,21.27,9.94,21.27,22A21.72,21.72,0,0,1,774.57,483.11Zm-4.21,1.51a18.24,18.24,0,0,0,.54-2.27H771a21.87,21.87,0,0,0,.32-3.77c0-10.16-7.88-18.8-17.6-18.8s-17.5,8.64-17.5,18.8,7.88,18.79,17.5,18.79C761.39,497.37,768,492,770.36,484.62Z"/><path d="M842.18,517.67H839.8l1.08-11.88h4.32Z"/><path d="M856.76,503a3.78,3.78,0,0,1,0,7.56,3.79,3.79,0,1,1,0-7.56Z"/><path d="M896.5,479.11v3.79H871.34v-3.79Z"/></svg>