<svg id="Ebene_1" data-name="Ebene 1" xmlns="http://www.w3.org/2000/svg" viewBox="0 0 1920 1080"><defs><style>.cls-1{fill:#fff;}.cls-2,.cls-3{fill:none;stroke:#000;stroke-miterlimit:10;stroke-width:3.5px;}.cls-2{opacity:0.2;}</style></defs><title>circle_example</title><rect class="cls-1" width="1920" height="1080"/><rect class="cls-2" x="91.96" y="191.49" width="62.36" height="62.36"/><circle class="cls-3" cx="298.91" cy="222.67" r="31.18"/><polygon class="cls-2" points="215.14 191.49 233.14 222.67 251.14 253.85 215.14 253.85 179.13 253.85 197.13 222.67 215.14 191.49"/><path d="M286,361.31c5.64,0,11.28-.12,16.92-.12v4.2c-5.64,0-11.28-.12-16.92-.12-.12,10.2,0,20.52.12,30.83H282c.12-10.31.12-20.63.24-30.83-2.52,0-4.92,0-7.32.12v-4.2c2.4.12,4.8.12,7.32.12,0-8.64-.12-17.28-.24-25.92v-.6c.36-11.76,9.6-21.12,20.88-21.12v3.6c-9.36,0-16.8,8.16-16.8,18.12C286,344,286,352.67,286,361.31Z"/><path d="M347,336.11v3.48c-13.8,0-25.32,12.12-25.8,26.52,0,10,.12,19.92.24,30h-4.2V336.83h4.2c-.12,4.92-.24,9.84-.24,14.76A29.61,29.61,0,0,1,347,336.11Z"/><path d="M405,336.71v57.83H400.9c.12-4.55.25-9.11.25-13.55A29,29,0,0,1,376,396.1c-16,0-28.92-13.55-28.92-30,0-16.68,13-30,28.92-30a28.58,28.58,0,0,1,25.2,15.12c0-4.92-.13-9.72-.25-14.52Zm-4.08,29.4c0-14.52-11.27-26.64-24.95-26.64s-24.72,12.12-24.72,26.64,10.92,26.51,24.72,26.51S400.9,380.63,400.9,366.11Z"/><path d="M467.62,396.1h-4.2V362.27c0-12.24-9.48-22.44-21.11-22.44-11,0-20.52,9.24-21.36,20.76,0,11.76.12,23.76.24,35.51H417V336.83h4.2c-.12,3.72-.24,7.56-.24,11.4a25,25,0,0,1,21.36-12.12c13.91,0,25.19,11.64,25.31,26Z"/><path d="M520.66,392.5v3.6h-41c10.8-18.59,21.84-37.55,32.4-56-10.08-.12-21.12,0-31.44,0v-3.84H519c-10.8,18.84-21.84,37.56-32.52,56.27C497.86,392.62,509.26,392.5,520.66,392.5Z"/><path d="M605,343.07h4.2v58.55c0,9.36-7.44,17.16-16.56,17.16v-3.36c7,0,12.48-6.6,12.48-13.8Zm6.48-11.52a4.41,4.41,0,0,1-4.32,4.44,4.61,4.61,0,0,1-4.56-4.44,4.43,4.43,0,0,1,4.56-4.32A4.23,4.23,0,0,1,611.5,331.55Z"/><path d="M680.26,336.71v57.83h-4.08c.12-4.55.24-9.11.24-13.55a29,29,0,0,1-25.2,15.11c-16,0-28.92-13.55-28.92-30,0-16.68,13-30,28.92-30a28.58,28.58,0,0,1,25.2,15.12c0-4.92-.12-9.72-.24-14.52Zm-4.08,29.4c0-14.52-11.28-26.64-25-26.64s-24.72,12.12-24.72,26.64,10.92,26.51,24.72,26.51S676.18,380.63,676.18,366.11Z"/><path d="M746.5,337.07V396a20.53,20.53,0,0,1-16.8,20.4,58.31,58.31,0,0,1-9.12.6,83.54,83.54,0,0,1-9.48-.6c-5.76-.84-10.8-4.68-13.92-10l3.72-2.16a15.74,15.74,0,0,0,11,8.28,42.91,42.91,0,0,0,8.64.84,49.74,49.74,0,0,0,8.64-.84c7.56-1.32,13.08-8.4,13.08-16.56l.36-17.39a27.1,27.1,0,0,1-23.16,13.68c-15.12,0-27.24-12.72-27.24-28.08s12.12-28.08,27.24-28.08a26.75,26.75,0,0,1,23,13.68c0-4.32-.12-8.52-.24-12.72Zm-4.2,27.12c0-13.2-10.2-24.72-22.8-24.72-13,0-23.16,11.52-23.16,24.72,0,13.56,10.2,25,23.16,25C732.1,389.15,742.3,377.75,742.3,364.19Z"/><path d="M785.5,351.59c-5.52,0-10.92-.12-16.44-.12,0,7.92,0,16,.24,23.88,0,9.48,7.2,17.27,16.2,17.27v3.48c-11.16,0-20.16-9.35-20.16-20.75.12-7.92.12-16,.12-23.88-2.28,0-4.56,0-7,.12v-4c2.28.12,4.68.24,7,.24,0-11.4-.12-22.8-.12-34.2h4c-.12,11.4-.24,22.8-.24,34.2,5.4-.12,10.92-.24,16.44-.24Z"/><path d="M864.34,327.23a4.38,4.38,0,1,1,0,8.76,4.38,4.38,0,1,1,0-8.76Zm-2,15.84v53h4.2v-53Z"/><path d="M980.13,396.1h-4V362.27c0-12.24-9.71-22.68-21.11-22.68-11.76,0-21.24,10.44-21.24,22.68V396.1h-4.2V362.27c0-12.24-9.48-22.68-21.12-22.68S887.14,350,887.14,362.27c0,11.28.24,22.56.24,33.83h-4.2V337h4.2c-.12,3.72-.24,7.56-.24,11.4a24.81,24.81,0,0,1,44.52,3.6,25.57,25.57,0,0,1,23.4-15.84c13.67,0,25,11.76,25.07,25.92Z"/><path d="M1080.34,396.1l-24.48-24.71c0,8.28.12,16.44.24,24.71h-4V313.67h4c-.12,15.84-.24,31.68-.24,47.52l23.88-23.88h5.64l-29.28,29.4-.24-.24V367l.24-.24,29.52,29.39Z"/><path d="M1148,366.11c0,16.44-12.72,30-28.8,30-15.83,0-28.79-13.55-28.79-30s13-30,28.79-30C1135.29,336.11,1148,349.67,1148,366.11Zm-53.75,0c0,14.28,11.28,26.64,25,26.64s25-12.36,25-26.64c0-14.52-11.28-26.64-25-26.64S1094.26,351.59,1094.26,366.11Z"/><path d="M1257,396.1h-4V362.27c0-12.24-9.72-22.68-21.12-22.68-11.76,0-21.24,10.44-21.24,22.68V396.1h-4.2V362.27c0-12.24-9.48-22.68-21.12-22.68S1164,350,1164,362.27c0,11.28.23,22.56.23,33.83H1160V337h4.19c-.12,3.72-.23,7.56-.23,11.4a24.8,24.8,0,0,1,44.51,3.6,25.57,25.57,0,0,1,23.4-15.84c13.68,0,25,11.76,25.08,25.92Z"/><path d="M1326.69,366.11c0,16.44-12.84,30-28.92,30a28.6,28.6,0,0,1-25.08-15.35c0,12.24.24,24.35.24,36.59h-4V336.83h4c-.12,4.8-.24,9.72-.24,14.52a28.5,28.5,0,0,1,25.08-15.24C1313.85,336.11,1326.69,349.55,1326.69,366.11Zm-4,0c0-14.4-11.16-26.64-25-26.64s-24.84,12.24-24.84,26.64,11.16,26.51,24.84,26.51S1322.73,380.51,1322.73,366.11Z"/><path d="M1344.09,313.67v65.52h-4.2V313.67ZM1340,379.19a16.77,16.77,0,0,0,16.68,16.91v-3.6c-7,0-12.6-6-12.6-13.43Z"/><path d="M1389.21,362.51h24.6c-1.44-11.64-10-21.12-21.36-22.56-12.24-1.8-23.88,6.72-27.24,19.44s2.88,26.16,14.52,31.32c11.52,4.79,24.72-.24,31.08-11.64l3.6,1.92c-7.44,13.2-22.92,18.72-36.24,12.72-13.32-5.64-20.64-21-16.92-35.4,3.36-12.72,14.16-21.6,26.4-22.2a22,22,0,0,1,5.52.24c14.4,1.92,25.08,14.76,25.08,29.64h-29Z"/><path d="M1457.25,351.59c-5.52,0-10.92-.12-16.44-.12,0,7.92,0,16,.24,23.88,0,9.48,7.2,17.27,16.2,17.27v3.48c-11.16,0-20.16-9.35-20.16-20.75.12-7.92.12-16,.12-23.88-2.28,0-4.56,0-7,.12v-4c2.28.12,4.68.24,7,.24,0-11.4-.12-22.8-.12-34.2h4c-.12,11.4-.24,22.8-.24,34.2,5.4-.12,10.92-.24,16.44-.24Z"/><path d="M1496.25,351.59c-5.52,0-10.92-.12-16.44-.12,0,7.92,0,16,.24,23.88,0,9.48,7.2,17.27,16.2,17.27v3.48c-11.16,0-20.16-9.35-20.16-20.75.12-7.92.12-16,.12-23.88-2.28,0-4.56,0-7,.12v-4c2.28.12,4.68.24,7,.24,0-11.4-.12-22.8-.12-34.2h4c-.12,11.4-.24,22.8-.24,34.2,5.4-.12,10.92-.24,16.44-.24Z"/><path d="M1622.85,336.11l-25.92,60h-5.4l-25.68-60h3.84l24.36,56.39,24.24-56.39Z"/><path d="M1655.37,362.51H1680c-1.44-11.64-10-21.12-21.36-22.56-12.24-1.8-23.88,6.72-27.24,19.44s2.88,26.16,14.52,31.32c11.52,4.79,24.72-.24,31.08-11.64l3.6,1.92c-7.44,13.2-22.92,18.72-36.24,12.72-13.32-5.64-20.64-21-16.92-35.4,3.36-12.72,14.16-21.6,26.4-22.2a22,22,0,0,1,5.52.24c14.4,1.92,25.08,14.76,25.08,29.64h-29Z"/><path d="M1726.17,336.11v3.48c-13.8,0-25.32,12.12-25.8,26.52,0,10,.12,19.92.24,30h-4.2V336.83h4.2c-.12,4.92-.24,9.84-.24,14.76A29.61,29.61,0,0,1,1726.17,336.11Z"/><path d="M281.09,500c4.23,0,8.46-.09,12.69-.09v3.15c-4.23,0-8.46-.09-12.69-.09-.09,7.65,0,15.39.09,23.13h-3.06c.09-7.74.09-15.48.18-23.13-1.89,0-3.69,0-5.49.09v-3.15c1.8.09,3.6.09,5.49.09,0-6.48-.09-13-.18-19.44v-.45c.27-8.82,7.2-15.84,15.66-15.84V467c-7,0-12.6,6.12-12.6,13.59C281.09,487.05,281.09,493.53,281.09,500Z"/><path d="M326.9,481.11v2.61c-10.35,0-19,9.09-19.35,19.89,0,7.47.09,14.94.18,22.5h-3.15V481.65h3.15c-.09,3.69-.18,7.38-.18,11.07A22.21,22.21,0,0,1,326.9,481.11Z"/><path d="M370.37,481.56v43.38h-3.06c.09-3.42.18-6.84.18-10.17a21.72,21.72,0,0,1-18.9,11.34c-12,0-21.69-10.17-21.69-22.5,0-12.51,9.72-22.5,21.69-22.5a21.43,21.43,0,0,1,18.9,11.34c0-3.69-.09-7.29-.18-10.89Zm-3.06,22.05c0-10.89-8.46-20-18.72-20s-18.54,9.09-18.54,20,8.19,19.89,18.54,19.89S367.31,514.5,367.31,503.61Z"/><path d="M417.35,526.11H414.2V500.73c0-9.18-7.11-16.83-15.84-16.83-8.28,0-15.39,6.93-16,15.57,0,8.82.09,17.82.18,26.64h-3.15V481.65h3.15c-.09,2.79-.18,5.67-.18,8.55a18.71,18.71,0,0,1,16-9.09c10.44,0,18.9,8.73,19,19.53Z"/><path d="M457.12,523.41v2.7H426.35c8.1-14,16.38-28.17,24.3-42-7.56-.09-15.84,0-23.58,0V481.2h28.79c-8.09,14.13-16.37,28.17-24.38,42.21C440,523.5,448.58,523.41,457.12,523.41Z"/><path d="M520.39,486.33h3.15v43.92a12.73,12.73,0,0,1-12.42,12.87v-2.53c5.22,0,9.36-4.94,9.36-10.34Zm4.86-8.64A3.3,3.3,0,0,1,522,481a3.46,3.46,0,0,1-3.42-3.33,3.32,3.32,0,0,1,3.42-3.24A3.17,3.17,0,0,1,525.25,477.69Z"/><path d="M576.82,481.56v43.38h-3.06c.09-3.42.18-6.84.18-10.17A21.72,21.72,0,0,1,555,526.11c-12,0-21.69-10.17-21.69-22.5,0-12.51,9.72-22.5,21.69-22.5a21.43,21.43,0,0,1,18.9,11.34c0-3.69-.09-7.29-.18-10.89Zm-3.06,22.05c0-10.89-8.46-20-18.72-20s-18.54,9.09-18.54,20S544.69,523.5,555,523.5,573.76,514.5,573.76,503.61Z"/><path d="M626.5,481.83V526a15.39,15.39,0,0,1-12.6,15.29,43.73,43.73,0,0,1-6.84.45,60.38,60.38,0,0,1-7.11-.45,15,15,0,0,1-10.44-7.47l2.79-1.61a11.81,11.81,0,0,0,8.28,6.2,31.29,31.29,0,0,0,6.48.64,36,36,0,0,0,6.48-.64c5.67-1,9.81-6.3,9.81-12.41l.27-13a20.32,20.32,0,0,1-17.37,10.26c-11.34,0-20.43-9.54-20.43-21.06s9.09-21.06,20.43-21.06a20.07,20.07,0,0,1,17.28,10.26c0-3.24-.09-6.39-.18-9.54Zm-3.15,20.34c0-9.9-7.65-18.54-17.1-18.54-9.72,0-17.37,8.64-17.37,18.54,0,10.17,7.65,18.72,17.37,18.72C615.7,520.89,623.35,512.34,623.35,502.17Z"/><path d="M655.75,492.72c-4.14,0-8.19-.09-12.33-.09,0,5.94,0,12,.18,17.91,0,7.11,5.4,13,12.15,13v2.61a15.37,15.37,0,0,1-15.12-15.57c.09-5.94.09-12,.09-17.91-1.71,0-3.42,0-5.22.09v-3c1.71.09,3.51.18,5.22.18,0-8.55-.09-17.1-.09-25.65h3c-.09,8.55-.18,17.1-.18,25.65,4.05-.09,8.19-.18,12.33-.18Z"/><path d="M714.88,474.45a3.29,3.29,0,1,1,0,6.57,3.29,3.29,0,1,1,0-6.57Zm-1.53,11.88v39.78h3.15V486.33Z"/><path d="M801.73,526.11h-3V500.73c0-9.18-7.29-17-15.84-17-8.82,0-15.93,7.83-15.93,17v25.38h-3.15V500.73c0-9.18-7.11-17-15.84-17s-16,7.83-16,17c0,8.46.18,16.92.18,25.38H729V481.74h3.15c-.09,2.79-.18,5.67-.18,8.55a18.61,18.61,0,0,1,33.39,2.7,19.18,19.18,0,0,1,17.55-11.88c10.26,0,18.72,8.82,18.81,19.44Z"/><path d="M876.88,526.11l-18.36-18.54c0,6.21.09,12.33.18,18.54h-3V464.28h3c-.09,11.88-.18,23.76-.18,35.64L876.43,482h4.23l-22,22.05-.18-.18v.36l.18-.18,22.14,22.05Z"/><path d="M927.64,503.61c0,12.33-9.54,22.5-21.6,22.5-11.88,0-21.6-10.17-21.6-22.5s9.72-22.5,21.6-22.5C918.1,481.11,927.64,491.28,927.64,503.61Zm-40.32,0c0,10.71,8.46,20,18.72,20s18.72-9.27,18.72-20c0-10.89-8.46-20-18.72-20S887.32,492.72,887.32,503.61Z"/><path d="M1009.36,526.11h-3V500.73c0-9.18-7.29-17-15.84-17-8.82,0-15.93,7.83-15.93,17v25.38h-3.15V500.73c0-9.18-7.11-17-15.84-17s-16,7.83-16,17c0,8.46.18,16.92.18,25.38h-3.15V481.74h3.15c-.09,2.79-.18,5.67-.18,8.55A18.61,18.61,0,0,1,973,493a19.18,19.18,0,0,1,17.55-11.88c10.26,0,18.72,8.82,18.81,19.44Z"/><path d="M1061.65,503.61c0,12.33-9.63,22.5-21.69,22.5a21.46,21.46,0,0,1-18.81-11.52c0,9.18.18,18.27.18,27.45h-3V481.65h3c-.09,3.6-.18,7.29-.18,10.89A21.37,21.37,0,0,1,1040,481.11C1052,481.11,1061.65,491.19,1061.65,503.61Zm-3,0c0-10.8-8.37-20-18.72-20s-18.63,9.18-18.63,20,8.37,19.89,18.63,19.89S1058.68,514.41,1058.68,503.61Z"/><path d="M1074.7,464.28v49.14h-3.15V464.28Zm-3.06,49.14a12.58,12.58,0,0,0,12.51,12.69v-2.7c-5.22,0-9.45-4.5-9.45-10.08Z"/><path d="M1108.54,500.91H1127c-1.08-8.73-7.47-15.84-16-16.92-9.18-1.35-17.91,5-20.43,14.58s2.16,19.62,10.89,23.49c8.64,3.6,18.54-.18,23.31-8.73l2.7,1.44c-5.58,9.9-17.19,14-27.18,9.54-10-4.23-15.48-15.75-12.69-26.55,2.52-9.54,10.62-16.2,19.8-16.65a16.47,16.47,0,0,1,4.14.18c10.8,1.44,18.81,11.07,18.81,22.23h-21.78Z"/><path d="M1159.57,492.72c-4.14,0-8.19-.09-12.33-.09,0,5.94,0,12,.18,17.91,0,7.11,5.4,13,12.15,13v2.61a15.37,15.37,0,0,1-15.12-15.57c.09-5.94.09-12,.09-17.91-1.71,0-3.42,0-5.22.09v-3c1.71.09,3.51.18,5.22.18,0-8.55-.09-17.1-.09-25.65h3c-.09,8.55-.18,17.1-.18,25.65,4-.09,8.19-.18,12.33-.18Z"/><path d="M1188.82,492.72c-4.14,0-8.19-.09-12.33-.09,0,5.94,0,12,.18,17.91,0,7.11,5.4,13,12.15,13v2.61a15.37,15.37,0,0,1-15.12-15.57c.09-5.94.09-12,.09-17.91-1.71,0-3.42,0-5.22.09v-3c1.71.09,3.51.18,5.22.18,0-8.55-.09-17.1-.09-25.65h3c-.09,8.55-.18,17.1-.18,25.65,4-.09,8.19-.18,12.33-.18Z"/><path d="M1283.77,481.11l-19.44,45h-4l-19.26-45h2.88l18.27,42.3,18.18-42.3Z"/><path d="M1308.16,500.91h18.45c-1.08-8.73-7.47-15.84-16-16.92-9.18-1.35-17.91,5-20.43,14.58s2.16,19.62,10.89,23.49c8.64,3.6,18.54-.18,23.31-8.73l2.7,1.44c-5.58,9.9-17.19,14-27.18,9.54-10-4.23-15.48-15.75-12.69-26.55,2.52-9.54,10.62-16.2,19.8-16.65a16.47,16.47,0,0,1,4.14.18c10.8,1.44,18.81,11.07,18.81,22.23h-21.78Z"/><path d="M1361.26,481.11v2.61c-10.35,0-19,9.09-19.35,19.89,0,7.47.09,14.94.18,22.5h-3.15V481.65h3.15c-.09,3.69-.18,7.38-.18,11.07A22.21,22.21,0,0,1,1361.26,481.11Z"/><path d="M1422.9,481.74v29.79A14.69,14.69,0,0,1,1416,524a14,14,0,0,1-14.3,0,14.43,14.43,0,0,1-5.58-6,14.43,14.43,0,0,1-5.58,6,13.89,13.89,0,0,1-14.22,0,14.71,14.71,0,0,1-6.93-12.42V481.74h3.06v29.52c0,4.14,2,8.46,5.49,10.53a11.06,11.06,0,0,0,11.07,0c3.6-2.07,5.58-6.39,5.58-10.53V481.74h3.15v29.52c0,4.14,2.07,8.46,5.58,10.53a11,11,0,0,0,11.06,0c3.52-2.07,5.49-6.39,5.49-10.53V481.74Z"/><path d="M1476.27,481.56v43.38h-3.06c.09-3.42.18-6.84.18-10.17a21.69,21.69,0,0,1-18.89,11.34c-12,0-21.69-10.17-21.69-22.5,0-12.51,9.72-22.5,21.69-22.5a21.4,21.4,0,0,1,18.89,11.34c0-3.69-.09-7.29-.18-10.89Zm-3.06,22.05c0-10.89-8.46-20-18.71-20s-18.54,9.09-18.54,20,8.19,19.89,18.54,19.89S1473.21,514.5,1473.21,503.61Z"/><path d="M1523.52,526.11h-3.06V500.46c0-9.27-7.2-17-16-17s-16.2,7.74-16.2,17c0,8.55.09,17.1.18,25.65h-3.15v-63h3.15c-.09,8.91-.18,17.82-.18,26.73a19.06,19.06,0,0,1,16.2-9.27c10.62,0,19,8.91,19.07,19.8Z"/><path d="M1554.84,481.11v2.61c-10.34,0-19,9.09-19.34,19.89,0,7.47.08,14.94.17,22.5h-3.14V481.65h3.14c-.09,3.69-.17,7.38-.17,11.07A22.19,22.19,0,0,1,1554.84,481.11Z"/><path d="M1566.09,464.28v49.14h-3.15V464.28ZM1563,513.42a12.58,12.58,0,0,0,12.51,12.69v-2.7c-5.22,0-9.45-4.5-9.45-10.08Z"/><path d="M1623.24,503.61c0,12.33-9.54,22.5-21.6,22.5-11.88,0-21.6-10.17-21.6-22.5s9.72-22.5,21.6-22.5C1613.7,481.11,1623.24,491.28,1623.24,503.61Zm-40.32,0c0,10.71,8.46,20,18.72,20s18.72-9.27,18.72-20c0-10.89-8.46-20-18.72-20S1582.92,492.72,1582.92,503.61Z"/><path d="M1656.09,518.91a13,13,0,0,1-10,7.11,17.74,17.74,0,0,1-4.32-.18,13.1,13.1,0,0,1-9.54-12.78h3c0,4.68,3.06,9.27,7.38,10.26s8.82-1.62,10.71-5.67a10.41,10.41,0,0,0-2.34-12.24,19.85,19.85,0,0,0-6-3c-2.34-.72-4.77-1.17-6.66-2.79a10.49,10.49,0,0,1-2.61-12.6,10.15,10.15,0,0,1,8.1-5.76,7,7,0,0,1,3.33.18,10.53,10.53,0,0,1,7.83,10.26h-3c0-3.51-2.34-7-5.58-7.83-3.06-.72-6.48,1.17-7.92,4.41a8.11,8.11,0,0,0,1.62,9.09v-.09a19.07,19.07,0,0,0,5.76,2.79c2.34.72,5,1.17,7.2,3.06l-.09.09A13.19,13.19,0,0,1,1656.09,518.91Z"/><path d="M1686.6,492.72c-4.14,0-8.19-.09-12.33-.09,0,5.94,0,12,.18,17.91,0,7.11,5.4,13,12.15,13v2.61a15.37,15.37,0,0,1-15.12-15.57c.09-5.94.09-12,.09-17.91-1.71,0-3.42,0-5.22.09v-3c1.71.09,3.51.18,5.22.18,0-8.55-.09-17.1-.09-25.65h3c-.09,8.55-.18,17.1-.18,25.65,4-.09,8.19-.18,12.33-.18Z"/><path d="M276.23,608.71c2.82,0,5.64-.06,8.46-.06v2.1c-2.82,0-5.64-.06-8.46-.06-.06,5.1,0,10.26.06,15.42h-2c.06-5.16.06-10.32.12-15.42-1.26,0-2.46,0-3.66.06v-2.1c1.2.06,2.4.06,3.66.06,0-4.32-.06-8.64-.12-13v-.3a10.67,10.67,0,0,1,10.44-10.56v1.8c-4.68,0-8.4,4.08-8.4,9.06C276.23,600.07,276.23,604.39,276.23,608.71Z"/><path d="M306.77,596.11v1.74c-6.9,0-12.66,6.06-12.9,13.26,0,5,.06,10,.12,15h-2.1V596.47H294c-.06,2.46-.12,4.92-.12,7.38A14.81,14.81,0,0,1,306.77,596.11Z"/><path d="M335.75,596.41v28.92h-2c.06-2.28.12-4.56.12-6.78a14.48,14.48,0,0,1-12.6,7.56c-8,0-14.46-6.78-14.46-15a14.71,14.71,0,0,1,14.46-15,14.29,14.29,0,0,1,12.6,7.56c0-2.46-.06-4.86-.12-7.26Zm-2,14.7c0-7.26-5.64-13.32-12.48-13.32s-12.36,6.06-12.36,13.32,5.46,13.26,12.36,13.26S333.71,618.37,333.71,611.11Z"/><path d="M367.07,626.11H365V609.19c0-6.12-4.74-11.22-10.56-11.22a11.06,11.06,0,0,0-10.68,10.38c0,5.88.06,11.88.12,17.76h-2.1V596.47h2.1c-.06,1.86-.12,3.78-.12,5.7a12.47,12.47,0,0,1,10.68-6.06,12.9,12.9,0,0,1,12.66,13Z"/><path d="M393.59,624.31v1.8H373.07c5.4-9.3,10.92-18.78,16.2-28-5-.06-10.56,0-15.72,0v-1.92h19.2c-5.4,9.42-10.92,18.78-16.26,28.14C382.19,624.37,387.89,624.31,393.59,624.31Z"/><path d="M435.77,599.59h2.1v29.28a8.49,8.49,0,0,1-8.28,8.58v-1.69c3.48,0,6.24-3.3,6.24-6.89Zm3.23-5.76a2.2,2.2,0,0,1-2.15,2.22,2.32,2.32,0,0,1-2.29-2.22,2.22,2.22,0,0,1,2.29-2.16A2.11,2.11,0,0,1,439,593.83Z"/><path d="M473.38,596.41v28.92h-2c.06-2.28.12-4.56.12-6.78a14.48,14.48,0,0,1-12.6,7.56c-8,0-14.45-6.78-14.45-15a14.7,14.7,0,0,1,14.45-15,14.29,14.29,0,0,1,12.6,7.56c0-2.46-.06-4.86-.12-7.26Zm-2,14.7c0-7.26-5.64-13.32-12.48-13.32s-12.36,6.06-12.36,13.32,5.46,13.26,12.36,13.26S471.34,618.37,471.34,611.11Z"/><path d="M506.5,596.59v29.46a10.27,10.27,0,0,1-8.4,10.2,30.68,30.68,0,0,1-4.56.29,42.2,42.2,0,0,1-4.74-.29,10,10,0,0,1-7-5l1.86-1.08a7.87,7.87,0,0,0,5.52,4.14,22.23,22.23,0,0,0,4.32.42,24.87,24.87,0,0,0,4.32-.42,8.25,8.25,0,0,0,6.54-8.28l.18-8.7A13.55,13.55,0,0,1,493,624.19a14,14,0,0,1,0-28.08A13.38,13.38,0,0,1,504.52,603c0-2.16-.06-4.26-.12-6.36Zm-2.1,13.56c0-6.6-5.1-12.36-11.4-12.36-6.48,0-11.58,5.76-11.58,12.36,0,6.78,5.1,12.48,11.58,12.48C499.3,622.63,504.4,616.93,504.4,610.15Z"/><path d="M526,603.85c-2.76,0-5.46-.06-8.22-.06,0,4,0,8,.12,11.94a8.39,8.39,0,0,0,8.1,8.64v1.74a10.25,10.25,0,0,1-10.08-10.38c.06-4,.06-8,.06-11.94-1.14,0-2.28,0-3.48.06v-2c1.14.06,2.34.12,3.48.12,0-5.7-.06-11.4-.06-17.1h2c-.06,5.7-.12,11.4-.12,17.1,2.7-.06,5.46-.12,8.22-.12Z"/><path d="M565.42,591.67a2.19,2.19,0,1,1,0,4.38,2.19,2.19,0,1,1,0-4.38Zm-1,7.92v26.52h2.1V599.59Z"/><path d="M623.32,626.11h-2V609.19c0-6.12-4.86-11.34-10.56-11.34-5.88,0-10.62,5.22-10.62,11.34v16.92h-2.1V609.19c0-6.12-4.74-11.34-10.56-11.34s-10.68,5.22-10.68,11.34c0,5.64.12,11.28.12,16.92h-2.1V596.53h2.1c-.06,1.86-.12,3.78-.12,5.7a12.4,12.4,0,0,1,22.26,1.8,12.79,12.79,0,0,1,11.7-7.92c6.84,0,12.48,5.88,12.54,13Z"/><path d="M673.42,626.11l-12.24-12.36c0,4.14.06,8.22.12,12.36h-2V584.89h2c-.06,7.92-.12,15.84-.12,23.76l11.94-11.94h2.82l-14.64,14.7-.12-.12v.24l.12-.12,14.76,14.7Z"/><path d="M707.26,611.11c0,8.22-6.36,15-14.4,15s-14.4-6.78-14.4-15,6.48-15,14.4-15S707.26,602.89,707.26,611.11Zm-26.88,0c0,7.14,5.64,13.32,12.48,13.32s12.48-6.18,12.48-13.32-5.64-13.32-12.48-13.32S680.38,603.85,680.38,611.11Z"/><path d="M761.74,626.11h-2V609.19c0-6.12-4.86-11.34-10.56-11.34-5.88,0-10.62,5.22-10.62,11.34v16.92h-2.1V609.19c0-6.12-4.74-11.34-10.56-11.34s-10.68,5.22-10.68,11.34c0,5.64.12,11.28.12,16.92h-2.1V596.53h2.1c-.06,1.86-.12,3.78-.12,5.7A12.4,12.4,0,0,1,737.5,604a12.79,12.79,0,0,1,11.7-7.92c6.84,0,12.48,5.88,12.54,13Z"/><path d="M796.6,611.11c0,8.22-6.42,15-14.46,15a14.3,14.3,0,0,1-12.54-7.68c0,6.12.12,12.18.12,18.29h-2V596.47h2c-.06,2.4-.12,4.86-.12,7.26a14.25,14.25,0,0,1,12.54-7.62A14.71,14.71,0,0,1,796.6,611.11Zm-2,0c0-7.2-5.58-13.32-12.48-13.32s-12.42,6.12-12.42,13.32,5.58,13.26,12.42,13.26S794.62,618.31,794.62,611.11Z"/><path d="M805.3,584.89v32.76h-2.1V584.89Zm-2,32.76a8.39,8.39,0,0,0,8.34,8.46v-1.8a6.51,6.51,0,0,1-6.3-6.72Z"/><path d="M827.86,609.31h12.3A12.63,12.63,0,0,0,829.48,598c-6.12-.9-11.94,3.36-13.62,9.72a13.44,13.44,0,0,0,7.26,15.66c5.76,2.4,12.36-.12,15.54-5.82l1.8,1c-3.72,6.6-11.46,9.36-18.12,6.36a15.19,15.19,0,0,1-8.46-17.7,14.63,14.63,0,0,1,13.2-11.1,11,11,0,0,1,2.76.12,14.79,14.79,0,0,1,12.54,14.82H827.86Z"/><path d="M861.88,603.85c-2.76,0-5.46-.06-8.22-.06,0,4,0,8,.12,11.94a8.39,8.39,0,0,0,8.1,8.64v1.74a10.25,10.25,0,0,1-10.08-10.38c.06-4,.06-8,.06-11.94-1.14,0-2.28,0-3.48.06v-2c1.14.06,2.34.12,3.48.12,0-5.7-.06-11.4-.06-17.1h2c-.06,5.7-.12,11.4-.12,17.1,2.7-.06,5.46-.12,8.22-.12Z"/><path d="M881.38,603.85c-2.76,0-5.46-.06-8.22-.06,0,4,0,8,.12,11.94a8.39,8.39,0,0,0,8.1,8.64v1.74a10.25,10.25,0,0,1-10.08-10.38c.06-4,.06-8,.06-11.94-1.14,0-2.28,0-3.48.06v-2c1.14.06,2.34.12,3.48.12,0-5.7-.06-11.4-.06-17.1h2c-.06,5.7-.12,11.4-.12,17.1,2.7-.06,5.46-.12,8.22-.12Z"/><path d="M944.68,596.11l-13,30H929l-12.84-30h1.92l12.18,28.2,12.12-28.2Z"/><path d="M960.94,609.31h12.3A12.63,12.63,0,0,0,962.56,598c-6.12-.9-11.94,3.36-13.62,9.72a13.44,13.44,0,0,0,7.26,15.66c5.76,2.4,12.36-.12,15.54-5.82l1.8,1c-3.72,6.6-11.46,9.36-18.12,6.36a15.19,15.19,0,0,1-8.46-17.7,14.63,14.63,0,0,1,13.2-11.1,11,11,0,0,1,2.76.12,14.79,14.79,0,0,1,12.54,14.82H960.94Z"/><path d="M996.34,596.11v1.74c-6.9,0-12.66,6.06-12.9,13.26,0,5,.06,10,.12,15h-2.1V596.47h2.1c-.06,2.46-.12,4.92-.12,7.38A14.81,14.81,0,0,1,996.34,596.11Z"/><path d="M1037.44,596.53v19.86a9.81,9.81,0,0,1-4.62,8.28,9.37,9.37,0,0,1-9.54,0,9.62,9.62,0,0,1-3.72-4,9.62,9.62,0,0,1-3.72,4,9.26,9.26,0,0,1-9.48,0,9.81,9.81,0,0,1-4.62-8.28V596.53h2v19.68a8.21,8.21,0,0,0,3.66,7,7.37,7.37,0,0,0,7.38,0,8.12,8.12,0,0,0,3.72-7V596.53h2.1v19.68a8.26,8.26,0,0,0,3.72,7,7.37,7.37,0,0,0,7.38,0,8.21,8.21,0,0,0,3.66-7V596.53Z"/><path d="M1073,596.41v28.92h-2c.06-2.28.12-4.56.12-6.78a14.48,14.48,0,0,1-12.6,7.56c-8,0-14.46-6.78-14.46-15a14.71,14.71,0,0,1,14.46-15,14.29,14.29,0,0,1,12.6,7.56c0-2.46-.06-4.86-.12-7.26Zm-2,14.7c0-7.26-5.64-13.32-12.48-13.32s-12.36,6.06-12.36,13.32,5.46,13.26,12.36,13.26S1071,618.37,1071,611.11Z"/><path d="M1104.52,626.11h-2V609c0-6.18-4.8-11.34-10.68-11.34S1081,602.83,1081,609c0,5.7.06,11.4.12,17.1H1079v-42h2.1c-.06,5.94-.12,11.88-.12,17.82a12.71,12.71,0,0,1,10.8-6.18c7.08,0,12.66,5.94,12.72,13.2Z"/><path d="M1125.4,596.11v1.74c-6.9,0-12.66,6.06-12.9,13.26,0,5,.06,10,.12,15h-2.1V596.47h2.1c-.06,2.46-.12,4.92-.12,7.38A14.81,14.81,0,0,1,1125.4,596.11Z"/><path d="M1132.9,584.89v32.76h-2.1V584.89Zm-2,32.76a8.39,8.39,0,0,0,8.34,8.46v-1.8a6.51,6.51,0,0,1-6.3-6.72Z"/><path d="M1171,611.11c0,8.22-6.36,15-14.4,15s-14.4-6.78-14.4-15,6.48-15,14.4-15S1171,602.89,1171,611.11Zm-26.88,0c0,7.14,5.64,13.32,12.48,13.32s12.48-6.18,12.48-13.32-5.64-13.32-12.48-13.32S1144.12,603.85,1144.12,611.11Z"/><path d="M1192.9,621.31a8.64,8.64,0,0,1-6.66,4.74,11.83,11.83,0,0,1-2.88-.12,8.73,8.73,0,0,1-6.36-8.52h2c0,3.12,2,6.18,4.92,6.84s5.88-1.08,7.14-3.78a6.94,6.94,0,0,0-1.56-8.16,13.23,13.23,0,0,0-4-2c-1.56-.48-3.18-.78-4.44-1.86a7,7,0,0,1-1.74-8.4,6.77,6.77,0,0,1,5.4-3.84,4.65,4.65,0,0,1,2.22.12,7,7,0,0,1,5.22,6.84h-2a5.41,5.41,0,0,0-3.72-5.22,4.82,4.82,0,0,0-5.28,2.94,5.4,5.4,0,0,0,1.08,6.06v-.06a12.72,12.72,0,0,0,3.84,1.86c1.56.48,3.3.78,4.8,2l-.06.06A8.79,8.79,0,0,1,1192.9,621.31Z"/><path d="M1213.24,603.85c-2.76,0-5.46-.06-8.22-.06,0,4,0,8,.12,11.94a8.39,8.39,0,0,0,8.1,8.64v1.74a10.25,10.25,0,0,1-10.08-10.38c.06-4,.06-8,.06-11.94-1.14,0-2.28,0-3.48.06v-2c1.14.06,2.34.12,3.48.12,0-5.7-.06-11.4-.06-17.1h2c-.06,5.7-.12,11.4-.12,17.1,2.7-.06,5.46-.12,8.22-.12Z"/><path d="M1233.7,609.31H1246A12.63,12.63,0,0,0,1235.32,598c-6.12-.9-11.94,3.36-13.62,9.72a13.44,13.44,0,0,0,7.26,15.66c5.76,2.4,12.36-.12,15.54-5.82l1.8,1c-3.72,6.6-11.46,9.36-18.12,6.36a15.19,15.19,0,0,1-8.46-17.7,14.63,14.63,0,0,1,13.2-11.1,11,11,0,0,1,2.76.12,14.79,14.79,0,0,1,12.54,14.82H1233.7Z"/><path d="M1279.54,626.11h-2.1V609.19c0-6.12-4.74-11.22-10.56-11.22a11.06,11.06,0,0,0-10.68,10.38c0,5.88.06,11.88.12,17.76h-2.1V596.47h2.1c-.06,1.86-.12,3.78-.12,5.7a12.47,12.47,0,0,1,10.68-6.06,12.9,12.9,0,0,1,12.66,13Z"/><path d="M1329,603.85c-2.76,0-5.46-.06-8.22-.06,0,4,0,8,.12,11.94a8.39,8.39,0,0,0,8.1,8.64v1.74A10.25,10.25,0,0,1,1319,615.73c.06-4,.06-8,.06-11.94-1.14,0-2.28,0-3.48.06v-2c1.14.06,2.34.12,3.48.12,0-5.7-.06-11.4-.06-17.1h2c-.06,5.7-.12,11.4-.12,17.1,2.7-.06,5.46-.12,8.22-.12Z"/><path d="M1362.21,596.41v28.92h-2c.07-2.28.12-4.56.12-6.78a14.45,14.45,0,0,1-12.59,7.56c-8,0-14.46-6.78-14.46-15a14.71,14.71,0,0,1,14.46-15,14.27,14.27,0,0,1,12.59,7.56c0-2.46,0-4.86-.12-7.26Zm-2,14.7c0-7.26-5.63-13.32-12.47-13.32s-12.36,6.06-12.36,13.32,5.46,13.26,12.36,13.26S1360.17,618.37,1360.17,611.11Z"/><path d="M1379.2,611.35c2.81,4.92,5.76,9.84,8.69,14.76h-2.39l-7.44-12.84-7.38,12.84h-2.46c2.94-4.92,5.88-9.78,8.76-14.76l-8.76-15.12h2.4c2.46,4.44,4.92,8.82,7.44,13.2,2.52-4.32,5-8.76,7.44-13.2h2.39Z"/><path d="M1397.32,591.67a2.19,2.19,0,1,1,0,4.38,2.19,2.19,0,1,1,0-4.38Zm-1,7.92v26.52h2.11V599.59Z"/><path d="M1465.53,596.47v40.37h-1.92c0-6.17.12-12.35.12-18.47a14.27,14.27,0,0,1-12.6,7.74,14.59,14.59,0,0,1-14.4-14.88c0-8.28,6.36-15.06,14.4-15.06a14.39,14.39,0,0,1,12.6,7.8c0-2.46-.06-5-.12-7.5Zm-1.92,14.76c0-7.26-5.64-13.44-12.48-13.44s-12.48,6.18-12.48,13.44,5.64,13.32,12.48,13.32S1463.61,618.37,1463.61,611.23Z"/><path d="M1498.59,596.89v28.62h-2c.06-2.1.06-4.14.12-6.24a14.66,14.66,0,0,1-4.86,4.92,13,13,0,0,1-13.62,0,14.11,14.11,0,0,1-6.66-11.94V596.89h2v15.24a12.19,12.19,0,0,0,5.7,10.5,11,11,0,0,0,11.52,0,12.43,12.43,0,0,0,5.82-10.5h.06c-.06-5.1-.12-10.2-.12-15.24Z"/><path d="M1519.05,609.31h12.3A12.63,12.63,0,0,0,1520.67,598c-6.12-.9-11.94,3.36-13.62,9.72a13.44,13.44,0,0,0,7.26,15.66c5.76,2.4,12.36-.12,15.54-5.82l1.8,1c-3.72,6.6-11.46,9.36-18.12,6.36a15.19,15.19,0,0,1-8.46-17.7,14.63,14.63,0,0,1,13.2-11.1,11,11,0,0,1,2.76.12,14.79,14.79,0,0,1,12.54,14.82h-14.52Z"/><path d="M1554.45,596.11v1.74c-6.9,0-12.66,6.06-12.9,13.26,0,5,.06,10,.12,15h-2.1V596.47h2.1c-.06,2.46-.12,4.92-.12,7.38A14.81,14.81,0,0,1,1554.45,596.11Z"/><path d="M1618.17,584.89v40.44h-2q.18-3.51.18-7a14.35,14.35,0,0,1-12.66,7.8c-8,0-14.46-6.78-14.46-15a14.74,14.74,0,0,1,14.46-15,14.33,14.33,0,0,1,12.72,7.8c-.12-6.36-.24-12.66-.24-19Zm-2,26.22c0-7.2-5.58-13.26-12.48-13.26s-12.42,6.06-12.42,13.26,5.58,13.2,12.42,13.2S1616.19,618.31,1616.19,611.11Z"/><path d="M1652.43,596.89v28.62h-2c.06-2.1.06-4.14.12-6.24a14.66,14.66,0,0,1-4.86,4.92,13,13,0,0,1-13.62,0,14.11,14.11,0,0,1-6.66-11.94V596.89h2v15.24a12.19,12.19,0,0,0,5.7,10.5,11,11,0,0,0,11.52,0,12.43,12.43,0,0,0,5.82-10.5h.06c-.06-5.1-.12-10.2-.12-15.24Z"/><path d="M274.29,697.18c2.25,0,4.51,0,6.76,0v1.68c-2.25,0-4.51-.05-6.76-.05-.05,4.08,0,8.21,0,12.34H272.7c.05-4.13.05-8.26.1-12.34-1,0-2,0-2.93.05v-1.68c1,0,1.92,0,2.93,0,0-3.45-.05-6.91-.1-10.36v-.24a8.54,8.54,0,0,1,8.35-8.45v1.44a7,7,0,0,0-6.72,7.25C274.29,690.27,274.29,693.73,274.29,697.18Z"/><path d="M298.72,687.1v1.4c-5.52,0-10.13,4.84-10.32,10.6,0,4,0,8,.09,12h-1.68V687.39h1.68c-.05,2-.09,3.94-.09,5.91A11.84,11.84,0,0,1,298.72,687.1Z"/><path d="M321.9,687.34v23.14h-1.63c.05-1.82.1-3.65.1-5.42a11.59,11.59,0,0,1-10.08,6.05,12,12,0,0,1,0-24,11.43,11.43,0,0,1,10.08,6c0-2-.05-3.89-.1-5.81Zm-1.63,11.76c0-5.8-4.51-10.65-10-10.65s-9.89,4.85-9.89,10.65,4.36,10.61,9.89,10.61S320.27,704.91,320.27,699.1Z"/><path d="M347,711.11h-1.68V697.57c0-4.9-3.8-9-8.45-9a8.86,8.86,0,0,0-8.55,8.31c0,4.7.05,9.5.1,14.21H326.7V687.39h1.68c-.05,1.49-.1,3-.1,4.56a10,10,0,0,1,8.55-4.85A10.32,10.32,0,0,1,347,697.52Z"/><path d="M368.17,709.67v1.44H351.76c4.32-7.44,8.73-15,13-22.42-4-.05-8.45,0-12.58,0v-1.54H367.5c-4.32,7.54-8.74,15-13,22.52C359.05,709.71,363.61,709.67,368.17,709.67Z"/><path d="M401.92,689.89h1.68v23.42a6.79,6.79,0,0,1-6.63,6.87v-1.35c2.78,0,5-2.64,5-5.52Zm2.59-4.61a1.77,1.77,0,0,1-1.73,1.78,1.85,1.85,0,0,1-1.82-1.78,1.77,1.77,0,0,1,1.82-1.73A1.69,1.69,0,0,1,404.51,685.28Z"/><path d="M432,687.34v23.14h-1.63c.05-1.82.1-3.65.1-5.42a11.59,11.59,0,0,1-10.08,6.05,12,12,0,0,1,0-24,11.43,11.43,0,0,1,10.08,6c0-2-.05-3.89-.1-5.81Zm-1.63,11.76c0-5.8-4.51-10.65-10-10.65s-9.89,4.85-9.89,10.65,4.36,10.61,9.89,10.61S430.38,704.91,430.38,699.1Z"/><path d="M458.51,687.49v23.57a8.22,8.22,0,0,1-6.72,8.16,24,24,0,0,1-3.65.24,34.67,34.67,0,0,1-3.79-.24,8,8,0,0,1-5.57-4l1.49-.86a6.26,6.26,0,0,0,4.41,3.31,16.74,16.74,0,0,0,3.46.34,19.28,19.28,0,0,0,3.45-.34,6.6,6.6,0,0,0,5.24-6.62l.14-7a10.85,10.85,0,0,1-9.26,5.47,11.24,11.24,0,0,1,0-22.47,10.69,10.69,0,0,1,9.21,5.48c0-1.73,0-3.41-.09-5.09Zm-1.68,10.85c0-5.28-4.08-9.89-9.12-9.89s-9.27,4.61-9.27,9.89,4.08,10,9.27,10S456.83,703.76,456.83,698.34Z"/><path d="M474.11,693.3c-2.21,0-4.37,0-6.58,0,0,3.17,0,6.38.09,9.55a6.71,6.71,0,0,0,6.49,6.91v1.4A8.2,8.2,0,0,1,466,702.8c0-3.17,0-6.38,0-9.55-.91,0-1.83,0-2.79,0v-1.59c.92,0,1.88.1,2.79.1,0-4.56,0-9.12,0-13.68h1.58c0,4.56-.09,9.12-.09,13.68,2.16,0,4.37-.1,6.58-.1Z"/><path d="M505.64,683.55a1.76,1.76,0,1,1,0,3.51,1.76,1.76,0,1,1,0-3.51Zm-.82,6.34v21.22h1.68V689.89Z"/><path d="M552,711.11h-1.58V697.57c0-4.9-3.89-9.07-8.45-9.07s-8.5,4.17-8.5,9.07v13.54h-1.68V697.57c0-4.9-3.79-9.07-8.45-9.07s-8.54,4.17-8.54,9.07c0,4.51.1,9,.1,13.54h-1.68V687.44h1.68c-.05,1.49-.1,3-.1,4.56a9.92,9.92,0,0,1,17.81,1.44,10.05,10.05,0,0,1,19.39,4Z"/><path d="M592,711.11l-9.79-9.89c0,3.31,0,6.57.09,9.89h-1.58v-33h1.58c0,6.33-.09,12.67-.09,19l9.55-9.56h2.26l-11.72,11.76-.09-.09v.19l.09-.1,11.81,11.77Z"/><path d="M619.11,699.1a11.53,11.53,0,1,1-11.52-12A11.76,11.76,0,0,1,619.11,699.1Zm-21.5,0c0,5.72,4.51,10.66,10,10.66s10-4.94,10-10.66-4.52-10.65-10-10.65S597.61,693.3,597.61,699.1Z"/><path d="M662.7,711.11h-1.59V697.57c0-4.9-3.88-9.07-8.44-9.07s-8.5,4.17-8.5,9.07v13.54h-1.68V697.57c0-4.9-3.79-9.07-8.45-9.07s-8.54,4.17-8.54,9.07c0,4.51.09,9,.09,13.54h-1.68V687.44h1.68c-.05,1.49-.09,3-.09,4.56a9.91,9.91,0,0,1,17.8,1.44,10.06,10.06,0,0,1,19.4,4Z"/><path d="M690.58,699.1a11.8,11.8,0,0,1-11.56,12A11.45,11.45,0,0,1,669,705c0,4.9.1,9.75.1,14.64h-1.59V687.39h1.59c-.05,1.92-.1,3.89-.1,5.81a11.4,11.4,0,0,1,10-6.1A11.76,11.76,0,0,1,690.58,699.1Zm-1.58,0c0-5.76-4.46-10.65-10-10.65s-9.94,4.89-9.94,10.65,4.46,10.61,9.94,10.61S689,704.87,689,699.1Z"/><path d="M697.54,678.13v26.21h-1.68V678.13Zm-1.63,26.21a6.72,6.72,0,0,0,6.67,6.77v-1.44a5.22,5.22,0,0,1-5-5.38Z"/><path d="M715.59,697.66h9.84a10.1,10.1,0,0,0-8.54-9c-4.9-.72-9.56,2.69-10.9,7.78A10.76,10.76,0,0,0,711.8,709a9.92,9.92,0,0,0,12.43-4.66l1.44.77a11.31,11.31,0,0,1-14.5,5.09A12.16,12.16,0,0,1,704.41,696,11.7,11.7,0,0,1,715,687.1a9.43,9.43,0,0,1,2.21.1,11.83,11.83,0,0,1,10,11.86H715.59Z"/><path d="M742.81,693.3c-2.21,0-4.37,0-6.58,0,0,3.17,0,6.38.1,9.55a6.71,6.71,0,0,0,6.48,6.91v1.4a8.2,8.2,0,0,1-8.07-8.31c0-3.17,0-6.38,0-9.55-.91,0-1.82,0-2.78,0v-1.59c.91,0,1.87.1,2.78.1,0-4.56,0-9.12,0-13.68h1.59c-.05,4.56-.1,9.12-.1,13.68,2.16,0,4.37-.1,6.58-.1Z"/><path d="M758.41,693.3c-2.21,0-4.37,0-6.58,0,0,3.17,0,6.38.1,9.55a6.71,6.71,0,0,0,6.48,6.91v1.4a8.2,8.2,0,0,1-8.07-8.31c0-3.17,0-6.38,0-9.55-.91,0-1.82,0-2.78,0v-1.59c.91,0,1.87.1,2.78.1,0-4.56,0-9.12,0-13.68h1.59c0,4.56-.1,9.12-.1,13.68,2.16,0,4.37-.1,6.58-.1Z"/><path d="M809.05,687.1l-10.37,24h-2.16l-10.28-24h1.54l9.75,22.57,9.69-22.57Z"/><path d="M822.05,697.66h9.84a10.1,10.1,0,0,0-8.54-9c-4.9-.72-9.55,2.69-10.9,7.78A10.76,10.76,0,0,0,818.26,709a9.92,9.92,0,0,0,12.43-4.66l1.44.77a11.3,11.3,0,0,1-14.49,5.09A12.16,12.16,0,0,1,810.87,696a11.7,11.7,0,0,1,10.56-8.88,9.43,9.43,0,0,1,2.21.1,11.83,11.83,0,0,1,10,11.86H822.05Z"/><path d="M850.37,687.1v1.4c-5.52,0-10.13,4.84-10.32,10.6,0,4,.05,8,.1,12h-1.68V687.39h1.68c0,2-.1,3.94-.1,5.91A11.86,11.86,0,0,1,850.37,687.1Z"/><path d="M883.25,687.44v15.89a7.82,7.82,0,0,1-3.69,6.62,7.47,7.47,0,0,1-7.64,0,7.67,7.67,0,0,1-3-3.21,7.63,7.63,0,0,1-3,3.21,7.36,7.36,0,0,1-7.58,0,7.83,7.83,0,0,1-3.7-6.62V687.44h1.63v15.74a6.57,6.57,0,0,0,2.93,5.62,5.89,5.89,0,0,0,5.91,0,6.49,6.49,0,0,0,3-5.62V687.44h1.68v15.74a6.62,6.62,0,0,0,3,5.62,5.87,5.87,0,0,0,5.9,0,6.55,6.55,0,0,0,2.93-5.62V687.44Z"/><path d="M911.72,687.34v23.14h-1.64c0-1.82.1-3.65.1-5.42a11.59,11.59,0,0,1-10.08,6.05,12,12,0,0,1,0-24,11.43,11.43,0,0,1,10.08,6c0-2,0-3.89-.1-5.81Zm-1.64,11.76c0-5.8-4.51-10.65-10-10.65s-9.89,4.85-9.89,10.65,4.37,10.61,9.89,10.61S910.08,704.91,910.08,699.1Z"/><path d="M936.92,711.11h-1.64V697.42c0-4.94-3.84-9.07-8.54-9.07a8.92,8.92,0,0,0-8.64,9.07c0,4.56,0,9.12.1,13.69h-1.68V677.5h1.68c-.05,4.75-.1,9.51-.1,14.26a10.16,10.16,0,0,1,8.64-4.94,10.4,10.4,0,0,1,10.18,10.56Z"/><path d="M953.62,687.1v1.4c-5.52,0-10.13,4.84-10.32,10.6,0,4,.05,8,.1,12h-1.69V687.39h1.69c0,2-.1,3.94-.1,5.91A11.84,11.84,0,0,1,953.62,687.1Z"/><path d="M959.62,678.13v26.21h-1.68V678.13ZM958,704.34a6.71,6.71,0,0,0,6.67,6.77v-1.44a5.22,5.22,0,0,1-5-5.38Z"/><path d="M990.1,699.1a11.53,11.53,0,1,1-11.52-12A11.76,11.76,0,0,1,990.1,699.1Zm-21.51,0c0,5.72,4.52,10.66,10,10.66s10-4.94,10-10.66-4.51-10.65-10-10.65S968.59,693.3,968.59,699.1Z"/><path d="M1007.62,707.26a6.91,6.91,0,0,1-5.33,3.8,9,9,0,0,1-2.3-.1,7,7,0,0,1-5.09-6.82h1.58a5.58,5.58,0,0,0,3.94,5.48,5.21,5.21,0,0,0,5.71-3,5.55,5.55,0,0,0-1.25-6.53,10.57,10.57,0,0,0-3.21-1.58,9.22,9.22,0,0,1-3.56-1.49,5.61,5.61,0,0,1-1.39-6.72,5.42,5.42,0,0,1,4.32-3.07,3.59,3.59,0,0,1,1.78.1,5.61,5.61,0,0,1,4.17,5.47h-1.58a4.33,4.33,0,0,0-3-4.18,3.87,3.87,0,0,0-4.22,2.35,4.33,4.33,0,0,0,.86,4.85v0a10,10,0,0,0,3.08,1.49,10.15,10.15,0,0,1,3.84,1.63l0,0A7,7,0,0,1,1007.62,707.26Z"/><path d="M1023.89,693.3c-2.21,0-4.37,0-6.58,0,0,3.17,0,6.38.1,9.55a6.71,6.71,0,0,0,6.48,6.91v1.4a8.2,8.2,0,0,1-8.06-8.31c0-3.17,0-6.38,0-9.55-.91,0-1.82,0-2.78,0v-1.59c.91,0,1.87.1,2.78.1,0-4.56,0-9.12,0-13.68h1.58c0,4.56-.1,9.12-.1,13.68,2.16,0,4.37-.1,6.58-.1Z"/><path d="M1040.26,697.66h9.84a10.12,10.12,0,0,0-8.55-9c-4.89-.72-9.55,2.69-10.89,7.78a10.75,10.75,0,0,0,5.8,12.53,9.93,9.93,0,0,0,12.44-4.66l1.44.77a11.31,11.31,0,0,1-14.5,5.09,12.16,12.16,0,0,1-6.77-14.17,11.72,11.72,0,0,1,10.56-8.88,9.39,9.39,0,0,1,2.21.1,11.84,11.84,0,0,1,10,11.86h-11.62Z"/><path d="M1076.93,711.11h-1.68V697.57c0-4.9-3.79-9-8.45-9a8.84,8.84,0,0,0-8.54,8.31c0,4.7,0,9.5.09,14.21h-1.68V687.39h1.68c0,1.49-.09,3-.09,4.56a10,10,0,0,1,8.54-4.85,10.32,10.32,0,0,1,10.13,10.42Z"/><path d="M1116.53,693.3c-2.21,0-4.37,0-6.58,0,0,3.17,0,6.38.1,9.55a6.71,6.71,0,0,0,6.48,6.91v1.4a8.2,8.2,0,0,1-8.07-8.31c0-3.17,0-6.38,0-9.55-.91,0-1.82,0-2.78,0v-1.59c.91,0,1.87.1,2.78.1,0-4.56,0-9.12,0-13.68h1.59c0,4.56-.1,9.12-.1,13.68,2.16,0,4.37-.1,6.58-.1Z"/><path d="M1143.07,687.34v23.14h-1.63c0-1.82.1-3.65.1-5.42a11.59,11.59,0,0,1-10.08,6.05,12,12,0,0,1,0-24,11.43,11.43,0,0,1,10.08,6c0-2,0-3.89-.1-5.81Zm-1.63,11.76c0-5.8-4.51-10.65-10-10.65s-9.89,4.85-9.89,10.65,4.37,10.61,9.89,10.61S1141.44,704.91,1141.44,699.1Z"/><path d="M1156.66,699.3c2.25,3.93,4.6,7.87,7,11.81h-1.92l-6-10.28-5.9,10.28h-2c2.35-3.94,4.71-7.83,7-11.81l-7-12.1h1.92c2,3.55,3.94,7.06,6,10.56,2-3.46,4-7,6-10.56h1.92Z"/><path d="M1171.15,683.55a1.76,1.76,0,1,1,0,3.51,1.76,1.76,0,1,1,0-3.51Zm-.82,6.34v21.22H1172V689.89Z"/><path d="M1225.73,687.39V719.7h-1.54c0-5,.1-9.89.1-14.79a11.41,11.41,0,0,1-10.08,6.2,12,12,0,0,1,0-24,11.53,11.53,0,0,1,10.08,6.24c0-2,0-4-.1-6Zm-1.54,11.81c0-5.81-4.51-10.75-10-10.75s-10,4.94-10,10.75,4.52,10.66,10,10.66S1224.19,704.91,1224.19,699.2Z"/><path d="M1252.18,687.73v22.89h-1.64c0-1.67,0-3.31.1-5a11.64,11.64,0,0,1-3.89,3.94,10.38,10.38,0,0,1-10.9,0,11.28,11.28,0,0,1-5.32-9.55V687.73h1.63v12.19a9.75,9.75,0,0,0,4.56,8.4,8.84,8.84,0,0,0,9.22,0,9.94,9.94,0,0,0,4.65-8.4h.05c-.05-4.08-.1-8.16-.1-12.19Z"/><path d="M1268.54,697.66h9.84a10.1,10.1,0,0,0-8.54-9c-4.9-.72-9.55,2.69-10.9,7.78a10.76,10.76,0,0,0,5.81,12.53,9.92,9.92,0,0,0,12.43-4.66l1.44.77a11.3,11.3,0,0,1-14.49,5.09,12.16,12.16,0,0,1-6.77-14.17,11.7,11.7,0,0,1,10.56-8.88,9.43,9.43,0,0,1,2.21.1,11.83,11.83,0,0,1,10,11.86h-11.62Z"/><path d="M1296.86,687.1v1.4c-5.52,0-10.13,4.84-10.32,10.6,0,4,0,8,.1,12H1285V687.39h1.68c-.05,2-.1,3.94-.1,5.91A11.86,11.86,0,0,1,1296.86,687.1Z"/><path d="M1347.84,678.13v32.35h-1.59q.15-2.81.15-5.61a11.49,11.49,0,0,1-10.13,6.24,12,12,0,0,1,0-24,11.47,11.47,0,0,1,10.18,6.24c-.1-5.08-.2-10.13-.2-15.21Zm-1.59,21c0-5.76-4.46-10.6-10-10.6s-9.94,4.84-9.94,10.6,4.47,10.57,9.94,10.57S1346.25,704.87,1346.25,699.1Z"/><path d="M1375.25,687.73v22.89h-1.64c.05-1.67.05-3.31.1-5a11.64,11.64,0,0,1-3.89,3.94,10.38,10.38,0,0,1-10.9,0,11.28,11.28,0,0,1-5.32-9.55V687.73h1.63v12.19a9.75,9.75,0,0,0,4.56,8.4,8.82,8.82,0,0,0,9.21,0,9.93,9.93,0,0,0,4.66-8.4h0c0-4.08-.1-8.16-.1-12.19Z"/><path d="M1392,687.1v1.4c-5.52,0-10.13,4.84-10.32,10.6,0,4,0,8,.09,12H1380V687.39h1.68c0,2-.09,3.94-.09,5.91A11.84,11.84,0,0,1,1392,687.1Z"/><path d="M1414,693.1l-1.39.77A9.94,9.94,0,0,0,1401.4,689,10.41,10.41,0,0,0,1394,699.1a10.27,10.27,0,0,0,7.39,10,9.85,9.85,0,0,0,11.24-4.9l1.39.82a11.51,11.51,0,0,1-13,5.66,12,12,0,0,1-8.59-11.62,11.77,11.77,0,0,1,8.59-11.56,10,10,0,0,1,3.74-.44A11.66,11.66,0,0,1,1414,693.1Z"/><path d="M1438.75,711.11h-1.63V697.42c0-4.94-3.84-9.07-8.55-9.07a8.92,8.92,0,0,0-8.64,9.07c0,4.56,0,9.12.1,13.69h-1.68V677.5H1420c0,4.75-.1,9.51-.1,14.26a10.16,10.16,0,0,1,8.64-4.94,10.39,10.39,0,0,1,10.18,10.56Z"/><path d="M1490.69,699.1a11.84,11.84,0,0,1-11.57,12,11.51,11.51,0,0,1-10-6.05c0,1.77.05,3.6.1,5.42h-1.63V678.13h1.63l-.14,15.12a11.51,11.51,0,0,1,10.08-6.15A11.83,11.83,0,0,1,1490.69,699.1Zm-1.64,0c0-5.71-4.41-10.56-9.93-10.56s-9.94,4.85-9.94,10.56a9.95,9.95,0,1,0,19.87,0Z"/><path d="M1518.19,687.34v23.14h-1.63c0-1.82.09-3.65.09-5.42a11.58,11.58,0,0,1-10.08,6.05,12,12,0,0,1,0-24,11.43,11.43,0,0,1,10.08,6c0-2-.05-3.89-.09-5.81Zm-1.63,11.76c0-5.8-4.52-10.65-10-10.65s-9.89,4.85-9.89,10.65,4.37,10.61,9.89,10.61S1516.56,704.91,1516.56,699.1Z"/><path d="M1544.63,687.49V711a8.31,8.31,0,0,1-6.72,8.26,24.65,24.65,0,0,1-3.6.19,27.34,27.34,0,0,1-3.79-.19,8.36,8.36,0,0,1-5.52-4.08l1.3-.77a6.56,6.56,0,0,0,4.56,3.21,21.29,21.29,0,0,0,3.45.29,18.08,18.08,0,0,0,3.27-.29,6.58,6.58,0,0,0,5.47-6.62c0-2.35.1-4.71.1-7.06a11.29,11.29,0,0,1-4,4.08,10.29,10.29,0,0,1-10.75,0,11.16,11.16,0,0,1-5.37-9.65V687.49h1.63v10.89a9.92,9.92,0,0,0,4.61,8.5,8.82,8.82,0,0,0,9.21,0,10.52,10.52,0,0,0,4.71-7.54c0-4-.05-7.92-.1-11.85Z"/><path d="M1561,697.66h9.84a10.1,10.1,0,0,0-8.54-9c-4.9-.72-9.55,2.69-10.9,7.78a10.76,10.76,0,0,0,5.81,12.53,9.92,9.92,0,0,0,12.43-4.66l1.44.77a11.3,11.3,0,0,1-14.49,5.09,12.16,12.16,0,0,1-6.77-14.17,11.7,11.7,0,0,1,10.56-8.88,9.43,9.43,0,0,1,2.21.1,11.83,11.83,0,0,1,10,11.86H1561Z"/><path d="M1589.32,687.1v1.4c-5.52,0-10.13,4.84-10.32,10.6,0,4,0,8,.1,12h-1.68V687.39h1.68c0,2-.1,3.94-.1,5.91A11.86,11.86,0,0,1,1589.32,687.1Z"/><path d="M1613.42,711.11h-1.68V697.57c0-4.9-3.79-9-8.45-9a8.84,8.84,0,0,0-8.54,8.31c0,4.7,0,9.5.09,14.21h-1.68V687.39h1.68c0,1.49-.09,3-.09,4.56a10,10,0,0,1,8.54-4.85,10.32,10.32,0,0,1,10.13,10.42Z"/><path d="M1618.55,707.75a1.68,1.68,0,1,1,0,3.36,1.68,1.68,0,1,1,0-3.36Z"/><path d="M1654.41,697.18c2.26,0,4.51,0,6.77,0v1.68c-2.26,0-4.51-.05-6.77-.05-.05,4.08,0,8.21,0,12.34h-1.64c0-4.13,0-8.26.1-12.34-1,0-2,0-2.93.05v-1.68c1,0,1.92,0,2.93,0,0-3.45-.05-6.91-.1-10.36v-.24a8.55,8.55,0,0,1,8.36-8.45v1.44a7,7,0,0,0-6.72,7.25C1654.41,690.27,1654.41,693.73,1654.41,697.18Z"/><path d="M1678.84,687.1v1.4c-5.52,0-10.13,4.84-10.32,10.6,0,4,0,8,.09,12h-1.68V687.39h1.68c0,2-.09,3.94-.09,5.91A11.84,11.84,0,0,1,1678.84,687.1Z"/><path d="M1702,687.34v23.14h-1.63c0-1.82.1-3.65.1-5.42a11.59,11.59,0,0,1-10.08,6.05,12,12,0,0,1,0-24,11.43,11.43,0,0,1,10.08,6c0-2,0-3.89-.1-5.81Zm-1.63,11.76c0-5.8-4.51-10.65-10-10.65s-9.89,4.85-9.89,10.65,4.37,10.61,9.89,10.61S1700.39,704.91,1700.39,699.1Z"/><path d="M1727.08,711.11h-1.68V697.57c0-4.9-3.79-9-8.45-9a8.84,8.84,0,0,0-8.54,8.31c0,4.7,0,9.5.09,14.21h-1.68V687.39h1.68c0,1.49-.09,3-.09,4.56a10,10,0,0,1,8.54-4.85,10.32,10.32,0,0,1,10.13,10.42Z"/><path d="M272.34,761.67c1.69,0,3.38,0,5.08,0v1.26c-1.7,0-3.39,0-5.08,0,0,3.06,0,6.16,0,9.26h-1.23c0-3.1,0-6.2.07-9.26-.75,0-1.47,0-2.19,0v-1.26c.72,0,1.44,0,2.19,0,0-2.59,0-5.19-.07-7.78v-.18a6.4,6.4,0,0,1,6.27-6.33v1.08a5.23,5.23,0,0,0-5,5.43C272.34,756.48,272.34,759.08,272.34,761.67Z"/><path d="M290.66,754.11v1c-4.14,0-7.59,3.64-7.74,8,0,3,0,6,.08,9h-1.26V754.32H283c0,1.48-.08,3-.08,4.43A8.89,8.89,0,0,1,290.66,754.11Z"/><path d="M308.05,754.29v17.35h-1.22c0-1.37.07-2.74.07-4.07a8.69,8.69,0,0,1-7.56,4.54,9,9,0,0,1,0-18,8.58,8.58,0,0,1,7.56,4.53c0-1.47,0-2.91-.07-4.35Zm-1.22,8.82a7.81,7.81,0,0,0-7.49-8c-4.14,0-7.42,3.63-7.42,8a7.7,7.7,0,0,0,7.42,7.95A7.78,7.78,0,0,0,306.83,763.11Z"/><path d="M326.84,772.11h-1.26V762a6.58,6.58,0,0,0-6.33-6.74,6.64,6.64,0,0,0-6.41,6.23c0,3.53,0,7.13.07,10.66h-1.26V754.32h1.26c0,1.12-.07,2.27-.07,3.42a7.49,7.49,0,0,1,6.41-3.63,7.73,7.73,0,0,1,7.59,7.81Z"/><path d="M342.75,771v1.08H330.44c3.24-5.58,6.56-11.27,9.72-16.81-3,0-6.33,0-9.43,0v-1.16h11.52c-3.24,5.65-6.55,11.27-9.75,16.89C335.92,771.06,339.33,771,342.75,771Z"/><path d="M368.06,756.2h1.26v17.56a5.09,5.09,0,0,1-5,5.15v-1a4,4,0,0,0,3.74-4.14Zm1.95-3.46a1.32,1.32,0,0,1-1.3,1.33,1.38,1.38,0,0,1-1.37-1.33,1.33,1.33,0,0,1,1.37-1.3A1.27,1.27,0,0,1,370,752.74Z"/><path d="M390.63,754.29v17.35h-1.22c0-1.37.07-2.74.07-4.07a8.69,8.69,0,0,1-7.56,4.54,9,9,0,0,1,0-18,8.57,8.57,0,0,1,7.56,4.53c0-1.47,0-2.91-.07-4.35Zm-1.22,8.82a7.8,7.8,0,0,0-7.49-8c-4.14,0-7.41,3.63-7.41,8a7.69,7.69,0,0,0,7.41,7.95A7.77,7.77,0,0,0,389.41,763.11Z"/><path d="M410.5,754.4v17.67a6.16,6.16,0,0,1-5,6.12,17.34,17.34,0,0,1-2.74.18,25.46,25.46,0,0,1-2.84-.18,6,6,0,0,1-4.18-3l1.12-.65a4.71,4.71,0,0,0,3.31,2.49,13.49,13.49,0,0,0,2.59.25,15.11,15.11,0,0,0,2.59-.25,5,5,0,0,0,3.93-5l.1-5.22a8.12,8.12,0,0,1-6.94,4.1,8.42,8.42,0,0,1,0-16.84,8,8,0,0,1,6.91,4.1c0-1.29,0-2.55-.07-3.81Zm-1.25,8.13c0-4-3.06-7.41-6.84-7.41a7.47,7.47,0,0,0,0,14.9C406.19,770,409.25,766.6,409.25,762.53Z"/><path d="M422.21,758.75c-1.66,0-3.28,0-4.94,0,0,2.38,0,4.79.08,7.17a5,5,0,0,0,4.86,5.18v1.05a6.15,6.15,0,0,1-6-6.23c0-2.38,0-4.79,0-7.17-.68,0-1.36,0-2.08,0v-1.19c.68,0,1.4.08,2.08.08,0-3.42,0-6.84,0-10.26h1.19c0,3.42-.08,6.84-.08,10.26,1.62,0,3.28-.08,4.94-.08Z"/><path d="M445.86,751.44a1.32,1.32,0,1,1,0,2.63,1.32,1.32,0,1,1,0-2.63Zm-.61,4.76v15.91h1.26V756.2Z"/><path d="M480.59,772.11h-1.18V762a6.37,6.37,0,1,0-12.71,0v10.15h-1.26V762a6.38,6.38,0,1,0-12.74,0c0,3.38.07,6.76.07,10.15h-1.26V754.36h1.26c0,1.12-.07,2.27-.07,3.42a7.44,7.44,0,0,1,13.35,1.08,7.54,7.54,0,0,1,14.54,3Z"/><path d="M510.66,772.11l-7.35-7.42c0,2.48,0,4.93.08,7.42H502.2V747.38h1.19c0,4.75-.08,9.5-.08,14.25l7.17-7.16h1.69l-8.78,8.82-.08-.08v.15l.08-.07,8.85,8.82Z"/><path d="M531,763.11a8.65,8.65,0,1,1-8.64-9A8.82,8.82,0,0,1,531,763.11Zm-16.13,0c0,4.28,3.39,8,7.49,8s7.49-3.71,7.49-8a7.51,7.51,0,1,0-15,0Z"/><path d="M563.65,772.11h-1.19V762a6.37,6.37,0,1,0-12.71,0v10.15h-1.26V762a6.38,6.38,0,1,0-12.74,0c0,3.38.07,6.76.07,10.15h-1.26V754.36h1.26c0,1.12-.07,2.27-.07,3.42a7.44,7.44,0,0,1,13.35,1.08,7.55,7.55,0,0,1,14.55,3Z"/><path d="M584.56,763.11a8.84,8.84,0,0,1-8.67,9,8.61,8.61,0,0,1-7.53-4.61c0,3.67.08,7.3.08,11h-1.19V754.32h1.19c0,1.44-.08,2.92-.08,4.36a8.55,8.55,0,0,1,7.53-4.57A8.82,8.82,0,0,1,584.56,763.11Zm-1.19,0c0-4.32-3.34-8-7.48-8s-7.45,3.67-7.45,8a7.48,7.48,0,1,0,14.93,0Z"/><path d="M589.78,747.38V767h-1.26V747.38ZM588.56,767a5,5,0,0,0,5,5.08V771a3.92,3.92,0,0,1-3.78-4Z"/><path d="M603.32,762h7.38a7.38,7.38,0,0,0-14.58-.94,8.06,8.06,0,0,0,4.36,9.4,7.44,7.44,0,0,0,9.32-3.5l1.08.58A8.48,8.48,0,0,1,600,771.39a9.12,9.12,0,0,1-5.08-10.62,8.78,8.78,0,0,1,7.92-6.66,6.33,6.33,0,0,1,1.66.07,8.87,8.87,0,0,1,7.52,8.89h-8.71Z"/><path d="M623.73,758.75c-1.65,0-3.27,0-4.93,0,0,2.38,0,4.79.07,7.17a5,5,0,0,0,4.86,5.18v1.05a6.15,6.15,0,0,1-6.05-6.23c0-2.38,0-4.79,0-7.17-.68,0-1.37,0-2.09,0v-1.19c.69,0,1.41.08,2.09.08,0-3.42,0-6.84,0-10.26h1.19c0,3.42-.07,6.84-.07,10.26,1.62,0,3.28-.08,4.93-.08Z"/><path d="M635.43,758.75c-1.65,0-3.27,0-4.93,0,0,2.38,0,4.79.07,7.17a5,5,0,0,0,4.86,5.18v1.05a6.15,6.15,0,0,1-6-6.23c0-2.38,0-4.79,0-7.17-.68,0-1.37,0-2.09,0v-1.19c.69,0,1.41.08,2.09.08,0-3.42,0-6.84,0-10.26h1.19c0,3.42-.07,6.84-.07,10.26,1.62,0,3.28-.08,4.93-.08Z"/><path d="M673.41,754.11l-7.78,18H664l-7.7-18h1.15L664.77,771,672,754.11Z"/><path d="M683.17,762h7.38a7.38,7.38,0,0,0-14.58-.94,8.06,8.06,0,0,0,4.35,9.4,7.45,7.45,0,0,0,9.33-3.5l1.08.58a8.49,8.49,0,0,1-10.88,3.82,9.12,9.12,0,0,1-5.07-10.62,8.78,8.78,0,0,1,7.92-6.66,6.27,6.27,0,0,1,1.65.07,8.88,8.88,0,0,1,7.53,8.89h-8.71Z"/><path d="M704.41,754.11v1c-4.14,0-7.6,3.64-7.74,8,0,3,0,6,.07,9h-1.26V754.32h1.26c0,1.48-.07,3-.07,4.43A8.88,8.88,0,0,1,704.41,754.11Z"/><path d="M729.06,754.36v11.91a5.87,5.87,0,0,1-2.77,5,5.59,5.59,0,0,1-5.72,0,5.7,5.7,0,0,1-2.23-2.41,5.77,5.77,0,0,1-2.23,2.41,5.53,5.53,0,0,1-5.69,0,5.87,5.87,0,0,1-2.77-5V754.36h1.22v11.81a4.92,4.92,0,0,0,2.2,4.21,4.42,4.42,0,0,0,4.42,0,4.89,4.89,0,0,0,2.24-4.21V754.36H719v11.81a5,5,0,0,0,2.23,4.21,4.42,4.42,0,0,0,4.42,0,4.92,4.92,0,0,0,2.2-4.21V754.36Z"/><path d="M750.41,754.29v17.35h-1.22c0-1.37.07-2.74.07-4.07a8.69,8.69,0,0,1-7.56,4.54,9,9,0,0,1,0-18,8.57,8.57,0,0,1,7.56,4.53c0-1.47,0-2.91-.07-4.35Zm-1.22,8.82a7.8,7.8,0,0,0-7.49-8c-4.14,0-7.41,3.63-7.41,8a7.69,7.69,0,0,0,7.41,7.95A7.77,7.77,0,0,0,749.19,763.11Z"/><path d="M769.31,772.11h-1.22V761.85a6.45,6.45,0,1,0-12.89,0c0,3.42,0,6.84.07,10.26H754v-25.2h1.26c0,3.56-.07,7.13-.07,10.69a7.62,7.62,0,0,1,6.48-3.71,7.79,7.79,0,0,1,7.63,7.92Z"/><path d="M781.84,754.11v1c-4.14,0-7.59,3.64-7.74,8,0,3,0,6,.07,9h-1.26V754.32h1.26c0,1.48-.07,3-.07,4.43A8.89,8.89,0,0,1,781.84,754.11Z"/><path d="M786.34,747.38V767h-1.26V747.38ZM785.12,767a5,5,0,0,0,5,5.08V771a3.91,3.91,0,0,1-3.78-4Z"/><path d="M809.2,763.11a8.65,8.65,0,1,1-8.64-9A8.82,8.82,0,0,1,809.2,763.11Zm-16.13,0c0,4.28,3.39,8,7.49,8s7.49-3.71,7.49-8a7.51,7.51,0,1,0-15,0Z"/><path d="M822.34,769.23a5.18,5.18,0,0,1-4,2.84,6.74,6.74,0,0,1-1.72-.07,5.25,5.25,0,0,1-3.82-5.11H814a4.18,4.18,0,0,0,3,4.1,3.9,3.9,0,0,0,4.28-2.27,4.15,4.15,0,0,0-.93-4.89,8,8,0,0,0-2.41-1.19,7,7,0,0,1-2.67-1.12,4.2,4.2,0,0,1-1-5,4.07,4.07,0,0,1,3.24-2.3,2.86,2.86,0,0,1,1.33.07,4.21,4.21,0,0,1,3.13,4.11h-1.19a3.25,3.25,0,0,0-2.23-3.14,2.89,2.89,0,0,0-3.16,1.77,3.23,3.23,0,0,0,.64,3.63v0a7.53,7.53,0,0,0,2.31,1.11,7.44,7.44,0,0,1,2.88,1.23l0,0A5.28,5.28,0,0,1,822.34,769.23Z"/><path d="M834.54,758.75c-1.65,0-3.27,0-4.93,0,0,2.38,0,4.79.08,7.17a5,5,0,0,0,4.85,5.18v1.05a6.15,6.15,0,0,1-6-6.23c0-2.38,0-4.79,0-7.17-.68,0-1.36,0-2.08,0v-1.19c.68,0,1.4.08,2.08.08,0-3.42,0-6.84,0-10.26h1.19c0,3.42-.08,6.84-.08,10.26,1.62,0,3.28-.08,4.93-.08Z"/><path d="M846.82,762h7.38a7.38,7.38,0,0,0-14.58-.94,8.06,8.06,0,0,0,4.36,9.4,7.44,7.44,0,0,0,9.32-3.5l1.08.58a8.48,8.48,0,0,1-10.87,3.82,9.12,9.12,0,0,1-5.08-10.62,8.78,8.78,0,0,1,7.92-6.66,6.33,6.33,0,0,1,1.66.07,8.87,8.87,0,0,1,7.52,8.89h-8.71Z"/><path d="M874.32,772.11h-1.26V762a6.58,6.58,0,0,0-6.33-6.74,6.64,6.64,0,0,0-6.41,6.23c0,3.53,0,7.13.07,10.66h-1.26V754.32h1.26c0,1.12-.07,2.27-.07,3.42a7.49,7.49,0,0,1,6.41-3.63,7.73,7.73,0,0,1,7.59,7.81Z"/><path d="M904,758.75c-1.65,0-3.27,0-4.93,0,0,2.38,0,4.79.07,7.17a5,5,0,0,0,4.86,5.18v1.05a6.15,6.15,0,0,1-6-6.23c0-2.38,0-4.79,0-7.17-.68,0-1.37,0-2.09,0v-1.19c.69,0,1.41.08,2.09.08,0-3.42,0-6.84,0-10.26h1.18c0,3.42-.07,6.84-.07,10.26,1.62,0,3.28-.08,4.93-.08Z"/><path d="M923.93,754.29v17.35h-1.22c0-1.37.07-2.74.07-4.07a8.69,8.69,0,0,1-7.56,4.54,9,9,0,0,1,0-18,8.58,8.58,0,0,1,7.56,4.53c0-1.47,0-2.91-.07-4.35Zm-1.22,8.82a7.81,7.81,0,0,0-7.49-8c-4.14,0-7.42,3.63-7.42,8a7.7,7.7,0,0,0,7.42,7.95A7.78,7.78,0,0,0,922.71,763.11Z"/><path d="M934.12,763.25c1.69,3,3.45,5.9,5.22,8.86H937.9l-4.46-7.71L929,772.11h-1.48c1.77-3,3.53-5.87,5.26-8.86l-5.26-9.07H929c1.48,2.66,2.95,5.29,4.47,7.92,1.51-2.59,3-5.26,4.46-7.92h1.44Z"/><path d="M945,751.44a1.32,1.32,0,1,1,0,2.63,1.32,1.32,0,1,1,0-2.63Zm-.61,4.76v15.91h1.26V756.2Z"/><path d="M985.92,754.32v24.23h-1.15c0-3.71.07-7.42.07-11.09a8.57,8.57,0,0,1-7.56,4.65,9,9,0,0,1,0-18,8.63,8.63,0,0,1,7.56,4.68c0-1.47,0-3-.07-4.5Zm-1.15,8.86c0-4.36-3.38-8.06-7.49-8.06s-7.48,3.7-7.48,8.06,3.38,8,7.48,8S984.77,767.46,984.77,763.18Z"/><path d="M1005.76,754.58v17.17h-1.23c0-1.26,0-2.49.08-3.75a8.76,8.76,0,0,1-2.92,3,7.76,7.76,0,0,1-8.17,0,8.46,8.46,0,0,1-4-7.16v-9.21h1.23v9.14a7.3,7.3,0,0,0,3.42,6.3,6.65,6.65,0,0,0,6.91,0,7.45,7.45,0,0,0,3.49-6.3h0c0-3.06-.08-6.12-.08-9.14Z"/><path d="M1018,762h7.38a7.38,7.38,0,0,0-14.58-.94,8.08,8.08,0,0,0,4.36,9.4,7.43,7.43,0,0,0,9.32-3.5l1.08.58a8.48,8.48,0,0,1-10.87,3.82,9.12,9.12,0,0,1-5.07-10.62,8.77,8.77,0,0,1,7.92-6.66,6.27,6.27,0,0,1,1.65.07,8.88,8.88,0,0,1,7.53,8.89H1018Z"/><path d="M1039.27,754.11v1c-4.14,0-7.59,3.64-7.73,8,0,3,0,6,.07,9h-1.26V754.32h1.26c0,1.48-.07,3-.07,4.43A8.86,8.86,0,0,1,1039.27,754.11Z"/><path d="M1077.5,747.38v24.26h-1.18c.07-1.41.1-2.81.1-4.21a8.6,8.6,0,0,1-7.59,4.68,9,9,0,0,1,0-18,8.6,8.6,0,0,1,7.63,4.68c-.07-3.82-.14-7.6-.14-11.41Zm-1.18,15.73a7.78,7.78,0,0,0-7.49-8c-4.1,0-7.45,3.64-7.45,8a7.48,7.48,0,1,0,14.94,0Z"/><path d="M1098.06,754.58v17.17h-1.22c0-1.26,0-2.49.07-3.75a8.76,8.76,0,0,1-2.92,3,7.76,7.76,0,0,1-8.17,0,8.43,8.43,0,0,1-4-7.16v-9.21h1.22v9.14a7.32,7.32,0,0,0,3.42,6.3,6.65,6.65,0,0,0,6.91,0,7.45,7.45,0,0,0,3.49-6.3h0c0-3.06-.07-6.12-.07-9.14Z"/><path d="M1110.59,754.11v1c-4.14,0-7.6,3.64-7.74,8,0,3,0,6,.07,9h-1.26V754.32h1.26c0,1.48-.07,3-.07,4.43A8.89,8.89,0,0,1,1110.59,754.11Z"/><path d="M1127.15,758.61l-1.05.57a7.44,7.44,0,0,0-8.42-3.63,7.78,7.78,0,0,0-5.54,7.56,7.68,7.68,0,0,0,5.54,7.52,7.37,7.37,0,0,0,8.42-3.67l1.05.61a8.63,8.63,0,0,1-9.76,4.25,9,9,0,0,1-6.44-8.71,8.84,8.84,0,0,1,6.44-8.68,7.52,7.52,0,0,1,2.81-.32A8.72,8.72,0,0,1,1127.15,758.61Z"/><path d="M1145.69,772.11h-1.23V761.85a6.45,6.45,0,1,0-12.88,0c0,3.42,0,6.84.07,10.26h-1.26v-25.2h1.26c0,3.56-.07,7.13-.07,10.69a7.61,7.61,0,0,1,6.48-3.71,7.8,7.8,0,0,1,7.63,7.92Z"/><path d="M1184.64,763.11a8.87,8.87,0,0,1-8.68,9,8.64,8.64,0,0,1-7.52-4.54c0,1.33,0,2.7.07,4.07h-1.22V747.38h1.22l-.11,11.33a8.65,8.65,0,0,1,7.56-4.6A8.87,8.87,0,0,1,1184.64,763.11Zm-1.23,0a7.46,7.46,0,1,0-14.9,0,7.46,7.46,0,1,0,14.9,0Z"/><path d="M1205.27,754.29v17.35H1204c0-1.37.07-2.74.07-4.07a8.69,8.69,0,0,1-7.56,4.54,9,9,0,0,1,0-18,8.57,8.57,0,0,1,7.56,4.53c0-1.47,0-2.91-.07-4.35Zm-1.23,8.82a7.8,7.8,0,0,0-7.49-8c-4.13,0-7.41,3.63-7.41,8a7.7,7.7,0,0,0,7.41,7.95A7.77,7.77,0,0,0,1204,763.11Z"/><path d="M1225.1,754.4V772a6.23,6.23,0,0,1-5,6.19,17.67,17.67,0,0,1-2.7.15,19.48,19.48,0,0,1-2.84-.15,6.25,6.25,0,0,1-4.14-3.05l1-.58a5,5,0,0,0,3.42,2.41,16.53,16.53,0,0,0,2.59.22,13.91,13.91,0,0,0,2.45-.22,4.93,4.93,0,0,0,4.1-5c0-1.76.08-3.52.08-5.29a8.46,8.46,0,0,1-3,3.06,7.74,7.74,0,0,1-8.06,0,8.38,8.38,0,0,1-4-7.23V754.4h1.22v8.17a7.43,7.43,0,0,0,3.46,6.37,6.65,6.65,0,0,0,6.91,0,7.94,7.94,0,0,0,3.53-5.65c0-3,0-5.94-.08-8.89Z"/><path d="M1237.38,762h7.38a7.38,7.38,0,0,0-14.58-.94,8.06,8.06,0,0,0,4.35,9.4,7.45,7.45,0,0,0,9.33-3.5l1.08.58a8.48,8.48,0,0,1-10.87,3.82,9.12,9.12,0,0,1-5.08-10.62,8.78,8.78,0,0,1,7.92-6.66,6.36,6.36,0,0,1,1.66.07,8.87,8.87,0,0,1,7.52,8.89h-8.71Z"/><path d="M1258.62,754.11v1c-4.14,0-7.6,3.64-7.74,8,0,3,0,6,.07,9h-1.26V754.32H1251c0,1.48-.07,3-.07,4.43A8.89,8.89,0,0,1,1258.62,754.11Z"/><path d="M1276.69,772.11h-1.26V762a6.38,6.38,0,1,0-12.74-.51c0,3.53,0,7.13.07,10.66h-1.26V754.32h1.26c0,1.12-.07,2.27-.07,3.42a7.48,7.48,0,0,1,6.4-3.63,7.74,7.74,0,0,1,7.6,7.81Z"/><path d="M1280.54,769.59a1.26,1.26,0,1,1,0,2.52,1.26,1.26,0,1,1,0-2.52Z"/><path d="M1307.43,761.67c1.7,0,3.39,0,5.08,0v1.26c-1.69,0-3.38,0-5.08,0,0,3.06,0,6.16,0,9.26h-1.22c0-3.1,0-6.2.07-9.26-.76,0-1.48,0-2.2,0v-1.26c.72,0,1.44,0,2.2,0,0-2.59,0-5.19-.07-7.78v-.18a6.39,6.39,0,0,1,6.26-6.33v1.08a5.23,5.23,0,0,0-5,5.43C1307.43,756.48,1307.43,759.08,1307.43,761.67Z"/><path d="M1325.76,754.11v1c-4.14,0-7.6,3.64-7.74,8,0,3,0,6,.07,9h-1.26V754.32h1.26c0,1.48-.07,3-.07,4.43A8.89,8.89,0,0,1,1325.76,754.11Z"/><path d="M1343.14,754.29v17.35h-1.22c0-1.37.07-2.74.07-4.07a8.69,8.69,0,0,1-7.56,4.54,9,9,0,0,1,0-18,8.57,8.57,0,0,1,7.56,4.53c0-1.47,0-2.91-.07-4.35Zm-1.22,8.82a7.8,7.8,0,0,0-7.49-8c-4.14,0-7.41,3.63-7.41,8a7.69,7.69,0,0,0,7.41,7.95A7.77,7.77,0,0,0,1341.92,763.11Z"/><path d="M1361.94,772.11h-1.26V762a6.58,6.58,0,0,0-6.34-6.74,6.65,6.65,0,0,0-6.41,6.23c0,3.53,0,7.13.08,10.66h-1.26V754.32H1348c0,1.12-.08,2.27-.08,3.42a7.5,7.5,0,0,1,6.41-3.63,7.74,7.74,0,0,1,7.6,7.81Z"/><path d="M1377.85,771v1.08h-12.31c3.24-5.58,6.55-11.27,9.72-16.81-3,0-6.34,0-9.43,0v-1.16h11.51c-3.24,5.65-6.55,11.27-9.75,16.89C1371,771.06,1374.43,771,1377.85,771Z"/><path d="M1403.16,756.2h1.26v17.56a5.09,5.09,0,0,1-5,5.15v-1a4,4,0,0,0,3.74-4.14Zm1.94-3.46a1.32,1.32,0,0,1-1.3,1.33,1.38,1.38,0,0,1-1.36-1.33,1.32,1.32,0,0,1,1.36-1.3A1.27,1.27,0,0,1,1405.1,752.74Z"/><path d="M1425.73,754.29v17.35h-1.23c0-1.37.08-2.74.08-4.07a8.71,8.71,0,0,1-7.56,4.54,9,9,0,0,1,0-18,8.6,8.6,0,0,1,7.56,4.53c0-1.47,0-2.91-.08-4.35Zm-1.23,8.82a7.8,7.8,0,0,0-7.48-8c-4.14,0-7.42,3.63-7.42,8a7.47,7.47,0,1,0,14.9,0Z"/><path d="M1445.6,754.4v17.67a6.17,6.17,0,0,1-5,6.12,17.34,17.34,0,0,1-2.74.18,25.46,25.46,0,0,1-2.84-.18,6,6,0,0,1-4.18-3l1.12-.65a4.73,4.73,0,0,0,3.31,2.49,13.49,13.49,0,0,0,2.59.25,15.38,15.38,0,0,0,2.6-.25,5,5,0,0,0,3.92-5l.11-5.22a8.12,8.12,0,0,1-7,4.1,8.42,8.42,0,0,1,0-16.84,8,8,0,0,1,6.91,4.1c0-1.29,0-2.55-.07-3.81Zm-1.26,8.13c0-4-3.06-7.41-6.84-7.41a7.47,7.47,0,0,0,0,14.9C1441.28,770,1444.34,766.6,1444.34,762.53Z"/><path d="M1457.3,758.75c-1.66,0-3.28,0-4.93,0,0,2.38,0,4.79.07,7.17a5,5,0,0,0,4.86,5.18v1.05a6.15,6.15,0,0,1-6-6.23c0-2.38,0-4.79,0-7.17-.69,0-1.37,0-2.09,0v-1.19c.68,0,1.4.08,2.09.08,0-3.42,0-6.84,0-10.26h1.19c0,3.42-.07,6.84-.07,10.26,1.62,0,3.27-.08,4.93-.08Z"/><path d="M1481,751.44a1.32,1.32,0,1,1,0,2.63,1.32,1.32,0,1,1,0-2.63Zm-.61,4.76v15.91h1.26V756.2Z"/><path d="M1515.69,772.11h-1.19V762a6.37,6.37,0,1,0-12.71,0v10.15h-1.26V762a6.38,6.38,0,1,0-12.74,0c0,3.38.07,6.76.07,10.15h-1.26V754.36h1.26c0,1.12-.07,2.27-.07,3.42a7.44,7.44,0,0,1,13.35,1.08,7.55,7.55,0,0,1,14.55,3Z"/><path d="M1545.75,772.11l-7.34-7.42c0,2.48,0,4.93.07,7.42h-1.19V747.38h1.19q-.06,7.13-.07,14.25l7.16-7.16h1.69l-8.78,8.82-.07-.08v.15l.07-.07,8.85,8.82Z"/><path d="M1566.05,763.11a8.65,8.65,0,1,1-8.64-9A8.81,8.81,0,0,1,1566.05,763.11Zm-16.13,0c0,4.28,3.39,8,7.49,8s7.49-3.71,7.49-8a7.51,7.51,0,1,0-15,0Z"/><path d="M1598.74,772.11h-1.19V762a6.37,6.37,0,1,0-12.71,0v10.15h-1.26V762a6.38,6.38,0,1,0-12.74,0c0,3.38.07,6.76.07,10.15h-1.26V754.36h1.26c0,1.12-.07,2.27-.07,3.42a16.54,16.54,0,0,0,20.37-3.67,7.74,7.74,0,0,1,7.53,7.77Z"/><path d="M1619.65,763.11a8.84,8.84,0,0,1-8.67,9,8.58,8.58,0,0,1-7.52-4.61c0,3.67.07,7.3.07,11h-1.19V754.32h1.19c0,1.44-.07,2.92-.07,4.36a8.53,8.53,0,0,1,7.52-4.57A8.82,8.82,0,0,1,1619.65,763.11Zm-1.18,0c0-4.32-3.35-8-7.49-8s-7.45,3.67-7.45,8a7.48,7.48,0,1,0,14.94,0Z"/><path d="M1624.88,747.38V767h-1.26V747.38ZM1623.65,767a5,5,0,0,0,5,5.08V771a3.91,3.91,0,0,1-3.78-4Z"/><path d="M1638.41,762h7.38a7.38,7.38,0,0,0-14.58-.94,8.08,8.08,0,0,0,4.36,9.4,7.44,7.44,0,0,0,9.32-3.5l1.08.58a8.48,8.48,0,0,1-10.87,3.82,9.12,9.12,0,0,1-5.07-10.62,8.75,8.75,0,0,1,7.91-6.66,6.33,6.33,0,0,1,1.66.07,8.87,8.87,0,0,1,7.52,8.89h-8.71Z"/><path d="M1658.82,758.75c-1.65,0-3.27,0-4.93,0,0,2.38,0,4.79.07,7.17a5,5,0,0,0,4.86,5.18v1.05a6.15,6.15,0,0,1-6-6.23c0-2.38,0-4.79,0-7.17-.68,0-1.37,0-2.09,0v-1.19c.69,0,1.41.08,2.09.08,0-3.42,0-6.84,0-10.26H1654c0,3.42-.07,6.84-.07,10.26,1.62,0,3.28-.08,4.93-.08Z"/><path d="M1670.52,758.75c-1.65,0-3.27,0-4.93,0,0,2.38,0,4.79.07,7.17a5,5,0,0,0,4.86,5.18v1.05a6.15,6.15,0,0,1-6-6.23c0-2.38,0-4.79,0-7.17-.68,0-1.37,0-2.09,0v-1.19c.69,0,1.41.08,2.09.08,0-3.42,0-6.84,0-10.26h1.18c0,3.42-.07,6.84-.07,10.26,1.62,0,3.28-.08,4.93-.08Z"/><path d="M1708.5,754.11l-7.77,18h-1.62l-7.7-18h1.15l7.3,16.92,7.27-16.92Z"/><path d="M1718.26,762h7.38a7.38,7.38,0,0,0-14.58-.94,8.06,8.06,0,0,0,4.36,9.4,7.44,7.44,0,0,0,9.32-3.5l1.08.58a8.48,8.48,0,0,1-10.87,3.82,9.12,9.12,0,0,1-5.08-10.62,8.78,8.78,0,0,1,7.92-6.66,6.36,6.36,0,0,1,1.66.07,8.87,8.87,0,0,1,7.52,8.89h-8.71Z"/><path d="M1739.5,754.11v1c-4.14,0-7.6,3.64-7.74,8,0,3,0,6,.07,9h-1.26V754.32h1.26c0,1.48-.07,3-.07,4.43A8.89,8.89,0,0,1,1739.5,754.11Z"/><rect class="cls-1" x="1665.63" y="313.67" width="254.37" height="610.5"/></svg>