<svg id="Ebene_1" data-name="Ebene 1" xmlns="http://www.w3.org/2000/svg" viewBox="0 0 1920 1080"><defs><style>.cls-1{fill:#fff;}.cls-2,.cls-3{fill:none;stroke:#000;stroke-miterlimit:10;stroke-width:3.5px;}.cls-2{opacity:0.2;}</style></defs><title>circle_example</title><rect class="cls-1" width="1920" height="1080"/><rect class="cls-2" x="91.96" y="191.49" width="62.36" height="62.36"/><circle class="cls-3" cx="298.91" cy="222.67" r="31.18"/><polygon class="cls-2" points="215.14 191.49 233.14 222.67 251.14 253.85 215.14 253.85 179.13 253.85 197.13 222.67 215.14 191.49"/><path d="M286,361.31c5.64,0,11.28-.12,16.92-.12v4.2c-5.64,0-11.28-.12-16.92-.12-.12,10.2,0,20.52.12,30.83H282c.12-10.31.12-20.63.24-30.83-2.52,0-4.92,0-7.32.12v-4.2c2.4.12,4.8.12,7.32.12,0-8.64-.12-17.28-.24-25.92v-.6c.36-11.76,9.6-21.12,20.88-21.12v3.6c-9.36,0-16.8,8.16-16.8,18.12C286,344,286,352.67,286,361.31Z"/><path d="M347,336.11v3.48c-13.8,0-25.32,12.12-25.8,26.52,0,10,.12,19.92.24,30h-4.2V336.83h4.2c-.12,4.92-.24,9.84-.24,14.76A29.61,29.61,0,0,1,347,336.11Z"/><path d="M405,336.71v57.83H400.9c.12-4.55.25-9.11.25-13.55A29,29,0,0,1,376,396.1c-16,0-28.92-13.55-28.92-30,0-16.68,13-30,28.92-30a28.58,28.58,0,0,1,25.2,15.12c0-4.92-.13-9.72-.25-14.52Zm-4.08,29.4c0-14.52-11.27-26.64-24.95-26.64s-24.72,12.12-24.72,26.64,10.92,26.51,24.72,26.51S400.9,380.63,400.9,366.11Z"/><path d="M467.62,396.1h-4.2V362.27c0-12.24-9.48-22.44-21.11-22.44-11,0-20.52,9.24-21.36,20.76,0,11.76.12,23.76.24,35.51H417V336.83h4.2c-.12,3.72-.24,7.56-.24,11.4a25,25,0,0,1,21.36-12.12c13.91,0,25.19,11.64,25.31,26Z"/><path d="M520.66,392.5v3.6h-41c10.8-18.59,21.84-37.55,32.4-56-10.08-.12-21.12,0-31.44,0v-3.84H519c-10.8,18.84-21.84,37.56-32.52,56.27C497.86,392.62,509.26,392.5,520.66,392.5Z"/><path d="M605,343.07h4.2v58.55c0,9.36-7.44,17.16-16.56,17.16v-3.36c7,0,12.48-6.6,12.48-13.8Zm6.48-11.52a4.41,4.41,0,0,1-4.32,4.44,4.61,4.61,0,0,1-4.56-4.44,4.43,4.43,0,0,1,4.56-4.32A4.23,4.23,0,0,1,611.5,331.55Z"/><path d="M680.26,336.71v57.83h-4.08c.12-4.55.24-9.11.24-13.55a29,29,0,0,1-25.2,15.11c-16,0-28.92-13.55-28.92-30,0-16.68,13-30,28.92-30a28.58,28.58,0,0,1,25.2,15.12c0-4.92-.12-9.72-.24-14.52Zm-4.08,29.4c0-14.52-11.28-26.64-25-26.64s-24.72,12.12-24.72,26.64,10.92,26.51,24.72,26.51S676.18,380.63,676.18,366.11Z"/><path d="M746.5,337.07V396a20.53,20.53,0,0,1-16.8,20.4,58.31,58.31,0,0,1-9.12.6,83.54,83.54,0,0,1-9.48-.6c-5.76-.84-10.8-4.68-13.92-10l3.72-2.16a15.74,15.74,0,0,0,11,8.28,42.91,42.91,0,0,0,8.64.84,49.74,49.74,0,0,0,8.64-.84c7.56-1.32,13.08-8.4,13.08-16.56l.36-17.39a27.1,27.1,0,0,1-23.16,13.68c-15.12,0-27.24-12.72-27.24-28.08s12.12-28.08,27.24-28.08a26.75,26.75,0,0,1,23,13.68c0-4.32-.12-8.52-.24-12.72Zm-4.2,27.12c0-13.2-10.2-24.72-22.8-24.72-13,0-23.16,11.52-23.16,24.72,0,13.56,10.2,25,23.16,25C732.1,389.15,742.3,377.75,742.3,364.19Z"/><path d="M785.5,351.59c-5.52,0-10.92-.12-16.44-.12,0,7.92,0,16,.24,23.88,0,9.48,7.2,17.27,16.2,17.27v3.48c-11.16,0-20.16-9.35-20.16-20.75.12-7.92.12-16,.12-23.88-2.28,0-4.56,0-7,.12v-4c2.28.12,4.68.24,7,.24,0-11.4-.12-22.8-.12-34.2h4c-.12,11.4-.24,22.8-.24,34.2,5.4-.12,10.92-.24,16.44-.24Z"/><path d="M864.34,327.23a4.38,4.38,0,1,1,0,8.76,4.38,4.38,0,1,1,0-8.76Zm-2,15.84v53h4.2v-53Z"/><path d="M980.13,396.1h-4V362.27c0-12.24-9.71-22.68-21.11-22.68-11.76,0-21.24,10.44-21.24,22.68V396.1h-4.2V362.27c0-12.24-9.48-22.68-21.12-22.68S887.14,350,887.14,362.27c0,11.28.24,22.56.24,33.83h-4.2V337h4.2c-.12,3.72-.24,7.56-.24,11.4a24.81,24.81,0,0,1,44.52,3.6,25.57,25.57,0,0,1,23.4-15.84c13.67,0,25,11.76,25.07,25.92Z"/><path d="M1080.34,396.1l-24.48-24.71c0,8.28.12,16.44.24,24.71h-4V313.67h4c-.12,15.84-.24,31.68-.24,47.52l23.88-23.88h5.64l-29.28,29.4-.24-.24V367l.24-.24,29.52,29.39Z"/><path d="M1148,366.11c0,16.44-12.72,30-28.8,30-15.83,0-28.79-13.55-28.79-30s13-30,28.79-30C1135.29,336.11,1148,349.67,1148,366.11Zm-53.75,0c0,14.28,11.28,26.64,25,26.64s25-12.36,25-26.64c0-14.52-11.28-26.64-25-26.64S1094.26,351.59,1094.26,366.11Z"/><path d="M1257,396.1h-4V362.27c0-12.24-9.72-22.68-21.12-22.68-11.76,0-21.24,10.44-21.24,22.68V396.1h-4.2V362.27c0-12.24-9.48-22.68-21.12-22.68S1164,350,1164,362.27c0,11.28.23,22.56.23,33.83H1160V337h4.19c-.12,3.72-.23,7.56-.23,11.4a24.8,24.8,0,0,1,44.51,3.6,25.57,25.57,0,0,1,23.4-15.84c13.68,0,25,11.76,25.08,25.92Z"/><path d="M1326.69,366.11c0,16.44-12.84,30-28.92,30a28.6,28.6,0,0,1-25.08-15.35c0,12.24.24,24.35.24,36.59h-4V336.83h4c-.12,4.8-.24,9.72-.24,14.52a28.5,28.5,0,0,1,25.08-15.24C1313.85,336.11,1326.69,349.55,1326.69,366.11Zm-4,0c0-14.4-11.16-26.64-25-26.64s-24.84,12.24-24.84,26.64,11.16,26.51,24.84,26.51S1322.73,380.51,1322.73,366.11Z"/><path d="M1344.09,313.67v65.52h-4.2V313.67ZM1340,379.19a16.77,16.77,0,0,0,16.68,16.91v-3.6c-7,0-12.6-6-12.6-13.43Z"/><path d="M1389.21,362.51h24.6c-1.44-11.64-10-21.12-21.36-22.56-12.24-1.8-23.88,6.72-27.24,19.44s2.88,26.16,14.52,31.32c11.52,4.79,24.72-.24,31.08-11.64l3.6,1.92c-7.44,13.2-22.92,18.72-36.24,12.72-13.32-5.64-20.64-21-16.92-35.4,3.36-12.72,14.16-21.6,26.4-22.2a22,22,0,0,1,5.52.24c14.4,1.92,25.08,14.76,25.08,29.64h-29Z"/><path d="M1457.25,351.59c-5.52,0-10.92-.12-16.44-.12,0,7.92,0,16,.24,23.88,0,9.48,7.2,17.27,16.2,17.27v3.48c-11.16,0-20.16-9.35-20.16-20.75.12-7.92.12-16,.12-23.88-2.28,0-4.56,0-7,.12v-4c2.28.12,4.68.24,7,.24,0-11.4-.12-22.8-.12-34.2h4c-.12,11.4-.24,22.8-.24,34.2,5.4-.12,10.92-.24,16.44-.24Z"/><path d="M1496.25,351.59c-5.52,0-10.92-.12-16.44-.12,0,7.92,0,16,.24,23.88,0,9.48,7.2,17.27,16.2,17.27v3.48c-11.16,0-20.16-9.35-20.16-20.75.12-7.92.12-16,.12-23.88-2.28,0-4.56,0-7,.12v-4c2.28.12,4.68.24,7,.24,0-11.4-.12-22.8-.12-34.2h4c-.12,11.4-.24,22.8-.24,34.2,5.4-.12,10.92-.24,16.44-.24Z"/><path d="M1622.85,336.11l-25.92,60h-5.4l-25.68-60h3.84l24.36,56.39,24.24-56.39Z"/><path d="M1655.37,362.51H1680c-1.44-11.64-10-21.12-21.36-22.56-12.24-1.8-23.88,6.72-27.24,19.44s2.88,26.16,14.52,31.32c11.52,4.79,24.72-.24,31.08-11.64l3.6,1.92c-7.44,13.2-22.92,18.72-36.24,12.72-13.32-5.64-20.64-21-16.92-35.4,3.36-12.72,14.16-21.6,26.4-22.2a22,22,0,0,1,5.52.24c14.4,1.92,25.08,14.76,25.08,29.64h-29Z"/><path d="M1726.17,336.11v3.48c-13.8,0-25.32,12.12-25.8,26.52,0,10,.12,19.92.24,30h-4.2V336.83h4.2c-.12,4.92-.24,9.84-.24,14.76A29.61,29.61,0,0,1,1726.17,336.11Z"/><path d="M281.09,500c4.23,0,8.46-.09,12.69-.09v3.15c-4.23,0-8.46-.09-12.69-.09-.09,7.65,0,15.39.09,23.13h-3.06c.09-7.74.09-15.48.18-23.13-1.89,0-3.69,0-5.49.09v-3.15c1.8.09,3.6.09,5.49.09,0-6.48-.09-13-.18-19.44v-.45c.27-8.82,7.2-15.84,15.66-15.84V467c-7,0-12.6,6.12-12.6,13.59C281.09,487.05,281.09,493.53,281.09,500Z"/><path d="M326.9,481.11v2.61c-10.35,0-19,9.09-19.35,19.89,0,7.47.09,14.94.18,22.5h-3.15V481.65h3.15c-.09,3.69-.18,7.38-.18,11.07A22.21,22.21,0,0,1,326.9,481.11Z"/><path d="M370.37,481.56v43.38h-3.06c.09-3.42.18-6.84.18-10.17a21.72,21.72,0,0,1-18.9,11.34c-12,0-21.69-10.17-21.69-22.5,0-12.51,9.72-22.5,21.69-22.5a21.43,21.43,0,0,1,18.9,11.34c0-3.69-.09-7.29-.18-10.89Zm-3.06,22.05c0-10.89-8.46-20-18.72-20s-18.54,9.09-18.54,20,8.19,19.89,18.54,19.89S367.31,514.5,367.31,503.61Z"/><path d="M417.35,526.11H414.2V500.73c0-9.18-7.11-16.83-15.84-16.83-8.28,0-15.39,6.93-16,15.57,0,8.82.09,17.82.18,26.64h-3.15V481.65h3.15c-.09,2.79-.18,5.67-.18,8.55a18.71,18.71,0,0,1,16-9.09c10.44,0,18.9,8.73,19,19.53Z"/><path d="M457.12,523.41v2.7H426.35c8.1-14,16.38-28.17,24.3-42-7.56-.09-15.84,0-23.58,0V481.2h28.79c-8.09,14.13-16.37,28.17-24.38,42.21C440,523.5,448.58,523.41,457.12,523.41Z"/><path d="M520.39,486.33h3.15v43.92a12.73,12.73,0,0,1-12.42,12.87v-2.53c5.22,0,9.36-4.94,9.36-10.34Zm4.86-8.64A3.3,3.3,0,0,1,522,481a3.46,3.46,0,0,1-3.42-3.33,3.32,3.32,0,0,1,3.42-3.24A3.17,3.17,0,0,1,525.25,477.69Z"/><path d="M576.82,481.56v43.38h-3.06c.09-3.42.18-6.84.18-10.17A21.72,21.72,0,0,1,555,526.11c-12,0-21.69-10.17-21.69-22.5,0-12.51,9.72-22.5,21.69-22.5a21.43,21.43,0,0,1,18.9,11.34c0-3.69-.09-7.29-.18-10.89Zm-3.06,22.05c0-10.89-8.46-20-18.72-20s-18.54,9.09-18.54,20S544.69,523.5,555,523.5,573.76,514.5,573.76,503.61Z"/><path d="M626.5,481.83V526a15.39,15.39,0,0,1-12.6,15.29,43.73,43.73,0,0,1-6.84.45,60.38,60.38,0,0,1-7.11-.45,15,15,0,0,1-10.44-7.47l2.79-1.61a11.81,11.81,0,0,0,8.28,6.2,31.29,31.29,0,0,0,6.48.64,36,36,0,0,0,6.48-.64c5.67-1,9.81-6.3,9.81-12.41l.27-13a20.32,20.32,0,0,1-17.37,10.26c-11.34,0-20.43-9.54-20.43-21.06s9.09-21.06,20.43-21.06a20.07,20.07,0,0,1,17.28,10.26c0-3.24-.09-6.39-.18-9.54Zm-3.15,20.34c0-9.9-7.65-18.54-17.1-18.54-9.72,0-17.37,8.64-17.37,18.54,0,10.17,7.65,18.72,17.37,18.72C615.7,520.89,623.35,512.34,623.35,502.17Z"/><path d="M655.75,492.72c-4.14,0-8.19-.09-12.33-.09,0,5.94,0,12,.18,17.91,0,7.11,5.4,13,12.15,13v2.61a15.37,15.37,0,0,1-15.12-15.57c.09-5.94.09-12,.09-17.91-1.71,0-3.42,0-5.22.09v-3c1.71.09,3.51.18,5.22.18,0-8.55-.09-17.1-.09-25.65h3c-.09,8.55-.18,17.1-.18,25.65,4.05-.09,8.19-.18,12.33-.18Z"/><path d="M714.88,474.45a3.29,3.29,0,1,1,0,6.57,3.29,3.29,0,1,1,0-6.57Zm-1.53,11.88v39.78h3.15V486.33Z"/><path d="M801.73,526.11h-3V500.73c0-9.18-7.29-17-15.84-17-8.82,0-15.93,7.83-15.93,17v25.38h-3.15V500.73c0-9.18-7.11-17-15.84-17s-16,7.83-16,17c0,8.46.18,16.92.18,25.38H729V481.74h3.15c-.09,2.79-.18,5.67-.18,8.55a18.61,18.61,0,0,1,33.39,2.7,19.18,19.18,0,0,1,17.55-11.88c10.26,0,18.72,8.82,18.81,19.44Z"/><path d="M876.88,526.11l-18.36-18.54c0,6.21.09,12.33.18,18.54h-3V464.28h3c-.09,11.88-.18,23.76-.18,35.64L876.43,482h4.23l-22,22.05-.18-.18v.36l.18-.18,22.14,22.05Z"/><path d="M927.64,503.61c0,12.33-9.54,22.5-21.6,22.5-11.88,0-21.6-10.17-21.6-22.5s9.72-22.5,21.6-22.5C918.1,481.11,927.64,491.28,927.64,503.61Zm-40.32,0c0,10.71,8.46,20,18.72,20s18.72-9.27,18.72-20c0-10.89-8.46-20-18.72-20S887.32,492.72,887.32,503.61Z"/><path d="M1009.36,526.11h-3V500.73c0-9.18-7.29-17-15.84-17-8.82,0-15.93,7.83-15.93,17v25.38h-3.15V500.73c0-9.18-7.11-17-15.84-17s-16,7.83-16,17c0,8.46.18,16.92.18,25.38h-3.15V481.74h3.15c-.09,2.79-.18,5.67-.18,8.55A18.61,18.61,0,0,1,973,493a19.18,19.18,0,0,1,17.55-11.88c10.26,0,18.72,8.82,18.81,19.44Z"/><path d="M1061.65,503.61c0,12.33-9.63,22.5-21.69,22.5a21.46,21.46,0,0,1-18.81-11.52c0,9.18.18,18.27.18,27.45h-3V481.65h3c-.09,3.6-.18,7.29-.18,10.89A21.37,21.37,0,0,1,1040,481.11C1052,481.11,1061.65,491.19,1061.65,503.61Zm-3,0c0-10.8-8.37-20-18.72-20s-18.63,9.18-18.63,20,8.37,19.89,18.63,19.89S1058.68,514.41,1058.68,503.61Z"/><path d="M1074.7,464.28v49.14h-3.15V464.28Zm-3.06,49.14a12.58,12.58,0,0,0,12.51,12.69v-2.7c-5.22,0-9.45-4.5-9.45-10.08Z"/><path d="M1108.54,500.91H1127c-1.08-8.73-7.47-15.84-16-16.92-9.18-1.35-17.91,5-20.43,14.58s2.16,19.62,10.89,23.49c8.64,3.6,18.54-.18,23.31-8.73l2.7,1.44c-5.58,9.9-17.19,14-27.18,9.54-10-4.23-15.48-15.75-12.69-26.55,2.52-9.54,10.62-16.2,19.8-16.65a16.47,16.47,0,0,1,4.14.18c10.8,1.44,18.81,11.07,18.81,22.23h-21.78Z"/><path d="M1159.57,492.72c-4.14,0-8.19-.09-12.33-.09,0,5.94,0,12,.18,17.91,0,7.11,5.4,13,12.15,13v2.61a15.37,15.37,0,0,1-15.12-15.57c.09-5.94.09-12,.09-17.91-1.71,0-3.42,0-5.22.09v-3c1.71.09,3.51.18,5.22.18,0-8.55-.09-17.1-.09-25.65h3c-.09,8.55-.18,17.1-.18,25.65,4-.09,8.19-.18,12.33-.18Z"/><path d="M1188.82,492.72c-4.14,0-8.19-.09-12.33-.09,0,5.94,0,12,.18,17.91,0,7.11,5.4,13,12.15,13v2.61a15.37,15.37,0,0,1-15.12-15.57c.09-5.94.09-12,.09-17.91-1.71,0-3.42,0-5.22.09v-3c1.71.09,3.51.18,5.22.18,0-8.55-.09-17.1-.09-25.65h3c-.09,8.55-.18,17.1-.18,25.65,4-.09,8.19-.18,12.33-.18Z"/><path d="M1283.77,481.11l-19.44,45h-4l-19.26-45h2.88l18.27,42.3,18.18-42.3Z"/><path d="M1308.16,500.91h18.45c-1.08-8.73-7.47-15.84-16-16.92-9.18-1.35-17.91,5-20.43,14.58s2.16,19.62,10.89,23.49c8.64,3.6,18.54-.18,23.31-8.73l2.7,1.44c-5.58,9.9-17.19,14-27.18,9.54-10-4.23-15.48-15.75-12.69-26.55,2.52-9.54,10.62-16.2,19.8-16.65a16.47,16.47,0,0,1,4.14.18c10.8,1.44,18.81,11.07,18.81,22.23h-21.78Z"/><path d="M1361.26,481.11v2.61c-10.35,0-19,9.09-19.35,19.89,0,7.47.09,14.94.18,22.5h-3.15V481.65h3.15c-.09,3.69-.18,7.38-.18,11.07A22.21,22.21,0,0,1,1361.26,481.11Z"/><path d="M1422.9,481.74v29.79A14.69,14.69,0,0,1,1416,524a14,14,0,0,1-14.3,0,14.43,14.43,0,0,1-5.58-6,14.43,14.43,0,0,1-5.58,6,13.89,13.89,0,0,1-14.22,0,14.71,14.71,0,0,1-6.93-12.42V481.74h3.06v29.52c0,4.14,2,8.46,5.49,10.53a11.06,11.06,0,0,0,11.07,0c3.6-2.07,5.58-6.39,5.58-10.53V481.74h3.15v29.52c0,4.14,2.07,8.46,5.58,10.53a11,11,0,0,0,11.06,0c3.52-2.07,5.49-6.39,5.49-10.53V481.74Z"/><path d="M1476.27,481.56v43.38h-3.06c.09-3.42.18-6.84.18-10.17a21.69,21.69,0,0,1-18.89,11.34c-12,0-21.69-10.17-21.69-22.5,0-12.51,9.72-22.5,21.69-22.5a21.4,21.4,0,0,1,18.89,11.34c0-3.69-.09-7.29-.18-10.89Zm-3.06,22.05c0-10.89-8.46-20-18.71-20s-18.54,9.09-18.54,20,8.19,19.89,18.54,19.89S1473.21,514.5,1473.21,503.61Z"/><path d="M1523.52,526.11h-3.06V500.46c0-9.27-7.2-17-16-17s-16.2,7.74-16.2,17c0,8.55.09,17.1.18,25.65h-3.15v-63h3.15c-.09,8.91-.18,17.82-.18,26.73a19.06,19.06,0,0,1,16.2-9.27c10.62,0,19,8.91,19.07,19.8Z"/><path d="M1554.84,481.11v2.61c-10.34,0-19,9.09-19.34,19.89,0,7.47.08,14.94.17,22.5h-3.14V481.65h3.14c-.09,3.69-.17,7.38-.17,11.07A22.19,22.19,0,0,1,1554.84,481.11Z"/><path d="M1566.09,464.28v49.14h-3.15V464.28ZM1563,513.42a12.58,12.58,0,0,0,12.51,12.69v-2.7c-5.22,0-9.45-4.5-9.45-10.08Z"/><path d="M1623.24,503.61c0,12.33-9.54,22.5-21.6,22.5-11.88,0-21.6-10.17-21.6-22.5s9.72-22.5,21.6-22.5C1613.7,481.11,1623.24,491.28,1623.24,503.61Zm-40.32,0c0,10.71,8.46,20,18.72,20s18.72-9.27,18.72-20c0-10.89-8.46-20-18.72-20S1582.92,492.72,1582.92,503.61Z"/><path d="M1656.09,518.91a13,13,0,0,1-10,7.11,17.74,17.74,0,0,1-4.32-.18,13.1,13.1,0,0,1-9.54-12.78h3c0,4.68,3.06,9.27,7.38,10.26s8.82-1.62,10.71-5.67a10.41,10.41,0,0,0-2.34-12.24,19.85,19.85,0,0,0-6-3c-2.34-.72-4.77-1.17-6.66-2.79a10.49,10.49,0,0,1-2.61-12.6,10.15,10.15,0,0,1,8.1-5.76,7,7,0,0,1,3.33.18,10.53,10.53,0,0,1,7.83,10.26h-3c0-3.51-2.34-7-5.58-7.83-3.06-.72-6.48,1.17-7.92,4.41a8.11,8.11,0,0,0,1.62,9.09v-.09a19.07,19.07,0,0,0,5.76,2.79c2.34.72,5,1.17,7.2,3.06l-.09.09A13.19,13.19,0,0,1,1656.09,518.91Z"/><path d="M1686.6,492.72c-4.14,0-8.19-.09-12.33-.09,0,5.94,0,12,.18,17.91,0,7.11,5.4,13,12.15,13v2.61a15.37,15.37,0,0,1-15.12-15.57c.09-5.94.09-12,.09-17.91-1.71,0-3.42,0-5.22.09v-3c1.71.09,3.51.18,5.22.18,0-8.55-.09-17.1-.09-25.65h3c-.09,8.55-.18,17.1-.18,25.65,4-.09,8.19-.18,12.33-.18Z"/><path d="M277,607.25c3,0,6.11-.06,9.16-.06v2.27c-3.05,0-6.11-.06-9.16-.06-.07,5.52,0,11.12.06,16.71h-2.21c.07-5.59.07-11.19.13-16.71-1.36,0-2.66,0-4,.06v-2.27c1.3.06,2.6.06,4,.06,0-4.68-.06-9.36-.13-14v-.32a11.56,11.56,0,0,1,11.31-11.44v1.95c-5.07,0-9.1,4.42-9.1,9.81C277,597.89,277,602.57,277,607.25Z"/><path d="M310.12,593.6v1.89c-7.47,0-13.71,6.56-14,14.36,0,5.4.06,10.8.13,16.26H294V594h2.28c-.07,2.67-.13,5.33-.13,8A16,16,0,0,1,310.12,593.6Z"/><path d="M341.52,593.93v31.33h-2.21c.06-2.47.13-4.94.13-7.34a15.69,15.69,0,0,1-13.65,8.19c-8.65,0-15.67-7.35-15.67-16.26a15.94,15.94,0,0,1,15.67-16.25,15.48,15.48,0,0,1,13.65,8.19c0-2.66-.07-5.26-.13-7.86Zm-2.21,15.92c0-7.86-6.11-14.43-13.52-14.43S312.4,602,312.4,609.85s5.91,14.37,13.39,14.37S339.31,617.72,339.31,609.85Z"/><path d="M375.45,626.11h-2.28V607.77c0-6.63-5.13-12.15-11.44-12.15-6,0-11.11,5-11.57,11.24,0,6.38.07,12.88.13,19.25H348V594h2.27c-.06,2-.13,4.1-.13,6.18a13.52,13.52,0,0,1,11.57-6.57,14,14,0,0,1,13.72,14.11Z"/><path d="M404.18,624.16v2H382c5.85-10.08,11.83-20.35,17.55-30.36-5.46-.07-11.44,0-17,0v-2.08h20.8c-5.85,10.21-11.83,20.34-17.62,30.49C391.83,624.22,398,624.16,404.18,624.16Z"/><path d="M449.87,597.37h2.28V629.1a9.18,9.18,0,0,1-9,9.29v-1.82c3.77,0,6.76-3.57,6.76-7.47Zm3.51-6.24a2.39,2.39,0,0,1-2.34,2.41,2.5,2.5,0,0,1-2.47-2.41,2.4,2.4,0,0,1,2.47-2.34A2.29,2.29,0,0,1,453.38,591.13Z"/><path d="M490.63,593.93v31.33h-2.21c.06-2.47.13-4.94.13-7.34a15.69,15.69,0,0,1-13.65,8.19c-8.65,0-15.67-7.35-15.67-16.26A15.94,15.94,0,0,1,474.9,593.6a15.48,15.48,0,0,1,13.65,8.19c0-2.66-.07-5.26-.13-7.86Zm-2.21,15.92c0-7.86-6.11-14.43-13.52-14.43s-13.39,6.57-13.39,14.43,5.91,14.37,13.39,14.37S488.42,617.72,488.42,609.85Z"/><path d="M526.51,594.12V626a11.13,11.13,0,0,1-9.1,11.05,30.87,30.87,0,0,1-4.94.33,45.22,45.22,0,0,1-5.14-.33,10.78,10.78,0,0,1-7.54-5.39l2-1.17a8.51,8.51,0,0,0,6,4.48,22.79,22.79,0,0,0,4.68.46,26.86,26.86,0,0,0,4.68-.46,8.93,8.93,0,0,0,7.08-9l.2-9.42A14.68,14.68,0,0,1,511.88,624a15.22,15.22,0,0,1,0-30.43A14.48,14.48,0,0,1,524.36,601c0-2.34-.06-4.61-.13-6.89Zm-2.28,14.69c0-7.14-5.52-13.39-12.35-13.39-7,0-12.55,6.25-12.55,13.39,0,7.35,5.53,13.52,12.55,13.52C518.71,622.33,524.23,616.16,524.23,608.81Z"/><path d="M547.63,602c-3,0-5.92-.07-8.91-.07,0,4.29,0,8.65.13,12.94,0,5.14,3.9,9.36,8.78,9.36v1.89a11.1,11.1,0,0,1-10.92-11.25c.06-4.29.06-8.65.06-12.94-1.23,0-2.47,0-3.77.07v-2.15c1.24.07,2.54.13,3.77.13,0-6.17-.06-12.35-.06-18.52h2.14c-.06,6.17-.13,12.35-.13,18.52,2.93-.06,5.92-.13,8.91-.13Z"/><path d="M590.33,588.79a2.38,2.38,0,1,1,0,4.75,2.38,2.38,0,1,1,0-4.75Zm-1.1,8.58v28.74h2.27V597.37Z"/><path d="M653.06,626.11h-2.14V607.77c0-6.63-5.27-12.28-11.45-12.28-6.37,0-11.5,5.65-11.5,12.28v18.34h-2.28V607.77c0-6.63-5.13-12.28-11.44-12.28s-11.57,5.65-11.57,12.28c0,6.11.13,12.23.13,18.34h-2.27V594.06h2.27c-.06,2-.13,4.09-.13,6.17a13.44,13.44,0,0,1,24.12,1.95,13.85,13.85,0,0,1,12.67-8.58c7.41,0,13.53,6.37,13.59,14Z"/><path d="M707.33,626.11l-13.26-13.4c0,4.49.07,8.91.13,13.4h-2.14V581.45h2.14c-.06,8.58-.13,17.16-.13,25.74L707,594.25h3L694.2,610.18l-.13-.13v.26l.13-.13,16,15.93Z"/><path d="M744,609.85c0,8.91-6.89,16.26-15.6,16.26s-15.6-7.35-15.6-16.26,7-16.25,15.6-16.25S744,601,744,609.85Zm-29.12,0c0,7.74,6.11,14.44,13.52,14.44s13.52-6.7,13.52-14.44-6.11-14.43-13.52-14.43S714.87,602,714.87,609.85Z"/><path d="M803,626.11h-2.14V607.77c0-6.63-5.27-12.28-11.44-12.28-6.37,0-11.51,5.65-11.51,12.28v18.34h-2.27V607.77c0-6.63-5.14-12.28-11.44-12.28s-11.57,5.65-11.57,12.28c0,6.11.13,12.23.13,18.34h-2.28V594.06h2.28c-.07,2-.13,4.09-.13,6.17a13.43,13.43,0,0,1,24.11,1.95,13.87,13.87,0,0,1,12.68-8.58c7.41,0,13.52,6.37,13.58,14Z"/><path d="M840.78,609.85c0,8.91-7,16.26-15.67,16.26a15.48,15.48,0,0,1-13.58-8.32c0,6.63.13,13.19.13,19.82h-2.15V594h2.15c-.07,2.6-.13,5.27-.13,7.87a15.43,15.43,0,0,1,13.58-8.26C833.82,593.6,840.78,600.88,840.78,609.85Zm-2.15,0c0-7.8-6-14.43-13.52-14.43s-13.45,6.63-13.45,14.43,6,14.37,13.45,14.37S838.63,617.66,838.63,609.85Z"/><path d="M850.2,581.45v35.49h-2.27V581.45ZM848,616.94a9.09,9.09,0,0,0,9,9.17v-2a7.06,7.06,0,0,1-6.83-7.28Z"/><path d="M874.64,607.91H888c-.78-6.31-5.4-11.45-11.57-12.23-6.63-1-12.94,3.64-14.76,10.53a14.55,14.55,0,0,0,7.87,17c6.24,2.6,13.39-.13,16.83-6.3l1.95,1c-4,7.15-12.41,10.14-19.63,6.89a16.46,16.46,0,0,1-9.16-19.18,15.86,15.86,0,0,1,14.3-12,12.4,12.4,0,0,1,3,.13,16,16,0,0,1,13.58,16.06H874.64Z"/><path d="M911.5,602c-3,0-5.92-.07-8.91-.07,0,4.29,0,8.65.13,12.94,0,5.14,3.9,9.36,8.78,9.36v1.89a11.1,11.1,0,0,1-10.92-11.25c.06-4.29.06-8.65.06-12.94-1.23,0-2.47,0-3.77.07v-2.15c1.24.07,2.54.13,3.77.13,0-6.17-.06-12.35-.06-18.52h2.14c-.06,6.17-.13,12.35-.13,18.52,2.93-.06,5.92-.13,8.91-.13Z"/><path d="M932.62,602c-3,0-5.91-.07-8.9-.07,0,4.29,0,8.65.13,12.94,0,5.14,3.9,9.36,8.77,9.36v1.89a11.1,11.1,0,0,1-10.92-11.25c.07-4.29.07-8.65.07-12.94-1.24,0-2.47,0-3.77.07v-2.15c1.23.07,2.53.13,3.77.13,0-6.17-.07-12.35-.07-18.52h2.15c-.07,6.17-.13,12.35-.13,18.52,2.92-.06,5.91-.13,8.9-.13Z"/><path d="M1001.2,593.6l-14,32.51h-2.93L970.32,593.6h2.08l13.2,30.56,13.13-30.56Z"/><path d="M1018.81,607.91h13.33c-.78-6.31-5.4-11.45-11.57-12.23-6.63-1-12.94,3.64-14.76,10.53a14.55,14.55,0,0,0,7.87,17c6.24,2.6,13.39-.13,16.83-6.3l2,1c-4,7.15-12.41,10.14-19.63,6.89a16.46,16.46,0,0,1-9.16-19.18,15.86,15.86,0,0,1,14.3-12,12.4,12.4,0,0,1,3,.13,16,16,0,0,1,13.58,16.06h-15.73Z"/><path d="M1057.16,593.6v1.89c-7.47,0-13.71,6.56-14,14.36,0,5.4.06,10.8.13,16.26H1041V594h2.28c-.07,2.67-.13,5.33-.13,8A16,16,0,0,1,1057.16,593.6Z"/><path d="M1101.69,594.06v21.52a10.64,10.64,0,0,1-5,9,10.16,10.16,0,0,1-10.33,0,10.46,10.46,0,0,1-4-4.36,10.53,10.53,0,0,1-4,4.36,10.05,10.05,0,0,1-10.27,0,10.64,10.64,0,0,1-5-9V594.06h2.21v21.32a8.9,8.9,0,0,0,4,7.61,8,8,0,0,0,8,0,8.81,8.81,0,0,0,4-7.61V594.06h2.28v21.32a9,9,0,0,0,4,7.61,8,8,0,0,0,8,0,8.9,8.9,0,0,0,4-7.61V594.06Z"/><path d="M1140.23,593.93v31.33H1138c.07-2.47.13-4.94.13-7.34a15.69,15.69,0,0,1-13.65,8.19c-8.64,0-15.67-7.35-15.67-16.26a15.94,15.94,0,0,1,15.67-16.25,15.47,15.47,0,0,1,13.65,8.19c0-2.66-.06-5.26-.13-7.86ZM1138,609.85c0-7.86-6.11-14.43-13.52-14.43s-13.39,6.57-13.39,14.43,5.92,14.37,13.39,14.37S1138,617.72,1138,609.85Z"/><path d="M1174.36,626.11h-2.21V607.58c0-6.7-5.2-12.29-11.57-12.29s-11.7,5.59-11.7,12.29c0,6.17.06,12.35.12,18.53h-2.27V580.6H1149c-.06,6.44-.12,12.87-.12,19.31a13.74,13.74,0,0,1,11.7-6.7c7.67,0,13.71,6.44,13.78,14.3Z"/><path d="M1197,593.6v1.89c-7.48,0-13.72,6.56-14,14.36,0,5.4.06,10.8.13,16.26h-2.28V594h2.28c-.07,2.67-.13,5.33-.13,8A16,16,0,0,1,1197,593.6Z"/><path d="M1205.1,581.45v35.49h-2.28V581.45Zm-2.21,35.49a9.09,9.09,0,0,0,9,9.17v-2a7.05,7.05,0,0,1-6.82-7.28Z"/><path d="M1246.37,609.85c0,8.91-6.89,16.26-15.6,16.26s-15.6-7.35-15.6-16.26,7-16.25,15.6-16.25S1246.37,601,1246.37,609.85Zm-29.12,0c0,7.74,6.11,14.44,13.52,14.44s13.52-6.7,13.52-14.44-6.11-14.43-13.52-14.43S1217.25,602,1217.25,609.85Z"/><path d="M1270.1,620.91a9.35,9.35,0,0,1-7.22,5.13,12.35,12.35,0,0,1-3.12-.13,9.46,9.46,0,0,1-6.89-9.23H1255c0,3.38,2.21,6.7,5.33,7.41s6.37-1.17,7.73-4.09a7.5,7.5,0,0,0-1.69-8.84A14.14,14.14,0,0,0,1262,609c-1.69-.52-3.45-.84-4.81-2a7.59,7.59,0,0,1-1.89-9.11,7.34,7.34,0,0,1,5.85-4.16,5.06,5.06,0,0,1,2.41.13,7.61,7.61,0,0,1,5.65,7.41h-2.14a5.85,5.85,0,0,0-4-5.65,5.22,5.22,0,0,0-5.72,3.18,5.86,5.86,0,0,0,1.17,6.57v-.07a13.54,13.54,0,0,0,4.16,2c1.69.52,3.57.85,5.2,2.21l-.07.06A9.54,9.54,0,0,1,1270.1,620.91Z"/><path d="M1292.13,602c-3,0-5.91-.07-8.9-.07,0,4.29,0,8.65.13,12.94,0,5.14,3.9,9.36,8.77,9.36v1.89a11.1,11.1,0,0,1-10.92-11.25c.07-4.29.07-8.65.07-12.94-1.24,0-2.47,0-3.77.07v-2.15c1.23.07,2.53.13,3.77.13,0-6.17-.07-12.35-.07-18.52h2.15c-.07,6.17-.13,12.35-.13,18.52,2.92-.06,5.91-.13,8.9-.13Z"/><path d="M1314.3,607.91h13.32c-.78-6.31-5.39-11.45-11.57-12.23-6.63-1-12.93,3.64-14.75,10.53a14.56,14.56,0,0,0,7.86,17c6.24,2.6,13.39-.13,16.84-6.3l2,1c-4,7.15-12.42,10.14-19.63,6.89a16.47,16.47,0,0,1-9.17-19.18,15.86,15.86,0,0,1,14.3-12,12.38,12.38,0,0,1,3,.13A16,16,0,0,1,1330,609.79H1314.3Z"/><path d="M1364,626.11h-2.28V607.77c0-6.63-5.13-12.15-11.44-12.15-6,0-11.11,5-11.57,11.24,0,6.38.07,12.88.13,19.25h-2.27V594h2.27c-.06,2-.13,4.1-.13,6.18a13.52,13.52,0,0,1,11.57-6.57A14,14,0,0,1,1364,607.71Z"/><path d="M1417.58,602c-3,0-5.91-.07-8.9-.07,0,4.29,0,8.65.13,12.94,0,5.14,3.9,9.36,8.77,9.36v1.89a11.1,11.1,0,0,1-10.92-11.25c.07-4.29.07-8.65.07-12.94-1.24,0-2.47,0-3.77.07v-2.15c1.23.07,2.53.13,3.77.13,0-6.17-.07-12.35-.07-18.52h2.15c-.07,6.17-.13,12.35-.13,18.52,2.92-.06,5.91-.13,8.9-.13Z"/><path d="M1453.53,593.93v31.33h-2.21c.06-2.47.13-4.94.13-7.34a15.69,15.69,0,0,1-13.65,8.19c-8.65,0-15.67-7.35-15.67-16.26a15.94,15.94,0,0,1,15.67-16.25,15.48,15.48,0,0,1,13.65,8.19c0-2.66-.07-5.26-.13-7.86Zm-2.21,15.92c0-7.86-6.11-14.43-13.52-14.43s-13.39,6.57-13.39,14.43,5.91,14.37,13.39,14.37S1451.32,617.72,1451.32,609.85Z"/><path d="M1471.92,610.12c3.06,5.33,6.24,10.66,9.43,16h-2.6l-8.06-13.91-8,13.91H1460c3.18-5.33,6.37-10.6,9.49-16L1460,593.73h2.6c2.66,4.81,5.33,9.56,8.06,14.31,2.73-4.69,5.46-9.5,8.06-14.31h2.6Z"/><path d="M1491.55,588.79a2.38,2.38,0,1,1,0,4.75,2.38,2.38,0,1,1,0-4.75Zm-1.1,8.58v28.74h2.27V597.37Z"/><path d="M1565.46,594v43.75h-2.08c0-6.69.12-13.39.12-20a15.43,15.43,0,0,1-13.65,8.39,15.81,15.81,0,0,1-15.6-16.12c0-9,6.89-16.32,15.6-16.32a15.57,15.57,0,0,1,13.65,8.45c0-2.67-.06-5.4-.12-8.13Zm-2.08,16c0-7.87-6.12-14.57-13.53-14.57s-13.52,6.7-13.52,14.57,6.11,14.43,13.52,14.43S1563.38,617.72,1563.38,610Z"/><path d="M1601.27,594.45v31h-2.21c.06-2.28.06-4.49.13-6.76a15.9,15.9,0,0,1-5.27,5.33,14,14,0,0,1-14.75,0,15.32,15.32,0,0,1-7.22-12.94V594.45h2.21V611a13.18,13.18,0,0,0,6.18,11.37,11.93,11.93,0,0,0,12.48,0,13.45,13.45,0,0,0,6.3-11.37h.07c-.07-5.53-.13-11.05-.13-16.51Z"/><path d="M1623.43,607.91h13.33c-.78-6.31-5.4-11.45-11.57-12.23-6.63-1-12.94,3.64-14.76,10.53a14.55,14.55,0,0,0,7.87,17c6.24,2.6,13.39-.13,16.83-6.3l1.95,1c-4,7.15-12.41,10.14-19.63,6.89a16.46,16.46,0,0,1-9.16-19.18,15.86,15.86,0,0,1,14.3-12,12.4,12.4,0,0,1,3,.13,16,16,0,0,1,13.58,16.06h-15.73Z"/><path d="M1661.78,593.6v1.89c-7.47,0-13.71,6.56-14,14.36,0,5.4.06,10.8.13,16.26h-2.28V594h2.28c-.07,2.67-.13,5.33-.13,8A16,16,0,0,1,1661.78,593.6Z"/><path d="M274.93,696c2.45,0,4.89,0,7.34,0v1.82c-2.45,0-4.89,0-7.34,0-.05,4.42,0,8.89.06,13.37h-1.77c0-4.48,0-9,.1-13.37-1.09,0-2.13,0-3.17,0V696c1,0,2.08,0,3.17,0,0-3.74-.05-7.48-.1-11.23v-.26a9.25,9.25,0,0,1,9-9.15v1.56a7.57,7.57,0,0,0-7.28,7.85C274.93,688.54,274.93,692.28,274.93,696Z"/><path d="M301.4,685.1v1.51c-6,0-11,5.25-11.18,11.49,0,4.32,0,8.64.1,13H288.5V685.42h1.82c-.05,2.13-.1,4.26-.1,6.39A12.85,12.85,0,0,1,301.4,685.1Z"/><path d="M326.52,685.36v25.07h-1.77c.05-2,.1-3.95.1-5.88a12.55,12.55,0,0,1-10.92,6.56,13,13,0,0,1,0-26,12.37,12.37,0,0,1,10.92,6.56c0-2.14-.05-4.22-.1-6.3Zm-1.77,12.74c0-6.29-4.89-11.54-10.82-11.54s-10.71,5.25-10.71,11.54,4.73,11.5,10.71,11.5S324.75,704.4,324.75,698.1Z"/><path d="M353.66,711.11h-1.82V696.44c0-5.3-4.11-9.72-9.15-9.72a9.58,9.58,0,0,0-9.26,9c0,5.1.05,10.3.11,15.4h-1.82V685.42h1.82c-.06,1.61-.11,3.27-.11,4.94a10.81,10.81,0,0,1,9.26-5.26,11.18,11.18,0,0,1,11,11.29Z"/><path d="M376.64,709.55v1.56H358.86c4.68-8.07,9.46-16.28,14-24.29-4.37-.05-9.15,0-13.62,0v-1.66h16.64c-4.68,8.16-9.47,16.27-14.1,24.39C366.76,709.6,371.7,709.55,376.64,709.55Z"/><path d="M413.2,688.12H415V713.5a7.35,7.35,0,0,1-7.18,7.43v-1.45c3,0,5.41-2.86,5.41-6Zm2.81-5a1.91,1.91,0,0,1-1.88,1.92,2,2,0,0,1-2-1.92,1.91,1.91,0,0,1,2-1.87A1.84,1.84,0,0,1,416,683.13Z"/><path d="M445.8,685.36v25.07H444c0-2,.1-3.95.1-5.88a12.55,12.55,0,0,1-10.92,6.56,13,13,0,0,1,0-26,12.37,12.37,0,0,1,10.92,6.56c0-2.14-.05-4.22-.1-6.3ZM444,698.1c0-6.29-4.89-11.54-10.82-11.54s-10.71,5.25-10.71,11.54,4.73,11.5,10.71,11.5S444,704.4,444,698.1Z"/><path d="M474.51,685.52v25.53a8.89,8.89,0,0,1-7.28,8.84,24.88,24.88,0,0,1-4,.26,34.68,34.68,0,0,1-4.1-.26,8.63,8.63,0,0,1-6-4.31l1.62-.94a6.78,6.78,0,0,0,4.78,3.59,18.29,18.29,0,0,0,3.74.36,22.08,22.08,0,0,0,3.75-.36,7.15,7.15,0,0,0,5.67-7.18l.15-7.54a11.73,11.73,0,0,1-10,5.93,12.18,12.18,0,0,1,0-24.34,11.61,11.61,0,0,1,10,5.93c0-1.87-.05-3.69-.1-5.51Zm-1.82,11.75c0-5.72-4.42-10.71-9.88-10.71-5.62,0-10,5-10,10.71,0,5.88,4.42,10.82,10,10.82C468.27,708.09,472.69,703.15,472.69,697.27Z"/><path d="M491.41,691.81c-2.4,0-4.74,0-7.13,0,0,3.43,0,6.92.1,10.35a7.27,7.27,0,0,0,7,7.49v1.51a8.88,8.88,0,0,1-8.74-9c.05-3.43.05-6.92.05-10.35-1,0-2,0-3,0V690.1c1,0,2,.1,3,.1,0-4.94-.05-9.88-.05-14.82h1.71c-.05,4.94-.1,9.88-.1,14.82,2.34-.05,4.73-.1,7.13-.1Z"/><path d="M525.57,681.26a1.9,1.9,0,1,1,0,3.79,1.9,1.9,0,1,1,0-3.79Zm-.89,6.86v23h1.82v-23Z"/><path d="M575.75,711.11H574V696.44c0-5.3-4.21-9.83-9.15-9.83s-9.2,4.53-9.2,9.83v14.67h-1.82V696.44c0-5.3-4.11-9.83-9.16-9.83s-9.25,4.53-9.25,9.83c0,4.89.1,9.78.1,14.67h-1.82V685.47h1.82c0,1.61-.1,3.28-.1,4.94A10.74,10.74,0,0,1,554.74,692a10.89,10.89,0,0,1,21,4.37Z"/><path d="M619.17,711.11l-10.61-10.72c0,3.59.05,7.13.1,10.72H607V675.38h1.71c0,6.86-.1,13.73-.1,20.59l10.35-10.35h2.44l-12.69,12.75-.1-.11v.21l.1-.1,12.8,12.74Z"/><path d="M648.5,698.1a12.74,12.74,0,0,1-12.48,13c-6.87,0-12.48-5.88-12.48-13s5.61-13,12.48-13A12.74,12.74,0,0,1,648.5,698.1Zm-23.3,0c0,6.19,4.89,11.55,10.82,11.55s10.81-5.36,10.81-11.55-4.89-11.54-10.81-11.54S625.2,691.81,625.2,698.1Z"/><path d="M695.71,711.11H694V696.44c0-5.3-4.22-9.83-9.16-9.83-5.09,0-9.2,4.53-9.2,9.83v14.67h-1.82V696.44c0-5.3-4.11-9.83-9.15-9.83s-9.26,4.53-9.26,9.83c0,4.89.1,9.78.1,14.67h-1.82V685.47h1.82c0,1.61-.1,3.28-.1,4.94A10.74,10.74,0,0,1,674.7,692a10.89,10.89,0,0,1,21,4.37Z"/><path d="M725.92,698.1a12.78,12.78,0,0,1-12.53,13,12.41,12.41,0,0,1-10.87-6.66c0,5.3.11,10.56.11,15.86h-1.72V685.42h1.72c-.06,2.08-.11,4.21-.11,6.29a12.36,12.36,0,0,1,10.87-6.61A12.75,12.75,0,0,1,725.92,698.1Zm-1.71,0c0-6.24-4.84-11.54-10.82-11.54s-10.76,5.3-10.76,11.54,4.83,11.5,10.76,11.5S724.21,704.34,724.21,698.1Z"/><path d="M733.46,675.38v28.39h-1.82V675.38Zm-1.77,28.39a7.28,7.28,0,0,0,7.23,7.34v-1.56a5.65,5.65,0,0,1-5.46-5.83Z"/><path d="M753,696.54h10.66a10.93,10.93,0,0,0-9.25-9.77c-5.31-.78-10.35,2.91-11.81,8.42a11.66,11.66,0,0,0,6.3,13.58,10.75,10.75,0,0,0,13.47-5l1.55.83a12.25,12.25,0,0,1-15.7,5.52,13.18,13.18,0,0,1-7.33-15.35,12.67,12.67,0,0,1,11.44-9.62,9.42,9.42,0,0,1,2.39.11,12.81,12.81,0,0,1,10.87,12.84H753Z"/><path d="M782.5,691.81c-2.39,0-4.73,0-7.13,0,0,3.43,0,6.92.11,10.35a7.27,7.27,0,0,0,7,7.49v1.51a8.88,8.88,0,0,1-8.74-9c0-3.43,0-6.92,0-10.35-1,0-2,0-3,0V690.1c1,0,2,.1,3,.1,0-4.94,0-9.88,0-14.82h1.72c-.05,4.94-.11,9.88-.11,14.82,2.34-.05,4.74-.1,7.13-.1Z"/><path d="M799.4,691.81c-2.39,0-4.73,0-7.13,0,0,3.43,0,6.92.11,10.35a7.27,7.27,0,0,0,7,7.49v1.51a8.88,8.88,0,0,1-8.74-9c.05-3.43.05-6.92.05-10.35-1,0-2,0-3,0V690.1c1,0,2,.1,3,.1,0-4.94-.05-9.88-.05-14.82h1.72c0,4.94-.11,9.88-.11,14.82,2.34-.05,4.74-.1,7.13-.1Z"/><path d="M854.26,685.1l-11.23,26h-2.34l-11.13-26h1.66l10.56,24.45,10.5-24.45Z"/><path d="M868.35,696.54H879a10.94,10.94,0,0,0-9.26-9.77c-5.3-.78-10.34,2.91-11.8,8.42a11.65,11.65,0,0,0,6.29,13.58,10.75,10.75,0,0,0,13.47-5l1.56.83a12.25,12.25,0,0,1-15.7,5.52,13.18,13.18,0,0,1-7.34-15.35,12.69,12.69,0,0,1,11.44-9.62,9.52,9.52,0,0,1,2.4.11,12.8,12.8,0,0,1,10.86,12.84H868.35Z"/><path d="M899,685.1v1.51c-6,0-11,5.25-11.18,11.49,0,4.32,0,8.64.1,13h-1.82V685.42H888c-.05,2.13-.1,4.26-.1,6.39A12.83,12.83,0,0,1,899,685.1Z"/><path d="M934.65,685.47v17.21a8.49,8.49,0,0,1-4,7.18,8.1,8.1,0,0,1-8.26,0,8.31,8.31,0,0,1-3.23-3.49,8.35,8.35,0,0,1-3.22,3.49,8,8,0,0,1-8.22,0,8.51,8.51,0,0,1-4-7.18V685.47h1.77v17.06a7.11,7.11,0,0,0,3.17,6.08,6.4,6.4,0,0,0,6.39,0,7,7,0,0,0,3.23-6.08V685.47h1.82v17.06a7.15,7.15,0,0,0,3.22,6.08,6.42,6.42,0,0,0,6.4,0,7.11,7.11,0,0,0,3.17-6.08V685.47Z"/><path d="M965.48,685.36v25.07h-1.76c0-2,.1-3.95.1-5.88a12.55,12.55,0,0,1-10.92,6.56,13,13,0,0,1,0-26,12.37,12.37,0,0,1,10.92,6.56c0-2.14-.05-4.22-.1-6.3Zm-1.76,12.74c0-6.29-4.89-11.54-10.82-11.54s-10.71,5.25-10.71,11.54,4.73,11.5,10.71,11.5S963.72,704.4,963.72,698.1Z"/><path d="M992.78,711.11H991V696.29c0-5.36-4.16-9.83-9.26-9.83a9.66,9.66,0,0,0-9.36,9.83c0,4.94.05,9.88.1,14.82h-1.82V674.7h1.82c0,5.15-.1,10.3-.1,15.45a11,11,0,0,1,9.36-5.36,11.25,11.25,0,0,1,11,11.44Z"/><path d="M1010.88,685.1v1.51c-6,0-11,5.25-11.18,11.49,0,4.32,0,8.64.1,13H998V685.42h1.82c0,2.13-.1,4.26-.1,6.39A12.83,12.83,0,0,1,1010.88,685.1Z"/><path d="M1017.38,675.38v28.39h-1.82V675.38Zm-1.77,28.39a7.27,7.27,0,0,0,7.23,7.34v-1.56a5.64,5.64,0,0,1-5.46-5.83Z"/><path d="M1050.4,698.1a12.74,12.74,0,0,1-12.48,13c-6.87,0-12.48-5.88-12.48-13s5.61-13,12.48-13A12.74,12.74,0,0,1,1050.4,698.1Zm-23.3,0c0,6.19,4.89,11.55,10.82,11.55s10.81-5.36,10.81-11.55-4.88-11.54-10.81-11.54S1027.1,691.81,1027.1,698.1Z"/><path d="M1069.38,707a7.5,7.5,0,0,1-5.78,4.1,9.62,9.62,0,0,1-2.49-.1,7.56,7.56,0,0,1-5.51-7.38h1.71c0,2.7,1.77,5.35,4.27,5.92a5.61,5.61,0,0,0,6.18-3.27,6,6,0,0,0-1.35-7.07,11.2,11.2,0,0,0-3.48-1.72,10.28,10.28,0,0,1-3.85-1.61,6.08,6.08,0,0,1-1.51-7.28,5.88,5.88,0,0,1,4.68-3.33,4,4,0,0,1,1.93.1,6.09,6.09,0,0,1,4.52,5.93H1067a4.67,4.67,0,0,0-3.22-4.52,4.18,4.18,0,0,0-4.58,2.54,4.7,4.7,0,0,0,.94,5.26v-.06a10.87,10.87,0,0,0,3.33,1.62,10.64,10.64,0,0,1,4.16,1.76l0,.06A7.63,7.63,0,0,1,1069.38,707Z"/><path d="M1087,691.81c-2.39,0-4.73,0-7.12,0,0,3.43,0,6.92.1,10.35a7.27,7.27,0,0,0,7,7.49v1.51a8.88,8.88,0,0,1-8.73-9c0-3.43,0-6.92,0-10.35-1,0-2,0-3,0V690.1c1,0,2,.1,3,.1,0-4.94,0-9.88,0-14.82H1080c0,4.94-.1,9.88-.1,14.82,2.34-.05,4.73-.1,7.12-.1Z"/><path d="M1104.74,696.54h10.66a11,11,0,0,0-9.26-9.77c-5.3-.78-10.35,2.91-11.8,8.42a11.64,11.64,0,0,0,6.29,13.58,10.75,10.75,0,0,0,13.47-5l1.56.83a12.26,12.26,0,0,1-15.71,5.52,13.18,13.18,0,0,1-7.33-15.35,12.69,12.69,0,0,1,11.44-9.62,9.42,9.42,0,0,1,2.39.11,12.81,12.81,0,0,1,10.87,12.84h-12.58Z"/><path d="M1144.46,711.11h-1.82V696.44c0-5.3-4.1-9.72-9.15-9.72a9.58,9.58,0,0,0-9.25,9c0,5.1,0,10.3.1,15.4h-1.82V685.42h1.82c0,1.61-.1,3.27-.1,4.94a10.78,10.78,0,0,1,9.25-5.26,11.18,11.18,0,0,1,11,11.29Z"/><path d="M1187.36,691.81c-2.39,0-4.73,0-7.12,0,0,3.43,0,6.92.1,10.35a7.27,7.27,0,0,0,7,7.49v1.51a8.88,8.88,0,0,1-8.73-9c0-3.43,0-6.92,0-10.35-1,0-2,0-3,0V690.1c1,0,2,.1,3,.1,0-4.94,0-9.88,0-14.82h1.71c0,4.94-.1,9.88-.1,14.82,2.34-.05,4.73-.1,7.12-.1Z"/><path d="M1216.12,685.36v25.07h-1.77c.05-2,.11-3.95.11-5.88a12.57,12.57,0,0,1-10.92,6.56,13,13,0,0,1,0-26,12.4,12.4,0,0,1,10.92,6.56c0-2.14-.06-4.22-.11-6.3Zm-1.77,12.74c0-6.29-4.89-11.54-10.81-11.54s-10.72,5.25-10.72,11.54,4.73,11.5,10.72,11.5S1214.35,704.4,1214.35,698.1Z"/><path d="M1230.83,698.31c2.45,4.27,5,8.53,7.54,12.8h-2.08L1229.85,700l-6.4,11.13h-2.13c2.55-4.27,5.09-8.48,7.59-12.8l-7.59-13.1h2.08c2.13,3.85,4.26,7.64,6.45,11.44,2.18-3.74,4.36-7.59,6.44-11.44h2.08Z"/><path d="M1246.54,681.26a1.9,1.9,0,1,1,0,3.79,1.9,1.9,0,1,1,0-3.79Zm-.89,6.86v23h1.82v-23Z"/><path d="M1305.66,685.42v35H1304c0-5.35.1-10.71.1-16a12.38,12.38,0,0,1-10.92,6.71,13,13,0,0,1,0-26,12.46,12.46,0,0,1,10.92,6.76c0-2.14,0-4.32-.1-6.5ZM1304,698.21c0-6.29-4.89-11.65-10.82-11.65s-10.82,5.36-10.82,11.65,4.89,11.54,10.82,11.54S1304,704.4,1304,698.21Z"/><path d="M1334.31,685.78v24.8h-1.77c.06-1.81.06-3.58.11-5.4a12.8,12.8,0,0,1-4.21,4.26,11.22,11.22,0,0,1-11.81,0,12.23,12.23,0,0,1-5.77-10.35V685.78h1.77V699a10.56,10.56,0,0,0,4.94,9.1,9.58,9.58,0,0,0,10,0,10.77,10.77,0,0,0,5-9.1h.05c-.05-4.42-.11-8.84-.11-13.21Z"/><path d="M1352,696.54h10.66a10.93,10.93,0,0,0-9.25-9.77c-5.31-.78-10.35,2.91-11.81,8.42a11.66,11.66,0,0,0,6.3,13.58,10.74,10.74,0,0,0,13.46-5l1.56.83a12.25,12.25,0,0,1-15.7,5.52,13.18,13.18,0,0,1-7.33-15.35,12.67,12.67,0,0,1,11.44-9.62,9.42,9.42,0,0,1,2.39.11,12.81,12.81,0,0,1,10.87,12.84H1352Z"/><path d="M1382.72,685.1v1.51c-6,0-11,5.25-11.18,11.49,0,4.32,0,8.64.11,13h-1.82V685.42h1.82c-.06,2.13-.11,4.26-.11,6.39A12.85,12.85,0,0,1,1382.72,685.1Z"/><path d="M1438,675.38v35h-1.72c.1-2,.16-4.06.16-6.09a12.44,12.44,0,0,1-11,6.77,13,13,0,0,1,0-26,12.42,12.42,0,0,1,11,6.76c-.11-5.51-.21-11-.21-16.48Zm-1.72,22.72c0-6.24-4.83-11.49-10.81-11.49s-10.77,5.25-10.77,11.49,4.84,11.45,10.77,11.45S1436.23,704.34,1436.23,698.1Z"/><path d="M1467.64,685.78v24.8h-1.77c.05-1.81.05-3.58.1-5.4a12.7,12.7,0,0,1-4.21,4.26,11.2,11.2,0,0,1-11.8,0,12.21,12.21,0,0,1-5.77-10.35V685.78H1446V699a10.59,10.59,0,0,0,4.94,9.1,9.6,9.6,0,0,0,10,0,10.79,10.79,0,0,0,5-9.1h0c0-4.42-.1-8.84-.1-13.21Z"/><path d="M1485.73,685.1v1.51c-6,0-11,5.25-11.18,11.49,0,4.32.06,8.64.11,13h-1.82V685.42h1.82c-.05,2.13-.11,4.26-.11,6.39A12.85,12.85,0,0,1,1485.73,685.1Z"/><path d="M1509.65,691.6l-1.5.84a10.76,10.76,0,0,0-12.17-5.26,11.28,11.28,0,0,0-8,10.92,11.11,11.11,0,0,0,8,10.87,10.66,10.66,0,0,0,12.17-5.3l1.5.88a12.45,12.45,0,0,1-14.09,6.14,13,13,0,0,1-9.31-12.59,12.78,12.78,0,0,1,9.31-12.53,10.88,10.88,0,0,1,4.06-.47A12.66,12.66,0,0,1,1509.65,691.6Z"/><path d="M1536.43,711.11h-1.76V696.29c0-5.36-4.16-9.83-9.26-9.83a9.66,9.66,0,0,0-9.36,9.83c0,4.94,0,9.88.1,14.82h-1.82V674.7h1.82c-.05,5.15-.1,10.3-.1,15.45a11,11,0,0,1,9.36-5.36,11.25,11.25,0,0,1,11,11.44Z"/><path d="M1592.7,698.1a12.82,12.82,0,0,1-12.53,13,12.47,12.47,0,0,1-10.87-6.56c0,1.93,0,3.9.1,5.88h-1.77v-35h1.77l-.15,16.38a12.48,12.48,0,0,1,10.92-6.66A12.82,12.82,0,0,1,1592.7,698.1Zm-1.77,0c0-6.18-4.78-11.43-10.76-11.43s-10.77,5.25-10.77,11.43a10.78,10.78,0,1,0,21.53,0Z"/><path d="M1622.49,685.36v25.07h-1.76c0-2,.1-3.95.1-5.88a12.55,12.55,0,0,1-10.92,6.56,13,13,0,0,1,0-26,12.37,12.37,0,0,1,10.92,6.56c0-2.14,0-4.22-.1-6.3Zm-1.76,12.74c0-6.29-4.89-11.54-10.82-11.54s-10.71,5.25-10.71,11.54,4.73,11.5,10.71,11.5S1620.73,704.4,1620.73,698.1Z"/><path d="M1651.14,685.52V711a9,9,0,0,1-7.28,9,27,27,0,0,1-3.9.2,29.81,29.81,0,0,1-4.1-.2,9.06,9.06,0,0,1-6-4.42l1.4-.84a7.12,7.12,0,0,0,4.94,3.49,24.27,24.27,0,0,0,3.74.31,20.54,20.54,0,0,0,3.54-.31,7.15,7.15,0,0,0,5.93-7.18c0-2.55.1-5.09.1-7.64a12.31,12.31,0,0,1-4.36,4.42,11.19,11.19,0,0,1-11.65,0,12.12,12.12,0,0,1-5.83-10.45V685.52h1.77v11.81a10.74,10.74,0,0,0,5,9.2,9.6,9.6,0,0,0,10,0,11.42,11.42,0,0,0,5.09-8.16c0-4.32,0-8.59-.1-12.85Z"/><path d="M1668.88,696.54h10.66a11,11,0,0,0-9.26-9.77c-5.3-.78-10.35,2.91-11.8,8.42a11.64,11.64,0,0,0,6.29,13.58,10.75,10.75,0,0,0,13.47-5l1.56.83a12.26,12.26,0,0,1-15.71,5.52,13.18,13.18,0,0,1-7.33-15.35,12.69,12.69,0,0,1,11.44-9.62,9.42,9.42,0,0,1,2.39.11,12.81,12.81,0,0,1,10.87,12.84h-12.58Z"/><path d="M1699.56,685.1v1.51c-6,0-11,5.25-11.18,11.49,0,4.32,0,8.64.1,13h-1.82V685.42h1.82c0,2.13-.1,4.26-.1,6.39A12.83,12.83,0,0,1,1699.56,685.1Z"/><path d="M1725.66,711.11h-1.82V696.44c0-5.3-4.11-9.72-9.15-9.72a9.58,9.58,0,0,0-9.26,9c0,5.1,0,10.3.1,15.4h-1.82V685.42h1.82c0,1.61-.1,3.27-.1,4.94a10.8,10.8,0,0,1,9.26-5.26,11.18,11.18,0,0,1,11,11.29Z"/><path d="M273.64,759.34c2.07,0,4.13,0,6.2,0v1.54c-2.07,0-4.13,0-6.2,0-.05,3.74,0,7.52,0,11.31h-1.49c0-3.79,0-7.57.08-11.31-.92,0-1.8,0-2.68,0V759.3c.88,0,1.76,0,2.68,0,0-3.17,0-6.33-.08-9.5v-.22a7.83,7.83,0,0,1,7.65-7.75v1.32a6.42,6.42,0,0,0-6.16,6.65C273.64,753,273.64,756.17,273.64,759.34Z"/><path d="M296,750.1v1.28c-5.06,0-9.28,4.44-9.46,9.72,0,3.66.05,7.31.09,11h-1.54V750.37h1.54c0,1.8-.09,3.6-.09,5.41A10.87,10.87,0,0,1,296,750.1Z"/><path d="M317.29,750.32v21.21h-1.5c0-1.67.09-3.34.09-5a10.62,10.62,0,0,1-9.24,5.55,11,11,0,0,1,0-22,10.47,10.47,0,0,1,9.24,5.55c0-1.81-.05-3.57-.09-5.33Zm-1.5,10.78c0-5.32-4.14-9.77-9.15-9.77s-9.07,4.45-9.07,9.77,4,9.73,9.07,9.73S315.79,766.43,315.79,761.1Z"/><path d="M340.25,772.11h-1.54V759.7a7.79,7.79,0,1,0-15.57-.62c0,4.31,0,8.71.08,13h-1.54V750.37h1.54c0,1.36-.08,2.77-.08,4.18A9.13,9.13,0,0,1,331,750.1a9.46,9.46,0,0,1,9.28,9.55Z"/><path d="M359.7,770.79v1.32H344.65c4-6.83,8-13.78,11.88-20.56-3.69,0-7.74,0-11.53,0v-1.4h14.09c-4,6.91-8,13.77-11.93,20.64C351.34,770.83,355.52,770.79,359.7,770.79Z"/><path d="M390.63,752.65h1.54v21.48a6.22,6.22,0,0,1-6.07,6.29v-1.23c2.55,0,4.58-2.42,4.58-5.06Zm2.38-4.22a1.62,1.62,0,0,1-1.59,1.63,1.69,1.69,0,0,1-1.67-1.63,1.62,1.62,0,0,1,1.67-1.58A1.55,1.55,0,0,1,393,748.43Z"/><path d="M418.22,750.32v21.21h-1.49c0-1.67.08-3.34.08-5a10.61,10.61,0,0,1-9.24,5.55,11,11,0,0,1,0-22,10.47,10.47,0,0,1,9.24,5.55c0-1.81,0-3.57-.08-5.33Zm-1.49,10.78c0-5.32-4.14-9.77-9.16-9.77s-9.06,4.45-9.06,9.77,4,9.73,9.06,9.73S416.73,766.43,416.73,761.1Z"/><path d="M442.51,750.45v21.61a7.52,7.52,0,0,1-6.16,7.48,21.68,21.68,0,0,1-3.35.22,30.21,30.21,0,0,1-3.47-.22,7.33,7.33,0,0,1-5.11-3.65l1.37-.79a5.73,5.73,0,0,0,4,3,15,15,0,0,0,3.16.31,17.94,17.94,0,0,0,3.17-.31,6,6,0,0,0,4.8-6.07l.13-6.38a10,10,0,0,1-8.49,5,10.3,10.3,0,0,1,0-20.6,9.83,9.83,0,0,1,8.45,5c0-1.58-.05-3.13-.09-4.67ZM441,760.4c0-4.84-3.74-9.07-8.36-9.07s-8.49,4.23-8.49,9.07,3.74,9.15,8.49,9.15S441,765.37,441,760.4Z"/><path d="M456.81,755.78c-2,0-4,0-6,0,0,2.9,0,5.85.09,8.75a6.15,6.15,0,0,0,5.94,6.34v1.28a7.53,7.53,0,0,1-7.4-7.62c0-2.9,0-5.85,0-8.75-.84,0-1.67,0-2.55,0v-1.45c.83,0,1.71.09,2.55.09,0-4.19,0-8.37,0-12.55h1.46c-.05,4.18-.09,8.36-.09,12.55,2,0,4-.09,6-.09Z"/><path d="M485.71,746.85a1.58,1.58,0,0,1,1.63,1.58,1.6,1.6,0,0,1-1.63,1.63,1.62,1.62,0,0,1-1.62-1.63A1.6,1.6,0,0,1,485.71,746.85Zm-.74,5.8v19.46h1.54V752.65Z"/><path d="M528.18,772.11h-1.45V759.7c0-4.49-3.57-8.32-7.75-8.32s-7.79,3.83-7.79,8.32v12.41h-1.54V759.7c0-4.49-3.47-8.32-7.74-8.32s-7.84,3.83-7.84,8.32c0,4.13.09,8.27.09,12.41h-1.54v-21.7h1.54c0,1.36-.09,2.77-.09,4.18a9.1,9.1,0,0,1,16.33,1.32A9.38,9.38,0,0,1,519,750.1a9.47,9.47,0,0,1,9.2,9.51Z"/><path d="M564.92,772.11l-9-9.07c0,3,0,6,.09,9.07h-1.46V741.87H556c0,5.81-.09,11.62-.09,17.43l8.75-8.76h2.07L556,761.32l-.09-.08v.17l.09-.09,10.82,10.79Z"/><path d="M589.73,761.1a10.57,10.57,0,1,1-10.56-11A10.78,10.78,0,0,1,589.73,761.1Zm-19.71,0c0,5.24,4.13,9.77,9.15,9.77s9.15-4.53,9.15-9.77-4.13-9.77-9.15-9.77S570,755.78,570,761.1Z"/><path d="M629.69,772.11h-1.46V759.7c0-4.49-3.56-8.32-7.74-8.32s-7.79,3.83-7.79,8.32v12.41h-1.54V759.7c0-4.49-3.48-8.32-7.75-8.32s-7.83,3.83-7.83,8.32c0,4.13.09,8.27.09,12.41h-1.54v-21.7h1.54c0,1.36-.09,2.77-.09,4.18a9.1,9.1,0,0,1,16.33,1.32,9.38,9.38,0,0,1,8.58-5.81,9.48,9.48,0,0,1,9.2,9.51Z"/><path d="M655.25,761.1a10.82,10.82,0,0,1-10.61,11,10.5,10.5,0,0,1-9.2-5.64c0,4.49.09,8.94.09,13.42h-1.45V750.37h1.45c0,1.76-.09,3.56-.09,5.32a10.47,10.47,0,0,1,9.2-5.59A10.79,10.79,0,0,1,655.25,761.1Zm-1.46,0c0-5.28-4.09-9.77-9.15-9.77s-9.11,4.49-9.11,9.77,4.09,9.73,9.11,9.73S653.79,766.38,653.79,761.1Z"/><path d="M661.62,741.87v24h-1.54v-24Zm-1.49,24a6.16,6.16,0,0,0,6.12,6.21v-1.32a4.79,4.79,0,0,1-4.63-4.93Z"/><path d="M678.17,759.78h9a9.26,9.26,0,0,0-7.83-8.27c-4.49-.66-8.76,2.46-10,7.13a9.84,9.84,0,0,0,5.32,11.48,9.08,9.08,0,0,0,11.4-4.26l1.32.7a10.37,10.37,0,0,1-13.29,4.67,11.15,11.15,0,0,1-6.2-13,10.73,10.73,0,0,1,9.68-8.14,8.34,8.34,0,0,1,2,.09,10.85,10.85,0,0,1,9.2,10.87H678.17Z"/><path d="M703.12,755.78c-2,0-4,0-6,0,0,2.9,0,5.85.09,8.75a6.15,6.15,0,0,0,5.94,6.34v1.28a7.53,7.53,0,0,1-7.4-7.62c0-2.9,0-5.85,0-8.75-.84,0-1.67,0-2.55,0v-1.45c.83,0,1.71.09,2.55.09,0-4.19,0-8.37,0-12.55h1.46c0,4.18-.09,8.36-.09,12.55,2,0,4-.09,6-.09Z"/><path d="M717.42,755.78c-2,0-4,0-6,0,0,2.9,0,5.85.09,8.75a6.15,6.15,0,0,0,5.94,6.34v1.28a7.53,7.53,0,0,1-7.4-7.62c.05-2.9.05-5.85.05-8.75-.84,0-1.67,0-2.55,0v-1.45c.83,0,1.71.09,2.55.09,0-4.19-.05-8.37-.05-12.55h1.46c-.05,4.18-.09,8.36-.09,12.55,2,0,4-.09,6-.09Z"/><path d="M763.84,750.1l-9.51,22h-2l-9.41-22h1.4l8.94,20.69,8.89-20.69Z"/><path d="M775.76,759.78h9a9.26,9.26,0,0,0-7.83-8.27c-4.49-.66-8.76,2.46-10,7.13a9.85,9.85,0,0,0,5.33,11.48,9.07,9.07,0,0,0,11.39-4.26l1.32.7a10.37,10.37,0,0,1-13.29,4.67,11.15,11.15,0,0,1-6.2-13,10.73,10.73,0,0,1,9.68-8.14,8.3,8.3,0,0,1,2,.09,10.84,10.84,0,0,1,9.2,10.87H775.76Z"/><path d="M801.72,750.1v1.28c-5.06,0-9.28,4.44-9.46,9.72,0,3.66,0,7.31.09,11h-1.54V750.37h1.54c-.05,1.8-.09,3.6-.09,5.41A10.85,10.85,0,0,1,801.72,750.1Z"/><path d="M831.86,750.41V765a7.2,7.2,0,0,1-3.38,6.07,6.86,6.86,0,0,1-7,0,7.12,7.12,0,0,1-2.73-2.95,7.12,7.12,0,0,1-2.73,2.95,6.77,6.77,0,0,1-6.95,0,7.18,7.18,0,0,1-3.39-6.07V750.41h1.5v14.43a6,6,0,0,0,2.68,5.15,5.39,5.39,0,0,0,5.41,0,6,6,0,0,0,2.73-5.15V750.41h1.54v14.43a6,6,0,0,0,2.73,5.15,5.39,5.39,0,0,0,5.41,0,6,6,0,0,0,2.69-5.15V750.41Z"/><path d="M858,750.32v21.21h-1.5c0-1.67.09-3.34.09-5a10.62,10.62,0,0,1-9.24,5.55,11,11,0,0,1,0-22,10.48,10.48,0,0,1,9.24,5.55c0-1.81,0-3.57-.09-5.33Zm-1.5,10.78c0-5.32-4.14-9.77-9.15-9.77s-9.07,4.45-9.07,9.77,4,9.73,9.07,9.73S856.46,766.43,856.46,761.1Z"/><path d="M881.05,772.11h-1.49V759.56a7.89,7.89,0,1,0-15.76,0c0,4.18.05,8.36.09,12.55h-1.54V741.3h1.54c0,4.36-.09,8.71-.09,13.07a9.34,9.34,0,0,1,7.93-4.53,9.52,9.52,0,0,1,9.32,9.68Z"/><path d="M896.36,750.1v1.28c-5.06,0-9.28,4.44-9.46,9.72,0,3.66.05,7.31.09,11h-1.54V750.37H887c0,1.8-.09,3.6-.09,5.41A10.88,10.88,0,0,1,896.36,750.1Z"/><path d="M901.86,741.87v24h-1.54v-24Zm-1.49,24a6.16,6.16,0,0,0,6.11,6.21v-1.32a4.79,4.79,0,0,1-4.62-4.93Z"/><path d="M929.81,761.1a10.57,10.57,0,1,1-10.57-11A10.79,10.79,0,0,1,929.81,761.1Zm-19.72,0c0,5.24,4.14,9.77,9.15,9.77s9.16-4.53,9.16-9.77-4.14-9.77-9.16-9.77S910.09,755.78,910.09,761.1Z"/><path d="M945.86,768.58a6.32,6.32,0,0,1-4.88,3.48,8,8,0,0,1-2.11-.09,6.4,6.4,0,0,1-4.67-6.25h1.45a5.12,5.12,0,0,0,3.61,5A4.76,4.76,0,0,0,944.5,768a5.11,5.11,0,0,0-1.14-6,9.79,9.79,0,0,0-3-1.45,8.57,8.57,0,0,1-3.26-1.36,5.12,5.12,0,0,1-1.27-6.16,4.94,4.94,0,0,1,4-2.82,3.31,3.31,0,0,1,1.62.09,5.14,5.14,0,0,1,3.83,5h-1.45a4,4,0,0,0-2.73-3.82,3.53,3.53,0,0,0-3.87,2.15,4,4,0,0,0,.79,4.45V758a9.14,9.14,0,0,0,2.82,1.37,9.1,9.1,0,0,1,3.52,1.49l0,0A6.43,6.43,0,0,1,945.86,768.58Z"/><path d="M960.78,755.78c-2,0-4,0-6,0,0,2.9,0,5.85.09,8.75a6.15,6.15,0,0,0,5.94,6.34v1.28a7.52,7.52,0,0,1-7.39-7.62c0-2.9,0-5.85,0-8.75-.84,0-1.67,0-2.55,0v-1.45c.83,0,1.71.09,2.55.09,0-4.19,0-8.37,0-12.55h1.45c-.05,4.18-.09,8.36-.09,12.55,2,0,4-.09,6-.09Z"/><path d="M975.78,759.78h9a9.27,9.27,0,0,0-7.84-8.27c-4.49-.66-8.76,2.46-10,7.13a9.85,9.85,0,0,0,5.33,11.48,9.09,9.09,0,0,0,11.4-4.26l1.32.7a10.37,10.37,0,0,1-13.29,4.67,11.15,11.15,0,0,1-6.21-13,10.73,10.73,0,0,1,9.68-8.14,8.4,8.4,0,0,1,2,.09,10.84,10.84,0,0,1,9.19,10.87H975.78Z"/><path d="M1009.4,772.11h-1.54V759.7a7.8,7.8,0,1,0-15.58-.62c0,4.31.05,8.71.09,13h-1.54V750.37h1.54c0,1.36-.09,2.77-.09,4.18a9.15,9.15,0,0,1,7.84-4.45,9.46,9.46,0,0,1,9.28,9.55Z"/><path d="M1045.7,755.78c-2,0-4,0-6,0,0,2.9,0,5.85.09,8.75a6.15,6.15,0,0,0,5.94,6.34v1.28a7.52,7.52,0,0,1-7.39-7.62c0-2.9,0-5.85,0-8.75-.84,0-1.67,0-2.55,0v-1.45c.83,0,1.71.09,2.55.09,0-4.19,0-8.37,0-12.55h1.45c0,4.18-.09,8.36-.09,12.55,2,0,4-.09,6-.09Z"/><path d="M1070,750.32v21.21h-1.49c0-1.67.08-3.34.08-5a10.61,10.61,0,0,1-9.24,5.55,11,11,0,0,1,0-22,10.47,10.47,0,0,1,9.24,5.55c0-1.81,0-3.57-.08-5.33Zm-1.49,10.78c0-5.32-4.14-9.77-9.16-9.77s-9.06,4.45-9.06,9.77,4,9.73,9.06,9.73S1068.54,766.43,1068.54,761.1Z"/><path d="M1082.48,761.28c2.07,3.61,4.23,7.22,6.38,10.83h-1.76l-5.45-9.42-5.42,9.42h-1.8c2.15-3.61,4.31-7.18,6.42-10.83l-6.42-11.09h1.76c1.8,3.26,3.61,6.47,5.46,9.68,1.84-3.17,3.69-6.42,5.45-9.68h1.76Z"/><path d="M1095.77,746.85a1.59,1.59,0,0,1,1.63,1.58,1.61,1.61,0,0,1-1.63,1.63,1.63,1.63,0,0,1-1.63-1.63A1.61,1.61,0,0,1,1095.77,746.85Zm-.75,5.8v19.46h1.54V752.65Z"/><path d="M1145.8,750.37V780h-1.41c0-4.53.09-9.06.09-13.55a10.46,10.46,0,0,1-9.24,5.68,11,11,0,0,1,0-22,10.56,10.56,0,0,1,9.24,5.72c0-1.81,0-3.66-.09-5.5Zm-1.41,10.82c0-5.32-4.14-9.86-9.15-9.86s-9.16,4.54-9.16,9.86,4.14,9.77,9.16,9.77S1144.39,766.43,1144.39,761.19Z"/><path d="M1170,750.67v21h-1.49c0-1.55,0-3,.08-4.58a10.78,10.78,0,0,1-3.56,3.61,9.51,9.51,0,0,1-10,0,10.35,10.35,0,0,1-4.88-8.76V750.67h1.49v11.18a9,9,0,0,0,4.18,7.7,8.08,8.08,0,0,0,8.45,0,9.12,9.12,0,0,0,4.27-7.7h0c0-3.74-.08-7.48-.08-11.18Z"/><path d="M1185,759.78h9a9.27,9.27,0,0,0-7.84-8.27c-4.48-.66-8.75,2.46-10,7.13a9.85,9.85,0,0,0,5.33,11.48,9.09,9.09,0,0,0,11.4-4.26l1.32.7a10.37,10.37,0,0,1-13.29,4.67,11.15,11.15,0,0,1-6.21-13,10.73,10.73,0,0,1,9.68-8.14,8.4,8.4,0,0,1,2,.09,10.84,10.84,0,0,1,9.19,10.87H1185Z"/><path d="M1211,750.1v1.28c-5.06,0-9.28,4.44-9.46,9.72,0,3.66,0,7.31.09,11h-1.54V750.37h1.54c0,1.8-.09,3.6-.09,5.41A10.88,10.88,0,0,1,1211,750.1Z"/><path d="M1257.73,741.87v29.66h-1.45c.09-1.71.13-3.43.13-5.15a10.51,10.51,0,0,1-9.28,5.73,11,11,0,0,1,0-22,10.52,10.52,0,0,1,9.33,5.72c-.09-4.66-.18-9.28-.18-14Zm-1.45,19.23c0-5.28-4.09-9.72-9.15-9.72s-9.11,4.44-9.11,9.72,4.09,9.69,9.11,9.69S1256.28,766.38,1256.28,761.1Z"/><path d="M1282.86,750.67v21h-1.5c0-1.55,0-3,.09-4.58a10.72,10.72,0,0,1-3.57,3.61,9.51,9.51,0,0,1-10,0,10.35,10.35,0,0,1-4.88-8.76V750.67h1.5v11.18a8.93,8.93,0,0,0,4.18,7.7,8.08,8.08,0,0,0,8.45,0,9.11,9.11,0,0,0,4.26-7.7h0c0-3.74-.09-7.48-.09-11.18Z"/><path d="M1298.17,750.1v1.28c-5.06,0-9.29,4.44-9.46,9.72,0,3.66,0,7.31.08,11h-1.54V750.37h1.54c0,1.8-.08,3.6-.08,5.41A10.85,10.85,0,0,1,1298.17,750.1Z"/><path d="M1318.41,755.6l-1.28.71a9.1,9.1,0,0,0-10.3-4.45,9.54,9.54,0,0,0-6.77,9.24,9.39,9.39,0,0,0,6.77,9.2,9,9,0,0,0,10.3-4.49l1.28.75a10.54,10.54,0,0,1-11.93,5.19,11,11,0,0,1-7.87-10.65,10.79,10.79,0,0,1,7.87-10.6,9.23,9.23,0,0,1,3.44-.4A10.72,10.72,0,0,1,1318.41,755.6Z"/><path d="M1341.07,772.11h-1.5V759.56a7.89,7.89,0,1,0-15.75,0c0,4.18,0,8.36.09,12.55h-1.54V741.3h1.54c-.05,4.36-.09,8.71-.09,13.07a9.32,9.32,0,0,1,7.92-4.53,9.53,9.53,0,0,1,9.33,9.68Z"/><path d="M1388.68,761.1a10.85,10.85,0,0,1-10.61,11,10.56,10.56,0,0,1-9.2-5.55c0,1.63.05,3.3.09,5h-1.5V741.87h1.5l-.13,13.87a10.55,10.55,0,0,1,9.24-5.64A10.85,10.85,0,0,1,1388.68,761.1Zm-1.5,0c0-5.23-4-9.68-9.11-9.68s-9.11,4.45-9.11,9.68a9.12,9.12,0,1,0,18.22,0Z"/><path d="M1413.89,750.32v21.21h-1.5c0-1.67.09-3.34.09-5a10.62,10.62,0,0,1-9.24,5.55,11,11,0,0,1,0-22,10.47,10.47,0,0,1,9.24,5.55c0-1.81,0-3.57-.09-5.33Zm-1.5,10.78c0-5.32-4.14-9.77-9.15-9.77s-9.07,4.45-9.07,9.77,4,9.73,9.07,9.73S1412.39,766.43,1412.39,761.1Z"/><path d="M1438.13,750.45V772a7.62,7.62,0,0,1-6.16,7.57,22.53,22.53,0,0,1-3.3.17,25,25,0,0,1-3.48-.17,7.67,7.67,0,0,1-5.06-3.74l1.19-.71a6,6,0,0,0,4.18,3,20,20,0,0,0,3.17.26,16.74,16.74,0,0,0,3-.26,6,6,0,0,0,5-6.07c0-2.16.09-4.31.09-6.47a10.36,10.36,0,0,1-3.7,3.74,9.45,9.45,0,0,1-9.86,0,10.25,10.25,0,0,1-4.93-8.85v-10h1.5v10a9.1,9.1,0,0,0,4.22,7.79,8.08,8.08,0,0,0,8.45,0,9.65,9.65,0,0,0,4.32-6.91c0-3.65,0-7.26-.09-10.87Z"/><path d="M1453.13,759.78h9a9.27,9.27,0,0,0-7.84-8.27c-4.49-.66-8.76,2.46-10,7.13a9.85,9.85,0,0,0,5.33,11.48,9.07,9.07,0,0,0,11.39-4.26l1.33.7a10.38,10.38,0,0,1-13.3,4.67,11.16,11.16,0,0,1-6.2-13,10.73,10.73,0,0,1,9.68-8.14,8.4,8.4,0,0,1,2,.09,10.84,10.84,0,0,1,9.19,10.87h-10.65Z"/><path d="M1479.09,750.1v1.28c-5.06,0-9.28,4.44-9.46,9.72,0,3.66,0,7.31.09,11h-1.54V750.37h1.54c0,1.8-.09,3.6-.09,5.41A10.85,10.85,0,0,1,1479.09,750.1Z"/><path d="M1501.18,772.11h-1.54V759.7a7.8,7.8,0,1,0-15.58-.62c0,4.31,0,8.71.09,13h-1.54V750.37h1.54c0,1.36-.09,2.77-.09,4.18a9.15,9.15,0,0,1,7.84-4.45,9.46,9.46,0,0,1,9.28,9.55Z"/><path d="M1505.89,769a1.54,1.54,0,0,1,0,3.08,1.54,1.54,0,1,1,0-3.08Z"/><path d="M1538.76,759.34c2.06,0,4.13,0,6.2,0v1.54c-2.07,0-4.14,0-6.2,0,0,3.74,0,7.52,0,11.31h-1.5c0-3.79,0-7.57.09-11.31-.92,0-1.8,0-2.68,0V759.3c.88,0,1.76,0,2.68,0,0-3.17,0-6.33-.09-9.5v-.22a7.84,7.84,0,0,1,7.66-7.75v1.32a6.42,6.42,0,0,0-6.16,6.65C1538.76,753,1538.76,756.17,1538.76,759.34Z"/><path d="M1561.15,750.1v1.28c-5.06,0-9.28,4.44-9.46,9.72,0,3.66,0,7.31.09,11h-1.54V750.37h1.54c0,1.8-.09,3.6-.09,5.41A10.85,10.85,0,0,1,1561.15,750.1Z"/><path d="M1582.41,750.32v21.21h-1.5c0-1.67.09-3.34.09-5a10.62,10.62,0,0,1-9.24,5.55,11,11,0,0,1,0-22,10.48,10.48,0,0,1,9.24,5.55c0-1.81,0-3.57-.09-5.33Zm-1.5,10.78c0-5.32-4.14-9.77-9.15-9.77s-9.07,4.45-9.07,9.77,4,9.73,9.07,9.73S1580.91,766.43,1580.91,761.1Z"/><path d="M1605.37,772.11h-1.54V759.7a7.8,7.8,0,1,0-15.58-.62c0,4.31,0,8.71.09,13h-1.54V750.37h1.54c0,1.36-.09,2.77-.09,4.18a9.15,9.15,0,0,1,7.84-4.45,9.46,9.46,0,0,1,9.28,9.55Z"/><path d="M1624.82,770.79v1.32h-15c4-6.83,8-13.78,11.88-20.56-3.69,0-7.74,0-11.53,0v-1.4h14.08c-4,6.91-8,13.77-11.92,20.64C1616.46,770.83,1620.64,770.79,1624.82,770.79Z"/><path d="M1655.75,752.65h1.54v21.48a6.22,6.22,0,0,1-6.07,6.29v-1.23c2.55,0,4.57-2.42,4.57-5.06Zm2.38-4.22a1.62,1.62,0,0,1-1.59,1.63,1.69,1.69,0,0,1-1.67-1.63,1.62,1.62,0,0,1,1.67-1.58A1.55,1.55,0,0,1,1658.13,748.43Z"/><path d="M1683.34,750.32v21.21h-1.5c.05-1.67.09-3.34.09-5a10.62,10.62,0,0,1-9.24,5.55,11,11,0,0,1,0-22,10.47,10.47,0,0,1,9.24,5.55c0-1.81,0-3.57-.09-5.33Zm-1.5,10.78c0-5.32-4.13-9.77-9.15-9.77s-9.07,4.45-9.07,9.77,4,9.73,9.07,9.73S1681.84,766.43,1681.84,761.1Z"/><rect class="cls-1" x="1665.63" y="313.67" width="254.37" height="610.5"/></svg>