<svg id="Ebene_1" data-name="Ebene 1" xmlns="http://www.w3.org/2000/svg" viewBox="0 0 1920 1080"><defs><style>.cls-1{fill:#001e38;}.cls-2{opacity:0.4;}.cls-3{fill:#fffd55;}.cls-4,.cls-5{fill:none;stroke-miterlimit:10;}.cls-4{stroke:#000;}.cls-5{stroke:#8c5f00;stroke-width:10px;}.cls-6{fill:#554c00;}.cls-7{fill:#b43200;}.cls-8{fill:#1543ff;}.cls-9{fill:#c5764e;}.cls-10{fill:#ba9e79;}.cls-11{fill:#a5794d;}.cls-12{fill:#88a2b0;}.cls-13{fill:#4e5e82;}.cls-14{fill:#fff;}</style></defs><title>circle_kepler</title><rect class="cls-1" width="1920" height="1080"/><circle class="cls-2" cx="1827.9" cy="431.28" r="11.34"/><circle class="cls-3" cx="107.24" cy="168.94" r="210.95"/><circle class="cls-4" cx="107.24" cy="168.94" r="346.57"/><circle class="cls-4" cx="107.24" cy="168.94" r="478.67"/><circle class="cls-4" cx="107.24" cy="168.94" r="630.59"/><circle class="cls-4" cx="107.24" cy="168.94" r="775.63"/><circle class="cls-4" cx="107.24" cy="168.94" r="944.54"/><circle class="cls-5" cx="1224.97" cy="186.01" r="59.98"/><circle class="cls-4" cx="107.24" cy="168.94" r="1116.56"/><circle class="cls-4" cx="107.24" cy="168.94" r="1311.69"/><circle class="cls-4" cx="107.24" cy="168.94" r="1518.8"/><circle class="cls-4" cx="107.24" cy="168.94" r="1740.22"/><circle class="cls-6" cx="424.13" cy="311.19" r="14.17"/><circle class="cls-7" cx="394.62" cy="554.52" r="22.68"/><circle class="cls-8" cx="722.68" cy="302.69" r="22.68"/><circle class="cls-9" cx="843.32" cy="413.39" r="21.26"/><circle class="cls-10" cx="1224.97" cy="186.01" r="45.01"/><circle class="cls-11" cx="836.33" cy="770.35" r="83.66"/><circle class="cls-12" cx="1321.56" cy="671.82" r="38.27"/><circle class="cls-13" cx="1579.31" cy="553.78" r="38.27"/><path class="cls-14" d="M467.6,379.2h-1.23V362.5L464,364.84l-.86-.9,2.66-2.67h1.77Z"/><path class="cls-14" d="M471.45,376.68a1.26,1.26,0,0,1,0,2.52,1.26,1.26,0,1,1,0-2.52Z"/><path class="cls-14" d="M511.69,361.38v17.35h-1.22c0-1.37.07-2.73.07-4.07A8.69,8.69,0,0,1,503,379.2a9,9,0,0,1,0-18,8.56,8.56,0,0,1,7.56,4.54c0-1.48,0-2.92-.07-4.36Zm-1.22,8.82a7.8,7.8,0,0,0-7.49-8c-4.14,0-7.41,3.63-7.41,8a7.69,7.69,0,0,0,7.41,8A7.78,7.78,0,0,0,510.47,370.2Z"/><path class="cls-14" d="M517.28,354.47v19.65H516V354.47Zm-1.23,19.65a5,5,0,0,0,5,5.08v-1.08a3.91,3.91,0,0,1-3.78-4Z"/><path class="cls-14" d="M526.28,354.47v19.65H525V354.47Zm-1.23,19.65a5,5,0,0,0,5,5.08v-1.08a3.91,3.91,0,0,1-3.78-4Z"/><path class="cls-14" d="M569.33,370.2a8.84,8.84,0,0,1-8.67,9,8.59,8.59,0,0,1-7.53-4.61c0,3.67.07,7.31.07,11H552V361.42h1.18c0,1.44-.07,2.91-.07,4.35a8.57,8.57,0,0,1,7.53-4.57A8.82,8.82,0,0,1,569.33,370.2Zm-1.19,0c0-4.32-3.35-8-7.48-8s-7.46,3.67-7.46,8a7.49,7.49,0,1,0,14.94,0Z"/><path class="cls-14" d="M574.55,354.47v19.65h-1.26V354.47Zm-1.22,19.65a5,5,0,0,0,5,5.08v-1.08a3.91,3.91,0,0,1-3.78-4Z"/><path class="cls-14" d="M598.6,361.38v17.35h-1.23c0-1.37.08-2.73.08-4.07a8.7,8.7,0,0,1-7.56,4.54,9,9,0,0,1,0-18,8.57,8.57,0,0,1,7.56,4.54c0-1.48,0-2.92-.08-4.36Zm-1.23,8.82a7.8,7.8,0,0,0-7.48-8c-4.14,0-7.42,3.63-7.42,8a7.47,7.47,0,1,0,14.9,0Z"/><path class="cls-14" d="M617.39,379.2h-1.26V369.05a6.38,6.38,0,1,0-12.74-.51c0,3.53,0,7.13.07,10.66H602.2V361.42h1.26c0,1.11-.07,2.27-.07,3.42a7.48,7.48,0,0,1,6.4-3.64,7.74,7.74,0,0,1,7.6,7.81Z"/><path class="cls-14" d="M629.67,369.12h7.38a7.38,7.38,0,0,0-14.58-.94,8.06,8.06,0,0,0,4.35,9.4,7.45,7.45,0,0,0,9.33-3.49l1.08.57a8.49,8.49,0,0,1-10.88,3.82,9.11,9.11,0,0,1-5.07-10.62,8.78,8.78,0,0,1,7.92-6.66,7.26,7.26,0,0,1,1.65.07,8.88,8.88,0,0,1,7.53,8.89h-8.71Z"/><path class="cls-14" d="M650.08,365.84c-1.66,0-3.28,0-4.93,0,0,2.37,0,4.79.07,7.16a5,5,0,0,0,4.86,5.19v1A6.15,6.15,0,0,1,644,373c0-2.37,0-4.79,0-7.16-.69,0-1.37,0-2.09,0v-1.18c.68,0,1.4.07,2.09.07,0-3.42,0-6.84,0-10.26h1.19c0,3.42-.07,6.84-.07,10.26,1.62,0,3.27-.07,4.93-.07Z"/><path class="cls-14" d="M663.22,376.32a5.2,5.2,0,0,1-4,2.84,6.83,6.83,0,0,1-1.73-.07,5.23,5.23,0,0,1-3.81-5.11h1.19a4.17,4.17,0,0,0,3,4.1,3.88,3.88,0,0,0,4.28-2.26,4.17,4.17,0,0,0-.93-4.9,8,8,0,0,0-2.42-1.19,7.2,7.2,0,0,1-2.66-1.11,4.19,4.19,0,0,1-1-5,4,4,0,0,1,3.24-2.31,2.74,2.74,0,0,1,1.33.08,4.21,4.21,0,0,1,3.13,4.1h-1.19a3.23,3.23,0,0,0-2.23-3.13,2.9,2.9,0,0,0-3.17,1.76,3.25,3.25,0,0,0,.65,3.64v0a7.58,7.58,0,0,0,2.3,1.12A7.2,7.2,0,0,1,662,370l0,0A5.26,5.26,0,0,1,663.22,376.32Z"/><path class="cls-14" d="M714.77,379.2h-1.19V369.05a6.37,6.37,0,1,0-12.71,0V379.2h-1.26V369.05a6.38,6.38,0,1,0-12.74,0c0,3.38.07,6.77.07,10.15h-1.26V361.45h1.26c0,1.12-.07,2.27-.07,3.42A7.44,7.44,0,0,1,700.22,366a7.55,7.55,0,0,1,14.55,3Z"/><path class="cls-14" d="M735.65,370.2a8.65,8.65,0,1,1-8.64-9A8.82,8.82,0,0,1,735.65,370.2Zm-16.13,0c0,4.28,3.39,8,7.49,8s7.49-3.71,7.49-8a7.51,7.51,0,1,0-15,0Z"/><path class="cls-14" d="M755.63,361.2l-7.78,18h-1.62l-7.7-18h1.15L747,378.12l7.27-16.92Z"/><path class="cls-14" d="M765.38,369.12h7.38a7.37,7.37,0,0,0-14.57-.94,8.06,8.06,0,0,0,4.35,9.4,7.43,7.43,0,0,0,9.32-3.49l1.08.57a8.48,8.48,0,0,1-10.87,3.82A9.11,9.11,0,0,1,757,367.86a8.77,8.77,0,0,1,7.92-6.66,7.26,7.26,0,0,1,1.65.07,8.88,8.88,0,0,1,7.53,8.89h-8.72Z"/><path class="cls-14" d="M797.75,358.54a1.3,1.3,0,0,1,1.33,1.29,1.31,1.31,0,0,1-1.33,1.34,1.33,1.33,0,0,1-1.33-1.34A1.31,1.31,0,0,1,797.75,358.54Zm-.61,4.75V379.2h1.26V363.29Z"/><path class="cls-14" d="M818.59,379.2h-1.26V369.05a6.38,6.38,0,1,0-12.74-.51c0,3.53,0,7.13.07,10.66H803.4V361.42h1.26c0,1.11-.07,2.27-.07,3.42A7.48,7.48,0,0,1,811,361.2a7.73,7.73,0,0,1,7.59,7.81Z"/><path class="cls-14" d="M848.87,369.12h7.38a7.38,7.38,0,0,0-14.58-.94,8.06,8.06,0,0,0,4.35,9.4,7.45,7.45,0,0,0,9.33-3.49l1.08.57a8.48,8.48,0,0,1-10.87,3.82,9.11,9.11,0,0,1-5.08-10.62,8.78,8.78,0,0,1,7.92-6.66,7.37,7.37,0,0,1,1.66.07,8.88,8.88,0,0,1,7.52,8.89h-8.71Z"/><path class="cls-14" d="M862.8,354.47v19.65h-1.26V354.47Zm-1.22,19.65a5,5,0,0,0,5,5.08v-1.08a3.91,3.91,0,0,1-3.78-4Z"/><path class="cls-14" d="M871.8,354.47v19.65h-1.26V354.47Zm-1.22,19.65a5,5,0,0,0,5,5.08v-1.08a3.91,3.91,0,0,1-3.78-4Z"/><path class="cls-14" d="M881.59,358.54a1.29,1.29,0,0,1,1.33,1.29,1.31,1.31,0,0,1-1.33,1.34,1.33,1.33,0,0,1-1.33-1.34A1.31,1.31,0,0,1,881.59,358.54Zm-.61,4.75V379.2h1.26V363.29Z"/><path class="cls-14" d="M904.56,370.2a8.85,8.85,0,0,1-8.68,9,8.58,8.58,0,0,1-7.52-4.61c0,3.67.07,7.31.07,11h-1.19V361.42h1.19c0,1.44-.07,2.91-.07,4.35a8.56,8.56,0,0,1,7.52-4.57A8.82,8.82,0,0,1,904.56,370.2Zm-1.19,0c0-4.32-3.35-8-7.49-8s-7.45,3.67-7.45,8,3.35,8,7.45,8A7.78,7.78,0,0,0,903.37,370.2Z"/><path class="cls-14" d="M916.26,365.84c-1.66,0-3.28,0-4.93,0,0,2.37,0,4.79.07,7.16a5,5,0,0,0,4.86,5.19v1a6.15,6.15,0,0,1-6-6.23c0-2.37,0-4.79,0-7.16-.69,0-1.37,0-2.09,0v-1.18c.68,0,1.4.07,2.09.07,0-3.42,0-6.84,0-10.26h1.19c0,3.42-.07,6.84-.07,10.26,1.62,0,3.27-.07,4.93-.07Z"/><path class="cls-14" d="M921.91,358.54a1.29,1.29,0,0,1,1.33,1.29,1.31,1.31,0,0,1-1.33,1.34,1.33,1.33,0,0,1-1.33-1.34A1.31,1.31,0,0,1,921.91,358.54Zm-.61,4.75V379.2h1.26V363.29Z"/><path class="cls-14" d="M942.68,365.7l-1,.58a7.45,7.45,0,0,0-8.43-3.64,7.81,7.81,0,0,0-5.54,7.56,7.69,7.69,0,0,0,5.54,7.52,7.38,7.38,0,0,0,8.43-3.67l1,.61a8.61,8.61,0,0,1-9.75,4.25,9,9,0,0,1-6.45-8.71,8.83,8.83,0,0,1,6.45-8.67,7.48,7.48,0,0,1,2.8-.33A8.76,8.76,0,0,1,942.68,365.7Z"/><path class="cls-14" d="M963.31,361.38v17.35h-1.23c0-1.37.08-2.73.08-4.07a8.7,8.7,0,0,1-7.56,4.54,9,9,0,0,1,0-18,8.57,8.57,0,0,1,7.56,4.54c0-1.48,0-2.92-.08-4.36Zm-1.23,8.82a7.8,7.8,0,0,0-7.48-8c-4.14,0-7.42,3.63-7.42,8a7.47,7.47,0,1,0,14.9,0Z"/><path class="cls-14" d="M968.89,354.47v19.65h-1.26V354.47Zm-1.22,19.65a5,5,0,0,0,5,5.08v-1.08a3.91,3.91,0,0,1-3.78-4Z"/><path class="cls-14" d="M1011.91,370.2a8.65,8.65,0,1,1-8.64-9A8.82,8.82,0,0,1,1011.91,370.2Zm-16.13,0c0,4.28,3.39,8,7.49,8s7.49-3.71,7.49-8a7.51,7.51,0,1,0-15,0Z"/><path class="cls-14" d="M1024.44,361.2v1.05a8.08,8.08,0,0,0-7.74,7.95c0,3,0,6,.07,9h-1.26V361.42h1.26c0,1.47-.07,2.95-.07,4.42A8.88,8.88,0,0,1,1024.44,361.2Z"/><path class="cls-14" d="M1044.67,370.2a8.87,8.87,0,0,1-8.68,9,8.62,8.62,0,0,1-7.52-4.54c0,1.34,0,2.7.07,4.07h-1.22V354.47h1.22l-.11,11.34a8.64,8.64,0,0,1,7.56-4.61A8.87,8.87,0,0,1,1044.67,370.2Zm-1.23,0a7.46,7.46,0,1,0-14.9,0,7.46,7.46,0,1,0,14.9,0Z"/><path class="cls-14" d="M1049.24,358.54a1.29,1.29,0,0,1,1.33,1.29,1.31,1.31,0,0,1-1.33,1.34,1.33,1.33,0,0,1-1.33-1.34A1.31,1.31,0,0,1,1049.24,358.54Zm-.61,4.75V379.2h1.26V363.29Z"/><path class="cls-14" d="M1063,365.84c-1.65,0-3.27,0-4.93,0,0,2.37,0,4.79.07,7.16a5,5,0,0,0,4.86,5.19v1a6.15,6.15,0,0,1-6-6.23c0-2.37,0-4.79,0-7.16-.68,0-1.37,0-2.09,0v-1.18c.69,0,1.41.07,2.09.07,0-3.42,0-6.84,0-10.26h1.19c0,3.42-.07,6.84-.07,10.26,1.62,0,3.28-.07,4.93-.07Z"/><path class="cls-14" d="M1076.13,376.32a5.18,5.18,0,0,1-4,2.84,6.82,6.82,0,0,1-1.73-.07,5.24,5.24,0,0,1-3.82-5.11h1.19a4.17,4.17,0,0,0,3,4.1,3.9,3.9,0,0,0,4.29-2.26,4.18,4.18,0,0,0-.94-4.9,8,8,0,0,0-2.41-1.19,7.18,7.18,0,0,1-2.67-1.11,4.2,4.2,0,0,1-1-5,4.06,4.06,0,0,1,3.24-2.31,2.74,2.74,0,0,1,1.33.08,4.2,4.2,0,0,1,3.13,4.1h-1.18a3.24,3.24,0,0,0-2.24-3.13,2.89,2.89,0,0,0-3.16,1.76,3.25,3.25,0,0,0,.64,3.64v0a7.65,7.65,0,0,0,2.31,1.12,7.26,7.26,0,0,1,2.88,1.22l0,0A5.26,5.26,0,0,1,1076.13,376.32Z"/><path class="cls-14" d="M1081.39,381.57h-.79l.36-3.95h1.44Z"/><path class="cls-14" d="M1125.77,361.45v11.92a5.88,5.88,0,0,1-2.77,5,5.63,5.63,0,0,1-5.72,0,5.79,5.79,0,0,1-2.23-2.42,5.85,5.85,0,0,1-2.23,2.42,5.58,5.58,0,0,1-5.69,0,5.88,5.88,0,0,1-2.77-5V361.45h1.22v11.81a4.91,4.91,0,0,0,2.2,4.21,4.42,4.42,0,0,0,4.42,0,4.87,4.87,0,0,0,2.23-4.21V361.45h1.27v11.81a4.93,4.93,0,0,0,2.23,4.21,4.42,4.42,0,0,0,4.42,0,4.91,4.91,0,0,0,2.2-4.21V361.45Z"/><path class="cls-14" d="M1131.79,358.54a1.3,1.3,0,0,1,1.33,1.29,1.31,1.31,0,0,1-1.33,1.34,1.33,1.33,0,0,1-1.33-1.34A1.31,1.31,0,0,1,1131.79,358.54Zm-.61,4.75V379.2h1.26V363.29Z"/><path class="cls-14" d="M1145.54,365.84c-1.66,0-3.28,0-4.93,0,0,2.37,0,4.79.07,7.16a5,5,0,0,0,4.86,5.19v1a6.15,6.15,0,0,1-6-6.23c0-2.37,0-4.79,0-7.16-.69,0-1.37,0-2.09,0v-1.18c.68,0,1.4.07,2.09.07,0-3.42,0-6.84,0-10.26h1.19c0,3.42-.07,6.84-.07,10.26,1.62,0,3.27-.07,4.93-.07Z"/><path class="cls-14" d="M1164.8,379.2h-1.22V368.94a6.45,6.45,0,1,0-12.89,0c0,3.42,0,6.84.07,10.26h-1.26V354h1.26c0,3.57-.07,7.13-.07,10.69a7.62,7.62,0,0,1,6.48-3.7,7.79,7.79,0,0,1,7.63,7.91Z"/><path class="cls-14" d="M1194.5,365.84c-1.66,0-3.28,0-4.93,0,0,2.37,0,4.79.07,7.16a5,5,0,0,0,4.86,5.19v1a6.15,6.15,0,0,1-6-6.23c0-2.37,0-4.79,0-7.16-.69,0-1.37,0-2.09,0v-1.18c.68,0,1.4.07,2.09.07,0-3.42,0-6.84,0-10.26h1.19c0,3.42-.07,6.84-.07,10.26,1.62,0,3.27-.07,4.93-.07Z"/><path class="cls-14" d="M1213.76,379.2h-1.23V368.94a6.45,6.45,0,1,0-12.88,0c0,3.42,0,6.84.07,10.26h-1.26V354h1.26c0,3.57-.07,7.13-.07,10.69a7.62,7.62,0,0,1,6.48-3.7,7.79,7.79,0,0,1,7.63,7.91Z"/><path class="cls-14" d="M1226,369.12h7.38a7.38,7.38,0,0,0-14.58-.94,8.08,8.08,0,0,0,4.36,9.4,7.43,7.43,0,0,0,9.32-3.49l1.08.57a8.48,8.48,0,0,1-10.87,3.82,9.11,9.11,0,0,1-5.07-10.62,8.77,8.77,0,0,1,7.92-6.66,7.26,7.26,0,0,1,1.65.07,8.88,8.88,0,0,1,7.53,8.89H1226Z"/><path class="cls-14" d="M1265.89,376.32a5.2,5.2,0,0,1-4,2.84,6.82,6.82,0,0,1-1.73-.07,5.23,5.23,0,0,1-3.81-5.11h1.18a4.18,4.18,0,0,0,3,4.1,3.88,3.88,0,0,0,4.28-2.26,4.15,4.15,0,0,0-.94-4.9,7.86,7.86,0,0,0-2.41-1.19,7.13,7.13,0,0,1-2.66-1.11,4.21,4.21,0,0,1-1-5,4.08,4.08,0,0,1,3.24-2.31,2.78,2.78,0,0,1,1.34.08,4.21,4.21,0,0,1,3.13,4.1h-1.19a3.24,3.24,0,0,0-2.23-3.13,2.9,2.9,0,0,0-3.17,1.76,3.24,3.24,0,0,0,.65,3.64v0a7.58,7.58,0,0,0,2.3,1.12,7.2,7.2,0,0,1,2.88,1.22l0,0A5.28,5.28,0,0,1,1265.89,376.32Z"/><path class="cls-14" d="M1286.58,361.67v17.17h-1.22c0-1.26,0-2.48.07-3.74a8.83,8.83,0,0,1-2.91,2.95,7.76,7.76,0,0,1-8.17,0,8.48,8.48,0,0,1-4-7.17v-9.21h1.22v9.14a7.32,7.32,0,0,0,3.42,6.3,6.63,6.63,0,0,0,6.92,0,7.48,7.48,0,0,0,3.49-6.3h0c0-3.06-.07-6.12-.07-9.14Z"/><path class="cls-14" d="M1305.38,379.2h-1.26V369.05a6.38,6.38,0,1,0-12.75-.51c0,3.53,0,7.13.08,10.66h-1.26V361.42h1.26c0,1.11-.08,2.27-.08,3.42a7.49,7.49,0,0,1,6.41-3.64,7.74,7.74,0,0,1,7.6,7.81Z"/><path class="cls-14" d="M1344.36,361.38v17.35h-1.22c0-1.37.07-2.73.07-4.07a8.69,8.69,0,0,1-7.56,4.54,9,9,0,0,1,0-18,8.56,8.56,0,0,1,7.56,4.54c0-1.48,0-2.92-.07-4.36Zm-1.22,8.82a7.8,7.8,0,0,0-7.49-8c-4.14,0-7.41,3.63-7.41,8a7.69,7.69,0,0,0,7.41,8A7.78,7.78,0,0,0,1343.14,370.2Z"/><path class="cls-14" d="M1356.06,365.84c-1.65,0-3.27,0-4.93,0,0,2.37,0,4.79.08,7.16a5,5,0,0,0,4.85,5.19v1a6.15,6.15,0,0,1-6-6.23c0-2.37,0-4.79,0-7.16-.68,0-1.36,0-2.08,0v-1.18c.68,0,1.4.07,2.08.07,0-3.42,0-6.84,0-10.26h1.19c0,3.42-.08,6.84-.08,10.26,1.62,0,3.28-.07,4.93-.07Z"/><path class="cls-14" d="M1394.94,370.2a8.64,8.64,0,1,1-8.64-9A8.81,8.81,0,0,1,1394.94,370.2Zm-16.12,0c0,4.28,3.38,8,7.48,8s7.49-3.71,7.49-8a7.5,7.5,0,1,0-15,0Z"/><path class="cls-14" d="M1413.74,379.2h-1.26V369.05a6.38,6.38,0,1,0-12.75-.51c0,3.53,0,7.13.08,10.66h-1.26V361.42h1.26c0,1.11-.08,2.27-.08,3.42a7.49,7.49,0,0,1,6.41-3.64,7.74,7.74,0,0,1,7.6,7.81Z"/><path class="cls-14" d="M1426,369.12h7.38a7.38,7.38,0,0,0-14.58-.94,8.08,8.08,0,0,0,4.36,9.4,7.44,7.44,0,0,0,9.32-3.49l1.08.57a8.48,8.48,0,0,1-10.87,3.82,9.11,9.11,0,0,1-5.07-10.62,8.75,8.75,0,0,1,7.91-6.66,7.33,7.33,0,0,1,1.66.07,8.87,8.87,0,0,1,7.52,8.89H1426Z"/><path class="cls-14" d="M467.2,412c1.69,0,3.38,0,5.08,0v1.26c-1.7,0-3.39,0-5.08,0,0,3.06,0,6.15,0,9.25H466c0-3.1,0-6.19.07-9.25-.75,0-1.47,0-2.19,0v-1.26c.72,0,1.44,0,2.19,0,0-2.59,0-5.18-.07-7.77V404a6.41,6.41,0,0,1,6.27-6.34v1.08a5.24,5.24,0,0,0-5,5.44C467.2,406.78,467.2,409.37,467.2,412Z"/><path class="cls-14" d="M493.88,413.4a8.65,8.65,0,1,1-8.64-9A8.82,8.82,0,0,1,493.88,413.4Zm-16.13,0c0,4.28,3.38,8,7.49,8s7.48-3.71,7.48-8a7.5,7.5,0,1,0-15,0Z"/><path class="cls-14" d="M513.67,408.9l-1,.58a7.44,7.44,0,0,0-8.42-3.64,7.8,7.8,0,0,0-5.55,7.56,7.68,7.68,0,0,0,5.55,7.52,7.37,7.37,0,0,0,8.42-3.67l1,.61a8.62,8.62,0,0,1-9.75,4.25,9,9,0,0,1-6.44-8.71,8.83,8.83,0,0,1,6.44-8.67,7.53,7.53,0,0,1,2.81-.33A8.73,8.73,0,0,1,513.67,408.9Z"/><path class="cls-14" d="M533.15,404.87V422h-1.22c0-1.26,0-2.48.07-3.74a8.86,8.86,0,0,1-2.92,2.95,7.8,7.8,0,0,1-8.17,0,8.45,8.45,0,0,1-4-7.17v-9.21h1.22V414a7.32,7.32,0,0,0,3.42,6.3,6.61,6.61,0,0,0,6.91,0A7.45,7.45,0,0,0,532,414h0c0-3.06-.07-6.12-.07-9.14Z"/><path class="cls-14" d="M546.29,419.52a5.18,5.18,0,0,1-4,2.84,6.82,6.82,0,0,1-1.73-.07,5.25,5.25,0,0,1-3.82-5.11h1.19a4.17,4.17,0,0,0,2.95,4.1,3.91,3.91,0,0,0,4.29-2.26,4.18,4.18,0,0,0-.94-4.9,8,8,0,0,0-2.41-1.19,7.18,7.18,0,0,1-2.67-1.11,4.2,4.2,0,0,1-1-5,4.06,4.06,0,0,1,3.24-2.31,2.74,2.74,0,0,1,1.33.08,4.2,4.2,0,0,1,3.13,4.1h-1.18a3.24,3.24,0,0,0-2.24-3.13,2.87,2.87,0,0,0-3.16,1.76,3.25,3.25,0,0,0,.64,3.64v0a7.65,7.65,0,0,0,2.31,1.12,7.26,7.26,0,0,1,2.88,1.22l0,0A5.26,5.26,0,0,1,546.29,419.52Z"/><path class="cls-14" d="M551,419.88a1.26,1.26,0,0,1,0,2.52,1.26,1.26,0,1,1,0-2.52Z"/><path class="cls-14" d="M474.8,507.65v1.15H463.42v-1.15c3-2.74,6.16-5.58,8.24-7.74a4.64,4.64,0,0,0,.83-5.47,4.33,4.33,0,0,0-4.89-2.34,4.6,4.6,0,0,0-3.21,4.5h-1.22a5.75,5.75,0,0,1,4.17-5.58,5.24,5.24,0,0,1,1.84-.15,5.6,5.6,0,0,1,4.43,3,5.88,5.88,0,0,1-1.05,6.91c-1.94,2-4.68,4.43-7.37,6.88Z"/><path class="cls-14" d="M478.65,506.28a1.26,1.26,0,0,1,0,2.52,1.26,1.26,0,1,1,0-2.52Z"/><path class="cls-14" d="M503.13,484.07v19.65h-1.26V484.07Zm-1.23,19.65a5,5,0,0,0,5,5.08v-1.08a3.91,3.91,0,0,1-3.78-4Z"/><path class="cls-14" d="M512.92,488.14a1.29,1.29,0,0,1,1.33,1.29,1.31,1.31,0,0,1-1.33,1.34,1.33,1.33,0,0,1-1.33-1.34A1.31,1.31,0,0,1,512.92,488.14Zm-.61,4.75V508.8h1.26V492.89Z"/><path class="cls-14" d="M533.76,508.8H532.5V498.65a6.38,6.38,0,1,0-12.74-.51c0,3.53,0,7.13.07,10.66h-1.26V491h1.26c0,1.11-.07,2.27-.07,3.42a7.48,7.48,0,0,1,6.41-3.64,7.73,7.73,0,0,1,7.59,7.81Z"/><path class="cls-14" d="M546,498.72h7.38a7.38,7.38,0,0,0-14.58-.94,8.06,8.06,0,0,0,4.35,9.4,7.45,7.45,0,0,0,9.33-3.49l1.08.57a8.48,8.48,0,0,1-10.87,3.82,9.12,9.12,0,0,1-5.08-10.62,8.79,8.79,0,0,1,7.92-6.66,7.37,7.37,0,0,1,1.66.07,8.87,8.87,0,0,1,7.52,8.89H546Z"/><path class="cls-14" d="M584.45,495.44c-1.66,0-3.28,0-4.93,0,0,2.37,0,4.79.07,7.16a5,5,0,0,0,4.86,5.19v1a6.15,6.15,0,0,1-6.05-6.23c0-2.37,0-4.79,0-7.16-.68,0-1.37,0-2.09,0v-1.18c.69,0,1.41.07,2.09.07,0-3.42,0-6.84,0-10.26h1.19c0,3.42-.07,6.84-.07,10.26,1.62,0,3.27-.07,4.93-.07Z"/><path class="cls-14" d="M603.71,508.8h-1.22V498.54a6.45,6.45,0,1,0-12.89,0c0,3.42,0,6.84.07,10.26h-1.26V483.6h1.26c0,3.57-.07,7.13-.07,10.69a7.62,7.62,0,0,1,6.48-3.7,7.79,7.79,0,0,1,7.63,7.91Z"/><path class="cls-14" d="M624.7,491v17.35h-1.23c0-1.37.07-2.73.07-4.07A8.67,8.67,0,0,1,616,508.8a9,9,0,0,1,0-18,8.55,8.55,0,0,1,7.55,4.54c0-1.48,0-2.92-.07-4.36Zm-1.23,8.82a7.8,7.8,0,0,0-7.48-8c-4.14,0-7.42,3.63-7.42,8a7.47,7.47,0,1,0,14.9,0Z"/><path class="cls-14" d="M636.4,495.44c-1.66,0-3.28,0-4.93,0,0,2.37,0,4.79.07,7.16a5,5,0,0,0,4.86,5.19v1a6.15,6.15,0,0,1-6-6.23c0-2.37,0-4.79,0-7.16-.69,0-1.37,0-2.09,0v-1.18c.68,0,1.4.07,2.09.07,0-3.42,0-6.84,0-10.26h1.19c0,3.42-.07,6.84-.07,10.26,1.62,0,3.27-.07,4.93-.07Z"/><path class="cls-14" d="M674.2,495.3l-1.05.58a7.43,7.43,0,0,0-8.42-3.64,7.79,7.79,0,0,0-5.54,7.56,7.67,7.67,0,0,0,5.54,7.52,7.36,7.36,0,0,0,8.42-3.67l1.05.61a8.62,8.62,0,0,1-9.76,4.25A9,9,0,0,1,658,499.8a8.83,8.83,0,0,1,6.44-8.67,7.53,7.53,0,0,1,2.81-.33A8.76,8.76,0,0,1,674.2,495.3Z"/><path class="cls-14" d="M694.72,499.8a8.65,8.65,0,1,1-8.64-9A8.82,8.82,0,0,1,694.72,499.8Zm-16.13,0c0,4.28,3.38,8,7.49,8s7.48-3.71,7.48-8a7.5,7.5,0,1,0-15,0Z"/><path class="cls-14" d="M713.51,508.8h-1.26V498.65a6.38,6.38,0,1,0-12.74-.51c0,3.53,0,7.13.07,10.66h-1.26V491h1.26c0,1.11-.07,2.27-.07,3.42a7.46,7.46,0,0,1,6.4-3.64,7.74,7.74,0,0,1,7.6,7.81Z"/><path class="cls-14" d="M732.3,508.8H731V498.65a6.38,6.38,0,1,0-12.74-.51c0,3.53,0,7.13.07,10.66h-1.26V491h1.26c0,1.11-.07,2.27-.07,3.42a7.46,7.46,0,0,1,6.4-3.64,7.74,7.74,0,0,1,7.6,7.81Z"/><path class="cls-14" d="M744.58,498.72H752a7.37,7.37,0,0,0-14.57-.94,8.06,8.06,0,0,0,4.35,9.4,7.45,7.45,0,0,0,9.33-3.49l1.07.57a8.48,8.48,0,0,1-10.87,3.82,9.11,9.11,0,0,1-5.07-10.62,8.79,8.79,0,0,1,7.92-6.66,7.26,7.26,0,0,1,1.65.07,8.88,8.88,0,0,1,7.53,8.89h-8.71Z"/><path class="cls-14" d="M773.09,495.3l-1.05.58a7.43,7.43,0,0,0-8.42-3.64,7.79,7.79,0,0,0-5.54,7.56,7.67,7.67,0,0,0,5.54,7.52,7.36,7.36,0,0,0,8.42-3.67l1.05.61a8.62,8.62,0,0,1-9.76,4.25,9,9,0,0,1-6.44-8.71,8.83,8.83,0,0,1,6.44-8.67,7.53,7.53,0,0,1,2.81-.33A8.76,8.76,0,0,1,773.09,495.3Z"/><path class="cls-14" d="M784.43,495.44c-1.66,0-3.28,0-4.93,0,0,2.37,0,4.79.07,7.16a5,5,0,0,0,4.86,5.19v1a6.15,6.15,0,0,1-6-6.23c0-2.37,0-4.79,0-7.16-.69,0-1.37,0-2.09,0v-1.18c.68,0,1.4.07,2.09.07,0-3.42,0-6.84,0-10.26h1.19c0,3.42-.07,6.84-.07,10.26,1.62,0,3.27-.07,4.93-.07Z"/><path class="cls-14" d="M797.57,505.92a5.2,5.2,0,0,1-4,2.84,6.83,6.83,0,0,1-1.73-.07,5.23,5.23,0,0,1-3.81-5.11h1.19a4.17,4.17,0,0,0,2.95,4.1,3.88,3.88,0,0,0,4.28-2.26,4.17,4.17,0,0,0-.93-4.9,8,8,0,0,0-2.42-1.19,7.2,7.2,0,0,1-2.66-1.11,4.19,4.19,0,0,1-1-5,4,4,0,0,1,3.24-2.31A2.74,2.74,0,0,1,794,491a4.21,4.21,0,0,1,3.13,4.1h-1.19a3.24,3.24,0,0,0-2.23-3.13,2.9,2.9,0,0,0-3.17,1.76,3.25,3.25,0,0,0,.65,3.64v0a7.58,7.58,0,0,0,2.3,1.12,7.2,7.2,0,0,1,2.88,1.22l0,0A5.26,5.26,0,0,1,797.57,505.92Z"/><path class="cls-14" d="M837.42,491v17.35h-1.23c0-1.37.08-2.73.08-4.07a8.7,8.7,0,0,1-7.56,4.54,9,9,0,0,1,0-18,8.57,8.57,0,0,1,7.56,4.54c0-1.48,0-2.92-.08-4.36Zm-1.23,8.82a7.8,7.8,0,0,0-7.48-8c-4.14,0-7.42,3.63-7.42,8a7.47,7.47,0,1,0,14.9,0Z"/><path class="cls-14" d="M876.33,499.8a8.84,8.84,0,0,1-8.67,9,8.56,8.56,0,0,1-7.52-4.61c0,3.67.07,7.31.07,11H859V491h1.19c0,1.44-.07,2.91-.07,4.35a8.55,8.55,0,0,1,7.52-4.57A8.82,8.82,0,0,1,876.33,499.8Zm-1.18,0c0-4.32-3.35-8-7.49-8s-7.45,3.67-7.45,8,3.35,8,7.45,8A7.78,7.78,0,0,0,875.15,499.8Z"/><path class="cls-14" d="M881.56,484.07v19.65H880.3V484.07Zm-1.23,19.65a5,5,0,0,0,5,5.08v-1.08a3.91,3.91,0,0,1-3.77-4Z"/><path class="cls-14" d="M905.6,491v17.35h-1.22c0-1.37.07-2.73.07-4.07a8.69,8.69,0,0,1-7.56,4.54,9,9,0,0,1,0-18,8.57,8.57,0,0,1,7.56,4.54c0-1.48,0-2.92-.07-4.36Zm-1.22,8.82a7.81,7.81,0,0,0-7.49-8c-4.14,0-7.41,3.63-7.41,8a7.69,7.69,0,0,0,7.41,8A7.78,7.78,0,0,0,904.38,499.8Z"/><path class="cls-14" d="M924.39,508.8h-1.26V498.65a6.38,6.38,0,1,0-12.74-.51c0,3.53,0,7.13.07,10.66H909.2V491h1.26c0,1.11-.07,2.27-.07,3.42a7.48,7.48,0,0,1,6.41-3.64,7.73,7.73,0,0,1,7.59,7.81Z"/><path class="cls-14" d="M936.67,498.72h7.38a7.38,7.38,0,0,0-14.58-.94,8.06,8.06,0,0,0,4.36,9.4,7.44,7.44,0,0,0,9.32-3.49l1.08.57a8.48,8.48,0,0,1-10.87,3.82,9.12,9.12,0,0,1-5.08-10.62,8.79,8.79,0,0,1,7.92-6.66,7.33,7.33,0,0,1,1.66.07,8.87,8.87,0,0,1,7.52,8.89h-8.71Z"/><path class="cls-14" d="M957.08,495.44c-1.65,0-3.27,0-4.93,0,0,2.37,0,4.79.07,7.16a5,5,0,0,0,4.86,5.19v1a6.15,6.15,0,0,1-6.05-6.23c0-2.37,0-4.79,0-7.16-.68,0-1.37,0-2.09,0v-1.18c.69,0,1.41.07,2.09.07,0-3.42,0-6.84,0-10.26h1.19c0,3.42-.07,6.84-.07,10.26,1.62,0,3.28-.07,4.93-.07Z"/><path class="cls-14" d="M986.78,495.44c-1.65,0-3.27,0-4.93,0,0,2.37,0,4.79.07,7.16a5,5,0,0,0,4.86,5.19v1a6.15,6.15,0,0,1-6-6.23c0-2.37,0-4.79,0-7.16-.68,0-1.37,0-2.09,0v-1.18c.69,0,1.41.07,2.09.07,0-3.42,0-6.84,0-10.26h1.19c0,3.42-.07,6.84-.07,10.26,1.62,0,3.28-.07,4.93-.07Z"/><path class="cls-14" d="M1007.66,499.8a8.65,8.65,0,1,1-8.64-9A8.82,8.82,0,0,1,1007.66,499.8Zm-16.13,0c0,4.28,3.39,8,7.49,8s7.49-3.71,7.49-8a7.51,7.51,0,1,0-15,0Z"/><path class="cls-14" d="M1037.36,495.44c-1.65,0-3.28,0-4.93,0,0,2.37,0,4.79.07,7.16a5,5,0,0,0,4.86,5.19v1a6.15,6.15,0,0,1-6-6.23c0-2.37,0-4.79,0-7.16-.68,0-1.37,0-2.09,0v-1.18c.69,0,1.41.07,2.09.07,0-3.42,0-6.84,0-10.26h1.19c0,3.42-.07,6.84-.07,10.26,1.62,0,3.28-.07,4.93-.07Z"/><path class="cls-14" d="M1056.62,508.8h-1.22V498.54a6.45,6.45,0,1,0-12.89,0c0,3.42,0,6.84.07,10.26h-1.26V483.6h1.26c0,3.57-.07,7.13-.07,10.69a7.62,7.62,0,0,1,6.48-3.7,7.79,7.79,0,0,1,7.63,7.91Z"/><path class="cls-14" d="M1068.9,498.72h7.38a7.38,7.38,0,0,0-14.58-.94,8.06,8.06,0,0,0,4.35,9.4,7.45,7.45,0,0,0,9.33-3.49l1.08.57a8.49,8.49,0,0,1-10.88,3.82,9.11,9.11,0,0,1-5.07-10.62,8.79,8.79,0,0,1,7.92-6.66,7.26,7.26,0,0,1,1.65.07,8.88,8.88,0,0,1,7.53,8.89h-8.71Z"/><path class="cls-14" d="M1108.75,505.92a5.2,5.2,0,0,1-4,2.84,6.83,6.83,0,0,1-1.73-.07,5.23,5.23,0,0,1-3.81-5.11h1.19a4.17,4.17,0,0,0,2.95,4.1,3.88,3.88,0,0,0,4.28-2.26,4.17,4.17,0,0,0-.93-4.9,8,8,0,0,0-2.42-1.19,7.2,7.2,0,0,1-2.66-1.11,4.19,4.19,0,0,1-1-5,4,4,0,0,1,3.24-2.31,2.74,2.74,0,0,1,1.33.08,4.21,4.21,0,0,1,3.13,4.1h-1.19a3.24,3.24,0,0,0-2.23-3.13,2.9,2.9,0,0,0-3.17,1.76,3.25,3.25,0,0,0,.65,3.64v0a7.58,7.58,0,0,0,2.3,1.12,7.2,7.2,0,0,1,2.88,1.22l0,0A5.26,5.26,0,0,1,1108.75,505.92Z"/><path class="cls-14" d="M1129.45,491.27v17.17h-1.23c0-1.26,0-2.48.07-3.74a8.73,8.73,0,0,1-2.91,2.95,7.76,7.76,0,0,1-8.17,0,8.48,8.48,0,0,1-4-7.17v-9.21h1.23v9.14a7.3,7.3,0,0,0,3.42,6.3,6.61,6.61,0,0,0,6.91,0,7.48,7.48,0,0,0,3.49-6.3h0c0-3.06-.07-6.12-.07-9.14Z"/><path class="cls-14" d="M1148.24,508.8H1147V498.65a6.38,6.38,0,1,0-12.74-.51c0,3.53,0,7.13.07,10.66h-1.26V491h1.26c0,1.11-.07,2.27-.07,3.42a7.46,7.46,0,0,1,6.4-3.64,7.74,7.74,0,0,1,7.6,7.81Z"/><path class="cls-14" d="M1179.38,505.92a5.18,5.18,0,0,1-4,2.84,6.74,6.74,0,0,1-1.72-.07,5.23,5.23,0,0,1-3.82-5.11H1171a4.17,4.17,0,0,0,3,4.1,3.88,3.88,0,0,0,4.28-2.26,4.17,4.17,0,0,0-.93-4.9,8,8,0,0,0-2.41-1.19,7.18,7.18,0,0,1-2.67-1.11,4.2,4.2,0,0,1-1-5,4.06,4.06,0,0,1,3.24-2.31,2.74,2.74,0,0,1,1.33.08,4.2,4.2,0,0,1,3.13,4.1h-1.19a3.24,3.24,0,0,0-2.23-3.13,2.9,2.9,0,0,0-3.17,1.76,3.27,3.27,0,0,0,.65,3.64v0a7.53,7.53,0,0,0,2.31,1.12,7.26,7.26,0,0,1,2.88,1.22l0,0A5.26,5.26,0,0,1,1179.38,505.92Z"/><path class="cls-14" d="M1205.62,491.05V503a5.88,5.88,0,0,1-2.77,5,5.63,5.63,0,0,1-5.72,0,2.24,2.24,0,1,0-4.47,0,5.56,5.56,0,0,1-5.68,0,5.86,5.86,0,0,1-2.77-5V491.05h1.22v11.81a4.92,4.92,0,0,0,2.19,4.21,4.44,4.44,0,0,0,4.43,0,4.87,4.87,0,0,0,2.23-4.21V491.05h1.26v11.81a4.94,4.94,0,0,0,2.24,4.21,4.42,4.42,0,0,0,4.42,0,4.91,4.91,0,0,0,2.2-4.21V491.05Z"/><path class="cls-14" d="M1218.26,498.72h7.38a7.38,7.38,0,0,0-14.58-.94,8.06,8.06,0,0,0,4.36,9.4,7.44,7.44,0,0,0,9.32-3.49l1.08.57a8.48,8.48,0,0,1-10.87,3.82,9.12,9.12,0,0,1-5.08-10.62,8.79,8.79,0,0,1,7.92-6.66,7.33,7.33,0,0,1,1.66.07,8.87,8.87,0,0,1,7.52,8.89h-8.71Z"/><path class="cls-14" d="M1239.25,498.72h7.38a7.38,7.38,0,0,0-14.58-.94,8.06,8.06,0,0,0,4.35,9.4,7.45,7.45,0,0,0,9.33-3.49l1.08.57a8.48,8.48,0,0,1-10.87,3.82,9.11,9.11,0,0,1-5.08-10.62,8.79,8.79,0,0,1,7.92-6.66,7.26,7.26,0,0,1,1.65.07,8.88,8.88,0,0,1,7.53,8.89h-8.71Z"/><path class="cls-14" d="M1268.87,499.8a8.84,8.84,0,0,1-8.67,9,8.56,8.56,0,0,1-7.52-4.61c0,3.67.07,7.31.07,11h-1.19V491h1.19c0,1.44-.07,2.91-.07,4.35a8.55,8.55,0,0,1,7.52-4.57A8.82,8.82,0,0,1,1268.87,499.8Zm-1.18,0c0-4.32-3.35-8-7.49-8s-7.45,3.67-7.45,8,3.34,8,7.45,8A7.78,7.78,0,0,0,1267.69,499.8Z"/><path class="cls-14" d="M1282,505.92a5.17,5.17,0,0,1-4,2.84,6.82,6.82,0,0,1-1.73-.07,5.23,5.23,0,0,1-3.81-5.11h1.18a4.18,4.18,0,0,0,3,4.1,3.88,3.88,0,0,0,4.28-2.26,4.17,4.17,0,0,0-.94-4.9,7.86,7.86,0,0,0-2.41-1.19,7.13,7.13,0,0,1-2.66-1.11,4.21,4.21,0,0,1-1.05-5,4.06,4.06,0,0,1,3.24-2.31,2.78,2.78,0,0,1,1.34.08,4.21,4.21,0,0,1,3.13,4.1h-1.19a3.25,3.25,0,0,0-2.23-3.13,2.9,2.9,0,0,0-3.17,1.76,3.24,3.24,0,0,0,.65,3.64v0a7.58,7.58,0,0,0,2.3,1.12,7.2,7.2,0,0,1,2.88,1.22l0,0A5.26,5.26,0,0,1,1282,505.92Z"/><path class="cls-14" d="M1321.76,499.8a8.65,8.65,0,1,1-8.64-9A8.82,8.82,0,0,1,1321.76,499.8Zm-16.13,0c0,4.28,3.38,8,7.49,8s7.49-3.71,7.49-8a7.51,7.51,0,1,0-15,0Z"/><path class="cls-14" d="M1341.59,491.27v17.17h-1.22c0-1.26,0-2.48.07-3.74a8.92,8.92,0,0,1-2.91,2.95,7.78,7.78,0,0,1-8.18,0,8.49,8.49,0,0,1-4-7.17v-9.21h1.22v9.14a7.32,7.32,0,0,0,3.42,6.3,6.61,6.61,0,0,0,6.91,0,7.46,7.46,0,0,0,3.5-6.3h0c0-3.06-.07-6.12-.07-9.14Z"/><path class="cls-14" d="M1353.29,495.44c-1.65,0-3.27,0-4.93,0,0,2.37,0,4.79.07,7.16a5,5,0,0,0,4.86,5.19v1a6.15,6.15,0,0,1-6-6.23c0-2.37,0-4.79,0-7.16-.68,0-1.36,0-2.08,0v-1.18c.68,0,1.4.07,2.08.07,0-3.42,0-6.84,0-10.26h1.18c0,3.42-.07,6.84-.07,10.26,1.62,0,3.28-.07,4.93-.07Z"/><path class="cls-14" d="M471.84,541.92h7.38a7.37,7.37,0,0,0-14.57-.94,8.06,8.06,0,0,0,4.35,9.4,7.43,7.43,0,0,0,9.32-3.49l1.08.57a8.48,8.48,0,0,1-10.87,3.82,9.11,9.11,0,0,1-5.07-10.62,8.77,8.77,0,0,1,7.92-6.66,7.26,7.26,0,0,1,1.65.07,8.88,8.88,0,0,1,7.53,8.89h-8.72Z"/><path class="cls-14" d="M501.44,534.22v24.22h-1.16c0-3.71.07-7.41.07-11.08A8.53,8.53,0,0,1,492.8,552a9,9,0,0,1,0-18,8.6,8.6,0,0,1,7.55,4.68c0-1.48,0-3-.07-4.5Zm-1.16,8.85c0-4.35-3.38-8.06-7.48-8.06s-7.49,3.71-7.49,8.06,3.38,8,7.49,8S500.28,547.36,500.28,543.07Z"/><path class="cls-14" d="M521.27,534.47v17.17h-1.22c0-1.26,0-2.48.07-3.74a8.86,8.86,0,0,1-2.92,3,7.8,7.8,0,0,1-8.17,0,8.46,8.46,0,0,1-4-7.17v-9.21h1.22v9.14a7.32,7.32,0,0,0,3.42,6.3,6.61,6.61,0,0,0,6.91,0,7.45,7.45,0,0,0,3.49-6.3h0c0-3.06-.07-6.12-.07-9.14Z"/><path class="cls-14" d="M542.26,534.18v17.35H541c0-1.37.08-2.74.08-4.07a8.7,8.7,0,0,1-7.56,4.54,9,9,0,0,1,0-18,8.57,8.57,0,0,1,7.56,4.54c0-1.48,0-2.92-.08-4.36ZM541,543a7.8,7.8,0,0,0-7.48-8c-4.14,0-7.42,3.63-7.42,8a7.47,7.47,0,1,0,14.9,0Z"/><path class="cls-14" d="M547.84,527.27v19.65h-1.26V527.27Zm-1.22,19.65a5,5,0,0,0,5,5.08v-1.08a3.91,3.91,0,0,1-3.78-4Z"/><path class="cls-14" d="M591,534.18v17.35h-1.23c0-1.37.07-2.74.07-4.07a8.69,8.69,0,0,1-7.56,4.54,9,9,0,0,1,0-18,8.56,8.56,0,0,1,7.56,4.54c0-1.48,0-2.92-.07-4.36ZM589.74,543a7.8,7.8,0,0,0-7.49-8c-4.13,0-7.41,3.63-7.41,8a7.7,7.7,0,0,0,7.41,8A7.78,7.78,0,0,0,589.74,543Z"/><path class="cls-14" d="M603.49,534v1c-4.13,0-7.59,3.64-7.73,8,0,3,0,6,.07,9h-1.26V534.22h1.26c0,1.47-.07,2.95-.07,4.42A8.86,8.86,0,0,1,603.49,534Z"/><path class="cls-14" d="M612.89,541.92h7.38a7.38,7.38,0,0,0-14.58-.94,8.07,8.07,0,0,0,4.36,9.4,7.44,7.44,0,0,0,9.32-3.49l1.08.57a8.48,8.48,0,0,1-10.87,3.82,9.12,9.12,0,0,1-5.08-10.62,8.78,8.78,0,0,1,7.92-6.66,7.33,7.33,0,0,1,1.66.07A8.87,8.87,0,0,1,621.6,543h-8.71Z"/><path class="cls-14" d="M642.59,534.18v17.35h-1.22c0-1.37.07-2.74.07-4.07a8.69,8.69,0,0,1-7.56,4.54,9,9,0,0,1,0-18,8.57,8.57,0,0,1,7.56,4.54c0-1.48,0-2.92-.07-4.36ZM641.37,543a7.81,7.81,0,0,0-7.49-8c-4.14,0-7.42,3.63-7.42,8a7.7,7.7,0,0,0,7.42,8A7.78,7.78,0,0,0,641.37,543Z"/><path class="cls-14" d="M656.09,549.12a5.18,5.18,0,0,1-4,2.84,6.74,6.74,0,0,1-1.72-.07,5.24,5.24,0,0,1-3.82-5.11h1.19a4.17,4.17,0,0,0,3,4.1,3.89,3.89,0,0,0,4.28-2.26,4.17,4.17,0,0,0-.93-4.9,8,8,0,0,0-2.41-1.19,7.18,7.18,0,0,1-2.67-1.11,4.2,4.2,0,0,1-1-5,4.06,4.06,0,0,1,3.24-2.31,2.74,2.74,0,0,1,1.33.08,4.2,4.2,0,0,1,3.13,4.1h-1.19a3.23,3.23,0,0,0-2.23-3.13,2.89,2.89,0,0,0-3.17,1.76,3.27,3.27,0,0,0,.65,3.64v0A7.53,7.53,0,0,0,652,541.6a7.26,7.26,0,0,1,2.88,1.22l0,0A5.26,5.26,0,0,1,656.09,549.12Z"/><path class="cls-14" d="M680.61,531.34a1.3,1.3,0,0,1,1.33,1.29,1.31,1.31,0,0,1-1.33,1.34,1.34,1.34,0,0,1-1.34-1.34A1.32,1.32,0,0,1,680.61,531.34Zm-.62,4.75V552h1.26V536.09Z"/><path class="cls-14" d="M701.45,552h-1.26V541.85a6.38,6.38,0,1,0-12.74-.51c0,3.53,0,7.13.07,10.66h-1.26V534.22h1.26c0,1.11-.07,2.26-.07,3.42a7.46,7.46,0,0,1,6.4-3.64,7.74,7.74,0,0,1,7.6,7.81Z"/><path class="cls-14" d="M731.72,541.92h7.38a7.37,7.37,0,0,0-14.57-.94,8.06,8.06,0,0,0,4.35,9.4,7.43,7.43,0,0,0,9.32-3.49l1.08.57a8.48,8.48,0,0,1-10.87,3.82,9.11,9.11,0,0,1-5.07-10.62,8.78,8.78,0,0,1,7.92-6.66,7.26,7.26,0,0,1,1.65.07,8.88,8.88,0,0,1,7.53,8.89h-8.72Z"/><path class="cls-14" d="M761.32,534.22v24.22h-1.16c0-3.71.08-7.41.08-11.08a8.56,8.56,0,0,1-7.56,4.64,9,9,0,0,1,0-18,8.63,8.63,0,0,1,7.56,4.68c0-1.48,0-3-.08-4.5Zm-1.16,8.85c0-4.35-3.38-8.06-7.48-8.06s-7.49,3.71-7.49,8.06,3.38,8,7.49,8S760.16,547.36,760.16,543.07Z"/><path class="cls-14" d="M781.15,534.47v17.17h-1.22c0-1.26,0-2.48.07-3.74a8.86,8.86,0,0,1-2.92,3,7.8,7.8,0,0,1-8.17,0,8.46,8.46,0,0,1-4-7.17v-9.21h1.22v9.14a7.32,7.32,0,0,0,3.42,6.3,6.61,6.61,0,0,0,6.91,0,7.45,7.45,0,0,0,3.49-6.3h0c0-3.06-.07-6.12-.07-9.14Z"/><path class="cls-14" d="M802.14,534.18v17.35h-1.22c0-1.37.07-2.74.07-4.07a8.69,8.69,0,0,1-7.56,4.54,9,9,0,0,1,0-18,8.57,8.57,0,0,1,7.56,4.54c0-1.48,0-2.92-.07-4.36ZM800.92,543a7.81,7.81,0,0,0-7.49-8c-4.14,0-7.42,3.63-7.42,8a7.7,7.7,0,0,0,7.42,8A7.78,7.78,0,0,0,800.92,543Z"/><path class="cls-14" d="M807.72,527.27v19.65h-1.26V527.27Zm-1.22,19.65a5,5,0,0,0,5,5.08v-1.08a3.91,3.91,0,0,1-3.78-4Z"/><path class="cls-14" d="M841.56,538.64c-1.66,0-3.28,0-4.93,0,0,2.37,0,4.79.07,7.16a5,5,0,0,0,4.86,5.19v1a6.15,6.15,0,0,1-6-6.23c0-2.37,0-4.79,0-7.16-.69,0-1.37,0-2.09,0v-1.18c.68,0,1.4.07,2.09.07,0-3.42,0-6.84,0-10.26h1.19c0,3.42-.07,6.84-.07,10.26,1.62,0,3.27-.07,4.93-.07Z"/><path class="cls-14" d="M847.21,531.34a1.29,1.29,0,0,1,1.33,1.29,1.31,1.31,0,0,1-1.33,1.34,1.33,1.33,0,0,1-1.33-1.34A1.31,1.31,0,0,1,847.21,531.34Zm-.61,4.75V552h1.26V536.09Z"/><path class="cls-14" d="M882,552h-1.19V541.85c0-3.67-2.92-6.81-6.34-6.81a6.66,6.66,0,0,0-6.37,6.81V552h-1.26V541.85a6.38,6.38,0,1,0-12.74,0c0,3.38.07,6.77.07,10.15h-1.26V534.25h1.26c0,1.12-.07,2.27-.07,3.42a7.45,7.45,0,0,1,13.36,1.08,7.66,7.66,0,0,1,7-4.75,7.75,7.75,0,0,1,7.53,7.78Z"/><path class="cls-14" d="M894.23,541.92h7.37A7.37,7.37,0,0,0,887,541a8.06,8.06,0,0,0,4.35,9.4,7.45,7.45,0,0,0,9.33-3.49l1.08.57a8.49,8.49,0,0,1-10.88,3.82,9.11,9.11,0,0,1-5.07-10.62,8.78,8.78,0,0,1,7.92-6.66,7.26,7.26,0,0,1,1.65.07,8.88,8.88,0,0,1,7.53,8.89h-8.71Z"/><path class="cls-14" d="M916.08,549.12a5.2,5.2,0,0,1-4,2.84,6.83,6.83,0,0,1-1.73-.07,5.24,5.24,0,0,1-3.81-5.11h1.19a4.17,4.17,0,0,0,2.95,4.1,3.89,3.89,0,0,0,4.28-2.26,4.17,4.17,0,0,0-.93-4.9,8,8,0,0,0-2.42-1.19,7.2,7.2,0,0,1-2.66-1.11,4.2,4.2,0,0,1-1-5,4,4,0,0,1,3.24-2.31,2.74,2.74,0,0,1,1.33.08,4.21,4.21,0,0,1,3.13,4.1h-1.19a3.23,3.23,0,0,0-2.23-3.13,2.89,2.89,0,0,0-3.17,1.76,3.26,3.26,0,0,0,.65,3.64v0a7.58,7.58,0,0,0,2.3,1.12,7.2,7.2,0,0,1,2.88,1.22l0,0A5.26,5.26,0,0,1,916.08,549.12Z"/><path class="cls-14" d="M920.79,549.48a1.26,1.26,0,0,1,0,2.52,1.26,1.26,0,1,1,0-2.52Z"/><path class="cls-14" d="M475.12,641.28a6.82,6.82,0,0,1-5.62,2.09,7.16,7.16,0,0,1-2-.51,7.33,7.33,0,0,1-4.32-6.69h1.26a6.22,6.22,0,0,0,3.56,5.68,5.55,5.55,0,0,0,6.3-1.33,6.47,6.47,0,0,0,1.23-6.69,5.82,5.82,0,0,0-5.33-3.75V629a3.61,3.61,0,0,0,3.2-2.37,3.93,3.93,0,0,0-.79-4.07,3.28,3.28,0,0,0-3.71-.76,3.78,3.78,0,0,0-2.19,3.46h-1.19a4.78,4.78,0,0,1,2.88-4.46,3.49,3.49,0,0,1,1.37-.36,4.47,4.47,0,0,1,3.74,1.4,4.83,4.83,0,0,1,1,5.26,4.39,4.39,0,0,1-1.95,2.3,6.81,6.81,0,0,1,4.07,4A7.27,7.27,0,0,1,475.12,641.28Z"/><path class="cls-14" d="M481.06,635.88a1.26,1.26,0,1,1,0,2.52,1.26,1.26,0,1,1,0-2.52Z"/><path class="cls-14" d="M512,625c-1.66,0-3.28,0-4.93,0,0,2.37,0,4.79.07,7.16a5,5,0,0,0,4.86,5.18v1a6.15,6.15,0,0,1-6-6.23c0-2.37,0-4.79,0-7.16-.69,0-1.37,0-2.09,0v-1.18c.68,0,1.4.07,2.09.07,0-3.42,0-6.84,0-10.26h1.19c0,3.42-.07,6.84-.07,10.26,1.62,0,3.27-.07,4.93-.07Z"/><path class="cls-14" d="M531.28,638.4h-1.23V628.14a6.45,6.45,0,1,0-12.88,0c0,3.42,0,6.84.07,10.26H516V613.2h1.26c0,3.57-.07,7.13-.07,10.69a7.63,7.63,0,0,1,6.48-3.71,7.8,7.8,0,0,1,7.63,7.92Z"/><path class="cls-14" d="M543.56,628.32h7.37a7.37,7.37,0,0,0-14.57-.94,8.06,8.06,0,0,0,4.35,9.4,7.43,7.43,0,0,0,9.32-3.49l1.08.57a8.48,8.48,0,0,1-10.87,3.82,9.11,9.11,0,0,1-5.07-10.62,8.78,8.78,0,0,1,7.92-6.66,6.27,6.27,0,0,1,1.65.07,8.88,8.88,0,0,1,7.53,8.89h-8.71Z"/><path class="cls-14" d="M583.41,635.52a5.2,5.2,0,0,1-4,2.84,6.83,6.83,0,0,1-1.73-.07,5.24,5.24,0,0,1-3.81-5.11h1.19a4.17,4.17,0,0,0,3,4.1,3.9,3.9,0,0,0,4.28-2.27,4.14,4.14,0,0,0-.94-4.89,7.86,7.86,0,0,0-2.41-1.19,7.2,7.2,0,0,1-2.66-1.11,4.19,4.19,0,0,1-1-5,4,4,0,0,1,3.24-2.31,2.87,2.87,0,0,1,1.33.07,4.22,4.22,0,0,1,3.13,4.11h-1.19a3.23,3.23,0,0,0-2.23-3.13,2.89,2.89,0,0,0-3.17,1.76,3.26,3.26,0,0,0,.65,3.64v0a7.58,7.58,0,0,0,2.3,1.12,7.2,7.2,0,0,1,2.88,1.22l0,0A5.26,5.26,0,0,1,583.41,635.52Z"/><path class="cls-14" d="M605.15,620.62v24.22H604c0-3.71.07-7.41.07-11.09a8.55,8.55,0,0,1-7.56,4.65,9,9,0,0,1,0-18,8.63,8.63,0,0,1,7.56,4.68c0-1.48,0-3-.07-4.5ZM604,629.47c0-4.35-3.39-8.06-7.49-8.06s-7.49,3.71-7.49,8.06,3.39,8,7.49,8S604,633.75,604,629.47Z"/><path class="cls-14" d="M625,620.87V638h-1.23c0-1.26,0-2.49.07-3.75a8.77,8.77,0,0,1-2.91,3,7.8,7.8,0,0,1-8.17,0,8.49,8.49,0,0,1-4-7.17v-9.21H610V630a7.3,7.3,0,0,0,3.42,6.3,6.61,6.61,0,0,0,6.91,0,7.48,7.48,0,0,0,3.49-6.3h0c0-3.06-.07-6.12-.07-9.14Z"/><path class="cls-14" d="M646,620.58v17.35h-1.22c0-1.37.07-2.73.07-4.07a8.69,8.69,0,0,1-7.56,4.54,9,9,0,0,1,0-18,8.56,8.56,0,0,1,7.56,4.54c0-1.48,0-2.92-.07-4.36Zm-1.22,8.82a7.8,7.8,0,0,0-7.49-8c-4.14,0-7.41,3.63-7.41,8a7.69,7.69,0,0,0,7.41,8A7.77,7.77,0,0,0,644.75,629.4Z"/><path class="cls-14" d="M658.5,620.4v1c-4.14,0-7.59,3.64-7.74,8,0,3,0,6,.07,9h-1.25V620.62h1.25c0,1.47-.07,3-.07,4.42A8.89,8.89,0,0,1,658.5,620.4Z"/><path class="cls-14" d="M667.9,628.32h7.38a7.38,7.38,0,0,0-14.58-.94,8.06,8.06,0,0,0,4.35,9.4,7.45,7.45,0,0,0,9.33-3.49l1.08.57a8.48,8.48,0,0,1-10.87,3.82,9.11,9.11,0,0,1-5.08-10.62,8.78,8.78,0,0,1,7.92-6.66,6.36,6.36,0,0,1,1.66.07,8.88,8.88,0,0,1,7.52,8.89H667.9Z"/><path class="cls-14" d="M715.49,629.4a8.65,8.65,0,1,1-8.64-9A8.82,8.82,0,0,1,715.49,629.4Zm-16.13,0c0,4.28,3.39,8,7.49,8s7.49-3.71,7.49-8a7.51,7.51,0,1,0-15,0Z"/><path class="cls-14" d="M723.12,628c1.69,0,3.38,0,5.08,0v1.26c-1.7,0-3.39,0-5.08,0,0,3.06,0,6.15,0,9.25h-1.23c0-3.1,0-6.19.08-9.25-.76,0-1.48,0-2.2,0v-1.26c.72,0,1.44,0,2.2,0,0-2.59,0-5.18-.08-7.78V620a6.4,6.4,0,0,1,6.27-6.33v1.08a5.24,5.24,0,0,0-5,5.43C723.12,622.78,723.12,625.37,723.12,628Z"/><path class="cls-14" d="M758.62,625c-1.66,0-3.28,0-4.93,0,0,2.37,0,4.79.07,7.16a5,5,0,0,0,4.86,5.18v1a6.15,6.15,0,0,1-6-6.23c0-2.37,0-4.79,0-7.16-.69,0-1.37,0-2.09,0v-1.18c.68,0,1.4.07,2.09.07,0-3.42,0-6.84,0-10.26h1.19c0,3.42-.07,6.84-.07,10.26,1.62,0,3.27-.07,4.93-.07Z"/><path class="cls-14" d="M777.88,638.4h-1.23V628.14a6.45,6.45,0,1,0-12.88,0c0,3.42,0,6.84.07,10.26h-1.26V613.2h1.26c0,3.57-.07,7.13-.07,10.69a7.63,7.63,0,0,1,6.47-3.71,7.81,7.81,0,0,1,7.64,7.92Z"/><path class="cls-14" d="M790.15,628.32h7.38a7.38,7.38,0,0,0-14.58-.94,8.07,8.07,0,0,0,4.36,9.4,7.44,7.44,0,0,0,9.32-3.49l1.08.57a8.48,8.48,0,0,1-10.87,3.82,9.1,9.1,0,0,1-5.07-10.62,8.75,8.75,0,0,1,7.91-6.66,6.33,6.33,0,0,1,1.66.07,8.87,8.87,0,0,1,7.52,8.89h-8.71Z"/><path class="cls-14" d="M837.78,629.4a8.85,8.85,0,0,1-8.68,9,8.58,8.58,0,0,1-7.52-4.61c0,3.67.07,7.31.07,11h-1.19V620.62h1.19c0,1.44-.07,2.91-.07,4.35a8.56,8.56,0,0,1,7.52-4.57A8.82,8.82,0,0,1,837.78,629.4Zm-1.19,0c0-4.32-3.35-8-7.49-8s-7.45,3.67-7.45,8a7.48,7.48,0,1,0,14.94,0Z"/><path class="cls-14" d="M850.06,628.32h7.37a7.37,7.37,0,0,0-14.57-.94,8.06,8.06,0,0,0,4.35,9.4,7.43,7.43,0,0,0,9.32-3.49l1.08.57a8.48,8.48,0,0,1-10.87,3.82,9.11,9.11,0,0,1-5.07-10.62,8.78,8.78,0,0,1,7.92-6.66,6.27,6.27,0,0,1,1.65.07,8.88,8.88,0,0,1,7.53,8.89h-8.71Z"/><path class="cls-14" d="M871.29,620.4v1c-4.13,0-7.59,3.64-7.73,8,0,3,0,6,.07,9h-1.26V620.62h1.26c0,1.47-.07,3-.07,4.42A8.86,8.86,0,0,1,871.29,620.4Z"/><path class="cls-14" d="M875.51,617.74a1.31,1.31,0,1,1,0,2.62,1.31,1.31,0,1,1,0-2.62Zm-.61,4.75V638.4h1.26V622.49Z"/><path class="cls-14" d="M898.44,629.4a8.65,8.65,0,1,1-8.64-9A8.82,8.82,0,0,1,898.44,629.4Zm-16.13,0c0,4.28,3.38,8,7.49,8s7.49-3.71,7.49-8a7.51,7.51,0,1,0-15,0Z"/><path class="cls-14" d="M919.39,613.67v24.26H918.2c.07-1.4.11-2.81.11-4.21a8.61,8.61,0,0,1-7.6,4.68,9,9,0,0,1,0-18,8.6,8.6,0,0,1,7.64,4.68c-.08-3.82-.15-7.59-.15-11.41ZM918.2,629.4a7.78,7.78,0,0,0-7.49-8c-4.1,0-7.45,3.64-7.45,8a7.48,7.48,0,1,0,14.94,0Z"/><path class="cls-14" d="M959,629.4a8.65,8.65,0,1,1-8.64-9A8.82,8.82,0,0,1,959,629.4Zm-16.13,0c0,4.28,3.39,8,7.49,8s7.49-3.71,7.49-8a7.51,7.51,0,1,0-15,0Z"/><path class="cls-14" d="M966.62,628c1.69,0,3.39,0,5.08,0v1.26l-5.08,0c0,3.06,0,6.15,0,9.25h-1.23c0-3.1,0-6.19.08-9.25-.76,0-1.48,0-2.2,0v-1.26c.72,0,1.44,0,2.2,0,0-2.59,0-5.18-.08-7.78V620a6.4,6.4,0,0,1,6.27-6.33v1.08a5.24,5.24,0,0,0-5,5.43C966.62,622.78,966.62,625.37,966.62,628Z"/><path class="cls-14" d="M1011.4,620.58v17.35h-1.22c0-1.37.07-2.73.07-4.07a8.69,8.69,0,0,1-7.56,4.54,9,9,0,0,1,0-18,8.56,8.56,0,0,1,7.56,4.54c0-1.48,0-2.92-.07-4.36Zm-1.22,8.82a7.8,7.8,0,0,0-7.49-8c-4.14,0-7.41,3.63-7.41,8a7.69,7.69,0,0,0,7.41,8A7.77,7.77,0,0,0,1010.18,629.4Z"/><path class="cls-14" d="M1030.2,638.4h-1.26V628.25a6.38,6.38,0,1,0-12.75-.51c0,3.53,0,7.13.08,10.66H1015V620.62h1.26c0,1.11-.08,2.26-.08,3.42a7.49,7.49,0,0,1,6.41-3.64,7.74,7.74,0,0,1,7.6,7.81Z"/><path class="cls-14" d="M1050,620.69v17.64a6.23,6.23,0,0,1-5,6.19,17.88,17.88,0,0,1-2.7.14,19.73,19.73,0,0,1-2.84-.14,6.27,6.27,0,0,1-4.14-3.06l1-.58a4.93,4.93,0,0,0,3.42,2.41,15.37,15.37,0,0,0,2.59.22,13,13,0,0,0,2.45-.22,4.93,4.93,0,0,0,4.1-5c0-1.77.08-3.53.08-5.29a8.6,8.6,0,0,1-3,3.05,7.69,7.69,0,0,1-8.06,0,8.36,8.36,0,0,1-4-7.23v-8.17H1035v8.17a7.42,7.42,0,0,0,3.46,6.37,6.61,6.61,0,0,0,6.91,0,7.94,7.94,0,0,0,3.53-5.65c0-3,0-5.94-.08-8.89Z"/><path class="cls-14" d="M1089,629.4a8.85,8.85,0,0,1-8.68,9,8.56,8.56,0,0,1-7.52-4.61c0,3.67.07,7.31.07,11h-1.19V620.62h1.19c0,1.44-.07,2.91-.07,4.35a8.55,8.55,0,0,1,7.52-4.57A8.83,8.83,0,0,1,1089,629.4Zm-1.19,0c0-4.32-3.35-8-7.49-8s-7.45,3.67-7.45,8a7.48,7.48,0,1,0,14.94,0Z"/><path class="cls-14" d="M1094.17,613.67v19.65h-1.26V613.67Zm-1.23,19.65a5,5,0,0,0,5,5.08v-1.08a3.91,3.91,0,0,1-3.78-4Z"/><path class="cls-14" d="M1118.21,620.58v17.35H1117c0-1.37.07-2.73.07-4.07a8.69,8.69,0,0,1-7.56,4.54,9,9,0,0,1,0-18,8.56,8.56,0,0,1,7.56,4.54c0-1.48,0-2.92-.07-4.36ZM1117,629.4a7.8,7.8,0,0,0-7.49-8c-4.14,0-7.41,3.63-7.41,8a7.69,7.69,0,0,0,7.41,8A7.77,7.77,0,0,0,1117,629.4Z"/><path class="cls-14" d="M1137,638.4h-1.26V628.25a6.38,6.38,0,1,0-12.75-.51c0,3.53,0,7.13.08,10.66h-1.26V620.62h1.26c0,1.11-.08,2.26-.08,3.42a7.49,7.49,0,0,1,6.41-3.64,7.74,7.74,0,0,1,7.6,7.81Z"/><path class="cls-14" d="M1149.28,628.32h7.38a7.38,7.38,0,0,0-14.58-.94,8.08,8.08,0,0,0,4.36,9.4,7.43,7.43,0,0,0,9.32-3.49l1.08.57a8.48,8.48,0,0,1-10.87,3.82,9.11,9.11,0,0,1-5.07-10.62,8.76,8.76,0,0,1,7.92-6.66,6.27,6.27,0,0,1,1.65.07,8.88,8.88,0,0,1,7.53,8.89h-8.72Z"/><path class="cls-14" d="M1169.69,625c-1.65,0-3.27,0-4.93,0,0,2.37,0,4.79.07,7.16a5,5,0,0,0,4.86,5.18v1a6.15,6.15,0,0,1-6-6.23c0-2.37,0-4.79,0-7.16-.68,0-1.36,0-2.08,0v-1.18c.68,0,1.4.07,2.08.07,0-3.42,0-6.84,0-10.26h1.18c0,3.42-.07,6.84-.07,10.26,1.62,0,3.28-.07,4.93-.07Z"/><path class="cls-14" d="M1193.35,617.74a1.31,1.31,0,1,1,0,2.62,1.31,1.31,0,1,1,0-2.62Zm-.61,4.75V638.4H1194V622.49Z"/><path class="cls-14" d="M1208.54,635.52a5.18,5.18,0,0,1-4,2.84,6.74,6.74,0,0,1-1.72-.07,5.24,5.24,0,0,1-3.82-5.11h1.19a4.17,4.17,0,0,0,3,4.1,3.9,3.9,0,0,0,4.28-2.27,4.15,4.15,0,0,0-.93-4.89,8,8,0,0,0-2.41-1.19,7.18,7.18,0,0,1-2.67-1.11,4.2,4.2,0,0,1-1-5,4.06,4.06,0,0,1,3.24-2.31,2.86,2.86,0,0,1,1.33.07,4.21,4.21,0,0,1,3.13,4.11h-1.19a3.23,3.23,0,0,0-2.23-3.13,2.89,2.89,0,0,0-3.17,1.76,3.27,3.27,0,0,0,.65,3.64v0a7.53,7.53,0,0,0,2.31,1.12,7.16,7.16,0,0,1,2.87,1.22l0,0A5.26,5.26,0,0,1,1208.54,635.52Z"/><path class="cls-14" d="M1248.32,629.4a8.85,8.85,0,0,1-8.68,9,8.58,8.58,0,0,1-7.52-4.61c0,3.67.07,7.31.07,11H1231V620.62h1.19c0,1.44-.07,2.91-.07,4.35a8.56,8.56,0,0,1,7.52-4.57A8.82,8.82,0,0,1,1248.32,629.4Zm-1.19,0c0-4.32-3.35-8-7.49-8s-7.45,3.67-7.45,8a7.48,7.48,0,1,0,14.94,0Z"/><path class="cls-14" d="M1260.85,620.4v1c-4.14,0-7.6,3.64-7.74,8,0,3,0,6,.07,9h-1.26V620.62h1.26c0,1.47-.07,3-.07,4.42A8.89,8.89,0,0,1,1260.85,620.4Z"/><path class="cls-14" d="M1281,629.4a8.64,8.64,0,1,1-8.63-9A8.81,8.81,0,0,1,1281,629.4Zm-16.12,0c0,4.28,3.38,8,7.49,8s7.48-3.71,7.48-8a7.5,7.5,0,1,0-15,0Z"/><path class="cls-14" d="M1301.92,629.4a8.84,8.84,0,0,1-8.67,9,8.59,8.59,0,0,1-7.53-4.61c0,3.67.07,7.31.07,11h-1.18V620.62h1.18c0,1.44-.07,2.91-.07,4.35a8.57,8.57,0,0,1,7.53-4.57A8.82,8.82,0,0,1,1301.92,629.4Zm-1.19,0c0-4.32-3.34-8-7.48-8s-7.46,3.67-7.46,8a7.48,7.48,0,1,0,14.94,0Z"/><path class="cls-14" d="M1322.8,629.4a8.65,8.65,0,1,1-8.64-9A8.81,8.81,0,0,1,1322.8,629.4Zm-16.13,0c0,4.28,3.39,8,7.49,8s7.49-3.71,7.49-8a7.51,7.51,0,1,0-15,0Z"/><path class="cls-14" d="M1335.33,620.4v1c-4.14,0-7.59,3.64-7.74,8,0,3,0,6,.07,9h-1.26V620.62h1.26c0,1.47-.07,3-.07,4.42A8.89,8.89,0,0,1,1335.33,620.4Z"/><path class="cls-14" d="M1346.31,625c-1.66,0-3.28,0-4.93,0,0,2.37,0,4.79.07,7.16a5,5,0,0,0,4.86,5.18v1a6.15,6.15,0,0,1-6-6.23c0-2.37,0-4.79,0-7.16-.69,0-1.37,0-2.09,0v-1.18c.68,0,1.4.07,2.09.07,0-3.42,0-6.84,0-10.26h1.19c0,3.42-.07,6.84-.07,10.26,1.62,0,3.27-.07,4.93-.07Z"/><path class="cls-14" d="M1352,617.74a1.31,1.31,0,1,1,0,2.62,1.31,1.31,0,1,1,0-2.62Zm-.61,4.75V638.4h1.26V622.49Z"/><path class="cls-14" d="M1374.89,629.4a8.64,8.64,0,1,1-8.64-9A8.81,8.81,0,0,1,1374.89,629.4Zm-16.12,0c0,4.28,3.38,8,7.48,8s7.49-3.71,7.49-8a7.5,7.5,0,1,0-15,0Z"/><path class="cls-14" d="M1393.69,638.4h-1.26V628.25a6.38,6.38,0,1,0-12.75-.51c0,3.53,0,7.13.07,10.66h-1.25V620.62h1.25c0,1.11-.07,2.26-.07,3.42a7.48,7.48,0,0,1,6.41-3.64,7.74,7.74,0,0,1,7.6,7.81Z"/><path class="cls-14" d="M1414.67,620.58v17.35h-1.22c0-1.37.07-2.73.07-4.07a8.69,8.69,0,0,1-7.56,4.54,9,9,0,0,1,0-18,8.57,8.57,0,0,1,7.56,4.54c0-1.48,0-2.92-.07-4.36Zm-1.22,8.82a7.8,7.8,0,0,0-7.49-8c-4.14,0-7.41,3.63-7.41,8a7.69,7.69,0,0,0,7.41,8A7.77,7.77,0,0,0,1413.45,629.4Z"/><path class="cls-14" d="M1420.25,613.67v19.65H1419V613.67ZM1419,633.32a5,5,0,0,0,5,5.08v-1.08a3.91,3.91,0,0,1-3.78-4Z"/><path class="cls-14" d="M471.27,668.24c-1.66,0-3.28,0-4.93,0,0,2.37,0,4.79.07,7.16a5,5,0,0,0,4.86,5.18v1.05a6.15,6.15,0,0,1-6-6.23c0-2.37,0-4.79,0-7.16-.69,0-1.37,0-2.09,0v-1.18c.68,0,1.4.07,2.09.07,0-3.42,0-6.84,0-10.26h1.19c0,3.42-.07,6.84-.07,10.26,1.62,0,3.27-.07,4.93-.07Z"/><path class="cls-14" d="M492.15,672.6a8.65,8.65,0,1,1-8.64-9A8.82,8.82,0,0,1,492.15,672.6Zm-16.13,0c0,4.28,3.38,8,7.49,8s7.49-3.71,7.49-8a7.51,7.51,0,1,0-15,0Z"/><path class="cls-14" d="M521.85,668.24c-1.66,0-3.28,0-4.93,0,0,2.37,0,4.79.07,7.16a5,5,0,0,0,4.86,5.18v1.05a6.15,6.15,0,0,1-6.05-6.23c0-2.37,0-4.79,0-7.16-.69,0-1.37,0-2.09,0v-1.18c.68,0,1.4.07,2.09.07,0-3.42,0-6.84,0-10.26H517c0,3.42-.07,6.84-.07,10.26,1.62,0,3.27-.07,4.93-.07Z"/><path class="cls-14" d="M541.11,681.6h-1.23V671.34a6.45,6.45,0,1,0-12.88,0c0,3.42,0,6.84.07,10.26h-1.26V656.4h1.26c0,3.57-.07,7.13-.07,10.69a7.63,7.63,0,0,1,6.48-3.71,7.8,7.8,0,0,1,7.63,7.92Z"/><path class="cls-14" d="M553.38,671.52h7.38a7.38,7.38,0,0,0-14.58-.94,8.08,8.08,0,0,0,4.36,9.4,7.44,7.44,0,0,0,9.32-3.49l1.08.57a8.48,8.48,0,0,1-10.87,3.82A9.11,9.11,0,0,1,545,670.26a8.76,8.76,0,0,1,7.92-6.66,6.27,6.27,0,0,1,1.65.07,8.87,8.87,0,0,1,7.52,8.89h-8.71Z"/><path class="cls-14" d="M599.89,668.1l-1,.58a7.44,7.44,0,0,0-8.42-3.64,7.8,7.8,0,0,0-5.55,7.56,7.68,7.68,0,0,0,5.55,7.52,7.37,7.37,0,0,0,8.42-3.67l1,.61a8.62,8.62,0,0,1-9.75,4.25,9,9,0,0,1-6.44-8.71,8.85,8.85,0,0,1,6.44-8.68,7.5,7.5,0,0,1,2.81-.32A8.75,8.75,0,0,1,599.89,668.1Z"/><path class="cls-14" d="M619.37,664.07v17.17h-1.22c0-1.26,0-2.49.07-3.74a8.86,8.86,0,0,1-2.92,3,7.8,7.8,0,0,1-8.17,0,8.46,8.46,0,0,1-4-7.17v-9.21h1.22v9.14a7.32,7.32,0,0,0,3.42,6.3,6.61,6.61,0,0,0,6.91,0,7.45,7.45,0,0,0,3.49-6.3h0c0-3.06-.07-6.12-.07-9.14Z"/><path class="cls-14" d="M640.32,672.6a8.87,8.87,0,0,1-8.67,9,8.64,8.64,0,0,1-7.53-4.54c0,1.34,0,2.7.08,4.07H623V656.87h1.23l-.11,11.34a8.63,8.63,0,0,1,7.56-4.61A8.87,8.87,0,0,1,640.32,672.6Zm-1.22,0a7.46,7.46,0,1,0-14.9,0,7.46,7.46,0,1,0,14.9,0Z"/><path class="cls-14" d="M652.24,671.52h7.38a7.38,7.38,0,0,0-14.58-.94,8.06,8.06,0,0,0,4.35,9.4,7.45,7.45,0,0,0,9.33-3.49l1.08.57a8.48,8.48,0,0,1-10.87,3.82,9.12,9.12,0,0,1-5.08-10.62,8.78,8.78,0,0,1,7.92-6.66,6.36,6.36,0,0,1,1.66.07,8.87,8.87,0,0,1,7.52,8.89h-8.71Z"/><path class="cls-14" d="M699.83,672.6a8.65,8.65,0,1,1-8.64-9A8.82,8.82,0,0,1,699.83,672.6Zm-16.13,0c0,4.28,3.39,8,7.49,8s7.49-3.71,7.49-8a7.51,7.51,0,1,0-15,0Z"/><path class="cls-14" d="M707.46,671.16c1.69,0,3.39,0,5.08,0v1.26l-5.08,0c0,3.06,0,6.15,0,9.25h-1.23c0-3.1,0-6.19.08-9.25-.76,0-1.48,0-2.2,0v-1.26c.72,0,1.44,0,2.2,0,0-2.59,0-5.18-.08-7.78v-.17a6.41,6.41,0,0,1,6.27-6.34V658a5.24,5.24,0,0,0-5,5.43C707.46,666,707.46,668.57,707.46,671.16Z"/><path class="cls-14" d="M743,668.24c-1.66,0-3.28,0-4.93,0,0,2.37,0,4.79.07,7.16a5,5,0,0,0,4.86,5.18v1.05a6.15,6.15,0,0,1-6.05-6.23c0-2.37,0-4.79,0-7.16-.69,0-1.37,0-2.09,0v-1.18c.68,0,1.4.07,2.09.07,0-3.42,0-6.84,0-10.26h1.19c0,3.42-.07,6.84-.07,10.26,1.62,0,3.27-.07,4.93-.07Z"/><path class="cls-14" d="M762.22,681.6H761V671.34a6.45,6.45,0,1,0-12.88,0c0,3.42,0,6.84.07,10.26h-1.26V656.4h1.26c0,3.57-.07,7.13-.07,10.69a7.63,7.63,0,0,1,6.47-3.71,7.81,7.81,0,0,1,7.64,7.92Z"/><path class="cls-14" d="M774.49,671.52h7.38a7.38,7.38,0,0,0-14.58-.94,8.08,8.08,0,0,0,4.36,9.4,7.44,7.44,0,0,0,9.32-3.49l1.08.57a8.48,8.48,0,0,1-10.87,3.82,9.11,9.11,0,0,1-5.07-10.62A8.75,8.75,0,0,1,774,663.6a6.33,6.33,0,0,1,1.66.07,8.87,8.87,0,0,1,7.52,8.89h-8.71Z"/><path class="cls-14" d="M814.34,678.72a5.17,5.17,0,0,1-4,2.84,6.82,6.82,0,0,1-1.73-.07,5.23,5.23,0,0,1-3.81-5.11H806a4.18,4.18,0,0,0,3,4.1,3.89,3.89,0,0,0,4.28-2.27,4.16,4.16,0,0,0-.94-4.89,7.86,7.86,0,0,0-2.41-1.19,7.13,7.13,0,0,1-2.66-1.11,4.21,4.21,0,0,1-1.05-5,4.08,4.08,0,0,1,3.24-2.31,2.78,2.78,0,0,1,1.34.08,4.2,4.2,0,0,1,3.13,4.1h-1.19a3.24,3.24,0,0,0-2.23-3.13,2.89,2.89,0,0,0-3.17,1.76,3.24,3.24,0,0,0,.65,3.64v0a7.58,7.58,0,0,0,2.3,1.12,7.2,7.2,0,0,1,2.88,1.22l0,0A5.26,5.26,0,0,1,814.34,678.72Z"/><path class="cls-14" d="M827.48,671.52h7.38a7.37,7.37,0,0,0-14.57-.94,8.06,8.06,0,0,0,4.35,9.4,7.43,7.43,0,0,0,9.32-3.49l1.08.57a8.48,8.48,0,0,1-10.87,3.82,9.11,9.11,0,0,1-5.07-10.62A8.78,8.78,0,0,1,827,663.6a6.27,6.27,0,0,1,1.65.07,8.88,8.88,0,0,1,7.53,8.89h-8.72Z"/><path class="cls-14" d="M868.88,681.6h-1.19V671.45c0-3.67-2.91-6.81-6.33-6.81a6.65,6.65,0,0,0-6.37,6.81V681.6h-1.26V671.45a6.38,6.38,0,1,0-12.74,0c0,3.38.07,6.76.07,10.15H839.8V663.85h1.26c0,1.12-.07,2.27-.07,3.42a7.44,7.44,0,0,1,13.35,1.08,7.54,7.54,0,0,1,14.54,3Z"/><path class="cls-14" d="M874.54,660.94a1.31,1.31,0,1,1,0,2.62,1.31,1.31,0,1,1,0-2.62Zm-.62,4.75V681.6h1.26V665.69Z"/><path class="cls-14" d="M909.27,681.6h-1.19V671.45c0-3.67-2.91-6.81-6.33-6.81a6.65,6.65,0,0,0-6.37,6.81V681.6h-1.26V671.45a6.38,6.38,0,1,0-12.74,0c0,3.38.07,6.76.07,10.15h-1.26V663.85h1.26c0,1.12-.07,2.27-.07,3.42a7.44,7.44,0,0,1,13.35,1.08,7.54,7.54,0,0,1,14.54,3Z"/><path class="cls-14" d="M930.26,663.78v17.35H929c0-1.37.07-2.73.07-4.07a8.69,8.69,0,0,1-7.56,4.54,9,9,0,0,1,0-18,8.57,8.57,0,0,1,7.56,4.54c0-1.48,0-2.92-.07-4.36ZM929,672.6a7.81,7.81,0,0,0-7.49-8c-4.14,0-7.41,3.63-7.41,8a7.68,7.68,0,0,0,7.41,7.95A7.77,7.77,0,0,0,929,672.6Z"/><path class="cls-14" d="M937.57,665.69h1.26v17.56a5.09,5.09,0,0,1-5,5.15v-1a4,4,0,0,0,3.75-4.14Zm1.95-3.46a1.32,1.32,0,0,1-1.3,1.33,1.38,1.38,0,0,1-1.37-1.33,1.33,1.33,0,0,1,1.37-1.29A1.27,1.27,0,0,1,939.52,662.23Z"/><path class="cls-14" d="M960.39,672.6a8.64,8.64,0,1,1-8.64-9A8.81,8.81,0,0,1,960.39,672.6Zm-16.12,0c0,4.28,3.38,8,7.48,8s7.49-3.71,7.49-8a7.5,7.5,0,1,0-15,0Z"/><path class="cls-14" d="M972.92,663.6v1c-4.14,0-7.59,3.64-7.74,8,0,3,0,6,.07,9H964V663.82h1.25c0,1.47-.07,2.95-.07,4.42A8.89,8.89,0,0,1,972.92,663.6Z"/><path class="cls-14" d="M1011.19,663.78v17.35H1010c0-1.37.08-2.73.08-4.07a8.7,8.7,0,0,1-7.56,4.54,9,9,0,0,1,0-18,8.57,8.57,0,0,1,7.56,4.54c0-1.48,0-2.92-.08-4.36ZM1010,672.6a7.8,7.8,0,0,0-7.48-8c-4.14,0-7.42,3.63-7.42,8a7.47,7.47,0,1,0,14.9,0Z"/><path class="cls-14" d="M1021.38,672.74c1.69,3,3.45,5.91,5.22,8.86h-1.44l-4.47-7.7-4.42,7.7h-1.48c1.76-3,3.53-5.87,5.26-8.86l-5.26-9.07h1.44c1.48,2.67,2.95,5.29,4.46,7.92,1.52-2.59,3-5.25,4.47-7.92h1.44Z"/><path class="cls-14" d="M1032.25,660.94a1.31,1.31,0,1,1,0,2.62,1.31,1.31,0,1,1,0-2.62Zm-.61,4.75V681.6h1.26V665.69Z"/><path class="cls-14" d="M1047.44,678.72a5.18,5.18,0,0,1-4,2.84,6.82,6.82,0,0,1-1.73-.07,5.24,5.24,0,0,1-3.82-5.11h1.19a4.17,4.17,0,0,0,3,4.1,3.88,3.88,0,0,0,4.28-2.27,4.15,4.15,0,0,0-.93-4.89,8,8,0,0,0-2.41-1.19,7.18,7.18,0,0,1-2.67-1.11,4.2,4.2,0,0,1-1-5,4.06,4.06,0,0,1,3.24-2.31,2.74,2.74,0,0,1,1.33.08,4.19,4.19,0,0,1,3.13,4.1h-1.19a3.23,3.23,0,0,0-2.23-3.13,2.87,2.87,0,0,0-3.16,1.76,3.25,3.25,0,0,0,.64,3.64v0a7.65,7.65,0,0,0,2.31,1.12,7.26,7.26,0,0,1,2.88,1.22l0,0A5.26,5.26,0,0,1,1047.44,678.72Z"/><path class="cls-14" d="M1087.18,672.6a8.64,8.64,0,1,1-8.64-9A8.81,8.81,0,0,1,1087.18,672.6Zm-16.12,0c0,4.28,3.38,8,7.48,8s7.49-3.71,7.49-8a7.5,7.5,0,1,0-15,0Z"/><path class="cls-14" d="M1094.82,671.16c1.69,0,3.38,0,5.07,0v1.26l-5.07,0c0,3.06,0,6.15,0,9.25h-1.22c0-3.1,0-6.19.07-9.25-.76,0-1.48,0-2.2,0v-1.26c.72,0,1.44,0,2.2,0,0-2.59,0-5.18-.07-7.78v-.17a6.4,6.4,0,0,1,6.26-6.34V658a5.24,5.24,0,0,0-5,5.43C1094.82,666,1094.82,668.57,1094.82,671.16Z"/><path class="cls-14" d="M1124.26,660.94a1.31,1.31,0,1,1,0,2.62,1.31,1.31,0,1,1,0-2.62Zm-.61,4.75V681.6h1.26V665.69Z"/><path class="cls-14" d="M1138,668.24c-1.66,0-3.28,0-4.94,0,0,2.37,0,4.79.08,7.16a5,5,0,0,0,4.86,5.18v1.05a6.15,6.15,0,0,1-6-6.23c0-2.37,0-4.79,0-7.16-.68,0-1.36,0-2.08,0v-1.18c.68,0,1.4.07,2.08.07,0-3.42,0-6.84,0-10.26h1.19c0,3.42-.08,6.84-.08,10.26,1.62,0,3.28-.07,4.94-.07Z"/><path class="cls-14" d="M1151.16,678.72a5.2,5.2,0,0,1-4,2.84,6.82,6.82,0,0,1-1.73-.07,5.23,5.23,0,0,1-3.81-5.11h1.18a4.18,4.18,0,0,0,3,4.1,3.89,3.89,0,0,0,4.28-2.27,4.14,4.14,0,0,0-.94-4.89,7.86,7.86,0,0,0-2.41-1.19A7.13,7.13,0,0,1,1144,671a4.21,4.21,0,0,1-1-5,4.08,4.08,0,0,1,3.24-2.31,2.78,2.78,0,0,1,1.34.08,4.2,4.2,0,0,1,3.13,4.1h-1.19a3.24,3.24,0,0,0-2.23-3.13,2.89,2.89,0,0,0-3.17,1.76,3.24,3.24,0,0,0,.65,3.64v0a7.58,7.58,0,0,0,2.3,1.12,7.2,7.2,0,0,1,2.88,1.22l0,0A5.28,5.28,0,0,1,1151.16,678.72Z"/><path class="cls-14" d="M1190.9,672.6a8.65,8.65,0,1,1-8.64-9A8.82,8.82,0,0,1,1190.9,672.6Zm-16.13,0c0,4.28,3.39,8,7.49,8s7.49-3.71,7.49-8a7.51,7.51,0,1,0-15,0Z"/><path class="cls-14" d="M1203.43,663.6v1c-4.14,0-7.6,3.64-7.74,8,0,3,0,6,.07,9h-1.26V663.82h1.26c0,1.47-.07,2.95-.07,4.42A8.89,8.89,0,0,1,1203.43,663.6Z"/><path class="cls-14" d="M1223.66,672.6a8.87,8.87,0,0,1-8.68,9,8.64,8.64,0,0,1-7.52-4.54c0,1.34,0,2.7.07,4.07h-1.22V656.87h1.22l-.11,11.34a8.64,8.64,0,0,1,7.56-4.61A8.87,8.87,0,0,1,1223.66,672.6Zm-1.23,0a7.46,7.46,0,1,0-14.9,0,7.46,7.46,0,1,0,14.9,0Z"/><path class="cls-14" d="M1228.23,660.94a1.31,1.31,0,1,1,0,2.62,1.31,1.31,0,1,1,0-2.62Zm-.61,4.75V681.6h1.26V665.69Z"/><path class="cls-14" d="M1242,668.24c-1.65,0-3.27,0-4.93,0,0,2.37,0,4.79.07,7.16a5,5,0,0,0,4.86,5.18v1.05a6.15,6.15,0,0,1-6-6.23c0-2.37,0-4.79,0-7.16-.68,0-1.37,0-2.09,0v-1.18c.69,0,1.41.07,2.09.07,0-3.42,0-6.84,0-10.26h1.19c0,3.42-.07,6.84-.07,10.26,1.62,0,3.28-.07,4.93-.07Z"/><path class="cls-14" d="M1245.83,679.08a1.26,1.26,0,0,1,0,2.52,1.26,1.26,0,1,1,0-2.52Z"/></svg>