<svg id="Ebene_1" data-name="Ebene 1" xmlns="http://www.w3.org/2000/svg" viewBox="0 0 1281.13 800.37"><defs><style>.cls-1{opacity:0.2;}.cls-2,.cls-3{fill:none;stroke:#3c3c3c;stroke-miterlimit:10;}.cls-2{stroke-width:0.25px;}.cls-3{stroke-width:2px;}</style></defs><title>conbg</title><g class="cls-1"><path class="cls-2" d="M1235.47,787.13" transform="translate(1.13 0.12)"/><path class="cls-2" d="M44.53,787.13" transform="translate(1.13 0.12)"/><line class="cls-2" y1="599.12" x2="1281.13" y2="599.12"/><line class="cls-2" x1="1.13" y1="400.12" x2="1281.13" y2="400.12"/><line class="cls-2" x1="1.13" y1="201.12" x2="1281.13" y2="201.12"/><path class="cls-2" d="M1235.47,10.87" transform="translate(1.13 0.12)"/><path class="cls-2" d="M44.53,10.87" transform="translate(1.13 0.12)"/><line class="cls-2" x1="1038.1" x2="1038.1" y2="800.37"/><line class="cls-2" x1="839.61" x2="839.61" y2="800.37"/><line class="cls-2" x1="641.13" x2="641.13" y2="800.37"/><line class="cls-2" x1="442.64" x2="442.64" y2="800.37"/><line class="cls-2" x1="244.15" x2="244.15" y2="800.37"/></g><path class="cls-3" d="M441.51,392.5v15" transform="translate(1.13 0.12)"/><path class="cls-3" d="M434,400h15" transform="translate(1.13 0.12)"/><path class="cls-3" d="M441.51,193.5v15" transform="translate(1.13 0.12)"/><path class="cls-3" d="M434,201h15" transform="translate(1.13 0.12)"/><path class="cls-3" d="M243,193.5v15" transform="translate(1.13 0.12)"/><path class="cls-3" d="M235.52,201h15" transform="translate(1.13 0.12)"/><path class="cls-3" d="M243,392.5v15" transform="translate(1.13 0.12)"/><path class="cls-3" d="M235.52,400h15" transform="translate(1.13 0.12)"/><path class="cls-3" d="M243,591.5v15" transform="translate(1.13 0.12)"/><path class="cls-3" d="M235.52,599h15" transform="translate(1.13 0.12)"/><path class="cls-3" d="M838.49,591.5v15" transform="translate(1.13 0.12)"/><path class="cls-3" d="M831,599h15" transform="translate(1.13 0.12)"/><path class="cls-3" d="M838.49,392.57v15" transform="translate(1.13 0.12)"/><path class="cls-3" d="M831,400.07h15" transform="translate(1.13 0.12)"/><path class="cls-3" d="M640,193.63v15" transform="translate(1.13 0.12)"/><path class="cls-3" d="M632.5,201.13h15" transform="translate(1.13 0.12)"/><path class="cls-3" d="M640,591.5v15" transform="translate(1.13 0.12)"/><path class="cls-3" d="M632.5,599h15" transform="translate(1.13 0.12)"/><path class="cls-3" d="M640,392.57v15" transform="translate(1.13 0.12)"/><path class="cls-3" d="M632.5,400.07h15" transform="translate(1.13 0.12)"/><path class="cls-3" d="M441.51,591.5v15" transform="translate(1.13 0.12)"/><path class="cls-3" d="M434,599h15" transform="translate(1.13 0.12)"/><path class="cls-3" d="M1037,392.5v15" transform="translate(1.13 0.12)"/><path class="cls-3" d="M1029.48,400h15" transform="translate(1.13 0.12)"/><path class="cls-3" d="M1037,591.5v15" transform="translate(1.13 0.12)"/><path class="cls-3" d="M1029.48,599h15" transform="translate(1.13 0.12)"/><path class="cls-3" d="M1037,193.5v15" transform="translate(1.13 0.12)"/><path class="cls-3" d="M1029.48,201h15" transform="translate(1.13 0.12)"/><path class="cls-3" d="M838.49,193.5v15" transform="translate(1.13 0.12)"/><path class="cls-3" d="M831,201h15" transform="translate(1.13 0.12)"/></svg>