<svg id="Ebene_1" data-name="Ebene 1" xmlns="http://www.w3.org/2000/svg" viewBox="0 0 1280 829.61"><defs><style>.cls-1,.cls-2,.cls-3{fill:none;}.cls-1,.cls-2{stroke:#3c3c3c;stroke-miterlimit:10;}.cls-1{stroke-width:0.25px;}</style></defs><title>conbg</title><line class="cls-1" x1="1206.48" x2="1206.48" y2="829.61"/><line class="cls-1" x1="73.52" y1="829.61" x2="73.52"/><line class="cls-1" x1="73.52" y1="754.69" x2="1206.48" y2="754.69"/><line class="cls-1" x1="73.52" y1="528.1" x2="1206.48" y2="528.1"/><line class="cls-1" x1="73.52" y1="301.51" x2="1206.48" y2="301.51"/><line class="cls-1" x1="73.52" y1="74.91" x2="1206.48" y2="74.91"/><line class="cls-1" x1="979.89" x2="979.89" y2="829.61"/><line class="cls-1" x1="753.3" x2="753.3" y2="829.61"/><line class="cls-1" x1="526.7" x2="526.7" y2="829.61"/><line class="cls-1" x1="300.11" x2="300.11" y2="829.61"/><path class="cls-2" d="M300.11,54.92V65.29" transform="translate(0 14.8)"/><path class="cls-2" d="M294.92,60.11h10.37" transform="translate(0 14.8)"/><path class="cls-2" d="M753.3,281.52v10.37" transform="translate(0 14.8)"/><path class="cls-2" d="M748.11,286.7h10.37" transform="translate(0 14.8)"/><path class="cls-2" d="M753.3,54.92V65.29" transform="translate(0 14.8)"/><path class="cls-2" d="M748.11,60.11h10.37" transform="translate(0 14.8)"/><path class="cls-2" d="M526.7,281.52v10.37" transform="translate(0 14.8)"/><path class="cls-2" d="M521.52,286.7h10.37" transform="translate(0 14.8)"/><path class="cls-2" d="M526.7,54.92V65.29" transform="translate(0 14.8)"/><path class="cls-2" d="M521.52,60.11h10.37" transform="translate(0 14.8)"/><path class="cls-2" d="M300.11,281.52v10.37" transform="translate(0 14.8)"/><path class="cls-2" d="M294.92,286.7h10.37" transform="translate(0 14.8)"/><path class="cls-2" d="M526.7,734.71v10.37" transform="translate(0 14.8)"/><path class="cls-2" d="M521.52,739.89h10.37" transform="translate(0 14.8)"/><path class="cls-2" d="M753.3,734.71v10.37" transform="translate(0 14.8)"/><path class="cls-2" d="M748.11,739.89h10.37" transform="translate(0 14.8)"/><path class="cls-2" d="M300.11,508.11v10.37" transform="translate(0 14.8)"/><path class="cls-2" d="M294.92,513.3h10.37" transform="translate(0 14.8)"/><path class="cls-2" d="M753.3,508.11v10.37" transform="translate(0 14.8)"/><path class="cls-2" d="M748.11,513.3h10.37" transform="translate(0 14.8)"/><path class="cls-2" d="M526.7,508.11v10.37" transform="translate(0 14.8)"/><path class="cls-2" d="M521.52,513.3h10.37" transform="translate(0 14.8)"/><path class="cls-2" d="M300.11,734.71v10.37" transform="translate(0 14.8)"/><path class="cls-2" d="M294.92,739.89h10.37" transform="translate(0 14.8)"/><path class="cls-2" d="M979.89,734.71v10.37" transform="translate(0 14.8)"/><path class="cls-2" d="M974.71,739.89h10.37" transform="translate(0 14.8)"/><path class="cls-2" d="M979.89,281.52v10.37" transform="translate(0 14.8)"/><path class="cls-2" d="M974.71,286.7h10.37" transform="translate(0 14.8)"/><path class="cls-2" d="M979.89,508.11v10.37" transform="translate(0 14.8)"/><path class="cls-2" d="M974.71,513.3h10.37" transform="translate(0 14.8)"/><path class="cls-2" d="M979.89,54.92V65.29" transform="translate(0 14.8)"/><path class="cls-2" d="M974.71,60.11h10.37" transform="translate(0 14.8)"/><path class="cls-2" d="M1206.48,281.52v10.37" transform="translate(0 14.8)"/><path class="cls-2" d="M1201.3,286.7h5.18" transform="translate(0 14.8)"/><path class="cls-2" d="M1206.48,734.71v10.37" transform="translate(0 14.8)"/><path class="cls-2" d="M1201.3,739.89h5.18" transform="translate(0 14.8)"/><path class="cls-2" d="M1206.48,54.92V65.29" transform="translate(0 14.8)"/><path class="cls-2" d="M1201.3,60.11h5.18" transform="translate(0 14.8)"/><path class="cls-2" d="M1206.48,508.11v10.37" transform="translate(0 14.8)"/><path class="cls-2" d="M1201.3,513.3h5.18" transform="translate(0 14.8)"/><path class="cls-2" d="M73.52,281.52v10.37" transform="translate(0 14.8)"/><path class="cls-2" d="M73.74,286.7h5" transform="translate(0 14.8)"/><path class="cls-2" d="M73.52,734.71v10.37" transform="translate(0 14.8)"/><path class="cls-2" d="M73.74,739.89h5" transform="translate(0 14.8)"/><path class="cls-2" d="M73.52,508.11v10.37" transform="translate(0 14.8)"/><path class="cls-2" d="M73.74,513.3h5" transform="translate(0 14.8)"/><path class="cls-2" d="M73.63,54.92V65.29" transform="translate(0 14.8)"/><path class="cls-2" d="M73.86,60.11h5" transform="translate(0 14.8)"/><rect class="cls-3" y="14.8" width="1280" height="800"/></svg>