<svg id="Ebene_1" data-name="Ebene 1" xmlns="http://www.w3.org/2000/svg" viewBox="0 0 808.96 413"><defs><style>.cls-1{fill:none;stroke:#3c3c3c;stroke-miterlimit:10;stroke-width:2px;}</style></defs><title>contactbg2</title><path class="cls-1" d="M441.51,392.5v15" transform="translate(-235.52 -193.5)"/><path class="cls-1" d="M434,400h15" transform="translate(-235.52 -193.5)"/><path class="cls-1" d="M441.51,193.5v15" transform="translate(-235.52 -193.5)"/><path class="cls-1" d="M434,201h15" transform="translate(-235.52 -193.5)"/><path class="cls-1" d="M243,193.5v15" transform="translate(-235.52 -193.5)"/><path class="cls-1" d="M235.52,201h15" transform="translate(-235.52 -193.5)"/><path class="cls-1" d="M243,392.5v15" transform="translate(-235.52 -193.5)"/><path class="cls-1" d="M235.52,400h15" transform="translate(-235.52 -193.5)"/><path class="cls-1" d="M243,591.5v15" transform="translate(-235.52 -193.5)"/><path class="cls-1" d="M235.52,599h15" transform="translate(-235.52 -193.5)"/><path class="cls-1" d="M838.49,591.5v15" transform="translate(-235.52 -193.5)"/><path class="cls-1" d="M831,599h15" transform="translate(-235.52 -193.5)"/><path class="cls-1" d="M838.49,392.57v15" transform="translate(-235.52 -193.5)"/><path class="cls-1" d="M831,400.07h15" transform="translate(-235.52 -193.5)"/><path class="cls-1" d="M640,193.63v15" transform="translate(-235.52 -193.5)"/><path class="cls-1" d="M632.5,201.13h15" transform="translate(-235.52 -193.5)"/><path class="cls-1" d="M640,591.5v15" transform="translate(-235.52 -193.5)"/><path class="cls-1" d="M632.5,599h15" transform="translate(-235.52 -193.5)"/><path class="cls-1" d="M640,392.57v15" transform="translate(-235.52 -193.5)"/><path class="cls-1" d="M632.5,400.07h15" transform="translate(-235.52 -193.5)"/><path class="cls-1" d="M441.51,591.5v15" transform="translate(-235.52 -193.5)"/><path class="cls-1" d="M434,599h15" transform="translate(-235.52 -193.5)"/><path class="cls-1" d="M1037,392.5v15" transform="translate(-235.52 -193.5)"/><path class="cls-1" d="M1029.48,400h15" transform="translate(-235.52 -193.5)"/><path class="cls-1" d="M1037,591.5v15" transform="translate(-235.52 -193.5)"/><path class="cls-1" d="M1029.48,599h15" transform="translate(-235.52 -193.5)"/><path class="cls-1" d="M1037,193.5v15" transform="translate(-235.52 -193.5)"/><path class="cls-1" d="M1029.48,201h15" transform="translate(-235.52 -193.5)"/><path class="cls-1" d="M838.49,193.5v15" transform="translate(-235.52 -193.5)"/><path class="cls-1" d="M831,201h15" transform="translate(-235.52 -193.5)"/></svg>