<svg id="Ebene_1" data-name="Ebene 1" xmlns="http://www.w3.org/2000/svg" viewBox="0 0 289.92 310"><defs><style>.cls-1{fill:none;stroke:#000;stroke-linecap:round;stroke-miterlimit:10;stroke-width:15px;}</style></defs><title>flotelogo</title><path class="cls-1" d="M535.59,412.42c-51.59,6.25-153.39,2-193.34-.52-12.19-.77-4.36-20,7.84-29.39,28.58-22.07,53.5-36,103.8-39.48,99.7-6.89,113.78,20.15,64.69,21.94-133,4.88-154-36.36-182.9-27-32.05,10.36-25.87,100.87-8,110,40.31,20.45,233.14,19.25,251.31-4,12.6-16.15,14-104.45-10.61-124.35-26.86-21.74-159.63-20-182.33-9.58-65.91,30.15-6.58,188.26-6.58,263.34V597.5" transform="translate(-305.46 -295)"/></svg>