<svg id="Ebene_1" data-name="Ebene 1" xmlns="http://www.w3.org/2000/svg" xmlns:xlink="http://www.w3.org/1999/xlink" viewBox="0 0 561 522.5"><defs><style>.cls-1,.cls-4,.cls-5,.cls-6{fill:none;}.cls-2{clip-path:url(#clip-path);}.cls-3{fill:#fff;}.cls-4,.cls-5,.cls-6{stroke:#000;stroke-linecap:round;}.cls-4{stroke-linejoin:round;}.cls-4,.cls-5{stroke-width:4.5px;}.cls-5,.cls-6{stroke-miterlimit:10;}.cls-6{stroke-width:15px;}</style><clipPath id="clip-path" transform="translate(-170 -385)"><rect class="cls-1" x="175" y="390" width="551" height="510"/></clipPath></defs><title>flote</title><g class="cls-2"><rect class="cls-3" width="561" height="520"/></g><path class="cls-4" d="M298,430.66c10.35.9,42.85.54,49.06,0s-20.43-15.53-21.15-13.46-.72,23.87,0,25.93,14.46-3.74,18.24-7.07" transform="translate(-170 -385)"/><path class="cls-4" d="M193,455c6.28-6.72,36-45.77,42.5-40.29,5.83,4.93,5.67,19-4.89,25.57s-27.13,2.48-30-9.57,2.19-18.85,8-22.62a18.41,18.41,0,0,1,20.41,0" transform="translate(-170 -385)"/><path class="cls-5" d="M688.15,405c.74,16.24-1.12,55.88,2.73,49.26,17.68-30.32-24.34-26.08-23.88-26.56a285.91,285.91,0,0,1,42.86,0" transform="translate(-170 -385)"/><polyline class="cls-4" points="351.17 20 322 45 351.17 70"/><path class="cls-4" d="M581.77,424.69c5.42,1.33,19.33-.1,19.33-11.6,0-10.47-15.16-11.1-15.16,0,0,6.05,5.17,8.16,10.52,9.53a13.25,13.25,0,0,1,8.64,6c5.18,8.18,3.51,22.31,1.8,26.34-1.55,0-7.6-.77-13.5-.77-5.52,0-10.91.77-12.41.77-1.62-2.49-3.87-15,.78-22.6" transform="translate(-170 -385)"/><path class="cls-4" d="M419.91,405c-.9,10.35-.54,42.85,0,49.06s15.53-20.43,13.46-21.15-23.87-.72-25.94,0,3.75,14.46,7.07,18.24" transform="translate(-170 -385)"/><path class="cls-6" d="M535.64,714.92c-51.6,6.25-153.4,2-193.34-.52-12.19-.77-4.37-20,7.83-29.39,28.59-22.07,53.5-36,103.8-39.48,99.7-6.89,113.79,20.15,64.69,21.94-133,4.88-153.95-36.36-182.9-27-32.05,10.36-25.87,100.87-8,109.95,40.31,20.45,233.14,19.25,251.31-4,12.6-16.15,14-104.45-10.61-124.35-26.86-21.74-159.63-20-182.33-9.58-65.91,30.15-6.58,188.26-6.58,263.34V900" transform="translate(-170 -385)"/></svg>