<svg id="Ebene_1" data-name="Ebene 1" xmlns="http://www.w3.org/2000/svg" viewBox="0 0 521.36 537.75"><defs><style>.cls-1,.cls-2,.cls-3{fill:none;stroke:#000;stroke-linecap:round;}.cls-1{stroke-linejoin:round;}.cls-1,.cls-2{stroke-width:4.5px;}.cls-2,.cls-3{stroke-miterlimit:10;}.cls-3{stroke-width:15px;}</style></defs><title>flote</title><path class="cls-1" d="M296.39,211.66c10.35.9,42.85.54,49.06,0S325,196.13,324.3,198.2s-.72,23.87,0,25.93,14.46-3.74,18.24-7.07" transform="translate(-189.32 -183.75)"/><path class="cls-1" d="M191.57,236c6.28-6.72,36-45.77,42.5-40.29,5.83,4.93,5.67,19-4.89,25.57s-27.13,2.48-30-9.57,2.18-18.85,8-22.62a18.43,18.43,0,0,1,20.42,0" transform="translate(-189.32 -183.75)"/><path class="cls-2" d="M686.73,186c.73,16.24-1.13,55.88,2.72,49.26,17.68-30.32-24.34-26.08-23.87-26.56a285.77,285.77,0,0,1,42.85,0" transform="translate(-189.32 -183.75)"/><polyline class="cls-1" points="329.73 2.25 300.57 27.25 329.73 52.25"/><path class="cls-1" d="M580.29,205.69c5.43,1.33,19.33-.1,19.33-11.6,0-10.47-15.15-11.1-15.15,0,0,6,5.16,8.16,10.51,9.53a13.23,13.23,0,0,1,8.64,6c5.18,8.18,3.51,22.31,1.8,26.34-1.55,0-7.59-.77-13.5-.77-5.52,0-10.91.77-12.41.77-1.61-2.49-3.87-15,.78-22.6" transform="translate(-189.32 -183.75)"/><path class="cls-1" d="M417.76,186c-.89,10.35-.53,42.85,0,49.06s15.53-20.43,13.47-21.15-23.88-.72-25.94,0,3.75,14.46,7.07,18.24" transform="translate(-189.32 -183.75)"/><path class="cls-3" d="M535.21,495.92c-51.6,6.25-153.4,2-193.34-.52-12.19-.77-4.37-20,7.83-29.39,28.59-22.07,53.5-36,103.8-39.48,99.71-6.89,113.79,20.15,64.7,21.94-133,4.88-154-36.36-182.9-27-32.06,10.36-25.87,100.87-8,110,40.31,20.45,233.14,19.25,251.31-4,12.6-16.15,14-104.45-10.61-124.35-26.86-21.74-159.62-20-182.33-9.58-65.91,30.15-6.58,188.26-6.58,263.34.7,9.52,1.33,28.9,1.9,57.22" transform="translate(-189.32 -183.75)"/></svg>