<svg id="Ebene_1" data-name="Ebene 1" xmlns="http://www.w3.org/2000/svg" viewBox="0 0 214.59 427.72"><defs><style>.cls-1{fill:none;stroke:#67fcf1;stroke-width:4px;}</style></defs><title>onelinephone</title><g id="layer1"><path id="path4136" class="cls-1" d="M182.25,460.35s10.16,5.75,30.87-5.21,22.14-24.83,9.52-32.06-21.2,12.65,7.52,13.72,36.88-22.14,54.49-42.33c9-14-17.93-14.91-23.21-6.77-5.51,8.49,19.92,22.23,38.32,13.68s32.12-45.74,22-62.4c-6.17-10.14-18.62-6.21-14.53,14.89,2.68,13.85,16.54,40.46,28,16.24C391.56,250.67,313.59,207,293.7,219.68s10.64,64.25,31.54,69.47,16-35.17,3.27-50.72-30.23-28.64-51.57-24.65c-11.69,6.23-47.21-52.1-70.49-88.91C195.26,107.15,167.5,66,181,44.34c23.48-23.67,44.05,43.45,41.47,61.9-1.94,10.16-9.3,7.09-18.92.89-8.74-5.62-52.26-39.84-58.19-24.18-10,26.55,101.56,195.91,119.94,205,25.11,16.4,77.67,7.17,69.16-24.89s-31.07-47.94-48.76-44.9c-7.74,1-9.93,9.89-18.16,5s-60.79-75-60.79-93.36,26.9-5.22,20.4-34.53c-2.94-13.25-22.93-62.51-42.57-56.69-10.71,3.17-35.48,22.15-37.34,41.9-3,31.68,104.46,186.56,118.11,197.22s38.56,14,48.66,6.7" transform="translate(-142.71 -36.14)"/></g></svg>