<svg id="Ebene_1" data-name="Ebene 1" xmlns="http://www.w3.org/2000/svg" viewBox="0 0 397.91 326.32"><defs><style>.cls-1{fill:#1da1f2;}.cls-2{fill:#fff;}</style></defs><title>twitterbirdsmall</title><g id="layer1"><path id="path4600" class="cls-1" d="M160.34,413a236.77,236.77,0,0,1-90.28-24.49c-7.85-3.92-19-10.4-19-11,0-.22,7.16-.4,15.91-.4,16.82,0,23.27-.59,36.16-3.32A164.78,164.78,0,0,0,153.27,354c7.27-4.33,16.16-10.73,15.77-11.35-.17-.28-2.51-.71-5.21-.95-12.72-1.15-29.2-7.42-39.81-15.13a87.58,87.58,0,0,1-22.84-25.12c-2.61-4.48-7.06-14.16-7.06-15.36,0-.84,1-.85,8.85-.09,8.11.78,25.22-.91,25.22-2.5,0-.28-2.82-1.41-6.26-2.51A82.44,82.44,0,0,1,73,238.35c-4.75-9.82-6.87-17.89-8.16-31.2-.49-5,0-5.29,5.17-3a83.93,83.93,0,0,0,25.39,7.1c3,.29,4.47.2,4.47-.28s-1.68-2-3.72-3.56c-14.43-11.1-25.71-30.16-29.38-49.62-1.6-8.46-1.46-22.62.28-30.52,2.35-10.59,7.38-23.59,9.4-24.24.38-.12,3.26,2.6,6.4,6.06q47.36,52.1,111.7,70.28c17.77,5,50.17,10,51.48,7.84a41.57,41.57,0,0,0-.59-7.23,70.22,70.22,0,0,1,0-21.85,82.46,82.46,0,0,1,137.26-49.8c2.49,2.28,4.89,4.15,5.33,4.15,1.88,0,18.09-4.65,24.59-7,3.88-1.43,11.15-4.63,16.15-7.11s9.26-4.49,9.48-4.49c1.95,0-5.5,15.4-11,22.83a101.09,101.09,0,0,1-17.68,17.58,20.35,20.35,0,0,0-3.67,3.08c0,1.64,23.79-3.83,35-8.07,3.85-1.45,7.24-2.64,7.53-2.64,1.19,0,.3,1.65-4.13,7.58-5.75,7.7-21.42,23.58-28.77,29.16l-5.47,4.14L409.69,182c-.46,16.22-1.2,24-3.52,36.62C395.75,275.42,367,325.5,324,361.56c-32.89,27.6-72.55,44.29-119.3,50.22-7.68,1-36.34,1.75-44.36,1.19Z" transform="translate(-51.05 -86.84)"/><path id="path4473" class="cls-2" d="M307.44,210.68c-4,3-8.67,9-7.4,10.68a14.37,14.37,0,0,0,10.44,5.6c4.3.21,9.77-12.87,11.73-20.52Z" transform="translate(-51.05 -86.84)"/><path id="path4475" class="cls-2" d="M366.76,192.42c7.82,3.1,16.72-24,63.68-48.47,4.27-2.22,6.5-8,8.3-12.09-11.66,4.36-34.36,15.17-50.36,19.5L363,186.93Z" transform="translate(-51.05 -86.84)"/><path id="path4477" class="cls-2" d="M327.92,93.54c-54.49-.13-89.21,73.25-25.62,116.23,4.47,3,15.71,1,21.53-1.74l3.42,13c12.91-2.74,31.28-12.11,42.29-21.55L364.88,189c19.3-30.81,41.65-58.6,67.35-85.85-16.47,4.86-29.92,12-48.56,16.47-18.89-18.45-38.33-26-55.75-26Zm3.64,18.33c7.86,0,20.18,2.5,27.75,6.07,2,1.22,7,4.76,8.69,9.71,1,5.17-.09,39.68-15.74,42.61-10.54,2-36.58-7.39-38.63-17.88-3.82-19.49,6.46-37.3,11.9-39.71a16.42,16.42,0,0,1,6-.8ZM392,122.6a1.61,1.61,0,0,1,1,.23c1.49,1.07-5.2,7.59-7.7,9.3a6.39,6.39,0,0,1-2.22-4.59c0-1.29,6.17-4.94,9-4.94Zm-56.67,62.8.68,0c3.09,1.38,3.92,7.32-.1,10.14-3.24,2.28-10.49-3.75-10.25-6.16,2.26-2.71,6.19-4,9.67-4Z" transform="translate(-51.05 -86.84)"/><path id="path4485" class="cls-2" d="M296.73,226.1c1.7.12,8.67,4.37,9,7.23.16,1.51-3.29,5.26-4.33,4.76-3.48-1.63-8.53-4.33-8.89-5.78C291.87,229.91,295.05,226,296.73,226.1Z" transform="translate(-51.05 -86.84)"/><path id="path4487" class="cls-2" d="M288.8,234.48c1.63.45,8.88,4.64,8.61,7.27-.26,2.43-3.45,5.81-4.51,4.73-1.29-1.32-6.24-4.35-8.64-5.52-1.77-.87,2.74-7,4.54-6.48Z" transform="translate(-51.05 -86.84)"/><path id="path4489" class="cls-2" d="M307.5,244.74c7.33,2.75,21.73,4.23,35.09,5.8s25.64,3.29,28.79,6.49c6.19,6.28,6.1,12.45,1.74,12.93-7.93.88,2-7.78-69.41-19.19-6.21-1,0-4,2-4.22,1-.11.28-2.38,1.81-1.81Z" transform="translate(-51.05 -86.84)"/><path id="path4491" class="cls-2" d="M276.38,237c-12.31-23.26-38.92-24.31-61.83-34-4.57-1.92-12.8,11.65-8.48,12.68,15.61,3.7,39.93,21.72,40,29.89,0,5.83,6.79,14.39,10.52,9,6.66-9.62,22.63-12.18,19.78-17.58Z" transform="translate(-51.05 -86.84)"/><path id="path4493" class="cls-2" d="M149.43,172.89c-4.79-1.53-1.34,4.83.39,5.39,16.43,5.32,36.73,13.1,53.85,26.28,1.72,1.31,6.47-3.69,4.59-4.76-17.24-9.88-35.08-19.34-58.83-26.91Z" transform="translate(-51.05 -86.84)"/><path id="path4495" class="cls-2" d="M135.5,183.65c17.72,12.74,41.29,21.77,61.73,30,2.38,1,7.68-6.41,5.51-7.35-4-1.75-40.6-14.89-61.93-27.19-2.1-1.21-8,2.57-5.31,4.5Z" transform="translate(-51.05 -86.84)"/><path id="path4497" class="cls-2" d="M78.75,119.42C85.66,124.63,119,155,144.11,170.7c-.76,1.22-1.88,3.06.2,6.12-6.46-1.75-8.18-.2-13.51,3.15-16.13-12.21-37-27.47-49.57-43,2.25-1.92,28.27,24.61,30.9,22-35.29-29.31-39.34-44-33.38-39.5Z" transform="translate(-51.05 -86.84)"/><path id="path4499" class="cls-2" d="M360,300.75c3.52-.07,9,6,5.07,11-59.37,76.42-125.23,88.87-148.93,92.37-2.07.3-6-1.35-3.76-3.62,14.09-14.38,64.08-36.82,32.81-40.75,30.2-18.47,61.45-35.78,88-58.25,20.2,17.09,22.72-.71,26.79-.79Z" transform="translate(-51.05 -86.84)"/><path id="path4501" class="cls-2" d="M299.84,256.45c1.69-.82,17.83,10.78,27.12,13.78,9.45,3.06,25.27,15.37,28.52,21.48,9.14,17.19-8.78,28.41-15,12.29-5.61-14.48-24.55-24.06-29.62-26-4.15-1.6-14.16,5.54-16.19-2.45-2.09-8.2-.18-16.48,5.2-19.08Z" transform="translate(-51.05 -86.84)"/><path id="path4503" class="cls-2" d="M281.25,244.06a41.77,41.77,0,0,1,10.85,5.53c-6.88,20.2,5.73,25.18-25.5,37.21-21.24,8.19-45.93,28.62-64.89,48.27-2,2.07-6.77-2.35-4.34-6.07C214.38,303,272.63,241.62,281.25,244.06Z" transform="translate(-51.05 -86.84)"/><path id="path4505" class="cls-2" d="M192.18,337.56a3,3,0,0,0-1,.14c-21.9,6.95-43.06,27.06-64.81,36,6.66,5.24,28.16,9.18-11.31,25.85-3.17,1.34,6.51,3.41,9.28,2.53,11.11-3.54,17.5-6.24,27.68-10.31,1.47-.59,3.47.1.41,1.86-7.42,4.25-18,7.69-25.1,10.5,24.81,4.6,44.79-3.48,53.74-21.4,2.73-5.45,18.72-6.94,19.3-11.63,1.41-11.57-1.86-33.4-8.23-33.5Zm-18.34,28.7a9,9,0,0,1,7.75,4.39c1.56,2.6-12.89,16-17.17,14.57-3.28-1.05,5.39-18.28,7.8-18.79a8.73,8.73,0,0,1,1.62-.17Z" transform="translate(-51.05 -86.84)"/><path id="path4509" class="cls-2" d="M79.88,384.21a4.09,4.09,0,0,1,3.55,0c.85.49,2.33,4.45,1.25,5.28s-3.18.32-4-.27C79.25,388.12,78.88,384.79,79.88,384.21Z" transform="translate(-51.05 -86.84)"/><path id="path4511" class="cls-2" d="M90.17,383.22a5.24,5.24,0,0,1,5.17-.6c1.49.64,2.89,2.93,2.83,5.43,0,1.9-6.45,1.78-7.46,1.08a3.78,3.78,0,0,1-.54-5.91Z" transform="translate(-51.05 -86.84)"/><path id="path4513" class="cls-2" d="M103.65,381.07c-.65,1.51-.69,5.61,1,6.75,2.09,1.44,11.56,1.4,10.81-1.3-.67-2.38-2.53-5.79-4.77-6.5-3.35-1.06-6.66.23-7,1.05Z" transform="translate(-51.05 -86.84)"/><path id="path4515" class="cls-2" d="M117.74,378.29c-.11,2.53,2,7.89,4.19,7.66,2.61-.29,7.33-.19,6.54-3.22-1.17-4.5-4.91-7.22-6.69-6.9-3,.53-4,.77-4,2.46Z" transform="translate(-51.05 -86.84)"/><path id="path4517" class="cls-2" d="M282.64,277.7c2.93,2.07,11.56,9.77,17.63,12,8.5,3.11,2.63,5.6-4.69,2.53s-11.76-7-17.85-11.27Z" transform="translate(-51.05 -86.84)"/><path id="path4519" class="cls-2" d="M275.37,282.18c4.73,6.48,11.85,15.8,20.27,22.77,2.75,2.28.9,3.66-2.44,2.22-11.37-4.92-17.54-13.77-26.05-21.33Z" transform="translate(-51.05 -86.84)"/><path id="path4521" class="cls-2" d="M262.55,287.31s5.38,22.51,7.66,24.35c1.63,1.31,29.49,5.79,42.64,6.5l-3.15,2.52c-23.88-1.6-49.25-5.05-50.22-6.76s2.36-4.88,2.27-7c-.11-2.39-3.38-11.48-4.41-17.09Z" transform="translate(-51.05 -86.84)"/><path id="path4523" class="cls-2" d="M247.42,295.73c1.86,8.14,4.09,24.26,8.7,26.21,2.84,1.2,27.62,6,42,6.6L294,331.27c-16.52-1.17-48.6-5-50-7.12-1.15-1.82,2.14-5.29,2-7.46-.21-3.05-2.32-11-3.52-17.68Z" transform="translate(-51.05 -86.84)"/><path id="path4525" class="cls-2" d="M231.88,306.56c2.59,10.06,6.76,23.26,10.82,24.77,9.58,2.69,28.74,5.94,40.52,6.63l-3.72,2.39c-16.91-1.07-48.64-4.38-49.57-5.75s2.16-5.46,1.77-7.4c-.78-3.88-3.48-10.57-4.59-16.66Z" transform="translate(-51.05 -86.84)"/><path id="path4527" class="cls-2" d="M218.13,317.83c2.49,7.86,6.62,20.6,10.63,23.35,2.81,1.88,29.48,2.36,46.14,2l-3.85,2.25c-18.27.81-51.39,1.05-52.87-.66-1.07-1.23.55-4.11.65-6.25.12-2.39-3.46-9.74-5.05-16.7Z" transform="translate(-51.05 -86.84)"/><path id="path4529" class="cls-2" d="M207,328.05c.61,8.2,0,20.61,3.37,23.2,2.35,1.82,41.58-1,54.57-2.35l-3.71,2.35c-18.35,2.63-52.53,5.8-53.82,4.27-2-2.39-4.15-13.14-3.5-24.29Z" transform="translate(-51.05 -86.84)"/></g></svg>