<svg id="Ebene_1" data-name="Ebene 1" xmlns="http://www.w3.org/2000/svg" viewBox="0 0 362.26 311.86"><defs><style>.cls-1{fill:#fff;}</style></defs><title>twitterskeleton</title><g id="Layer_2" data-name="Layer 2"><g id="svg2"><g id="layer1"><path id="path4473" class="cls-1" d="M256.4,123.84c-4,3-8.68,9-7.41,10.68a14.38,14.38,0,0,0,10.44,5.6c4.31.21,9.77-12.87,11.73-20.52Z" transform="translate(-25.43 -6.7)"/><path id="path4475" class="cls-1" d="M315.71,105.58c7.82,3.1,16.72-24,63.68-48.47,4.27-2.23,6.51-8,8.3-12.09-11.66,4.36-34.35,15.17-50.35,19.5L312,100.09Z" transform="translate(-25.43 -6.7)"/><path id="path4477" class="cls-1" d="M276.88,6.7c-54.5-.14-89.22,73.25-25.63,116.23,4.47,3,15.71,1,21.54-1.74l3.42,13c12.9-2.75,31.27-12.11,42.28-21.55l-4.66-10.56c19.3-30.8,41.65-58.59,67.35-85.84-16.47,4.86-29.92,12-48.56,16.47-18.89-18.45-38.33-26-55.74-26ZM280.51,25c7.86,0,20.18,2.5,27.75,6.07,2,1.22,7,4.76,8.69,9.7,1,5.18-.09,39.69-15.74,42.62-10.54,2-36.57-7.39-38.63-17.88C258.76,46,269,28.21,274.49,25.8a16.28,16.28,0,0,1,6-.8ZM341,35.75a1.67,1.67,0,0,1,1,.24c1.49,1.07-5.19,7.59-7.7,9.3A6.41,6.41,0,0,1,332,40.7c0-1.29,6.17-4.94,9-5ZM284.31,98.56H285c3.08,1.38,3.92,7.32-.1,10.14-3.25,2.28-10.49-3.75-10.25-6.16,2.25-2.71,6.18-4,9.66-4Z" transform="translate(-25.43 -6.7)"/><path id="path4485" class="cls-1" d="M245.69,139.26c1.69.12,8.66,4.36,9,7.22.15,1.52-3.29,5.26-4.34,4.77-3.48-1.63-8.52-4.33-8.89-5.78C240.82,143.07,244,139.14,245.69,139.26Z" transform="translate(-25.43 -6.7)"/><path id="path4487" class="cls-1" d="M237.75,147.64c1.63.45,8.89,4.63,8.61,7.27-.26,2.43-3.44,5.81-4.5,4.73-1.3-1.33-6.25-4.35-8.64-5.52C231.44,153.25,236,147.12,237.75,147.64Z" transform="translate(-25.43 -6.7)"/><path id="path4489" class="cls-1" d="M256.45,157.9c7.33,2.75,21.73,4.23,35.09,5.8s25.64,3.29,28.79,6.49c6.19,6.28,6.1,12.45,1.74,12.93-7.93.88,2-7.78-69.41-19.19-6.21-1,0-4,2-4.22,1-.11.28-2.38,1.81-1.81Z" transform="translate(-25.43 -6.7)"/><path id="path4491" class="cls-1" d="M225.33,150.15c-12.31-23.26-38.92-24.32-61.83-34-4.56-1.92-12.8,11.65-8.48,12.68,15.61,3.7,39.93,21.72,40,29.89.06,5.83,6.79,14.38,10.52,9,6.67-9.62,22.63-12.19,19.78-17.58Z" transform="translate(-25.43 -6.7)"/><path id="path4493" class="cls-1" d="M98.38,86.05c-4.79-1.53-1.33,4.83.4,5.39,16.42,5.31,36.72,13.1,53.84,26.27,1.72,1.32,6.47-3.68,4.6-4.76C140,103.08,122.13,93.62,98.38,86.05Z" transform="translate(-25.43 -6.7)"/><path id="path4495" class="cls-1" d="M84.45,96.81c17.72,12.74,41.29,21.77,61.73,30,2.39,1,7.68-6.41,5.52-7.36-4-1.74-40.61-14.88-61.93-27.18-2.11-1.21-8,2.56-5.32,4.5Z" transform="translate(-25.43 -6.7)"/><path id="path4497" class="cls-1" d="M27.7,32.58C34.61,37.79,68,68.17,93.06,83.85c-.76,1.23-1.87,3.07.21,6.13-6.46-1.75-8.19-.2-13.52,3.15-16.13-12.21-37-27.47-49.56-43,2.24-1.92,28.26,24.61,30.89,22-35.29-29.31-39.34-44-33.38-39.5Z" transform="translate(-25.43 -6.7)"/><path id="path4499" class="cls-1" d="M309,213.91c3.52-.07,9,6,5.07,11-59.36,76.41-125.23,88.87-148.93,92.36-2.07.31-6-1.34-3.75-3.61,14.09-14.38,64.07-36.82,32.8-40.75,30.2-18.47,61.45-35.78,88-58.25,20.2,17.09,22.72-.71,26.79-.79Z" transform="translate(-25.43 -6.7)"/><path id="path4501" class="cls-1" d="M248.79,169.61c1.69-.82,17.83,10.77,27.12,13.78,9.45,3.06,25.27,15.37,28.53,21.48,9.13,17.19-8.78,28.41-15,12.29-5.62-14.48-24.56-24.06-29.63-26-4.15-1.6-14.16,5.54-16.19-2.45-2.09-8.2-.18-16.48,5.2-19.08Z" transform="translate(-25.43 -6.7)"/><path id="path4503" class="cls-1" d="M230.2,157.22a41.84,41.84,0,0,1,10.86,5.53c-6.89,20.2,5.72,25.17-25.51,37.21-21.24,8.18-45.93,28.62-64.89,48.27-2,2.07-6.77-2.35-4.34-6.07C163.33,216.15,221.58,154.78,230.2,157.22Z" transform="translate(-25.43 -6.7)"/><path id="path4505" class="cls-1" d="M141.13,250.71a3.37,3.37,0,0,0-1,.15c-21.9,6.95-43.06,27.06-64.81,36C82,292.1,103.48,296,64,312.71c-3.17,1.34,6.51,3.41,9.28,2.53C84.4,311.7,90.79,309,101,304.93c1.46-.59,3.47.1.41,1.86-7.43,4.25-18,7.69-25.11,10.5,24.82,4.6,44.79-3.48,53.75-21.4,2.72-5.45,18.72-6.94,19.29-11.63,1.41-11.57-1.86-33.4-8.23-33.51Zm-18.34,28.71a8.94,8.94,0,0,1,7.75,4.39c1.56,2.6-12.88,15.95-17.17,14.57-3.28-1.06,5.4-18.28,7.81-18.79A8.71,8.71,0,0,1,122.79,279.42Z" transform="translate(-25.43 -6.7)"/><path id="path4509" class="cls-1" d="M28.83,297.37a4.09,4.09,0,0,1,3.55,0c.85.5,2.33,4.46,1.26,5.29s-3.19.32-4-.27C28.2,301.28,27.83,298,28.83,297.37Z" transform="translate(-25.43 -6.7)"/><path id="path4511" class="cls-1" d="M39.12,296.38a5.25,5.25,0,0,1,5.17-.6c1.5.64,2.89,2.93,2.83,5.43,0,1.9-6.45,1.78-7.46,1.07a3.78,3.78,0,0,1-.54-5.9Z" transform="translate(-25.43 -6.7)"/><path id="path4513" class="cls-1" d="M52.6,294.23c-.65,1.51-.69,5.61,1,6.75,2.1,1.44,11.56,1.4,10.81-1.3-.67-2.38-2.53-5.79-4.77-6.5-3.35-1.07-6.66.22-7,1.05Z" transform="translate(-25.43 -6.7)"/><path id="path4515" class="cls-1" d="M66.69,291.44c-.11,2.54,2,7.9,4.19,7.66,2.62-.28,7.33-.18,6.54-3.21-1.17-4.5-4.91-7.22-6.68-6.9-3,.53-4,.77-4,2.45Z" transform="translate(-25.43 -6.7)"/><path id="path4517" class="cls-1" d="M231.59,190.85c2.93,2.08,11.56,9.78,17.64,12,8.5,3.11,2.62,5.6-4.7,2.53s-11.76-7-17.85-11.27Z" transform="translate(-25.43 -6.7)"/><path id="path4519" class="cls-1" d="M224.32,195.34c4.74,6.48,11.85,15.8,20.27,22.77,2.75,2.28.9,3.66-2.44,2.22-11.37-4.92-17.54-13.77-26-21.33Z" transform="translate(-25.43 -6.7)"/><path id="path4521" class="cls-1" d="M211.51,200.47s5.38,22.51,7.66,24.35c1.62,1.31,29.49,5.78,42.63,6.5l-3.14,2.52c-23.89-1.6-49.26-5.05-50.23-6.76s2.36-4.88,2.27-7c-.1-2.39-3.38-11.48-4.41-17.09Z" transform="translate(-25.43 -6.7)"/><path id="path4523" class="cls-1" d="M196.37,208.89c1.86,8.13,4.09,24.26,8.7,26.21,2.85,1.2,27.62,6,42,6.6l-4.15,2.73c-16.52-1.18-48.6-5-50-7.12-1.16-1.82,2.14-5.29,2-7.47-.2-3-2.32-11-3.51-17.67Z" transform="translate(-25.43 -6.7)"/><path id="path4525" class="cls-1" d="M180.83,219.72c2.59,10.06,6.76,23.26,10.83,24.77,9.58,2.69,28.73,5.93,40.51,6.63l-3.72,2.39c-16.91-1.07-48.64-4.38-49.57-5.75-.83-1.22,2.16-5.46,1.77-7.41-.78-3.87-3.48-10.56-4.59-16.65Z" transform="translate(-25.43 -6.7)"/><path id="path4527" class="cls-1" d="M167.08,231c2.49,7.86,6.62,20.6,10.63,23.35,2.82,1.88,29.48,2.36,46.14,2L220,258.59c-18.27.81-51.38,1.05-52.87-.66-1.07-1.24.55-4.12.66-6.25.11-2.39-3.46-9.74-5.06-16.7Z" transform="translate(-25.43 -6.7)"/><path id="path4529" class="cls-1" d="M156,241.21c.61,8.2,0,20.61,3.37,23.2,2.35,1.82,41.58-1,54.57-2.35l-3.7,2.34c-18.36,2.64-52.53,5.81-53.83,4.28-2-2.39-4.14-13.14-3.5-24.29Z" transform="translate(-25.43 -6.7)"/></g></g></g></svg>