<svg id="Ebene_1" data-name="Ebene 1" xmlns="http://www.w3.org/2000/svg" viewBox="0 0 397.94 326.38"><defs><style>.cls-1{fill:#1da1f2;}</style></defs><title>twitternormal</title><g id="Layer_2" data-name="Layer 2"><g id="svg2"><g id="layer1"><path id="path4600" class="cls-1" d="M109.29,326.13A236.76,236.76,0,0,1,19,301.64c-7.85-3.92-19-10.41-19-11,0-.22,7.16-.4,15.91-.4,16.83,0,23.27-.59,36.16-3.33a164.81,164.81,0,0,0,50.15-19.67c7.28-4.33,16.16-10.73,15.78-11.35-.17-.28-2.52-.71-5.21-.95-12.73-1.15-29.2-7.42-39.82-15.13a87.54,87.54,0,0,1-22.83-25.13c-2.62-4.47-7.07-14.15-7.07-15.35,0-.84,1-.85,8.85-.09,8.11.78,25.23-.91,25.23-2.5,0-.28-2.82-1.41-6.27-2.51A82.49,82.49,0,0,1,22,151.51c-4.75-9.82-6.86-17.9-8.16-31.2-.49-5,0-5.29,5.17-3a83.85,83.85,0,0,0,25.39,7.1c3,.29,4.47.2,4.47-.28s-1.67-2-3.72-3.56C30.71,109.48,19.43,90.42,15.76,71c-1.6-8.45-1.46-22.61.29-30.51,2.34-10.59,7.38-23.6,9.39-24.24.38-.13,3.26,2.6,6.4,6.06q47.35,52.1,111.7,70.28c17.77,5,50.17,10,51.48,7.84a40.78,40.78,0,0,0-.59-7.23,70.29,70.29,0,0,1,0-21.86A82.46,82.46,0,0,1,331.71,21.5c2.49,2.28,4.89,4.15,5.33,4.15,1.89,0,18.09-4.65,24.59-7,3.89-1.43,11.16-4.63,16.15-7.11S387,7,387.26,7c2,0-5.49,15.41-11,22.84a100.35,100.35,0,0,1-17.68,17.57,20,20,0,0,0-3.66,3.09c0,1.64,23.78-3.84,35-8.07,3.85-1.45,7.24-2.64,7.53-2.64,1.2,0,.3,1.65-4.13,7.58-5.75,7.7-21.42,23.58-28.77,29.15l-5.46,4.15-.41,14.44c-.46,16.22-1.21,24-3.52,36.62C344.73,188.58,316,238.66,273,274.73,240.1,302.32,200.43,319,153.68,325c-7.68,1-36.33,1.75-44.36,1.19Z" transform="translate(0 0.05)"/></g></g></g></svg>