<svg id="Ebene_1" data-name="Ebene 1" xmlns="http://www.w3.org/2000/svg" viewBox="0 0 1242 2208"><defs><style>.cls-1{fill:none;}.cls-2{fill:#1da1f2;}.cls-3{fill:#fff;}</style></defs><title>twitterbirdphone</title><rect class="cls-1" width="1242" height="2208"/><g id="Layer_2" data-name="Layer 2"><g id="svg2"><g id="layer1"><path id="path4600" class="cls-2" d="M418.77,1779.55a534,534,0,0,1-203.61-55.23c-17.7-8.84-42.84-23.48-42.84-24.81,0-.49,16.14-.9,35.87-.9,38,0,52.48-1.33,81.55-7.51a371.58,371.58,0,0,0,113.09-44.36c16.42-9.76,36.44-24.19,35.58-25.59-.38-.63-5.68-1.6-11.75-2.14-28.7-2.6-65.84-16.73-89.79-34.12a197.38,197.38,0,0,1-51.49-56.67c-5.9-10.08-15.94-31.91-15.94-34.62,0-1.89,2.26-1.91,20-.2,18.29,1.76,56.89-2.05,56.89-5.64,0-.63-6.36-3.18-14.14-5.66a186,186,0,0,1-110.22-96.33c-10.71-22.15-15.47-40.37-18.4-70.36-1.11-11.28,0-11.93,11.65-6.77a189.13,189.13,0,0,0,57.26,16c6.77.66,10.08.46,10.08-.63s-3.77-4.51-8.39-8c-32.56-25-58-68-66.27-111.78-3.61-19-3.3-51,.65-68.8,5.28-23.88,16.64-53.22,21.17-54.66.86-.3,7.36,5.86,14.44,13.66Q350.89,1211.91,496,1252.9c40.07,11.27,113.13,22.55,116.09,17.68a91.89,91.89,0,0,0-1.33-16.31,159.13,159.13,0,0,1,0-49.29c13.8-101.77,107.49-173.08,209.26-159.27a186,186,0,0,1,100.31,46.88c5.62,5.14,11,9.35,12,9.35,4.26,0,40.8-10.48,55.45-15.78,8.78-3.23,25.17-10.44,36.42-16s20.8-10.24,21.38-10.24c4.51,0-12.38,34.75-24.8,51.5A226.19,226.19,0,0,1,980.94,1151a45.89,45.89,0,0,0-8.26,7c0,3.7,53.63-8.66,78.93-18.2,8.68-3.27,16.33-6,17-6,2.71,0,.68,3.72-9.31,17.09-13,17.37-48.31,53.18-64.88,65.74L982.09,1226l-.93,32.56c-1,36.58-2.73,54.12-7.94,82.58-23.52,128.2-88.42,241.14-185.32,322.48-74.14,62.21-163.6,99.87-269,113.24-17.31,2.26-81.92,3.95-100,2.69Z"/><path id="path4473" class="cls-3" d="M750.51,1323.37c-9,6.76-19.57,20.29-16.71,24.08a32.43,32.43,0,0,0,23.55,12.63c9.72.47,22-29,26.45-46.27Z"/><path id="path4475" class="cls-3" d="M884.26,1282.19c17.64,7,37.71-54.12,143.6-109.3,9.63-5,14.68-18,18.72-27.27-26.29,9.84-77.46,34.21-113.54,44l-57.14,80.21Z"/><path id="path4477" class="cls-3" d="M796.7,1059.21c-122.9-.31-201.2,165.18-57.8,262.11,10.08,6.76,35.43,2.25,48.57-3.93l7.72,29.32c29.09-6.2,70.51-27.31,95.34-48.6L880,1274.3c43.52-69.46,93.93-132.13,151.88-193.58-37.14,11-67.47,27.06-109.51,37.15-42.59-41.61-86.43-58.64-125.69-58.64Zm8.18,41.27c17.73,0,45.51,5.64,62.58,13.69,4.51,2.75,15.79,10.73,19.6,21.87,2.25,11.68-.21,89.5-35.5,96.11-23.77,4.51-82.46-16.66-87.11-40.32-8.61-43.95,14.57-84.11,26.86-89.55a36.29,36.29,0,0,1,13.53-1.8Zm136.41,24.24a3.82,3.82,0,0,1,2.26.54c3.36,2.41-11.71,17.12-17.37,21a14.36,14.36,0,0,1-5.18-10.35c0-2.91,13.91-11.14,20.29-11.27ZM813.45,1266.36H815c6.94,3.11,8.84,16.51-.23,22.87-7.33,5.14-23.65-8.46-23.11-13.89,5.07-6.12,13.93-9,21.78-9Z"/><path id="path4485" class="cls-3" d="M726.36,1358.14c3.81.27,19.53,9.83,20.3,16.28.34,3.43-7.42,11.87-9.79,10.76-7.85-3.68-19.21-9.76-20-13C715.38,1366.73,722.55,1357.87,726.36,1358.14Z"/><path id="path4487" class="cls-3" d="M708.46,1377c3.67,1,20,10.44,19.41,16.39-.58,5.48-7.75,13.11-10.14,10.67-2.94-3-14.1-9.81-19.49-12.45C694.23,1389.69,704.4,1375.87,708.46,1377Z"/><path id="path4489" class="cls-3" d="M750.63,1400.18c16.53,6.2,49,9.54,79.13,13.08s57.82,7.41,64.92,14.63c14,14.16,13.76,28.08,3.92,29.16-17.88,2,4.51-17.55-156.52-43.28-14-2.25,0-9,4.51-9.51,2.26-.25.63-5.37,4.08-4.08Z"/><path id="path4491" class="cls-3" d="M680.45,1382.7c-27.76-52.45-87.77-54.84-139.43-76.67-10.28-4.33-28.87,26.27-19.12,28.59,35.2,8.35,90,49,90.2,67.41.13,13.14,15.31,32.42,23.72,20.29,15-21.69,51-27.49,44.61-39.64Z"/><path id="path4493" class="cls-3" d="M394.17,1238.15c-10.8-3.45-3,10.89.9,12.15,37,12,82.81,29.55,121.41,59.25,3.88,3,14.59-8.3,10.38-10.74C488,1276.55,447.73,1255.22,394.17,1238.15Z"/><path id="path4495" class="cls-3" d="M362.76,1262.41c40,28.73,93.11,49.1,139.2,67.66,5.39,2.25,17.32-14.46,12.45-16.6-9-3.92-91.58-33.56-139.66-61.29-4.76-2.73-18,5.77-12,10.14Z"/><path id="path4497" class="cls-3" d="M234.78,1117.57c15.58,11.75,90.88,80.26,147.39,115.62-1.71,2.77-4.22,6.92.48,13.82-14.57-3.94-18.47-.45-30.49,7.11-36.38-27.54-83.44-61.95-111.76-97,5-4.33,63.72,55.5,69.65,49.61-79.58-66.1-88.71-99.22-75.27-89.08Z"/><path id="path4499" class="cls-3" d="M869.13,1526.48c7.94-.16,20.3,13.53,11.43,24.81C746.7,1723.6,598.16,1751.7,544.72,1759.57c-4.67.69-13.53-3-8.46-8.15,31.77-32.42,144.48-83,74-91.89,68.1-41.65,138.57-80.68,198.44-131.36,45.55,38.54,51.24-1.6,60.42-1.78Z"/><path id="path4501" class="cls-3" d="M733.35,1426.58c3.81-1.85,40.21,24.29,61.16,31.08,21.31,6.9,57,34.66,64.34,48.44,20.59,38.76-19.8,64.06-33.83,27.71-12.67-32.65-55.38-54.26-66.82-58.63-9.35-3.61-31.93,12.49-36.51-5.53-4.71-18.49-.4-37.16,11.73-43Z"/><path id="path4503" class="cls-3" d="M691.43,1398.64a94.32,94.32,0,0,1,24.49,12.47c-15.54,45.56,12.9,56.76-57.53,83.91-47.89,18.45-103.57,64.54-146.33,108.86-4.51,4.66-15.26-5.3-9.78-13.69C540.64,1531.53,672,1393.14,691.43,1398.64Z"/><path id="path4505" class="cls-3" d="M490.57,1609.47a7.18,7.18,0,0,0-2.25.34c-49.39,15.67-97.11,61-146.15,81.18,15,11.82,63.5,20.7-25.51,58.29-7.15,3,14.68,7.69,20.93,5.71,25.05-8,39.46-14.07,62.44-23.25,3.29-1.33,7.83.22.93,4.19-16.76,9.59-40.59,17.34-56.63,23.68,56,10.37,101-7.85,121.21-48.26,6.14-12.29,42.22-15.65,43.5-26.22,3.18-26.1-4.19-75.32-18.56-75.57Zm-41.36,64.74a20.17,20.17,0,0,1,17.48,9.9c3.52,5.86-29,36-38.72,32.86-7.39-2.39,12.18-41.22,17.61-42.38A20.24,20.24,0,0,1,449.21,1674.21Z"/><path id="path4509" class="cls-3" d="M237.33,1714.69a9.27,9.27,0,0,1,8,0c1.92,1.13,5.26,10.06,2.85,11.93s-7.2.72-9-.61C235.91,1723.51,235.07,1716.11,237.33,1714.69Z"/><path id="path4511" class="cls-3" d="M260.53,1712.46a11.83,11.83,0,0,1,11.66-1.36c3.39,1.45,6.52,6.61,6.38,12.25,0,4.28-14.54,4-16.82,2.41a8.5,8.5,0,0,1-2.5-11.76A8.59,8.59,0,0,1,260.53,1712.46Z"/><path id="path4513" class="cls-3" d="M290.93,1707.61c-1.46,3.4-1.55,12.65,2.26,15.22,4.73,3.25,26.07,3.16,24.37-2.93-1.51-5.37-5.7-13.06-10.75-14.66-7.56-2.41-15,.5-15.79,2.37Z"/><path id="path4515" class="cls-3" d="M322.71,1701.32c-.25,5.73,4.51,17.81,9.44,17.27,5.91-.63,16.53-.4,14.75-7.24-2.64-10.15-11.07-16.28-15.06-15.56-6.77,1.2-9,1.74-9,5.53Z"/><path id="path4517" class="cls-3" d="M694.57,1474.48c6.6,4.69,26.06,22.06,39.78,27.06,19.16,7,5.9,12.63-10.6,5.71s-26.52-15.79-40.26-25.42Z"/><path id="path4519" class="cls-3" d="M678.17,1484.61c10.69,14.61,26.72,35.63,45.71,51.34,6.2,5.15,2,8.26-5.5,5-25.64-11.1-39.55-31-58.63-48.1Z"/><path id="path4521" class="cls-3" d="M649.28,1496.17s12.14,50.77,17.28,54.92c3.65,3,66.5,13,96.13,14.65l-7.08,5.69c-53.87-3.61-111.08-11.39-113.27-15.25s5.32-11,5.12-15.78c-.23-5.39-7.62-25.89-10-38.54Z"/><path id="path4523" class="cls-3" d="M615.14,1515.16c4.2,18.34,9.23,54.71,19.62,59.11,6.43,2.7,62.29,13.53,94.71,14.88l-9.35,6.16c-37.26-2.66-109.6-11.28-112.76-16.06-2.61-4.1,4.83-11.93,4.51-16.84-.45-6.77-5.23-24.81-7.91-39.85Z"/><path id="path4525" class="cls-3" d="M580.1,1539.58c5.84,22.69,15.24,52.46,24.42,55.86,21.6,6.07,64.79,13.37,91.35,15l-8.39,5.39c-38.13-2.41-109.68-9.87-111.78-13-1.87-2.75,4.87-12.32,4-16.71-1.76-8.73-7.84-23.82-10.35-37.55Z"/><path id="path4527" class="cls-3" d="M549.09,1565c5.62,17.73,14.93,46.46,24,52.66,6.36,4.24,66.48,5.32,104.05,4.51l-8.68,5c-41.2,1.83-115.87,2.37-119.23-1.49-2.41-2.8,1.24-9.29,1.49-14.09.25-5.39-7.8-22-11.41-37.66Z"/><path id="path4529" class="cls-3" d="M524.11,1588.05c1.37,18.49,0,46.47,7.6,52.31,5.29,4.11,93.76-2.25,123-5.3l-8.34,5.28c-41.4,6-118.46,13.1-121.39,9.65-4.51-5.39-9.34-29.63-7.89-54.77Z"/></g></g></g></svg>