<svg id="Ebene_1" data-name="Ebene 1" xmlns="http://www.w3.org/2000/svg" viewBox="0 0 1242 2208"><defs><style>.cls-1{fill:none;}.cls-2{fill:#1da1f2;}.cls-3{fill:#fff;}</style></defs><title>twitterbgphone2</title><rect class="cls-1" width="1242" height="2208"/><g id="Layer_2" data-name="Layer 2"><g id="svg2"><g id="layer1"><path id="path4600" class="cls-2" d="M440.71,1717.67a476.1,476.1,0,0,1-181.51-49.24c-15.78-7.88-38.2-20.93-38.2-22.11,0-.45,14.39-.81,32-.81,33.83,0,46.78-1.18,72.69-6.69a331,331,0,0,0,100.82-39.55c14.64-8.7,32.49-21.57,31.72-22.81-.34-.57-5.06-1.43-10.47-1.91-25.59-2.32-58.7-14.92-80.05-30.42a176.19,176.19,0,0,1-45.9-50.52c-5.27-9-14.21-28.45-14.21-30.86,0-1.69,2-1.71,17.79-.18,16.3,1.57,50.72-1.83,50.72-5,0-.56-5.67-2.83-12.6-5a165.85,165.85,0,0,1-98.27-85.89c-9.55-19.74-13.79-36-16.41-62.72-1-10.05,0-10.64,10.4-6a168.6,168.6,0,0,0,51,14.27c6,.58,9,.4,9-.56s-3.36-4-7.48-7.16c-29-22.29-51.71-60.61-59.09-99.65-3.21-17-2.93-45.46.59-61.34,4.7-21.29,14.83-47.44,18.87-48.73.77-.26,6.56,5.23,12.87,12.18q95.19,104.75,224.56,141.29c35.72,10,100.86,20.11,103.49,15.76a81.32,81.32,0,0,0-1.18-14.53,142.05,142.05,0,0,1,0-44,165.77,165.77,0,0,1,276-100.2c5,4.59,9.83,8.35,10.72,8.35,3.8,0,36.37-9.35,49.43-14.08,7.82-2.87,22.44-9.3,32.47-14.29s18.54-9.13,19.06-9.13c4,0-11,31-22.12,45.92a201.38,201.38,0,0,1-35.54,35.32,41.27,41.27,0,0,0-7.36,6.21c0,3.3,47.81-7.72,70.37-16.22,7.74-2.91,14.55-5.31,15.13-5.31,2.42,0,.61,3.32-8.3,15.24-11.56,15.48-43.06,47.41-57.84,58.6l-11,8.35-.83,29c-.92,32.61-2.43,48.25-7.07,73.62-21,114.29-78.83,215-165.22,287.48-66.1,55.47-145.85,89-239.83,101-15.44,2-73,3.52-89.19,2.4Z"/><path id="path4473" class="cls-3" d="M736.46,1311c-8,6-17.45,18.09-14.9,21.47a28.92,28.92,0,0,0,21,11.25c8.67.43,19.64-25.87,23.58-41.25Z"/><path id="path4475" class="cls-3" d="M855.7,1274.28c15.72,6.23,33.61-48.25,128-97.45,8.58-4.48,13.09-16.08,16.68-24.3-23.44,8.76-69,30.5-101.22,39.2l-50.94,71.51Z"/><path id="path4477" class="cls-3" d="M777.63,1075.49c-109.56-.28-179.36,147.26-51.52,233.67,9,6,31.58,2,43.3-3.5l6.88,26.13c25.93-5.53,62.86-24.34,85-43.32l-9.37-21.23c38.8-61.92,83.73-117.79,135.4-172.57-33.11,9.77-60.15,24.12-97.63,33.11-38-37.09-77.06-52.27-112.06-52.27Zm7.3,36.79c15.8,0,40.57,5,55.79,12.2,4,2.46,14.07,9.57,17.47,19.5,2,10.42-.18,79.8-31.64,85.69-21.19,4-73.52-14.86-77.66-36-7.68-39.18,13-75,23.94-79.83a32.45,32.45,0,0,1,12.06-1.61Zm121.61,21.61a3.45,3.45,0,0,1,2,.48c3,2.16-10.43,15.26-15.48,18.7a12.83,12.83,0,0,1-4.62-9.23c0-2.59,12.4-9.93,18.09-10Zm-114,126.27H794c6.19,2.78,7.88,14.72-.2,20.39-6.54,4.58-21.09-7.54-20.61-12.39,4.52-5.44,12.42-8,19.42-8Z"/><path id="path4485" class="cls-3" d="M714.93,1342c3.4.24,17.41,8.76,18.09,14.51.3,3.06-6.61,10.58-8.72,9.59-7-3.28-17.13-8.7-17.87-11.62C705.14,1349.65,711.53,1341.74,714.93,1342Z"/><path id="path4487" class="cls-3" d="M699,1358.83c3.27.91,17.87,9.31,17.31,14.62-.53,4.88-6.92,11.68-9,9.51-2.61-2.68-12.56-8.75-17.37-11.1C686.28,1370.11,695.35,1357.79,699,1358.83Z"/><path id="path4489" class="cls-3" d="M736.56,1379.46c14.74,5.53,43.69,8.5,70.55,11.66s51.54,6.61,57.87,13.05c12.45,12.62,12.27,25,3.5,26-15.94,1.77,4-15.64-139.54-38.58-12.48-2,0-8,4-8.48,2-.22.57-4.79,3.64-3.64Z"/><path id="path4491" class="cls-3" d="M674,1363.88c-24.75-46.76-78.25-48.89-124.3-68.35-9.17-3.86-25.74,23.42-17.05,25.49,31.38,7.44,80.27,43.66,80.41,60.09.12,11.72,13.65,28.91,21.15,18.09,13.41-19.34,45.5-24.51,39.77-35.34Z"/><path id="path4493" class="cls-3" d="M418.78,1235c-9.63-3.07-2.67,9.71.81,10.84,33,10.67,73.82,26.34,108.23,52.81,3.46,2.66,13-7.4,9.25-9.57C502.41,1269.25,466.53,1250.23,418.78,1235Z"/><path id="path4495" class="cls-3" d="M390.78,1256.65c35.62,25.61,83,43.76,124.1,60.31,4.8,2,15.44-12.89,11.09-14.8-8-3.5-81.64-29.91-124.5-54.64-4.24-2.43-16.08,5.14-10.69,9Z"/><path id="path4497" class="cls-3" d="M276.69,1127.52c13.89,10.47,81,71.55,131.4,103.07-1.53,2.47-3.76,6.17.42,12.32-13-3.51-16.47-.4-27.18,6.34-32.43-24.55-74.39-55.23-99.64-86.45,4.51-3.86,56.82,49.48,62.1,44.23-70.94-58.93-79.08-88.46-67.1-79.41Z"/><path id="path4499" class="cls-3" d="M842.21,1492.06c7.07-.14,18.09,12.06,10.19,22.11C733.06,1667.79,600.64,1692.84,553,1699.85c-4.16.63-12.06-2.69-7.54-7.25,28.33-28.91,128.81-74,65.95-81.93,60.71-37.13,123.53-71.93,176.91-117.1,40.61,34.36,45.67-1.43,53.86-1.59Z"/><path id="path4501" class="cls-3" d="M721.16,1403c3.4-1.65,35.85,21.65,54.52,27.7,19,6.16,50.81,30.9,57.36,43.19,18.35,34.56-17.65,57.11-30.16,24.7-11.29-29.11-49.37-48.37-59.56-52.27-8.35-3.21-28.47,11.14-32.55-4.92-4.2-16.49-.36-33.13,10.45-38.36Z"/><path id="path4503" class="cls-3" d="M683.79,1378.09a84.06,84.06,0,0,1,21.83,11.12c-13.85,40.61,11.5,50.6-51.28,74.81-42.7,16.44-92.34,57.53-130.46,97-4,4.16-13.61-4.73-8.72-12.21C549.36,1496.56,666.46,1373.19,683.79,1378.09Z"/><path id="path4505" class="cls-3" d="M504.72,1566a6.85,6.85,0,0,0-2,.3c-44,14-86.56,54.4-130.29,72.38,13.39,10.53,56.61,18.45-22.74,52-6.37,2.69,13.09,6.85,18.66,5.08,22.34-7.11,35.18-12.54,55.67-20.72,2.93-1.19,7,.2.82,3.73-14.93,8.55-36.18,15.46-50.48,21.11,49.9,9.25,90-7,108.06-43,5.47-11,37.63-13.95,38.78-23.38,2.83-23.26-3.74-67.15-16.55-67.37Zm-36.87,57.72a18,18,0,0,1,15.58,8.83c3.14,5.22-25.89,32.06-34.51,29.29-6.6-2.13,10.85-36.75,15.7-37.78A17.53,17.53,0,0,1,467.85,1623.76Z"/><path id="path4509" class="cls-3" d="M279,1659.85a8.27,8.27,0,0,1,7.14,0c1.7,1,4.68,9,2.53,10.63s-6.41.64-8-.54C277.69,1667.71,277,1661.11,279,1659.85Z"/><path id="path4511" class="cls-3" d="M299.65,1657.86a10.51,10.51,0,0,1,10.39-1.21c3,1.29,5.81,5.89,5.69,10.92,0,3.82-13,3.58-15,2.15a7.56,7.56,0,0,1-1.08-11.86Z"/><path id="path4513" class="cls-3" d="M326.75,1653.53c-1.31,3-1.39,11.28,2,13.57,4.22,2.9,23.24,2.82,21.73-2.61-1.35-4.78-5.09-11.64-9.59-13.07-6.74-2.15-13.39.45-14.07,2.11Z"/><path id="path4515" class="cls-3" d="M355.07,1647.93c-.22,5.1,4,15.88,8.43,15.39,5.26-.56,14.73-.36,13.14-6.45-2.35-9-9.87-14.51-13.43-13.87-6,1.07-8,1.55-8,4.93Z"/><path id="path4517" class="cls-3" d="M686.58,1445.7c5.89,4.18,23.24,19.66,35.47,24.13,17.08,6.25,5.26,11.25-9.45,5.08s-23.64-14.07-35.89-22.65Z"/><path id="path4519" class="cls-3" d="M672,1454.73c9.53,13,23.82,31.76,40.75,45.77,5.53,4.59,1.81,7.36-4.91,4.47-22.85-9.89-35.26-27.69-52.27-42.88Z"/><path id="path4521" class="cls-3" d="M646.22,1465s10.81,45.25,15.39,49c3.26,2.64,59.29,11.62,85.71,13.07l-6.32,5.07c-48-3.22-99-10.16-101-13.59s4.75-9.81,4.57-14.08c-.2-4.8-6.8-23.07-8.87-34.35Z"/><path id="path4523" class="cls-3" d="M615.78,1482c3.74,16.34,8.22,48.77,17.49,52.69,5.73,2.41,55.52,12.06,84.43,13.27l-8.34,5.49c-33.21-2.37-97.7-10.05-100.52-14.32-2.33-3.66,4.3-10.63,4-15-.4-6-4.66-22.12-7.05-35.53Z"/><path id="path4525" class="cls-3" d="M584.54,1503.74c5.2,20.23,13.59,46.76,21.77,49.8,19.26,5.41,57.76,11.92,81.44,13.33l-7.48,4.8c-34-2.15-97.78-8.8-99.65-11.56-1.67-2.45,4.34-11,3.55-14.9-1.56-7.78-7-21.22-9.22-33.47Z"/><path id="path4527" class="cls-3" d="M556.89,1526.42c5,15.8,13.31,41.41,21.37,46.94,5.67,3.78,59.27,4.74,92.76,4l-7.74,4.5C626.55,1583.51,560,1584,557,1580.56c-2.15-2.5,1.11-8.29,1.33-12.57.22-4.8-7-19.58-10.17-33.57Z"/><path id="path4529" class="cls-3" d="M534.62,1546.94c1.23,16.49,0,41.44,6.77,46.64,4.73,3.66,83.6-2,109.71-4.72l-7.44,4.7c-36.91,5.31-105.6,11.68-108.22,8.61-4-4.81-8.32-26.42-7-48.83Z"/></g></g></g></svg>