<svg id="Ebene_1" data-name="Ebene 1" xmlns="http://www.w3.org/2000/svg" viewBox="0 0 1242 2208"><defs><style>.cls-1{fill:none;}.cls-2{fill:#1da1f2;}.cls-3{fill:#fff;}</style></defs><title>twitterbirdphone</title><rect class="cls-1" width="1242" height="2208"/><g id="Layer_2" data-name="Layer 2"><g id="svg2"><g id="layer1"><path id="path4600" class="cls-2" d="M407.81,1777.46a562.66,562.66,0,0,1-214.64-58.22c-18.66-9.31-45.17-24.74-45.17-26.15,0-.52,17-.95,37.82-.95,40,0,55.32-1.4,86-7.91A391.62,391.62,0,0,0,391,1637.47c17.31-10.3,38.42-25.51,37.52-27-.41-.66-6-1.68-12.39-2.25-30.26-2.74-69.41-17.64-94.66-36a208.1,208.1,0,0,1-54.27-59.74c-6.23-10.63-16.81-33.64-16.81-36.49,0-2,2.38-2,21-.22,19.28,1.86,60-2.16,60-5.94,0-.67-6.71-3.35-14.91-6a196.14,196.14,0,0,1-116.2-101.56C189,1339,184,1319.79,180.9,1288.17c-1.16-11.88,0-12.57,12.29-7.13a199.58,199.58,0,0,0,60.36,16.88c7.13.69,10.63.48,10.63-.66s-4-4.76-8.85-8.47c-34.32-26.36-61.14-71.67-69.86-117.84-3.81-20.09-3.48-53.75.69-72.53,5.56-25.18,17.54-56.1,22.32-57.63.9-.3,7.75,6.19,15.21,14.41q112.56,123.85,265.54,167.08c42.25,11.88,119.27,23.77,122.39,18.63a96.92,96.92,0,0,0-1.41-17.18,167.73,167.73,0,0,1,0-52c14.56-107.28,113.32-182.45,220.6-167.9a196,196,0,0,1,105.76,49.42c5.91,5.42,11.62,9.86,12.67,9.86,4.49,0,43-11.05,58.45-16.64,9.25-3.4,26.53-11,38.4-16.9s21.91-10.79,22.53-10.79c4.76,0-13,36.63-26.15,54.29a238.4,238.4,0,0,1-42,41.77,48.14,48.14,0,0,0-8.7,7.35c0,3.9,56.53-9.13,83.21-19.19,9.15-3.45,17.21-6.27,17.9-6.27,2.85,0,.71,3.92-9.82,18-13.67,18.3-50.92,56-68.4,69.29l-13,9.87-1,34.33c-1.09,38.56-2.88,57-8.37,87-24.79,135.15-93.21,254.2-195.36,340-78.17,65.59-172.47,105.29-283.61,119.39-18.26,2.38-86.37,4.16-105.46,2.83Z"/><path id="path4473" class="cls-3" d="M757.53,1296.57C748,1303.7,736.9,1318,739.92,1322a34.14,34.14,0,0,0,24.82,13.32c10.24.5,23.22-30.6,27.88-48.78Z"/><path id="path4475" class="cls-3" d="M898.53,1253.16c18.59,7.37,39.75-57.06,151.38-115.23,10.15-5.3,15.48-19,19.73-28.74-27.71,10.36-81.65,36.06-119.69,46.36l-60.24,84.56Z"/><path id="path4477" class="cls-3" d="M806.22,1018.09c-129.56-.33-212.1,174.14-60.93,276.31,10.63,7.13,37.35,2.38,51.21-4.13l8.13,30.9c30.66-6.54,74.33-28.79,100.51-51.23l-11.08-25.1c45.88-73.22,99-139.29,160.11-204.07-39.15,11.55-71.13,28.53-115.44,39.15-44.91-43.86-91.12-61.8-132.51-61.8Zm8.63,43.51c18.68,0,48,5.94,66,14.43,4.75,2.9,16.64,11.31,20.66,23.06,2.37,12.31-.22,94.35-37.42,101.31-25.06,4.76-86.94-17.56-91.84-42.5-9.08-46.33,15.36-88.67,28.32-94.4a38.13,38.13,0,0,1,14.26-1.9Zm143.8,25.55a4.07,4.07,0,0,1,2.38.57c3.54,2.55-12.34,18-18.31,22.11a15.19,15.19,0,0,1-5.47-10.91c0-3.07,14.67-11.74,21.4-11.89ZM823.88,1236.47h1.64c7.32,3.28,9.32,17.4-.24,24.1-7.72,5.42-24.93-8.91-24.36-14.64,5.35-6.44,14.69-9.51,23-9.51Z"/><path id="path4485" class="cls-3" d="M732.07,1333.22c4,.29,20.59,10.37,21.4,17.17.35,3.61-7.82,12.5-10.32,11.34-8.27-3.88-20.25-10.3-21.13-13.74C720.49,1342.28,728.05,1332.94,732.07,1333.22Z"/><path id="path4487" class="cls-3" d="M713.2,1353.14c3.87,1.07,21.13,11,20.46,17.29-.61,5.77-8.17,13.81-10.69,11.24-3.09-3.16-14.86-10.34-20.54-13.12C698.2,1366.48,708.92,1351.91,713.2,1353.14Z"/><path id="path4489" class="cls-3" d="M757.65,1377.54c17.43,6.53,51.66,10,83.42,13.78s60.95,7.82,68.44,15.43c14.72,14.93,14.5,29.6,4.14,30.74-18.85,2.09,4.75-18.49-165-45.62-14.76-2.38,0-9.51,4.76-10,2.37-.26.66-5.66,4.3-4.3Z"/><path id="path4491" class="cls-3" d="M683.67,1359.11c-29.26-55.29-92.52-57.81-147-80.83-10.84-4.56-30.43,27.7-20.16,30.15,37.11,8.79,94.93,51.63,95.1,71,.14,13.86,16.14,34.19,25,21.4,15.86-22.87,53.8-29,47-41.79Z"/><path id="path4493" class="cls-3" d="M381.88,1206.73c-11.39-3.64-3.17,11.48.95,12.81,39,12.63,87.29,31.14,128,62.45,4.09,3.14,15.38-8.75,10.93-11.31C480.77,1247.21,438.34,1224.72,381.88,1206.73Z"/><path id="path4495" class="cls-3" d="M348.76,1232.31c42.13,30.28,98.16,51.75,146.75,71.32,5.68,2.37,18.26-15.24,13.12-17.5-9.51-4.14-96.54-35.37-147.22-64.61-5-2.88-19,6.08-12.65,10.69Z"/><path id="path4497" class="cls-3" d="M213.85,1079.62c16.43,12.38,95.8,84.6,155.38,121.88-1.81,2.92-4.45,7.3.5,14.57-15.36-4.16-19.47-.47-32.14,7.49-38.35-29-88-65.3-117.82-102.22,5.32-4.57,67.18,58.5,73.43,52.3-83.89-69.68-93.52-104.6-79.35-93.91Z"/><path id="path4499" class="cls-3" d="M882.58,1510.69c8.37-.17,21.39,14.26,12,26.15-141.11,181.64-297.71,211.26-354,219.56-4.92.74-14.26-3.18-8.91-8.58,33.49-34.19,152.31-87.53,78-96.87,71.8-43.91,146.09-85.06,209.2-138.48,48,40.63,54-1.69,63.69-1.88Z"/><path id="path4501" class="cls-3" d="M739.44,1405.37c4-1.95,42.39,25.61,64.47,32.76,22.47,7.28,60.08,36.54,67.83,51.07,21.7,40.86-20.88,67.53-35.66,29.21-13.36-34.42-58.39-57.19-70.44-61.81-9.87-3.8-33.66,13.17-38.49-5.82-5-19.49-.43-39.18,12.36-45.36Z"/><path id="path4503" class="cls-3" d="M695.25,1375.92a99.55,99.55,0,0,1,25.82,13.15c-16.38,48,13.59,59.83-60.65,88.45-50.49,19.45-109.19,68-154.26,114.75-4.75,4.93-16.09-5.58-10.32-14.43C536.28,1516,674.76,1370.12,695.25,1375.92Z"/><path id="path4505" class="cls-3" d="M483.5,1598.17a8,8,0,0,0-2.37.36c-52.07,16.52-102.37,64.33-154.07,85.58,15.83,12.46,66.94,21.82-26.89,61.45-7.54,3.19,15.48,8.11,22.06,6,26.41-8.42,41.6-14.84,65.83-24.51,3.47-1.41,8.25.23,1,4.42-17.66,10.1-42.79,18.28-59.69,25,59,10.93,106.48-8.27,127.78-50.87,6.46-13,44.5-16.5,45.85-27.65,3.36-27.51-4.42-79.4-19.56-79.66Zm-43.59,68.25a21.26,21.26,0,0,1,18.42,10.44c3.71,6.18-30.62,37.92-40.82,34.63-7.8-2.52,12.84-43.45,18.57-44.66A20.5,20.5,0,0,1,439.91,1666.42Z"/><path id="path4509" class="cls-3" d="M216.54,1709.09a9.82,9.82,0,0,1,8.44,0c2,1.19,5.54,10.61,3,12.58s-7.58.76-9.51-.64C215,1718.39,214.16,1710.59,216.54,1709.09Z"/><path id="path4511" class="cls-3" d="M241,1706.74a12.47,12.47,0,0,1,12.29-1.43c3.57,1.53,6.87,7,6.73,12.91,0,4.52-15.34,4.23-17.74,2.55a9,9,0,0,1-2.64-12.4A8.85,8.85,0,0,1,241,1706.74Z"/><path id="path4513" class="cls-3" d="M273,1701.63c-1.54,3.59-1.64,13.34,2.38,16,5,3.42,27.48,3.32,25.7-3.09-1.59-5.66-6-13.77-11.34-15.46-8-2.54-15.83.53-16.64,2.5Z"/><path id="path4515" class="cls-3" d="M306.54,1695c-.26,6,4.75,18.78,10,18.21,6.23-.67,17.43-.43,15.55-7.63-2.78-10.7-11.67-17.17-15.88-16.41-7.13,1.26-9.51,1.83-9.51,5.83Z"/><path id="path4517" class="cls-3" d="M698.55,1455.87c7,4.94,27.48,23.25,41.94,28.52,20.2,7.4,6.23,13.32-11.18,6s-27.95-16.64-42.43-26.79Z"/><path id="path4519" class="cls-3" d="M681.27,1466.54c11.27,15.41,28.17,37.56,48.19,54.13,6.53,5.42,2.14,8.7-5.8,5.28-27-11.7-41.7-32.74-61.81-50.71Z"/><path id="path4521" class="cls-3" d="M650.82,1478.74s12.79,53.51,18.21,57.88c3.85,3.12,70.1,13.74,101.34,15.45l-7.46,6c-56.8-3.81-117.11-12-119.42-16.07s5.62-11.61,5.4-16.65c-.24-5.68-8-27.29-10.48-40.62Z"/><path id="path4523" class="cls-3" d="M614.82,1498.75c4.43,19.33,9.73,57.68,20.69,62.31,6.77,2.85,65.66,14.26,99.84,15.69l-9.86,6.49c-39.28-2.8-115.54-11.89-118.87-16.93-2.75-4.32,5.09-12.57,4.76-17.75-.48-7.14-5.52-26.15-8.35-42Z"/><path id="path4525" class="cls-3" d="M577.88,1524.5c6.16,23.91,16.07,55.29,25.75,58.88,22.77,6.4,68.3,14.1,96.3,15.76l-8.84,5.69c-40.2-2.55-115.63-10.42-117.84-13.67-2-2.9,5.13-13,4.2-17.62-1.85-9.2-8.27-25.1-10.91-39.58Z"/><path id="path4527" class="cls-3" d="M545.19,1551.31c5.92,18.69,15.74,49,25.28,55.51,6.7,4.47,70.08,5.61,109.68,4.76L671,1616.9c-43.43,1.93-122.14,2.5-125.69-1.57-2.54-2.94,1.31-9.79,1.57-14.85.26-5.69-8.22-23.16-12-39.7Z"/><path id="path4529" class="cls-3" d="M518.85,1575.59c1.45,19.49,0,49,8,55.15,5.58,4.33,98.84-2.38,129.72-5.59l-8.79,5.57c-43.65,6.27-124.88,13.81-128,10.17-4.76-5.68-9.84-31.24-8.32-57.74Z"/></g></g></g></svg>