<svg id="Ebene_1" data-name="Ebene 1" xmlns="http://www.w3.org/2000/svg" viewBox="0 0 850 500"><defs><style>.cls-1{fill:#141d26;}.cls-2{fill:#1da1f2;}.cls-3,.cls-4{fill:#fff;}.cls-4{font-size:60px;font-family:HelveticaNeue-Medium, Helvetica Neue;}</style></defs><title>twitter_insight_main</title><rect class="cls-1" width="850" height="500"/><g id="Layer_2" data-name="Layer 2"><g id="svg2"><g id="layer1"><path id="path4600" class="cls-2" d="M355.14,321a184.43,184.43,0,0,1-70.34-19.08c-6.11-3.05-14.8-8.11-14.8-8.57,0-.17,5.58-.31,12.39-.31,13.12,0,18.13-.46,28.17-2.59a128.21,128.21,0,0,0,39.07-15.33c5.67-3.37,12.59-8.36,12.29-8.84a13.07,13.07,0,0,0-4.05-.74c-9.92-.89-22.75-5.78-31-11.78a68.3,68.3,0,0,1-17.79-19.58c-2-3.48-5.51-11-5.51-12,0-.65.78-.66,6.9-.07,6.31.61,19.65-.71,19.65-2,0-.22-2.2-1.1-4.88-1.95a64.28,64.28,0,0,1-38.08-33.28c-3.7-7.65-5.35-13.95-6.36-24.31-.38-3.89,0-4.12,4-2.34a65.25,65.25,0,0,0,19.78,5.54c2.34.22,3.48.15,3.48-.22s-1.3-1.56-2.9-2.78c-11.25-8.63-20-23.48-22.89-38.61-1.25-6.58-1.14-17.62.22-23.77,1.83-8.25,5.75-18.38,7.32-18.88.29-.1,2.54,2,5,4.72q36.9,40.59,87,54.75c13.84,3.89,39.08,7.79,40.1,6.11a31.33,31.33,0,0,0-.45-5.64,54.64,54.64,0,0,1,0-17A64.23,64.23,0,0,1,528.41,83.66c1.94,1.77,3.81,3.23,4.15,3.23,1.47,0,14.09-3.62,19.16-5.45,3-1.12,8.69-3.61,12.58-5.54s7.18-3.54,7.38-3.54c1.56,0-4.27,12-8.57,17.79a77.92,77.92,0,0,1-13.77,13.69,16,16,0,0,0-2.85,2.41c0,1.28,18.53-3,27.27-6.29,3-1.13,5.64-2,5.86-2,.94,0,.24,1.28-3.22,5.9-4.47,6-16.68,18.37-22.41,22.71l-4.25,3.23L549.42,141c-.36,12.64-.94,18.7-2.74,28.53-8.13,44.29-30.55,83.3-64,111.4-25.62,21.49-56.52,34.5-92.94,39.12-6,.78-28.3,1.36-34.56.93Z"/><path id="path4473" class="cls-3" d="M469.74,163.38c-3.11,2.34-6.76,7-5.77,8.32a11.16,11.16,0,0,0,8.13,4.36c3.36.17,7.61-10,9.14-16Z"/><path id="path4475" class="cls-3" d="M515.94,149.16c6.1,2.41,13-18.7,49.61-37.76,3.33-1.74,5.07-6.23,6.47-9.42-9.08,3.4-26.76,11.82-39.22,15.19l-19.75,27.71Z"/><path id="path4477" class="cls-3" d="M485.7,72.13c-42.46-.11-69.51,57.06-20,90.54,3.48,2.34,12.24.78,16.78-1.35l2.66,10.12c10.05-2.14,24.36-9.43,32.94-16.78l-3.63-8.23c15-24,32.45-45.64,52.47-66.87-12.83,3.79-23.31,9.35-37.83,12.83C514.4,78,499.26,72.14,485.7,72.14Zm2.82,14.25a59.56,59.56,0,0,1,21.62,4.73c1.56,1,5.45,3.71,6.77,7.56.78,4-.07,30.92-12.26,33.2-8.21,1.56-28.49-5.76-30.09-13.93-3-15.18,5-29.06,9.27-30.93a12.6,12.6,0,0,1,4.68-.63Zm47.13,8.38a1.34,1.34,0,0,1,.78.18c1.16.84-4,5.92-6,7.25a5,5,0,0,1-1.79-3.58c0-1,4.8-3.84,7-3.89Zm-44.17,48.93H492c2.4,1.07,3.05,5.7-.08,7.9-2.53,1.77-8.17-2.92-8-4.8a10,10,0,0,1,7.52-3.12Z"/><path id="path4485" class="cls-3" d="M461.4,175.39c1.31.1,6.74,3.4,7,5.63.12,1.18-2.56,4.1-3.38,3.71-2.71-1.26-6.64-3.37-6.93-4.5C457.6,178.36,460.08,175.3,461.4,175.39Z"/><path id="path4487" class="cls-3" d="M455.21,181.92c1.27.35,6.93,3.61,6.71,5.67-.2,1.89-2.68,4.52-3.51,3.68a37.1,37.1,0,0,0-6.73-4.3C450.3,186.29,453.81,181.52,455.21,181.92Z"/><path id="path4489" class="cls-3" d="M469.78,189.92c5.71,2.14,16.93,3.29,27.34,4.51s20,2.57,22.42,5.06c4.83,4.89,4.76,9.7,1.36,10.07-6.18.69,1.56-6.06-54.07-14.95-4.84-.78,0-3.11,1.56-3.28.77-.09.21-1.86,1.41-1.41Z"/><path id="path4491" class="cls-3" d="M445.54,183.88c-9.59-18.12-30.32-18.95-48.17-26.49-3.55-1.49-10,9.08-6.61,9.88,12.16,2.88,31.11,16.92,31.16,23.28.05,4.55,5.29,11.21,8.2,7,5.2-7.5,17.63-9.5,15.41-13.7Z"/><path id="path4493" class="cls-3" d="M346.64,133.94c-3.73-1.19-1,3.77.31,4.2,12.79,4.14,28.61,10.21,41.94,20.47,1.34,1,5-2.87,3.59-3.71C379.05,147.21,365.14,139.84,346.64,133.94Z"/><path id="path4495" class="cls-3" d="M335.79,142.33c13.8,9.92,32.16,16.95,48.09,23.37,1.86.77,6-5,4.3-5.74-3.12-1.35-31.64-11.59-48.25-21.17-1.64-.94-6.23,2-4.14,3.5Z"/><path id="path4497" class="cls-3" d="M291.58,92.29C297,96.35,323,120,342.5,132.23c-.6,1-1.46,2.39.16,4.77-5-1.36-6.38-.15-10.53,2.46-12.57-9.51-28.83-21.4-38.61-33.5,1.74-1.5,22,19.17,24.06,17.14-27.49-22.83-30.64-34.28-26-30.77Z"/><path id="path4499" class="cls-3" d="M510.72,233.55c2.74-.06,7,4.67,3.95,8.57-46.25,59.52-97.56,69.23-116,71.95-1.61.24-4.68-1.05-2.92-2.81,11-11.21,49.91-28.69,25.55-31.75,23.52-14.39,47.87-27.87,68.55-45.38,15.74,13.32,17.7-.55,20.87-.61Z"/><path id="path4501" class="cls-3" d="M463.81,199c1.32-.64,13.89,8.39,21.13,10.73s19.69,12,22.23,16.74c7.11,13.39-6.84,22.13-11.69,9.57-4.38-11.28-19.13-18.74-23.08-20.25-3.24-1.25-11,4.31-12.61-1.91-1.63-6.39-.14-12.84,4-14.87Z"/><path id="path4503" class="cls-3" d="M449.33,189.39a32.29,32.29,0,0,1,8.46,4.3c-5.37,15.74,4.46,19.61-19.87,29-16.55,6.37-35.78,22.3-50.55,37.6-1.56,1.62-5.28-1.83-3.38-4.72C397.24,235.29,442.62,187.48,449.33,189.39Z"/><path id="path4505" class="cls-3" d="M379.94,262.22a2.63,2.63,0,0,0-.78.11c-17.06,5.42-33.54,21.08-50.48,28.05,5.18,4.08,21.93,7.15-8.81,20.14-2.47,1,5.07,2.65,7.22,2,8.66-2.76,13.64-4.86,21.58-8,1.13-.46,2.7.07.32,1.44-5.79,3.31-14,6-19.57,8.18,19.34,3.59,34.9-2.71,41.88-16.67,2.12-4.24,14.58-5.4,15-9.06,1.1-9-1.45-26-6.41-26.1Zm-14.28,22.36a7,7,0,0,1,6,3.42c1.22,2-10,12.43-13.37,11.35-2.56-.82,4.2-14.24,6.08-14.64A7.47,7.47,0,0,1,365.66,284.58Z"/><path id="path4509" class="cls-3" d="M292.46,298.57a3.18,3.18,0,0,1,2.76,0c.67.39,1.82,3.47,1,4.12a3.14,3.14,0,0,1-3.12-.21C292,301.61,291.68,299.06,292.46,298.57Z"/><path id="path4511" class="cls-3" d="M300.48,297.79a4.08,4.08,0,0,1,4-.46,4.63,4.63,0,0,1,2.21,4.23c0,1.48-5,1.38-5.81.83a2.93,2.93,0,0,1-.42-4.6Z"/><path id="path4513" class="cls-3" d="M311,296.12c-.51,1.18-.54,4.37.78,5.26,1.63,1.12,9,1.09,8.42-1-.53-1.86-2-4.52-3.72-5.07-2.61-.83-5.19.17-5.45.82Z"/><path id="path4515" class="cls-3" d="M322,294c-.08,2,1.56,6.15,3.27,6,2-.21,5.71-.14,5.09-2.5-.91-3.5-3.82-5.62-5.2-5.37-2.34.41-3.12.6-3.12,1.91Z"/><path id="path4517" class="cls-3" d="M450.41,215.58c2.29,1.62,9,7.62,13.75,9.35,6.62,2.43,2,4.37-3.67,2s-9.16-5.45-13.9-8.78Z"/><path id="path4519" class="cls-3" d="M444.75,219.08c3.69,5,9.23,12.31,15.79,17.74,2.14,1.78.7,2.85-1.9,1.73-8.86-3.83-13.66-10.73-20.25-16.62Z"/><path id="path4521" class="cls-3" d="M434.77,223.08s4.19,17.53,6,19c1.26,1,23,4.5,33.21,5.06l-2.45,2c-18.61-1.24-38.37-3.93-39.13-5.26s1.84-3.8,1.77-5.45c-.08-1.87-2.63-9-3.44-13.32Z"/><path id="path4523" class="cls-3" d="M423,229.64c1.45,6.33,3.18,18.9,6.77,20.42,2.22.93,21.52,4.67,32.72,5.14l-3.23,2.12c-12.87-.92-37.86-3.89-38.95-5.54-.9-1.42,1.67-4.12,1.56-5.82-.16-2.34-1.81-8.57-2.74-13.77Z"/><path id="path4525" class="cls-3" d="M410.87,238.07c2,7.84,5.27,18.12,8.44,19.3a188.72,188.72,0,0,0,31.56,5.17L448,264.4c-13.18-.84-37.89-3.41-38.62-4.48s1.68-4.26,1.38-5.77c-.61-3-2.71-8.23-3.58-13Z"/><path id="path4527" class="cls-3" d="M400.16,246.86c1.94,6.13,5.16,16.05,8.28,18.19,2.2,1.47,23,1.84,35.94,1.56l-3,1.75c-14.23.63-40,.81-41.18-.52-.84-1,.43-3.21.51-4.87.09-1.86-2.69-7.59-3.94-13Z"/><path id="path4529" class="cls-3" d="M391.53,254.82c.47,6.38,0,16.05,2.62,18.07,1.83,1.42,32.39-.78,42.51-1.83l-2.88,1.82c-14.3,2.06-40.92,4.53-41.93,3.34-1.56-1.87-3.23-10.24-2.73-18.93Z"/></g></g></g><text class="cls-4" transform="translate(331.64 413.49)">Insight</text></svg>