<?xml version="1.0" encoding="UTF-8" standalone="no"?>
<!-- Created with Inkscape (http://www.inkscape.org/) -->

<svg
   xmlns:dc="http://purl.org/dc/elements/1.1/"
   xmlns:cc="http://creativecommons.org/ns#"
   xmlns:rdf="http://www.w3.org/1999/02/22-rdf-syntax-ns#"
   xmlns:svg="http://www.w3.org/2000/svg"
   xmlns="http://www.w3.org/2000/svg"
   xmlns:sodipodi="http://sodipodi.sourceforge.net/DTD/sodipodi-0.dtd"
   xmlns:inkscape="http://www.inkscape.org/namespaces/inkscape"
   width="210mm"
   height="297mm"
   viewBox="0 0 744.09448819 1052.3622047"
   id="svg2"
   version="1.1"
   inkscape:version="0.91 r13725"
   sodipodi:docname="twitterAPIlogo.svg">
  <defs
     id="defs4" />
  <sodipodi:namedview
     id="base"
     pagecolor="#ffffff"
     bordercolor="#666666"
     borderopacity="1.0"
     inkscape:pageopacity="0.0"
     inkscape:pageshadow="2"
     inkscape:zoom="0.7"
     inkscape:cx="228.01066"
     inkscape:cy="543.0188"
     inkscape:document-units="px"
     inkscape:current-layer="layer1"
     showgrid="false"
     inkscape:window-width="1920"
     inkscape:window-height="1017"
     inkscape:window-x="-8"
     inkscape:window-y="-8"
     inkscape:window-maximized="1" />
  <metadata
     id="metadata7">
    <rdf:RDF>
      <cc:Work
         rdf:about="">
        <dc:format>image/svg+xml</dc:format>
        <dc:type
           rdf:resource="http://purl.org/dc/dcmitype/StillImage" />
        <dc:title></dc:title>
      </cc:Work>
    </rdf:RDF>
  </metadata>
  <g
     inkscape:label="Ebene 1"
     inkscape:groupmode="layer"
     id="layer1">
    <path
       style="opacity:1;fill:#1da1f2;fill-opacity:1"
       d="m 264.17084,733.133 c -39.78967,-2.73992 -77.67144,-13.01619 -112.8528,-30.61375 -9.8061,-4.90493 -23.76193,-13.00951 -23.76222,-13.79936 -6e-5,-0.27701 8.95015,-0.50375 19.88955,-0.50375 21.03042,0 29.08266,-0.74008 45.20359,-4.15507 21.98039,-4.65614 43.08562,-12.93809 62.68211,-24.59755 9.09546,-5.41144 20.20502,-13.40528 19.72033,-14.18954 -0.21396,-0.3461 -3.14405,-0.87888 -6.51159,-1.18396 -15.90494,-1.44132 -36.50014,-9.2683 -49.77332,-18.91598 -11.01835,-8.00866 -21.81524,-19.88841 -28.53922,-31.40137 -3.26524,-5.5908 -8.82891,-17.68847 -8.82891,-19.1975 0,-1.04204 1.29875,-1.05503 11.05994,-0.11059 10.13611,0.98069 31.53171,-1.13904 31.53171,-3.12411 0,-0.35145 -3.52586,-1.76165 -7.83531,-3.13367 -26.53328,-8.44785 -48.76574,-27.8591 -61.10541,-53.35179 -5.94364,-12.27894 -8.58473,-22.37023 -10.20809,-39.00403 -0.61035,-6.25301 0.0138,-6.61393 6.46473,-3.73505 10.77645,4.80951 22.1379,7.98828 31.7425,8.88092 3.79672,0.35293 5.58246,0.23987 5.58246,-0.35326 0,-0.4796 -2.09238,-2.482 -4.64969,-4.44987 -18.03589,-13.8782 -32.13886,-37.69897 -36.72614,-62.03272 -1.99319,-10.57315 -1.82668,-28.267 0.359,-38.14985 2.92705,-13.23493 9.22601,-29.48855 11.74179,-30.29835 0.47321,-0.15237 4.07314,3.25733 7.99953,7.57716 39.46077,43.41422 85.99216,72.69025 139.62484,87.84777 22.21293,6.27775 62.71819,12.44972 64.35235,9.80559 0.20656,-0.3342 -0.12587,-4.40257 -0.73876,-9.04071 -1.41137,-10.68023 -1.40642,-16.7438 0.0224,-27.31789 5.29403,-39.18551 32.37031,-71.68658 69.98659,-84.00876 35.27896,-11.55649 74.42659,-3.17135 101.59482,21.76083 3.11111,2.85515 6.10717,5.19001 6.65786,5.18863 2.35824,-0.008 22.61635,-5.80412 30.73501,-8.79661 4.86182,-1.79214 13.94765,-5.78903 20.19059,-8.88202 6.24291,-3.09306 11.57693,-5.62366 11.85338,-5.62366 2.44157,0 -6.87096,19.25424 -13.80413,28.54082 -5.27592,7.06681 -14.96727,16.70108 -22.10206,21.97183 -2.51669,1.85911 -4.57573,3.59182 -4.57573,3.85033 0,2.05761 29.72594,-4.78782 43.76659,-10.07889 4.816,-1.81484 9.05326,-3.2997 9.41597,-3.2997 1.4921,0 0.37098,2.05609 -5.16548,9.47348 -7.18355,9.62419 -26.77657,29.4784 -35.96288,36.44239 l -6.83071,5.17818 -0.51164,18.04915 c -0.5751,20.28347 -1.51041,30.01562 -4.39974,45.77395 -13.03125,71.07177 -49.00559,133.66986 -102.72306,178.74551 -41.10177,34.48961 -90.68034,55.36026 -149.12106,62.77426 -9.59797,1.21762 -45.41893,2.17935 -55.44958,1.48856 z"
       id="path4600"
       inkscape:connector-curvature="0"
       inkscape:export-filename="C:\Users\el Gaulo\Desktop\path4529.png"
       inkscape:export-xdpi="299"
       inkscape:export-ydpi="299" />
    <path
       style="fill:#ffffff;fill-rule:evenodd;stroke:none;stroke-width:5;stroke-linecap:butt;stroke-linejoin:miter;stroke-miterlimit:4;stroke-dasharray:none;stroke-opacity:1"
       d="m 448.05194,480.26492 c -4.99628,3.72704 -10.84123,11.29012 -9.2615,13.34934 2.88071,3.75478 7.68085,6.7435 13.05834,7.00267 5.37749,0.25925 12.20791,-16.09248 14.66226,-25.6534 z"
       id="path4473"
       inkscape:connector-curvature="0"
       sodipodi:nodetypes="cszcc"
       inkscape:export-filename="C:\Users\el Gaulo\Desktop\path4529.png"
       inkscape:export-xdpi="299"
       inkscape:export-ydpi="299" />
    <path
       style="opacity:1;fill:#ffffff;fill-rule:evenodd;stroke:none;stroke-width:5;stroke-linecap:butt;stroke-linejoin:miter;stroke-miterlimit:4;stroke-dasharray:none;stroke-opacity:1"
       d="m 522.19266,457.44658 c 9.77393,3.87288 20.90046,-30.05079 79.60265,-60.59722 5.33643,-2.77686 8.13193,-9.96606 10.37804,-15.10796 -14.57626,5.45476 -42.94638,18.96598 -62.94846,24.36995 l -31.72936,44.47021 z"
       id="path4475"
       inkscape:connector-curvature="0"
       sodipodi:nodetypes="cscccc"
       inkscape:export-filename="C:\Users\el Gaulo\Desktop\path4529.png"
       inkscape:export-xdpi="299"
       inkscape:export-ydpi="299" />
    <path
       style="opacity:1;fill:#ffffff;fill-rule:evenodd;stroke:none;stroke-width:5;stroke-linecap:butt;stroke-linejoin:miter;stroke-miterlimit:4;stroke-dasharray:none;stroke-opacity:1"
       d="m 473.65215,333.83778 c -68.11853,-0.16441 -111.5225,91.57027 -32.03316,145.28765 5.58461,3.77399 19.63725,1.26297 26.9184,-2.16762 l 4.27643,16.28729 c 16.13194,-3.43457 39.09621,-15.1438 52.85514,-26.93719 l -5.8251,-13.19735 c 24.12299,-38.50784 52.06341,-73.24618 84.18684,-107.31084 -20.58855,6.07511 -37.39782,15.00537 -60.70119,20.5953 -23.61355,-23.06576 -47.90762,-32.50471 -69.67736,-32.55724 z m 4.54417,22.91753 c 9.82182,0.0602 25.22799,3.12904 34.68625,7.58122 2.51036,1.52803 8.73993,5.95547 10.85835,12.13586 1.22186,6.47344 -0.11124,49.6015 -19.67304,53.26964 -13.16992,2.46952 -45.71576,-9.24276 -48.28729,-22.35544 -4.77635,-24.35616 8.07454,-46.6254 14.8824,-49.62892 1.60595,-0.70858 4.25932,-1.02246 7.53333,-1.00236 z m 75.58502,13.40435 c 0.49818,-5.9e-4 0.91007,0.0921 1.20089,0.29987 1.86279,1.33097 -6.49319,9.48321 -9.62884,11.62158 -1.88081,-1.59957 -2.75722,-3.98173 -2.76635,-5.74012 -0.009,-1.60748 7.70683,-6.17742 11.1943,-6.18133 z m -70.83935,78.50207 c 0.28964,0 0.57675,0.0138 0.86059,0.0319 3.85459,1.72413 4.89939,9.15059 -0.12646,12.67522 -4.06045,2.84754 -13.11117,-4.69088 -12.81208,-7.70073 2.82045,-3.38515 7.73345,-5.05206 12.07795,-5.00656 z"
       id="path4477"
       inkscape:export-filename="C:\Users\el Gaulo\Desktop\path4529.png"
       inkscape:export-xdpi="299"
       inkscape:export-ydpi="299"
       inkscape:connector-curvature="0" />
    <path
       style="fill:#ffffff;fill-rule:evenodd;stroke:none;stroke-width:5;stroke-linecap:butt;stroke-linejoin:miter;stroke-miterlimit:4;stroke-dasharray:none;stroke-opacity:1"
       d="m 434.66376,499.53999 c 2.11415,0.14728 10.83479,5.45851 11.20077,9.03291 0.19372,1.89167 -4.11431,6.57452 -5.41972,5.96172 -4.34588,-2.04013 -10.65653,-5.41892 -11.11041,-7.22628 -0.75555,-3.00796 3.22836,-7.91472 5.32936,-7.76835 z"
       id="path4485"
       inkscape:connector-curvature="0"
       sodipodi:nodetypes="sssss"
       inkscape:export-filename="C:\Users\el Gaulo\Desktop\path4529.png"
       inkscape:export-xdpi="299"
       inkscape:export-ydpi="299" />
    <path
       style="fill:#ffffff;fill-rule:evenodd;stroke:none;stroke-width:5;stroke-linecap:butt;stroke-linejoin:miter;stroke-miterlimit:4;stroke-dasharray:none;stroke-opacity:1"
       d="m 424.74116,510.01178 c 2.0399,0.56933 11.10868,5.79859 10.76388,9.09219 -0.31801,3.0377 -4.3043,7.26098 -5.62873,5.9088 -1.61858,-1.65245 -7.80333,-5.43689 -10.79945,-6.89789 -2.21557,-1.08035 3.42102,-8.72927 5.6643,-8.1031 z"
       id="path4487"
       inkscape:connector-curvature="0"
       sodipodi:nodetypes="sssss"
       inkscape:export-filename="C:\Users\el Gaulo\Desktop\path4529.png"
       inkscape:export-xdpi="299"
       inkscape:export-ydpi="299" />
    <path
       style="fill:#ffffff;fill-rule:evenodd;stroke:none;stroke-width:5;stroke-linecap:butt;stroke-linejoin:miter;stroke-miterlimit:4;stroke-dasharray:none;stroke-opacity:1"
       d="m 448.12283,522.84488 c 9.15539,3.43843 27.15783,5.28643 43.86063,7.24631 16.70275,1.95988 32.04892,4.10739 35.9903,8.10965 7.73519,7.85475 7.62449,15.56681 2.16789,16.16895 -9.9117,1.09364 2.48607,-9.72481 -86.76166,-23.99202 -7.76036,-1.24062 0.0253,-5.00424 2.47915,-5.27212 1.2992,-0.14186 0.35131,-2.97894 2.26369,-2.26077 z"
       id="path4489"
       inkscape:connector-curvature="0"
       sodipodi:nodetypes="sssssss"
       inkscape:export-filename="C:\Users\el Gaulo\Desktop\path4529.png"
       inkscape:export-xdpi="299"
       inkscape:export-ydpi="299" />
    <path
       style="fill:#ffffff;fill-rule:evenodd;stroke:none;stroke-width:5;stroke-linecap:butt;stroke-linejoin:miter;stroke-miterlimit:4;stroke-dasharray:none;stroke-opacity:1"
       d="m 409.21758,513.15918 c -15.38388,-29.08096 -48.64585,-30.3993 -77.2855,-42.47515 -5.70456,-2.40529 -15.99735,14.55945 -10.60281,15.84035 19.51609,4.63414 49.91174,27.15931 50.01202,37.36536 0.0718,7.29211 8.48961,17.98265 13.15773,11.24156 8.32631,-12.0239 28.28333,-15.2335 24.71856,-21.97212 z"
       id="path4491"
       inkscape:connector-curvature="0"
       sodipodi:nodetypes="ssssss"
       inkscape:export-filename="C:\Users\el Gaulo\Desktop\path4529.png"
       inkscape:export-xdpi="299"
       inkscape:export-ydpi="299" />
    <path
       style="fill:#ffffff;fill-rule:evenodd;stroke:none;stroke-width:5;stroke-linecap:butt;stroke-linejoin:miter;stroke-miterlimit:4;stroke-dasharray:none;stroke-opacity:1"
       d="m 250.53599,433.02585 c -5.99509,-1.91173 -1.67272,6.03809 0.49061,6.73841 20.53342,6.64677 45.90704,16.3742 67.30974,32.84555 2.14329,1.64951 8.07966,-4.60931 5.73937,-5.94971 -21.55048,-12.34308 -43.85621,-24.16884 -73.53972,-33.63425 z"
       id="path4493"
       inkscape:connector-curvature="0"
       sodipodi:nodetypes="sssss"
       inkscape:export-filename="C:\Users\el Gaulo\Desktop\path4529.png"
       inkscape:export-xdpi="299"
       inkscape:export-ydpi="299" />
    <path
       style="fill:#ffffff;fill-rule:evenodd;stroke:none;stroke-width:5;stroke-linecap:butt;stroke-linejoin:miter;stroke-miterlimit:4;stroke-dasharray:none;stroke-opacity:1"
       d="m 233.12155,446.47646 c 22.15147,15.92924 51.61181,27.21706 77.1578,37.55694 2.9851,1.20819 9.60265,-8.01264 6.89818,-9.19763 -4.97661,-2.18061 -50.75557,-18.60952 -77.41328,-33.98005 -2.62958,-1.51622 -10.00315,3.20427 -6.6427,5.62074 z"
       id="path4495"
       inkscape:connector-curvature="0"
       sodipodi:nodetypes="sssss"
       inkscape:export-filename="C:\Users\el Gaulo\Desktop\path4529.png"
       inkscape:export-xdpi="299"
       inkscape:export-ydpi="299" />
    <path
       style="fill:#ffffff;fill-rule:evenodd;stroke:none;stroke-width:5;stroke-linecap:butt;stroke-linejoin:miter;stroke-miterlimit:4;stroke-dasharray:none;stroke-opacity:1"
       d="m 162.18054,366.19346 c 8.63822,6.51139 50.34925,44.48405 81.70353,64.09137 -0.95051,1.53156 -2.34386,3.83565 0.25451,7.65732 -8.07634,-2.183 -10.23003,-0.25554 -16.89326,3.93552 -20.15975,-15.26042 -46.29826,-34.33994 -61.95619,-53.78051 2.80248,-2.40966 35.33256,30.7577 38.62212,27.46816 -44.11526,-36.63583 -49.18314,-54.98943 -41.73071,-49.37186 z"
       id="path4497"
       inkscape:connector-curvature="0"
       sodipodi:nodetypes="scccccs"
       inkscape:export-filename="C:\Users\el Gaulo\Desktop\path4529.png"
       inkscape:export-xdpi="299"
       inkscape:export-ydpi="299" />
    <path
       style="fill:#ffffff;fill-rule:evenodd;stroke:none;stroke-width:5;stroke-linecap:butt;stroke-linejoin:miter;stroke-miterlimit:4;stroke-dasharray:none;stroke-opacity:1"
       d="m 513.77131,592.85635 c 4.39987,-0.0867 11.22563,7.50571 6.33681,13.79857 -74.20675,95.51788 -156.53839,111.08337 -186.16138,115.45602 -2.58858,0.38215 -7.46972,-1.68626 -4.69713,-4.51639 17.61346,-17.97891 80.09575,-46.03035 41.0095,-50.94568 37.74839,-23.08612 76.81253,-44.72499 110.02087,-72.80532 25.24881,21.36507 28.40652,-0.88698 33.49133,-0.9872 z"
       id="path4499"
       inkscape:connector-curvature="0"
       sodipodi:nodetypes="ssssccs"
       inkscape:export-filename="C:\Users\el Gaulo\Desktop\path4529.png"
       inkscape:export-xdpi="299"
       inkscape:export-ydpi="299" />
    <path
       style="fill:#ffffff;fill-rule:evenodd;stroke:none;stroke-width:5;stroke-linecap:butt;stroke-linejoin:miter;stroke-miterlimit:4;stroke-dasharray:none;stroke-opacity:1"
       d="m 438.54789,537.47825 c 2.11117,-1.02087 22.28123,13.46908 33.90019,17.22928 11.80594,3.82081 31.58797,19.20468 35.65327,26.85128 11.42103,21.48216 -10.97373,35.51159 -18.78852,15.35599 -7.01492,-18.0928 -30.69203,-30.07178 -37.03487,-32.51851 -5.18406,-1.9997 -17.69124,6.91786 -20.23376,-3.07115 -2.60758,-10.2449 -0.22223,-20.5948 6.50369,-23.84689 z"
       id="path4501"
       inkscape:connector-curvature="0"
       sodipodi:nodetypes="sssssss"
       inkscape:export-filename="C:\Users\el Gaulo\Desktop\path4529.png"
       inkscape:export-xdpi="299"
       inkscape:export-ydpi="299" />
    <path
       style="fill:#ffffff;fill-rule:evenodd;stroke:none;stroke-width:5;stroke-linecap:butt;stroke-linejoin:miter;stroke-miterlimit:4;stroke-dasharray:none;stroke-opacity:1"
       d="m 415.30874,521.99265 c 4.45204,1.26123 9.84402,4.35203 13.56623,6.90834 -8.60117,25.25541 7.1612,31.47134 -31.87849,46.51545 -26.55198,10.23192 -57.41591,35.77953 -81.11552,60.33988 -2.49897,2.58965 -8.45908,-2.93895 -5.41979,-7.58761 21.26123,-32.52004 94.07548,-109.22778 104.84757,-106.17606 z"
       id="path4503"
       inkscape:connector-curvature="0"
       sodipodi:nodetypes="scssss"
       inkscape:export-filename="C:\Users\el Gaulo\Desktop\path4529.png"
       inkscape:export-xdpi="299"
       inkscape:export-ydpi="299" />
    <path
       style="fill:#ffffff;fill-rule:evenodd;stroke:none;stroke-width:5;stroke-linecap:butt;stroke-linejoin:miter;stroke-miterlimit:4;stroke-dasharray:none;stroke-opacity:1"
       d="m 303.97433,638.85976 c -0.39116,-0.007 -0.79174,0.053 -1.2014,0.18326 -27.37935,8.68714 -53.82484,33.8189 -81.01489,44.94884 8.32325,6.55035 35.20227,11.47015 -14.14143,32.30973 -3.96135,1.6731 8.13983,4.26869 11.60235,3.16549 13.88719,-4.4246 21.87199,-7.80295 34.60576,-12.89254 1.83139,-0.73201 4.33863,0.1343 0.51326,2.32622 -9.27649,5.31523 -22.4726,9.62041 -31.38202,13.12377 31.02143,5.75658 55.98908,-4.34175 67.18127,-26.74158 3.40834,-6.82128 23.40264,-8.67544 24.11799,-14.54298 1.76235,-14.45596 -2.32675,-41.7537 -10.28089,-41.88021 z m -22.92799,35.88223 c 3.68092,-0.0377 7.49867,1.82436 9.69006,5.4872 1.94748,3.25501 -16.11141,19.93837 -21.46517,18.2153 -4.1055,-1.32122 6.74133,-22.85607 9.75524,-23.48518 0.66104,-0.13795 1.33827,-0.21028 2.01987,-0.21732 z"
       id="path4505"
       inkscape:export-filename="C:\Users\el Gaulo\Desktop\path4529.png"
       inkscape:export-xdpi="299"
       inkscape:export-ydpi="299"
       inkscape:connector-curvature="0" />
    <path
       style="fill:#ffffff;fill-rule:evenodd;stroke:none;stroke-width:5;stroke-linecap:butt;stroke-linejoin:miter;stroke-miterlimit:4;stroke-dasharray:none;stroke-opacity:1"
       d="m 163.59792,697.18014 c 0.87726,-0.50985 3.01847,-0.8497 4.43064,-0.0319 1.07063,0.61999 2.91934,5.56547 1.57299,6.6023 -1.17359,0.90382 -3.9804,0.40588 -4.97544,-0.33214 -1.81875,-1.34912 -2.27891,-5.51143 -1.02819,-6.23823 z"
       id="path4509"
       inkscape:connector-curvature="0"
       sodipodi:nodetypes="sssss"
       inkscape:export-filename="C:\Users\el Gaulo\Desktop\path4529.png"
       inkscape:export-xdpi="299"
       inkscape:export-ydpi="299" />
    <path
       style="fill:#ffffff;fill-rule:evenodd;stroke:none;stroke-width:5;stroke-linecap:butt;stroke-linejoin:miter;stroke-miterlimit:4;stroke-dasharray:none;stroke-opacity:1"
       d="m 176.4547,695.9374 c 1.5151,-1.40911 4.45832,-1.60074 6.46176,-0.74451 1.8715,0.79987 3.61966,3.66446 3.54021,6.78109 -0.0609,2.37955 -8.06314,2.23421 -9.32126,1.34853 -2.10572,-1.48238 -3.28693,-4.96116 -0.68071,-7.38511 z"
       id="path4511"
       inkscape:connector-curvature="0"
       sodipodi:nodetypes="sssss"
       inkscape:export-filename="C:\Users\el Gaulo\Desktop\path4529.png"
       inkscape:export-xdpi="299"
       inkscape:export-ydpi="299" />
    <path
       style="fill:#ffffff;fill-rule:evenodd;stroke:none;stroke-width:5;stroke-linecap:butt;stroke-linejoin:miter;stroke-miterlimit:4;stroke-dasharray:none;stroke-opacity:1"
       d="m 193.30428,693.2508 c -0.81365,1.89232 -0.85776,7.0166 1.21945,8.44579 2.616,1.79991 14.44736,1.74643 13.50418,-1.62598 -0.83164,-2.9737 -3.15974,-7.23824 -5.96169,-8.12958 -4.18149,-1.33018 -8.31977,0.28143 -8.76194,1.30977 z"
       id="path4513"
       inkscape:connector-curvature="0"
       sodipodi:nodetypes="sssss"
       inkscape:export-filename="C:\Users\el Gaulo\Desktop\path4529.png"
       inkscape:export-xdpi="299"
       inkscape:export-ydpi="299" />
    <path
       style="fill:#ffffff;fill-rule:evenodd;stroke:none;stroke-width:5;stroke-linecap:butt;stroke-linejoin:miter;stroke-miterlimit:4;stroke-dasharray:none;stroke-opacity:1"
       d="m 210.91848,689.77311 c -0.13577,3.17403 2.53328,9.87162 5.2391,9.57494 3.26771,-0.35838 9.16232,-0.23068 8.17476,-4.01968 -1.46506,-5.62114 -6.14172,-9.02175 -8.3554,-8.62641 -3.72351,0.66498 -4.96834,0.96449 -5.05846,3.07115 z"
       id="path4515"
       inkscape:connector-curvature="0"
       sodipodi:nodetypes="sssss"
       inkscape:export-filename="C:\Users\el Gaulo\Desktop\path4529.png"
       inkscape:export-xdpi="299"
       inkscape:export-ydpi="299" />
    <path
       style="fill:#ffffff;fill-rule:evenodd;stroke:none;stroke-width:5;stroke-linecap:butt;stroke-linejoin:miter;stroke-miterlimit:4;stroke-dasharray:none;stroke-opacity:1"
       d="m 417.04957,564.03497 c 3.65574,2.5938 14.44394,12.21798 22.04032,14.99463 10.62458,3.88357 3.27613,7.00164 -5.87137,3.16154 -9.25343,-3.88457 -14.7026,-8.74886 -22.31132,-14.09137 z"
       id="path4517"
       inkscape:connector-curvature="0"
       sodipodi:nodetypes="csscc"
       inkscape:export-filename="C:\Users\el Gaulo\Desktop\path4529.png"
       inkscape:export-xdpi="299"
       inkscape:export-ydpi="299" />
    <path
       style="fill:#ffffff;fill-rule:evenodd;stroke:none;stroke-width:5;stroke-linecap:butt;stroke-linejoin:miter;stroke-miterlimit:4;stroke-dasharray:none;stroke-opacity:1"
       d="m 407.9602,569.64426 c 5.91678,8.09318 14.8081,19.75287 25.33725,28.46516 3.43198,2.8397 1.11984,4.5732 -3.05298,2.76655 -14.20829,-6.15165 -21.92338,-17.21382 -32.55673,-26.66124 z"
       id="path4519"
       inkscape:connector-curvature="0"
       sodipodi:nodetypes="csscc"
       inkscape:export-filename="C:\Users\el Gaulo\Desktop\path4529.png"
       inkscape:export-xdpi="299"
       inkscape:export-ydpi="299" />
    <path
       style="fill:#ffffff;fill-rule:evenodd;stroke:none;stroke-width:5;stroke-linecap:butt;stroke-linejoin:miter;stroke-miterlimit:4;stroke-dasharray:none;stroke-opacity:1"
       d="m 391.93811,576.04877 c 0,0 6.72637,28.14258 9.57485,30.44094 2.03048,1.63822 36.864,7.23273 53.29421,8.12961 l -3.93071,3.14413 c -29.85836,-1.99216 -61.56728,-6.30823 -62.77868,-8.45168 -1.12924,-1.99799 2.94463,-6.09958 2.83122,-8.78385 -0.1264,-2.9914 -4.21724,-14.35046 -5.50554,-21.36606 z"
       id="path4521"
       inkscape:connector-curvature="0"
       sodipodi:nodetypes="csccsscc"
       inkscape:export-filename="C:\Users\el Gaulo\Desktop\path4529.png"
       inkscape:export-xdpi="299"
       inkscape:export-ydpi="299" />
    <path
       style="fill:#ffffff;fill-rule:evenodd;stroke:none;stroke-width:5;stroke-linecap:butt;stroke-linejoin:miter;stroke-miterlimit:4;stroke-dasharray:none;stroke-opacity:1"
       d="m 373.01747,586.58405 c 2.32899,10.164 5.1176,30.32193 10.88209,32.75481 3.55031,1.49828 34.52445,7.5311 52.48036,8.24859 l -5.19028,3.41623 c -20.65204,-1.46904 -60.75103,-6.20593 -62.46256,-8.90024 -1.44276,-2.27105 2.67281,-6.61637 2.49102,-9.32988 -0.25484,-3.80397 -2.90094,-13.73252 -4.393,-22.09264 z"
       id="path4523"
       inkscape:connector-curvature="0"
       sodipodi:nodetypes="csccsscc"
       inkscape:export-filename="C:\Users\el Gaulo\Desktop\path4529.png"
       inkscape:export-xdpi="299"
       inkscape:export-ydpi="299" />
    <path
       style="fill:#ffffff;fill-rule:evenodd;stroke:none;stroke-width:5;stroke-linecap:butt;stroke-linejoin:miter;stroke-miterlimit:4;stroke-dasharray:none;stroke-opacity:1"
       d="m 353.59336,600.12145 c 3.24202,12.56526 8.454,29.07042 13.53248,30.95965 11.97546,3.35897 35.91535,7.41615 50.64641,8.28835 l -4.65594,2.98996 c -21.12975,-1.34723 -60.80095,-5.48089 -61.96184,-7.19024 -1.03485,-1.52366 2.70096,-6.82546 2.21303,-9.2587 -0.97144,-4.84506 -4.35212,-13.20315 -5.73584,-20.82089 z"
       id="path4525"
       inkscape:connector-curvature="0"
       sodipodi:nodetypes="ccccsscc"
       inkscape:export-filename="C:\Users\el Gaulo\Desktop\path4529.png"
       inkscape:export-xdpi="299"
       inkscape:export-ydpi="299" />
    <path
       style="fill:#ffffff;fill-rule:evenodd;stroke:none;stroke-width:5;stroke-linecap:butt;stroke-linejoin:miter;stroke-miterlimit:4;stroke-dasharray:none;stroke-opacity:1"
       d="m 336.40312,614.20522 c 3.12093,9.82374 8.28111,25.75418 13.2945,29.18513 3.51548,2.34653 36.84907,2.94911 57.67146,2.50197 l -4.81161,2.81414 c -22.84134,1.01056 -64.23278,1.31501 -66.08514,-0.82693 -1.33589,-1.54464 0.68516,-5.14451 0.81563,-7.81143 0.1461,-2.98705 -4.32291,-12.18199 -6.31398,-20.88082 z"
       id="path4527"
       inkscape:connector-curvature="0"
       sodipodi:nodetypes="ccccsscc"
       inkscape:export-filename="C:\Users\el Gaulo\Desktop\path4529.png"
       inkscape:export-xdpi="299"
       inkscape:export-ydpi="299" />
    <path
       style="fill:#ffffff;fill-rule:evenodd;stroke:none;stroke-width:5;stroke-linecap:butt;stroke-linejoin:miter;stroke-miterlimit:4;stroke-dasharray:none;stroke-opacity:1"
       d="m 322.54283,626.97972 c 0.7612,10.25397 0.0501,25.7626 4.21559,28.99799 2.93406,2.27891 51.97799,-1.23556 68.21566,-2.93807 l -4.63467,2.9328 c -22.94089,3.29686 -65.66465,7.25237 -67.28565,5.33958 -2.52966,-2.98516 -5.17649,-16.41686 -4.37162,-30.35673 z"
       id="path4529"
       inkscape:connector-curvature="0"
       sodipodi:nodetypes="csccscc"
       inkscape:export-filename="C:\Users\el Gaulo\Desktop\path4529.png"
       inkscape:export-xdpi="299"
       inkscape:export-ydpi="299" />
  </g>
</svg>
